<svg width="93" height="86" viewBox="0 0 93 86" fill="none" xmlns="http://www.w3.org/2000/svg">
<path d="M42.5409 51.9048C42.2513 45.5012 42.3157 39.0976 42.4122 32.7261C42.4444 31.4711 42.6375 30.184 42.8627 28.929C42.9914 28.1245 43.5385 27.4809 44.2464 27.0304C44.7935 26.6764 44.9222 26.3546 44.5039 25.7432C44.0212 25.0997 43.635 24.3595 43.5063 23.5229C43.4098 23.008 43.442 22.5253 43.9568 22.2679C44.4395 22.0426 44.7291 22.461 44.9866 22.7828C45.5336 23.4263 45.8876 24.1665 46.2094 24.9066C46.499 25.5823 46.8529 25.7111 47.4965 25.518C48.5584 25.164 48.4941 25.1962 48.2366 24.0699C48.0436 23.2976 47.7218 22.4932 47.9792 21.6565C48.0757 21.2703 48.2688 20.9486 48.655 20.852C49.1055 20.7555 49.2985 21.1738 49.4594 21.4956C49.91 22.3644 50.103 23.3298 50.2639 24.2952C50.3283 24.7779 50.5857 24.9066 51.0362 24.9066C53.7071 24.7457 56.2814 25.2284 58.6948 26.3546C61.3657 27.5774 63.8757 29.0577 65.7099 31.4389C67.3832 33.5949 67.0936 36.2658 65.2594 37.6173C64.3584 38.2931 63.2321 38.5505 62.2024 38.8723C61.2692 39.1619 60.336 39.3228 59.435 39.8055C58.8236 40.1273 58.5661 40.5134 58.5661 41.1892C58.5661 44.1497 58.7914 47.1102 58.9845 50.0706C59.2097 53.0633 59.5315 56.0559 59.7568 59.0808C59.8855 60.6576 59.9498 62.2665 60.2073 63.8433C60.336 64.5834 60.9474 64.9695 61.4622 65.4522C61.5266 65.5166 61.6231 65.4844 61.6875 65.5488C61.8806 65.774 62.4276 65.8706 62.2667 66.1924C62.0736 66.5463 61.7197 66.1602 61.4622 66.0315C60.4969 65.581 60.3038 65.7097 60.2394 66.7394C60.1429 68.1875 60.5934 69.539 60.7221 70.9549C60.8508 72.5316 60.9474 74.1084 61.0761 75.653C61.237 77.6803 61.5588 79.6754 62.2024 81.6061C62.492 82.5393 62.3954 83.4403 62.1058 84.3414C61.784 85.3067 60.9152 85.3711 60.1429 85.3711C57.6973 85.4354 55.2517 85.4676 52.8382 85.4998C47.8505 85.5642 42.8627 85.5964 37.875 85.6607C36.7165 85.6607 36.4913 85.3067 37.0061 84.277C37.1027 84.0839 37.1027 83.8587 37.1349 83.6656C37.4566 81.7027 37.0061 79.7719 36.4913 77.9377C35.8477 75.5886 35.0432 73.3039 34.3031 70.987C34.2387 70.6331 34.5283 70.6652 34.7214 70.6009C35.6224 70.6974 36.3947 71.1158 37.1349 71.5663C37.5854 71.8559 38.0037 72.3707 38.4542 71.5341C38.6151 71.2445 38.8403 71.5341 38.9691 71.7593C39.4196 74.0119 39.8057 76.2644 40.1597 78.5491C40.2884 79.3214 40.5137 80.0615 40.7389 80.8017C40.8033 80.9626 40.8354 81.1878 41.0607 81.22C41.286 81.2522 41.3825 81.0591 41.479 80.8982C42.0904 79.7397 42.7018 78.5491 42.734 77.2298C42.7984 73.851 42.7984 70.5044 42.7018 67.1255C42.6697 66.0315 42.6053 64.9374 42.5731 63.8433C42.6053 63.4571 42.0904 63.425 42.0904 63.071C42.3479 62.4596 42.7662 62.0412 43.4741 61.9125C43.9568 62.0091 43.989 62.3952 44.0212 62.7814C44.3108 67.2221 44.1821 71.6306 44.1821 76.0713C44.1821 76.7793 43.989 77.4872 44.0534 78.2273C44.0212 80.8338 42.7018 82.7968 39.8057 84.5344C43.6672 84.8884 47.5931 84.5988 51.4867 84.5988C51.712 84.5988 52.0338 84.6632 52.1303 84.3735C52.2268 84.0839 51.9694 83.8909 51.7442 83.73C51.3258 83.4082 50.8431 83.2473 50.3605 83.1507C50.103 83.0864 49.8456 83.0542 49.556 83.022C47.9148 82.668 47.6252 82.121 48.3975 80.6408C48.8802 79.7076 49.1698 78.7744 48.5263 77.809C48.3332 77.6481 48.1723 77.5194 47.947 77.3907C47.6574 77.1976 47.3356 77.1976 47.046 77.0689C46.7886 76.9724 46.5311 76.8436 46.5955 76.4897C46.6599 76.2001 46.9173 76.1679 47.1747 76.1357C49.1377 75.8461 50.6179 77.2298 50.4248 79.1927C50.3605 79.8685 50.2961 80.5764 49.9421 81.1878C49.6847 81.6383 49.8456 81.8636 50.3283 81.9923C50.6501 82.0888 51.004 82.1532 51.3258 82.2497C52.4199 82.5072 53.4175 82.9255 53.9002 84.0839C53.9645 84.2448 54.0289 84.4701 54.2863 84.4379C54.4794 84.4379 54.5437 84.2448 54.5759 84.0839C54.9299 82.9577 55.8631 82.5715 56.8285 82.2497C56.8928 82.2497 56.925 82.2175 56.9894 82.2175C58.4374 81.8958 58.4052 81.8958 57.9547 80.5442C57.7295 79.9006 57.6651 79.2249 57.6973 78.5813C57.7617 77.6159 58.18 76.7471 59.1775 76.3931C59.7246 76.2001 59.8211 75.8783 59.7568 75.299C59.6602 74.1084 59.4993 72.9178 59.5315 71.695C59.5637 70.2147 59.2097 68.7667 59.1454 67.3186C59.1132 66.8038 59.0488 66.2567 59.0488 65.7097C59.0488 65.3235 58.8879 65.0661 58.5983 64.8408C57.9547 64.3581 57.8582 64.3903 57.4399 65.0339C56.7641 66.0636 55.9596 66.4176 54.769 66.0958C54.3185 65.9671 54.1898 66.0958 54.1576 66.5141C54.0932 67.1255 53.8358 67.6404 53.3853 68.0587C52.1947 69.0885 50.6179 68.7667 49.8456 67.2543C48.9446 65.5166 48.4297 63.6824 48.4297 61.7195C48.4619 60.7541 48.2366 59.8209 48.2366 58.8555C48.2366 58.1476 47.5609 57.9545 47.046 57.6971C46.8208 57.5684 46.499 57.6327 46.3381 57.3753C46.3059 56.9248 46.145 56.3777 46.499 56.1203C46.8851 55.8629 47.1426 56.4421 47.4965 56.603C47.5609 56.6352 47.6574 56.6352 47.7218 56.603C48.1079 56.249 47.8827 55.7985 47.947 55.3802C48.0114 55.0584 47.947 54.6079 48.4297 54.6079C48.8802 54.6079 48.9768 54.994 49.0089 55.348C49.0411 55.7663 49.1698 56.1847 49.1698 56.6352C49.1377 57.504 49.6525 57.9223 50.3605 58.2119C50.5857 57.9867 50.457 57.7614 50.4248 57.5684C50.3283 56.8926 50.3605 56.2168 50.3605 55.5733C50.3605 55.1871 50.3605 54.7688 50.9075 54.7366C51.3902 54.7044 51.5511 55.0584 51.5833 55.4767C51.712 56.4099 51.9372 57.3109 52.066 58.2441C52.1947 59.1773 52.613 59.8209 53.4497 60.2714C54.1576 60.6576 54.3507 60.6254 54.5759 59.8209C54.8012 58.9842 55.0908 58.1798 55.2195 57.3431C55.3804 56.3777 55.67 55.4767 55.7987 54.5113C55.8309 54.2217 55.8953 53.8034 56.3136 53.8356C56.7641 53.8678 56.7319 54.2861 56.7319 54.5757C56.7963 56.6673 56.5067 58.7268 55.8309 60.7541C55.7022 61.1081 55.6057 61.462 55.5091 61.816C55.3804 62.2665 55.5091 62.5883 55.9596 62.7814C56.571 63.071 56.7641 63.0388 56.9572 62.363C57.279 61.269 57.4399 60.1427 57.5686 59.0486C57.7295 57.6327 57.7938 56.1847 57.9225 54.7366C58.0191 53.5138 57.7938 52.291 57.7295 51.0682C57.5686 48.0433 57.1181 45.0507 57.1502 42.0259C57.1502 40.0629 57.7295 39.2263 59.5959 38.5183C60.0785 38.3253 60.6899 38.2609 61.0439 37.8748C61.4622 37.4242 61.0439 36.845 61.0117 36.3302C60.9796 34.8821 61.4301 33.5306 61.9128 32.2112C62.5885 30.4414 62.5885 30.4414 61.0117 29.3795C59.628 28.4463 58.1478 27.7062 56.5388 27.2235C54.2541 26.419 51.9051 26.2903 49.5238 26.7086C48.9124 26.8051 48.2366 26.8695 47.6574 27.1269C47.5931 27.1591 47.4965 27.1913 47.4322 27.2235C46.9817 27.2878 46.5311 27.4809 46.145 27.7062C45.0509 28.221 44.3108 29.0255 43.989 30.184C43.6672 31.986 43.7316 33.788 43.635 35.6222C43.5385 37.5851 43.6029 39.5802 43.6029 41.5432C43.6029 45.2759 43.8603 49.0087 43.7637 52.7737C43.7637 53.2242 43.9246 53.6747 43.9568 54.1252C44.1177 54.4792 44.6969 54.4792 44.6969 54.9619C44.6326 55.2193 44.4073 55.2515 44.1821 55.2515C43.3776 54.994 42.6375 54.6401 42.1226 53.9643C42.4122 53.1276 42.8306 52.6128 42.5409 51.9048Z" fill="#1D1D1B"/>
<path d="M29.7653 57.6645C30.248 57.1818 29.9262 56.6348 29.7653 56.1521C29.0574 53.8996 28.2851 51.647 27.545 49.4267C26.3544 45.8548 25.2281 42.2507 23.9731 38.6789C23.5548 37.5204 23.0077 36.362 22.879 35.1392C22.6216 32.4361 24.0696 30.8915 26.6118 30.2158C28.3495 29.7331 30.1193 29.8296 31.7926 30.6663C32.6615 31.1168 33.4016 31.7603 33.4016 33.2084C33.3694 35.4288 33.7234 37.6169 34.013 39.8051C34.2383 41.3819 34.3348 42.9587 34.6244 44.5354C34.8819 46.0157 34.8497 47.5603 35.3967 49.0083C35.2036 49.3301 34.8497 49.5554 34.9462 50.0059C34.8819 50.2955 34.8175 50.5851 34.8175 50.9069C34.8175 51.0356 34.7853 51.1322 34.721 51.2287C34.4957 51.5827 34.367 51.9688 34.2705 52.3871C33.4982 54.704 32.1144 56.5061 30.055 57.7932C29.9584 57.8254 29.8297 57.7932 29.7653 57.6645Z" fill="#1D1D1B"/>
<path d="M34.6244 51.2619C34.6244 51.1653 34.6566 51.0688 34.6566 50.9722C34.7532 50.5861 34.9784 50.1999 34.9784 49.7816C34.9784 49.5564 35.1393 49.4276 35.3646 49.3633C36.2012 49.492 36.7161 50.1678 37.3918 50.5217C38.0676 50.9079 38.679 51.4227 39.3869 51.8089C39.6766 52.002 40.0305 52.1307 40.1271 52.4847C40.2558 53.0961 40.1592 53.7396 40.1592 54.351C40.1592 55.2199 39.6766 55.9278 39.3226 56.6679C38.5825 58.1482 37.5849 59.4032 36.2012 60.3364C34.8497 61.2374 34.0452 62.6211 33.4338 64.1013C32.8224 65.5815 32.4684 67.1261 32.4363 68.7673C32.4363 69.5396 32.211 69.6683 31.5031 69.3465C31.1813 69.1856 30.8273 69.0247 30.4733 68.8638C29.3792 68.3168 28.253 67.8663 27.1589 67.3514H27.1267C26.8371 67.2549 26.7727 66.9974 26.7406 66.7078C26.6762 64.9701 26.998 63.2647 27.545 61.6235C27.8668 60.5938 28.3173 59.6606 28.9609 58.7918C29.2827 58.3412 29.6367 57.9873 30.1194 57.6977C31.9536 56.314 33.3695 54.5763 34.1739 52.3881C34.367 52.0341 34.4314 51.6158 34.6244 51.2619Z" fill="#2370B8"/>
<path d="M81.6059 3.47558C81.6059 3.86173 81.6059 4.28006 81.6059 4.66621C81.6059 4.988 81.4128 5.4385 81.8633 5.56722C82.3782 5.69594 82.9253 5.76029 83.3758 5.30979C83.7297 4.95582 83.955 4.53749 83.8906 4.02262C83.7941 3.2825 84.1481 3.05725 84.8238 3.15379C85.403 3.21815 86.0144 3.05725 86.5615 3.57212C87.5912 4.50531 87.7843 5.47068 87.1085 6.69349C86.9798 6.91874 86.8189 7.144 86.658 7.36925C86.3362 7.78758 86.3362 8.20591 86.6902 8.59205C87.2694 9.29999 87.4625 10.1367 87.4625 11.0377C87.4625 12.7753 87.4625 14.513 87.4947 16.2507C87.4947 16.669 87.4303 16.8621 86.9798 16.7977C86.304 16.7012 85.6283 16.9586 84.9847 16.5081C84.1159 15.9289 83.8263 15.2531 83.9228 14.2234C84.0193 12.7432 83.8584 11.2951 83.7619 9.81486C83.6975 8.91385 83.054 9.23564 82.5713 9.17128C82.0564 9.10692 81.7668 9.33217 81.799 9.9114C81.8633 12.1639 81.9277 14.4165 81.9921 16.6368C82.0242 17.2161 81.8633 17.3769 81.2841 17.3448C80.7049 17.2804 80.0935 17.2804 79.5143 17.3448C78.5811 17.4735 77.9697 16.8943 77.3261 16.4116C77.0687 16.2185 77.1652 15.9289 77.1652 15.6715C77.1974 13.1937 77.2617 10.7481 77.2617 8.27026C77.2617 5.72812 77.1974 3.18597 77.3261 0.643819C77.3583 0.225491 77.4548 0.161133 77.8088 0.161133C78.5489 0.193312 79.3212 0.161133 80.0613 0.193312C80.7693 0.225491 81.7346 1.25522 81.7346 1.96316C81.7346 2.44585 81.7346 2.92853 81.7346 3.41122C81.6381 3.47558 81.6059 3.47558 81.6059 3.47558Z" fill="#281B15"/>
<path d="M21.4956 9.87895C21.3669 11.2948 21.5278 12.6785 21.206 14.0301C20.5946 16.5722 18.1168 17.3445 16.3791 17.1514C14.4484 16.9262 12.936 15.8321 11.7775 14.3197C11.2305 13.6117 11.0052 12.7107 11.1339 11.681C11.327 10.072 11.1018 8.43089 11.1983 6.78976C11.2305 6.114 11.3592 5.85657 12.0993 5.88875C13.6761 5.9531 14.5127 6.7254 14.5771 8.30218C14.6415 9.71806 14.738 11.1339 14.8345 12.5498C14.8667 12.9038 14.6093 13.483 15.3172 13.5474C16.0252 13.6117 16.7331 13.129 16.7975 12.5176C16.8296 12.035 16.8296 11.5523 16.8296 11.0696C16.7653 9.42845 16.7331 7.81949 16.6044 6.17836C16.5722 5.47042 16.8618 5.27734 17.4732 5.27734C18.2133 5.27734 18.9856 5.27734 19.7257 5.27734C20.5624 5.27734 21.4956 6.21054 21.4956 7.07937C21.5278 8.01257 21.4956 8.97794 21.4956 9.87895Z" fill="#281C16"/>
<path d="M43.6349 9.84673C43.6671 11.1339 43.7958 12.5176 43.474 13.9013C42.8948 16.2504 41.0284 17.2801 38.6472 17.1192C36.7808 17.0227 35.3971 15.8321 34.1743 14.5771C33.3055 13.676 33.2411 12.4211 33.3055 11.1982C33.3698 9.71801 33.4342 8.20559 33.4342 6.72536C33.4342 6.01742 33.6594 5.92088 34.303 5.8887C35.2684 5.82434 35.9441 6.11395 36.4912 6.88625C36.6199 7.07933 36.7486 7.2724 36.7486 7.52983C36.8452 9.17097 36.9095 10.8443 37.0382 12.4854C37.0704 12.8716 36.7808 13.4186 37.4566 13.5151C38.068 13.6117 38.8081 13.1934 39.0012 12.6463C39.1942 12.0349 39.0977 11.4235 39.0655 10.8121C39.0012 9.23532 38.9368 7.65855 38.8403 6.08177C38.8081 5.47037 39.0655 5.24512 39.6126 5.24512C40.3849 5.24512 41.1572 5.24512 41.9295 5.24512C42.7661 5.24512 43.7637 6.24267 43.7637 7.07933C43.7637 7.98034 43.6993 8.84918 43.6349 9.84673Z" fill="#281B15"/>
<path d="M54.8972 12.8718C54.8972 14.1911 54.8651 15.4783 54.8972 16.7976C54.8972 17.2803 54.7685 17.4734 54.2537 17.4734C53.417 17.4412 52.5803 17.4734 51.7759 17.4412C50.8105 17.3768 49.9095 16.4115 49.9095 15.4783C49.9095 13.7728 50.1991 12.0673 50.0704 10.3618C50.0382 9.94347 50.3922 9.29989 49.5555 9.26771C48.8798 9.23553 48.1718 9.81476 48.1396 10.4262C48.0431 12.2925 47.9144 14.1589 47.85 16.0253C47.8178 16.6045 47.6891 16.862 47.0777 16.7654C46.5629 16.6689 46.048 16.8942 45.5331 16.5724C44.7608 16.0897 44.439 15.4783 44.439 14.5451C44.4712 13.0327 44.3425 11.4881 44.3103 9.97565C44.246 7.27261 45.9836 5.82455 48.6867 5.69583C51.3254 5.56712 52.9665 7.14389 54.1893 9.139C54.8651 10.1044 54.7685 11.5524 54.8972 12.8718Z" fill="#281B15"/>
<path d="M76.5217 9.91072C76.393 11.391 76.5217 12.8069 76.1355 14.2227C75.6529 15.9926 74.2048 16.9258 72.4993 17.151C70.0859 17.4728 68.3804 16.1535 66.868 14.5445C66.2244 13.8687 66.0635 12.8712 66.0957 11.938C66.16 10.136 66.2566 8.36612 66.3209 6.56409C66.3209 6.33884 66.2566 6.04922 66.6427 6.04922C67.5759 6.04922 68.5735 5.82397 69.1849 6.88588C69.3779 7.20767 69.5388 7.52946 69.5388 7.91561C69.6032 9.52457 69.6997 11.1335 69.7963 12.7103C69.8284 13.0965 69.6997 13.6757 70.4077 13.6113C71.0191 13.547 71.727 13.3861 71.7592 12.6459C71.8235 11.2301 71.8235 9.81418 71.6948 8.3983C71.6305 7.56164 71.6626 6.75716 71.5983 5.92051C71.5661 5.50218 71.7592 5.43782 72.1132 5.40564C73.1107 5.27693 74.0761 5.34129 75.0736 5.34129C75.6529 5.34129 76.5217 6.46755 76.5217 7.14331C76.5539 8.07651 76.5217 9.04188 76.5217 9.91072Z" fill="#281B15"/>
<path d="M64.5189 0.0322266C65.5486 0.675809 65.9026 1.48029 65.7739 2.76745C65.5164 6.5324 65.3877 10.2974 65.1946 14.0623C65.1625 14.7381 65.0659 15.4138 65.0659 16.0574C65.0659 16.8619 64.7441 16.8941 64.1327 16.8619C62.8134 16.7975 61.4619 16.9263 60.1425 16.701C59.2737 16.5401 58.5014 16.2827 57.8578 15.7034C57.1177 15.0277 55.9914 14.7059 55.7662 13.6118C55.38 11.5845 54.833 9.52506 55.8305 7.52996C56.4097 6.33933 57.4717 5.72793 58.8232 5.59921C59.338 5.56703 59.8851 5.47049 60.3999 5.43831C60.8826 5.40614 60.9148 5.05217 60.9148 4.6982C60.8826 3.37885 60.8505 2.09169 60.8183 0.772346C60.6574 0.289659 60.7861 0.0322266 61.3653 0.0644056C62.4272 0.0644056 63.4891 0.0322266 64.5189 0.0322266Z" fill="#281B15"/>
<path d="M0 4.53725C0 3.28227 0 2.02728 0 0.772298C0 0.257433 0.225254 0.0643582 0.70794 0.0643582C1.28716 0.0643582 1.89857 0.0321791 2.47779 0C3.95803 0 4.69815 0.740119 4.69815 2.25254C4.69815 2.99266 4.73033 3.76495 4.69815 4.50507C4.66597 5.0843 4.89122 5.30955 5.43827 5.40609C7.14376 5.63134 8.49528 6.59671 9.58937 7.8517C10.7478 9.17104 10.5226 10.8122 10.426 12.3568C10.3617 13.29 10.2651 14.2553 9.68591 15.092C8.97797 16.0895 8.01259 16.5401 6.78979 16.7009C5.27737 16.894 3.79713 16.6366 2.31689 16.6688C1.3837 16.7009 0.547045 15.8321 0.514865 14.8667C0.386149 11.4236 0.257433 7.98041 0.0965373 4.53725C0.0643582 4.53725 0.0321791 4.53725 0 4.53725Z" fill="#281B15"/>
<path d="M22.107 8.14139C22.107 7.52999 22.1392 6.82205 22.107 6.14629C22.0748 5.69578 22.2679 5.47053 22.654 5.47053C24.5848 5.50271 26.5477 4.89131 28.4463 5.59925C30.4414 6.37155 31.8894 7.75525 32.7261 9.75035C33.0479 10.5548 32.8548 10.7479 31.986 10.7479C31.632 10.7479 31.278 10.7157 30.9562 10.7479C30.0874 10.8444 29.3795 10.5548 28.8002 9.94342C28.6072 9.75035 28.4141 9.55727 28.1888 9.42856C27.0304 8.81716 26.3868 9.20331 26.3224 10.4905C26.2259 12.4212 26.0972 14.3198 26.0006 16.2505C26.0006 16.4114 26.0328 16.5723 25.8398 16.6689C24.6491 17.3124 22.6862 16.2183 22.5897 14.8668C22.4288 12.6465 22.2679 10.4261 22.107 8.14139Z" fill="#281C16"/>
<path d="M39.934 52.3882C39.7087 52.2273 39.5156 52.0664 39.2904 51.9055C39.1295 51.7768 38.8399 51.7124 38.9686 51.3906C39.8052 51.8733 40.6419 52.3882 41.4785 52.8709C42.4117 53.3857 42.5405 53.2892 42.5083 52.2273C42.5083 52.1307 42.5083 52.002 42.5083 51.9055C42.8623 52.5813 42.6048 53.1283 42.1543 53.611C42.1221 53.6753 42.0256 53.7075 41.9612 53.7075C41.028 53.4823 40.9959 53.4823 40.7706 54.3833C40.0305 57.1829 38.4215 59.371 36.169 61.1409C34.5922 62.3637 33.7877 64.037 33.3694 65.9678C33.2085 66.7079 33.0798 67.4802 32.9833 68.2525C32.8224 69.4753 32.8867 69.604 33.9808 70.0867C34.3026 70.2154 34.7531 70.2476 34.7853 70.7303C34.5922 70.7624 34.3991 70.6981 34.2704 70.9233C33.3372 70.0867 32.1144 69.7971 31.0525 69.2822C30.7629 69.1535 30.4411 69.0891 30.248 68.7995C30.3124 68.703 30.3768 68.703 30.4411 68.7673C30.956 68.703 31.2456 69.1213 31.6961 69.25C32.0823 69.3466 32.2431 69.3144 32.2431 68.8639C32.2431 66.8044 32.7258 64.8737 33.659 63.0395C34.3991 61.5914 35.5576 60.5617 36.8126 59.5319C38.4537 58.2448 39.4191 56.4427 39.9661 54.4155C40.0305 53.7719 40.481 53.0639 39.934 52.3882Z" fill="#2F2C22"/>
<path d="M90.2309 13.3217C91.0997 12.9999 91.5503 13.6756 92.0973 14.2227C92.2904 14.4157 92.3869 14.641 92.2904 14.9306C92.1938 15.188 92.1295 15.4455 92.0651 15.7029C91.9686 16.1534 92.1295 16.8614 91.6146 16.9579C90.9389 17.0866 90.1665 16.9901 89.5551 16.5074C89.2012 16.2178 88.8472 15.9603 88.4932 15.6707C88.268 15.4777 87.8497 13.9652 88.0106 13.7722C88.3002 13.4182 88.7507 13.4504 89.1368 13.3538C89.4908 13.2573 89.8448 13.3217 90.2309 13.3217Z" fill="#281C16"/>
<path d="M30.1191 57.6972C29.3468 58.5982 28.5424 59.4992 28.0919 60.6255C27.2874 62.6528 26.8047 64.7766 26.9656 66.997C26.9656 67.1257 27.0621 67.2222 27.1265 67.3509C26.8691 67.3831 26.5794 67.4153 26.5794 66.997C26.5473 63.8434 27.0943 60.8508 29.1216 58.2764C29.3147 58.0512 29.5399 57.8903 29.733 57.665C29.8617 57.665 29.9904 57.6972 30.1191 57.6972Z" fill="#2F2C22"/>
<path d="M39.0009 51.3905C39.0974 51.5514 39.194 51.7123 39.3227 51.9054C38.0999 51.2618 37.038 50.4574 35.8795 49.7172C35.7508 49.6207 35.5899 49.5563 35.4612 49.492C35.2038 49.3633 35.075 49.4276 35.0429 49.7172C35.0429 49.846 35.075 50.039 34.8176 49.9747C34.8176 49.5242 34.7211 49.0093 35.4612 49.0415C36.6196 49.7816 37.8746 50.4895 39.0009 51.3905Z" fill="#2F2C22"/>
<path d="M30.4414 68.7986C30.3771 68.7986 30.3127 68.8308 30.2484 68.8308C29.1221 68.509 28.028 68.155 27.127 67.3506C27.7062 67.2218 28.1245 67.5758 28.575 67.8332C29.2186 68.155 29.9266 68.2837 30.4414 68.7986Z" fill="#2F2C22"/>
<path d="M43.8276 29.5728C44.1493 28.4144 44.986 27.7065 46.0479 27.2881C46.4662 27.0951 47.2385 26.8698 47.6569 26.6445C49.298 26.194 50.6495 26.001 52.3872 26.2262C52.8377 26.8698 51.9045 26.902 51.9045 27.3525C52.2907 27.0951 52.7412 26.902 53.063 26.5158C53.256 26.2262 53.4813 26.194 53.8353 26.2262C54.7363 26.3549 55.6373 26.548 56.5383 26.8054C58.2438 27.1916 59.6918 28.0926 61.1399 28.9936C61.687 29.3154 62.3627 29.6372 62.6523 30.1199C62.9741 30.6669 62.2662 31.2462 62.1053 31.8576C61.9122 32.5977 61.5904 33.3056 61.3973 34.0457C61.1077 35.1076 61.0434 36.2017 61.3973 37.2958C61.5261 37.7142 61.4295 37.8429 61.0112 37.9716C60.3676 38.1325 59.724 38.3899 59.1126 38.6473C57.8898 39.1622 57.2784 40.0632 57.3106 41.4147C57.3428 43.5707 57.4393 45.7589 57.6967 47.9149C58.2116 52.5809 58.2438 57.2147 57.2784 61.8163C57.1819 62.299 57.1819 63.0391 56.6992 63.1035C56.2165 63.1678 55.6695 62.7495 55.1868 62.492C54.9293 62.3633 55.1546 62.1059 55.1868 61.9128C55.5407 60.5613 56.0556 59.2741 56.2809 57.8904C56.4739 56.6676 56.6027 55.4448 56.5705 54.222C56.5705 54.0289 56.5705 53.7072 56.313 53.7072C56.0234 53.675 56.0556 53.9968 56.0234 54.1898C55.7016 56.1849 55.2833 58.18 54.6719 60.1108C54.4788 60.7222 54.2214 60.8831 53.6744 60.4648C53.4491 60.2717 53.1917 60.1108 52.9342 59.9821C52.3872 59.6925 52.0976 59.3063 51.9689 58.6306C51.7758 57.5043 51.5505 56.378 51.3575 55.2518C51.3253 54.9943 51.3896 54.576 50.9391 54.6404C50.5208 54.6725 50.5852 55.0587 50.5852 55.3483C50.553 56.2171 50.6173 57.0538 50.7461 57.9226C50.7782 58.0835 50.8426 58.3088 50.6495 58.4375C50.4886 58.534 50.3599 58.3731 50.2312 58.3088C49.3945 57.8904 48.751 57.4078 48.9119 56.3137C48.9762 55.8632 48.8475 55.4126 48.8153 54.9621C48.7831 54.7691 48.6866 54.6082 48.4613 54.6082C48.2039 54.6082 48.1717 54.8334 48.1717 54.9943C48.1717 55.4448 48.1717 55.8953 48.1717 56.3458C48.1717 56.6676 48.1074 56.8929 47.7212 56.7642C46.8202 55.9597 45.6618 55.477 44.7286 54.6725C44.439 54.2542 44.4068 53.8037 44.5355 53.1601C44.2781 53.5463 44.4068 53.9968 44.0206 54.0933C43.7954 54.1255 43.7632 53.9646 43.7632 53.7715C43.6023 51.2937 43.6345 48.7838 43.6023 46.306C43.5701 43.5707 43.4414 40.8677 43.4414 38.1325C43.4736 35.3651 43.6023 32.5655 43.7632 29.7981C43.731 29.6694 43.7954 29.6372 43.8276 29.5728Z" fill="white"/>
<path d="M48.5912 80.5122C47.658 82.3142 48.205 82.3464 49.7174 82.7004C50.3288 82.8613 50.9724 82.9578 51.5517 83.2474C51.9056 83.4083 52.2274 83.6336 52.3561 83.9875C52.517 84.3737 52.5492 84.7276 51.9378 84.7276C47.658 84.792 43.4103 85.0173 38.9053 84.6633C41.6727 83.3118 43.5712 81.4454 43.7965 78.3562C44.0217 78.1309 43.6034 77.6482 44.1183 77.5195C44.2148 77.8091 44.1826 78.0666 44.1505 78.2596C44.3435 77.6804 43.8287 76.9725 44.1505 76.2967C44.247 76.1358 44.3757 76.0715 44.5044 75.9749C44.7619 75.7497 44.8906 75.3635 45.3089 75.3957C45.4698 75.3635 45.5985 75.3635 45.7594 75.3314C46.1134 74.9774 45.9525 74.6234 45.8238 74.2373C45.5985 73.465 45.9525 72.9823 46.757 72.9501C46.8535 72.9501 46.9822 72.9179 47.0788 72.9179C47.2718 72.2422 47.1753 71.5664 46.7891 70.9872C46.4352 70.4401 46.3386 69.9253 46.6604 69.346C47.0788 68.6381 46.8535 67.898 46.8857 67.1579C46.8857 67.0613 46.8213 66.9326 46.7248 66.9326C46.5639 66.9326 46.4674 67.0291 46.4352 67.1579C46.3708 67.3509 46.403 67.5118 46.3708 67.7049C46.3065 68.8955 46.2421 68.9277 45.2124 68.5094C45.148 68.5416 45.0837 68.5737 45.0193 68.6059C44.6331 68.9921 44.3757 68.8634 44.247 68.3807C44.0539 67.6727 44.3114 67.2544 44.9549 67.1579C45.0515 67.1579 45.1802 67.1579 45.2767 67.1579C45.6307 66.7074 45.5663 66.0638 45.9847 65.6454C46.0168 65.5811 46.049 65.5167 46.0812 65.4524C46.2099 65.1306 46.3708 64.8088 46.7891 64.8732C47.2075 64.9375 47.2718 65.2915 47.304 65.6454C47.3362 65.8063 47.3362 65.9672 47.4971 66.0638C47.5614 66.096 47.6258 66.1281 47.658 66.1925C47.8189 66.289 47.9798 66.4499 48.1407 66.5465C48.205 66.5786 48.2694 66.5786 48.3337 66.5465C48.913 65.8385 49.1382 65.8707 49.5566 66.8039C50.2645 68.3163 51.4873 68.799 52.9675 68.1876C53.5468 67.9302 53.7398 67.4475 53.8364 66.9326C53.9651 66.2247 54.3512 65.9029 55.0592 66.0316C56.0245 66.1925 56.7003 65.7098 57.2795 65.0019C57.5048 64.7444 57.6979 64.3261 58.1805 64.487C58.6311 64.6479 58.8241 64.9697 58.9207 65.4524C59.1781 67.1579 59.2103 68.8955 59.4034 70.6332C59.5642 72.21 59.5964 73.7868 59.7573 75.3314C59.7895 75.7497 59.6608 76.0071 59.339 76.2002C57.6979 77.2299 57.183 78.8389 57.9553 80.6409C58.4058 81.7028 58.3414 81.8315 57.2474 82.1211C56.3785 82.3464 55.5097 82.6038 54.8661 83.3118C54.4478 83.7623 53.9973 83.7945 53.5468 83.3439C52.7745 82.636 51.8091 82.3142 50.8115 82.089C49.9105 81.8959 49.7174 81.6385 50.0392 80.7696C50.3288 80.0939 50.361 79.3859 50.361 78.6458C50.361 77.0047 49.46 76.3611 48.012 76.1037C47.6258 76.0393 47.2075 76.0393 46.8213 76.1358C46.5961 76.168 46.403 76.2967 46.4352 76.5542C46.4674 76.7794 46.6283 76.8438 46.8213 76.9081C47.2397 77.0368 47.7223 77.0368 48.1407 77.2299C48.3016 77.3265 48.4303 77.4552 48.5912 77.5517C49.1382 78.4849 48.9773 79.4825 48.5912 80.5122Z" fill="white"/>
<path d="M34.786 70.7292C34.3677 70.3109 33.7885 70.2465 33.2736 70.0213C32.8875 69.8282 32.7266 69.603 32.7266 69.1524C32.9196 65.6771 33.7885 62.5557 36.8133 60.3354C38.7762 58.8873 39.9347 56.7957 40.5783 54.4466C40.9644 53.0951 40.9644 53.0951 42.1872 53.6743C42.7664 54.157 43.41 54.5431 44.0858 54.8649C44.665 55.0258 45.1799 55.412 45.6947 55.7016C46.274 56.0234 46.5958 56.4417 46.274 57.1175C45.566 58.9517 44.7615 60.7215 43.2491 62.073C42.8308 62.3305 42.509 62.7166 42.1872 63.0384C41.7689 63.7142 40.9644 64.0038 40.4817 64.7117C39.3555 66.385 38.7119 68.1549 38.7119 70.15C38.7119 70.7614 38.4223 71.2763 38.3901 71.8555C38.3901 72.1773 38.1327 72.1773 37.9074 72.0807C37.6178 71.9842 37.3282 71.8555 37.0386 71.6946C36.3306 71.2441 35.5905 70.9223 34.786 70.7292Z" fill="#FDD400"/>
<path d="M45.4365 75.5245C44.8895 75.3958 44.986 75.975 44.7286 76.1681C44.5355 75.9428 44.5999 75.5245 44.2137 75.428C44.1172 75.3636 44.0528 75.2671 44.0206 75.1384C44.0206 74.9131 44.0206 74.6879 44.0206 74.4626C44.1815 74.2374 44.3424 74.4626 44.4712 74.4626C44.7929 74.1408 44.7929 74.0443 44.4068 73.8512C44.2459 73.9156 44.0528 74.0765 43.9885 73.7225C43.9885 73.0146 43.9885 72.3066 43.9885 71.5987C44.439 71.3734 44.3424 71.8239 44.4712 71.9848C44.5677 72.3388 44.5033 72.8215 45.1469 72.7249C45.2756 72.6928 45.1791 73.0789 45.4043 72.8858C45.7905 72.6606 45.7261 72.3066 45.2756 71.9526C45.1147 71.7917 45.0504 71.5665 45.0826 71.3412C45.0182 71.1482 45.7583 70.9551 45.0826 70.762C44.8251 70.6011 44.5677 70.4402 44.2459 70.6655C43.9885 70.8264 43.9563 70.6333 43.9563 70.4402C43.9563 69.507 43.9241 68.5738 43.9885 67.6728C44.1172 66.4178 44.0528 65.1629 43.9885 63.9079C43.9885 63.5861 43.9563 63.2643 44.0206 62.9425C44.0528 62.4276 44.8251 62.5885 44.8573 62.0415C44.5999 61.8484 44.4068 62.1702 44.1815 62.0737C44.085 62.0093 43.9885 61.9449 43.9563 61.8162C44.5033 60.9796 44.7929 60.0142 45.5974 59.4028C45.8549 59.2097 45.8549 58.9845 45.9192 58.727C45.9514 58.5018 45.887 58.18 46.3054 58.2122C46.6271 58.6305 46.3697 59.2419 46.7559 59.628C47.0133 60.1429 46.595 60.8509 47.142 61.3014C47.0455 61.8162 46.788 61.7519 46.4663 61.4623C46.2732 61.2048 46.241 60.883 46.2088 60.5612C46.1766 60.3682 46.0801 60.2716 45.887 60.2716C45.7261 60.3038 45.5652 60.3682 45.5331 60.5291C45.4687 60.7221 45.6296 60.8187 45.7905 60.8509C46.1123 60.9152 46.3054 61.1083 46.4341 61.3979C46.4984 62.0737 46.6272 62.7494 45.7905 63.0712C45.5652 63.1677 45.4043 63.393 45.5652 63.5861C45.7583 63.8435 45.9514 63.4252 46.1766 63.4574C46.4663 63.5861 46.4019 63.8435 46.4341 64.0366C46.595 64.648 46.7237 64.1975 46.8846 64.0366C47.0455 63.9079 47.2064 63.8435 47.3995 63.94C47.3995 63.9722 47.4316 63.9722 47.4316 64.0044C47.6247 64.1975 47.4316 64.7767 47.9465 64.6158C48.397 64.4549 48.2039 64.0688 48.1717 63.7148C48.1396 63.3286 47.9787 63.7791 47.9143 63.6826C47.6247 63.5217 47.6569 63.2321 47.6247 62.9747C47.5603 62.5563 47.6891 62.138 47.7534 61.7197C47.8178 61.3335 47.85 60.9474 47.6247 60.5934C47.2386 60.69 47.496 61.2692 47.0455 61.2692C46.8524 61.0117 46.8524 60.69 46.8524 60.4003C46.8524 60.1429 46.9811 59.8855 46.7237 59.6924C46.6593 59.4672 46.8202 59.4028 46.9811 59.4028C47.3029 59.4028 47.6569 59.5315 47.6247 58.9845C47.5925 58.4696 47.3029 58.2765 46.8524 58.2443C46.595 58.2122 46.3054 58.4374 46.1445 58.1156C46.2732 57.3112 46.4984 57.2468 47.1742 57.5686C47.9465 57.9226 48.3005 58.5018 48.2361 59.3384C48.1717 60.1107 48.3326 60.883 48.4614 61.6232C48.4935 63.4895 48.944 65.2594 49.7807 66.9327C50.3277 68.0268 51.1966 68.5095 52.0654 68.2842C53.1595 68.0268 53.7066 67.2545 53.7709 65.9673C53.7709 65.8064 53.8031 65.6134 53.8353 65.4203C55.7982 66.1926 56.2165 66.0639 57.3106 64.294C57.5037 64.0044 57.6002 63.9079 57.922 64.1009C58.63 64.5193 59.0483 64.9376 59.1126 65.903C59.3057 69.0565 59.6597 72.1779 59.8206 75.3314C59.8528 75.8463 59.8528 76.1681 59.2092 76.3934C58.1473 76.7151 57.6324 77.6162 57.6968 78.7746C57.7611 79.6434 57.8255 80.4801 58.3082 81.2524C58.63 81.7673 58.4047 81.9282 57.8898 82.0569C57.2141 82.2499 56.474 82.3465 55.8304 82.6683C55.1224 82.9901 54.6397 83.4727 54.511 84.245C54.4467 84.5347 54.3501 84.6634 54.0283 84.6634C53.7709 84.6634 53.61 84.5668 53.5778 84.3094C53.3526 82.9257 52.2263 82.6361 51.1322 82.3143C51.0679 82.2821 50.9713 82.3143 50.907 82.2821C50.3921 82.1534 49.7163 82.1856 49.4267 81.7994C49.0406 81.3489 49.7163 80.9306 49.8129 80.4479C49.9738 79.74 50.1347 79.032 50.0381 78.3241C49.8772 76.8117 48.397 75.8463 46.8524 76.2003C46.6915 76.2325 46.5306 76.2646 46.5306 76.4899C46.5628 76.683 46.7237 76.7151 46.8846 76.7473C47.2707 76.8439 47.6891 76.7795 47.9787 77.1657C47.4638 77.2622 46.9811 77.0369 46.4663 77.0048C46.1123 76.9726 45.9514 76.683 45.9192 76.3934C45.887 76.0716 46.2088 76.0716 46.4341 76.0072C47.7856 75.5567 49.652 76.2003 50.1668 77.4553C50.553 78.3885 50.553 79.4504 50.1668 80.4157C49.7163 81.4455 49.8129 81.6064 50.8104 81.896C51.7758 82.1534 52.7734 82.4752 53.5135 83.2153C53.8996 83.6015 54.2214 83.5371 54.511 83.2475C55.2833 82.3787 56.3452 82.1212 57.4071 81.896C57.9864 81.7673 58.0507 81.4133 57.8255 81.0271C57.2141 79.9331 57.375 78.7746 57.5359 77.6805C57.6324 76.9404 58.276 76.4255 58.9839 76.1359C59.4344 75.9428 59.6275 75.6854 59.4666 75.2027C59.4344 75.074 59.3701 74.9453 59.3701 74.8166C59.5953 72.9502 59.0161 71.1482 58.9839 69.2818C58.9839 67.8981 58.9517 66.4822 58.5334 65.1307C58.4369 64.8732 58.276 64.7445 58.0507 64.648C57.7611 64.5193 57.6968 64.7767 57.568 64.9376C56.8601 65.7421 56.0878 66.3535 54.8972 66.1926C54.3501 66.1282 53.9962 66.4178 53.8674 67.0614C53.5778 68.606 51.5184 69.1852 50.2634 68.1555C49.8129 67.7694 49.3624 67.4154 49.2337 66.7718C49.2015 66.5144 48.944 66.4178 48.8153 66.2569C48.4614 66.3535 48.7188 67.351 47.9787 66.804C48.3005 66.4822 48.2361 66.096 48.2361 65.6134C48.1074 66.0639 48.2683 66.4822 47.9787 66.8362C47.8178 66.6753 47.6569 66.5144 47.4638 66.3535C47.5282 66.1926 47.5925 65.9995 47.496 65.8386C47.3995 66.0317 47.5925 66.1926 47.4638 66.3857C47.142 66.4178 46.9811 66.2891 46.9811 65.9351C46.9811 65.6455 47.0777 65.2272 46.6271 65.1307C46.1445 65.0341 46.241 65.549 46.0157 65.7421C45.7261 65.549 45.887 65.195 45.6618 64.9054C45.4687 65.3237 45.7261 65.549 46.0157 65.7421C45.5331 66.2248 45.7261 67.0292 45.2113 67.5119C44.986 67.351 45.0504 67.0936 44.986 66.8362C44.8895 67.0614 45.0504 67.3189 44.8895 67.5119C44.1815 67.4797 44.085 67.7372 44.3746 68.8313C44.632 68.8313 44.5999 68.3808 44.8895 68.4773C45.1469 68.7669 45.0182 69.1209 45.1147 69.507C45.1469 69.0887 45.1791 68.7347 44.8895 68.4773C45.1791 68.1233 45.34 68.3808 45.5331 68.606C45.8549 68.9278 45.9836 68.7347 46.0157 68.3808C46.0479 68.0268 46.0157 67.6728 46.0157 67.351C46.0479 67.0292 46.2088 66.7718 46.5628 66.7396C46.9811 66.7074 47.0133 67.0614 46.9811 67.3832C46.9168 68.2199 47.2064 69.0887 46.5628 69.8288C46.4019 70.0219 46.3697 70.4724 46.5306 70.6011C47.2707 71.1482 46.9811 72.0492 47.3029 72.7249C47.496 73.1111 47.3673 73.272 46.9811 73.3363C46.788 72.918 46.8202 72.4675 46.7559 72.017C46.5628 72.4353 46.9168 72.918 46.6915 73.3363C45.9514 73.3042 45.7583 73.6903 45.9514 74.4626C46.0479 74.8488 46.3697 75.4602 45.694 75.7498C45.4365 75.4923 45.4365 75.1705 45.4043 74.7522C45.3722 74.9131 45.6296 75.2349 45.4365 75.5245Z" fill="white"/>
<path d="M57.6648 84.696C57.1821 84.7282 56.796 84.7604 56.4098 84.7604C56.2489 84.7604 56.0237 84.9213 55.8949 84.696C55.7984 84.4708 55.8628 84.2133 56.0558 84.0203C56.442 83.6019 56.9247 83.441 57.4395 83.2801C57.5683 83.248 57.697 83.248 57.8257 83.2158C59.4668 82.7975 59.4346 82.8296 58.8554 81.2207C58.5658 80.4484 58.598 79.6439 58.7589 78.8394C58.8554 78.3567 59.2737 78.0993 59.7243 77.9706C59.9495 77.9062 60.1426 77.9384 60.1748 78.2602C60.4965 79.9979 60.8183 81.7677 61.1401 83.5054C61.2367 84.0846 61.0114 84.3742 60.3678 84.4386C59.4346 84.5351 58.5014 84.7604 57.6648 84.696Z" fill="white"/>
<path d="M49.6202 62.6855C49.395 61.5914 49.1697 60.4973 49.1375 59.371C49.1053 58.8883 49.2341 58.824 49.6524 59.0814C50.5212 59.5963 51.2613 60.1433 51.4544 61.2374C51.5831 61.9453 51.8406 62.6211 52.0336 63.2969C52.098 63.4256 52.098 63.5543 52.1624 63.683C52.3876 64.1979 52.3876 64.5518 51.7118 64.6806C51.5188 64.7127 51.3901 64.8415 51.2292 64.938C50.4247 65.4207 50.4247 65.4207 50.1029 64.6162C50.1029 64.584 50.0707 64.5197 50.0707 64.4875C49.8133 63.9083 49.8133 63.2647 49.6202 62.6855Z" fill="white"/>
<path d="M44.1812 74.4943C44.0847 74.7517 44.0847 74.977 44.1812 75.2344C44.3743 76.0067 44.1812 76.7468 44.0847 77.4869C43.8594 77.7122 44.0847 78.0983 43.795 78.3236C44.0203 74.1403 43.9238 69.9248 43.9238 65.7416C43.9238 64.6475 43.6985 63.5534 43.7629 62.4593C43.795 62.0731 43.602 61.9122 43.2158 62.041C44.4064 60.4964 45.3396 58.823 46.1763 57.0854C46.2407 57.021 46.2728 57.021 46.3372 57.0854C46.5303 57.3428 46.8199 57.2141 47.0773 57.2785C48.0427 57.6324 48.461 58.1795 48.4288 59.2414C48.3967 60.0459 48.7184 60.8182 48.5897 61.6226C48.2358 60.9147 48.3323 60.1424 48.3001 59.3701C48.2358 58.6622 48.107 58.0829 47.3991 57.6646C46.659 57.2463 46.4659 57.5359 46.3694 58.1795C46.0798 58.5334 46.1763 58.9196 46.2085 59.3057C46.2407 59.9171 45.5649 59.3701 45.4362 59.8206C45.1787 60.5929 44.7604 61.2687 44.1812 61.8479C44.4708 62.2662 44.2134 62.7167 44.2456 63.1672C44.2456 64.6475 44.2777 66.1599 44.2456 67.6401C44.1812 68.6377 44.149 69.6352 44.2456 70.6328C44.4386 70.9546 44.4386 71.2764 44.2456 71.566C44.149 72.3383 44.149 73.0784 44.2456 73.8507C44.3099 74.0759 44.3099 74.269 44.1812 74.4943Z" fill="#402B11"/>
<path d="M43.8279 29.5723C43.6026 33.1442 43.4417 36.7161 43.5061 40.2879C43.5383 43.6667 43.6026 47.0134 43.667 50.3922C43.6992 51.5828 43.7635 52.8056 43.8279 53.9962C43.8601 54.0606 43.8601 54.1249 43.7957 54.1893C43.6026 53.6101 43.5061 53.0309 43.5061 52.4194C43.5061 51.0679 43.5383 49.7486 43.5061 48.3971C43.3452 43.9885 43.2809 39.58 43.3774 35.1715C43.4096 33.4016 43.5705 31.5995 43.6992 29.8297C43.667 29.7332 43.7635 29.6366 43.8279 29.5723Z" fill="#413013"/>
<path d="M42.8303 63.4573C42.4442 63.1033 42.1546 63.3608 41.8328 63.5538C40.5134 64.5192 39.6768 65.8385 39.3228 67.3831C39.0332 68.7347 38.647 70.0862 38.8079 71.5021C38.7436 71.5021 38.6149 71.4377 38.5827 71.4699C38.0678 72.3065 37.9391 72.3387 37.0381 71.6308C38.3252 71.8882 38.3574 71.8882 38.4218 70.5045C38.5183 68.2842 39.0654 66.2569 40.3847 64.4227C40.8674 63.7791 41.4788 63.2964 42.1867 62.9746C42.3155 63.2642 42.8303 63.0068 42.8303 63.4573Z" fill="#46391A"/>
<path d="M52.4836 26.5152C51.1321 26.129 49.8127 26.2899 48.4934 26.6439C48.1073 26.7404 47.7211 26.9013 47.335 26.8048C48.2038 26.2577 49.2013 26.1934 50.1667 26.0969C52.1296 25.9038 54.1247 25.9681 56.0555 26.5473C56.2486 26.6117 56.4416 26.6117 56.5382 26.8048C55.7659 26.837 55.0579 26.483 54.3178 26.3865C53.8351 26.3221 53.3846 26.2577 53.1594 26.837C53.0628 26.4508 52.6767 26.7082 52.4836 26.5152Z" fill="white"/>
<path d="M46.3697 57.0537C46.3053 57.0537 46.2731 57.0537 46.2088 57.0537C46.4662 56.4101 46.1444 56.0883 45.5974 55.7665C45.0825 55.4769 44.5033 55.2195 44.085 54.8011C44.2459 54.7689 44.4711 54.8333 44.5676 54.6402C44.632 54.5759 44.6964 54.5759 44.7607 54.6081C45.887 55.1229 46.8202 55.8309 47.6568 56.6997C47.0776 56.764 46.9811 56.0883 46.434 55.9596C46.5628 56.3457 46.5949 56.7319 46.3697 57.0537Z" fill="#413013"/>
<path d="M58.7274 60.2392C58.8239 61.0437 58.8883 61.8482 58.9526 62.6526C58.9848 62.8779 59.1457 63.2962 58.7274 63.2319C58.4377 63.1997 58.0194 63.0066 58.0838 62.5561C58.2125 61.7516 58.4056 60.9793 58.5665 60.207C58.6308 60.2392 58.6952 60.2392 58.7274 60.2392Z" fill="white"/>
<path d="M52.5488 61.0439C54.0612 61.6553 54.0612 61.7197 53.482 63.5539C52.9993 62.7494 52.7419 61.9771 52.5488 61.0439Z" fill="white"/>
<path d="M44.7934 54.6075C44.7291 54.6075 44.6647 54.6397 44.6004 54.6397C44.4717 54.2535 44.0212 54.3822 43.7959 54.157C43.7959 54.0926 43.8281 54.0283 43.8281 53.9639C44.3108 53.8995 44.0533 53.5134 44.1177 53.256C44.182 53.0307 44.1499 52.6767 44.4717 52.7411C44.7613 52.8055 44.7291 53.0951 44.6647 53.3525C44.5682 53.803 44.6326 54.2213 44.7934 54.6075Z" fill="#6C4A1E"/>
<path d="M48.5908 80.5121C48.7839 79.5146 48.8804 78.4849 48.5908 77.4873C49.2666 78.1952 49.2344 79.6111 48.5908 80.5121Z" fill="#A98650"/>
<path d="M51.1963 64.938C51.2285 64.8737 51.2606 64.7771 51.325 64.7449C52.1295 64.5197 52.1938 63.9726 52.0008 63.2969C52.6765 64.4231 52.6443 64.5197 51.1963 64.938Z" fill="white"/>
<path d="M49.62 62.6846C50.0383 63.1994 49.9418 63.8752 50.0705 64.4866C49.6844 63.9396 49.5878 63.3282 49.62 62.6846Z" fill="#AD8953"/>
<path d="M50.0701 64.6152C50.2953 65.2266 50.7458 65.1301 51.1964 64.937C51.0033 65.2266 50.7137 65.4841 50.3597 65.3554C50.1023 65.2588 50.0057 64.9048 50.0701 64.6152Z" fill="white"/>
<path d="M34.7852 49.9749C35.0748 49.9105 34.753 49.0095 35.4288 49.4922C34.9461 49.5565 35.1713 49.9749 35.0426 50.2323C34.9139 50.4897 34.7852 50.715 34.6243 50.9724C34.5599 50.5863 34.7208 50.2967 34.7852 49.9749Z" fill="#2F2C22"/>
<path d="M34.6243 51.2617C34.6565 51.7122 34.56 52.1306 34.1738 52.4202C34.206 51.9697 34.2382 51.5513 34.6243 51.2617Z" fill="#2F2C22"/>
<path d="M39.9346 52.3877C40.3851 52.4199 40.4494 52.7417 40.3851 53.0635C40.3207 53.5783 40.2242 54.061 39.9346 54.4793C39.9346 53.7714 39.9346 53.0635 39.9346 52.3877Z" fill="#2F5985"/>
<path fill-rule="evenodd" clip-rule="evenodd" d="M77.8484 5.92564C77.8449 6.68365 77.8414 7.44282 77.8414 8.20559V15.3172C77.7986 15.4045 77.8092 15.62 78.1953 15.7835C78.456 15.8323 78.8273 15.8322 79.357 15.832C79.3876 15.832 79.4188 15.832 79.4503 15.832C79.9974 15.832 80.1904 15.6711 80.1583 15.0919C80.0649 13.3178 80.0015 11.5137 79.9394 9.73767L79.933 9.55711C79.9008 7.65854 79.9008 7.65854 81.7994 7.65854C83.4727 7.69072 84.2128 8.39866 84.2772 10.0398C84.3094 10.7799 84.3415 11.512 84.3737 12.2441C84.4059 12.9761 84.4381 13.7082 84.4703 14.4483C84.476 14.5165 84.4757 14.5886 84.4754 14.661C84.4738 14.9991 84.4722 15.3436 85.0817 15.3172C85.6956 15.2865 85.6947 14.9335 85.6934 14.5098C85.6931 14.4895 85.6931 14.469 85.6931 14.4483C85.677 13.6117 85.6609 12.7831 85.6448 11.9545C85.6287 11.1258 85.6126 10.2972 85.5965 9.46057C85.5965 8.78481 85.4035 8.17341 84.9851 7.65854C84.5024 7.1115 84.4703 6.59663 84.9529 6.01741C85.2747 5.59908 85.5322 5.1164 85.5965 4.56935C85.6033 4.50358 85.6191 4.43243 85.6355 4.35977C85.6992 4.07685 85.7677 3.77073 85.3069 3.66834C84.8242 3.5718 84.5024 3.70052 84.3737 4.31192C84.1163 5.66344 83.5049 6.11395 82.089 6.11395C81.9506 6.11395 81.809 6.11044 81.6658 6.10687C81.3766 6.09969 81.0818 6.09239 80.8018 6.11395C80.0295 6.14613 79.7399 5.79216 79.7721 5.05204C79.7978 4.57427 79.8133 4.09133 79.8291 3.60739C79.8519 2.88525 79.8751 2.16085 79.933 1.44798C80.0089 0.588512 79.5485 0.602777 79.0825 0.617222C78.9551 0.621164 78.8277 0.625122 78.7102 0.61132C78.131 0.546962 77.8414 0.675679 77.8414 1.38362C77.8629 2.90557 77.8558 4.41325 77.8484 5.92564Z" fill="white"/>
<path d="M19.6611 9.13847C19.6611 10.0395 19.6933 10.9727 19.6611 11.8737C19.5645 14.1262 17.9556 15.5421 15.51 15.5099C13.0644 15.4778 11.7128 14.1906 11.6807 11.8415C11.6807 10.2969 11.745 8.72015 11.7772 7.17555C11.7772 6.82158 11.6807 6.37107 12.2921 6.37107C12.8713 6.37107 12.8391 6.75722 12.8391 7.14337C12.9035 8.68797 12.9356 10.2647 13.0322 11.8093C13.1287 13.4505 14.4481 14.3515 16.0248 13.8688C16.958 13.5792 17.4729 12.9678 17.4407 12.0024C17.4085 10.2004 17.312 8.43053 17.2155 6.62851C17.1833 5.92057 17.3764 5.69531 18.0843 5.69531C19.6933 5.72749 19.6933 5.69531 19.6933 7.30427C19.6933 7.91567 19.6933 8.52707 19.6933 9.13847C19.6933 9.13847 19.6933 9.13847 19.6611 9.13847Z" fill="white"/>
<path d="M39.3873 9.13878C39.3873 8.20559 39.4195 7.2724 39.3873 6.3392C39.3873 5.85652 39.5482 5.69562 40.0309 5.66344C41.8973 5.59908 41.8973 5.5669 41.8973 7.43329C41.8973 8.81699 41.8973 10.2329 41.8329 11.6166C41.7686 13.129 41.2215 14.4483 39.7735 15.0919C38.2289 15.7999 36.6199 15.7677 35.1719 14.8023C34.303 14.2231 33.8847 13.3542 33.8525 12.3245C33.8203 10.4903 33.8847 8.68828 33.9169 6.85407C33.9169 6.53228 34.0456 6.37138 34.3996 6.37138C34.7535 6.37138 34.9466 6.5001 34.9466 6.88625C35.011 8.46302 35.0431 10.0398 35.1397 11.6166C35.2362 13.483 36.6521 14.4483 38.3254 13.8048C39.1299 13.5151 39.5804 12.9359 39.6126 12.0349C39.6126 11.0695 39.6126 10.1042 39.6126 9.13878C39.5482 9.13878 39.4839 9.13878 39.3873 9.13878Z" fill="white"/>
<path d="M50.7143 12.2279C50.7143 11.359 50.7143 10.458 50.7143 9.58919C50.7143 8.39857 49.942 7.65845 48.6549 7.59409C47.3999 7.52973 46.4023 8.30203 46.338 9.4283C46.2414 10.9729 46.2093 12.5175 46.1449 14.0943C46.1449 14.3195 46.1449 14.5126 46.1127 14.7378C46.0805 15.0596 45.8875 15.1884 45.5657 15.1884C45.2439 15.1884 45.083 15.0275 45.0508 14.7057C45.0186 12.7427 44.8899 10.7798 44.9865 8.84907C45.0508 7.52973 45.9518 6.69307 47.2068 6.27475C48.3009 5.92078 49.4272 5.8886 50.5213 6.27475C51.9693 6.75743 52.7738 7.81934 52.8703 9.33176C52.999 11.2947 52.9669 13.2254 53.0312 15.1884C53.0634 15.7032 52.8703 15.8641 52.3555 15.8641C50.5213 15.8319 50.5213 15.8641 50.5213 14.0621C50.5213 13.4507 50.5213 12.8393 50.5213 12.2279C50.6178 12.2279 50.65 12.2279 50.7143 12.2279Z" fill="white"/>
<path d="M74.6873 9.13852C74.6552 9.87864 74.5908 10.6509 74.5908 11.3911C74.5908 14.1906 72.8531 16.0892 69.3778 15.4778C67.801 15.2204 66.6747 13.9976 66.6426 12.3886C66.6104 10.5544 66.6747 8.75237 66.7069 6.91817C66.7069 6.53202 66.8678 6.4033 67.2218 6.4033C67.6079 6.4033 67.7045 6.59637 67.7366 6.95034C67.801 8.59148 67.8654 10.2004 67.9297 11.8416C68.0263 13.4505 69.3134 14.3515 70.858 13.9332C71.8234 13.6758 72.3704 13.0322 72.3383 12.0346C72.3061 10.2004 72.2095 8.3984 72.113 6.5642C72.0808 5.95279 72.2417 5.72754 72.9175 5.72754C74.6552 5.75972 74.6552 5.72754 74.6552 7.43303C74.6552 8.01225 74.6552 8.59148 74.6873 9.13852C74.6552 9.13852 74.6552 9.13852 74.6873 9.13852Z" fill="white"/>
<path d="M63.5855 7.88462C63.4889 10.105 63.3924 12.3253 63.328 14.5457C63.328 15.0284 63.2315 15.2536 62.6523 15.2536C61.6225 15.1893 60.5606 15.2536 59.5309 15.2215C57.1818 15.1571 55.8947 13.8699 55.8625 11.553C55.8625 10.8773 55.7981 10.2015 55.8303 9.55793C55.8947 7.33758 57.1175 6.08259 59.3056 5.9217C59.7561 5.88952 60.2067 5.85734 60.6572 5.85734C61.2686 5.88952 61.526 5.63208 61.4938 5.02068C61.4295 3.7657 61.4295 2.51072 61.3651 1.25573C61.3329 0.64433 61.526 0.483434 62.1052 0.483434C63.9394 0.483434 63.9394 0.451255 63.8429 2.31764C63.7464 4.15185 63.6498 6.01823 63.5855 7.88462Z" fill="white"/>
<path d="M6.49972 6.0502C8.17303 6.72596 8.91315 7.98094 8.78443 9.75079C8.72007 10.5875 8.68789 11.3919 8.59136 12.2286C8.39828 13.9019 7.1433 15.0282 5.21255 15.1569C4.05411 15.2212 2.86348 15.1569 1.67285 15.1569C1.25453 15.1569 1.12581 14.9316 1.12581 14.5455C0.932734 10.1048 0.73966 5.66405 0.514406 1.19117C0.482227 0.611947 0.73966 0.451051 1.25452 0.48323C2.9922 0.515409 2.92784 0.09708 2.92784 2.12436C2.92784 3.02538 2.92784 3.95856 2.92784 4.85957C2.92784 5.11701 2.8313 5.40662 3.08873 5.59969C4.18282 5.72841 5.27691 5.63187 6.33882 5.98584C6.40318 6.01802 6.43536 6.01802 6.49972 6.0502Z" fill="white"/>
<path d="M6.49991 6.04972C5.40583 5.72793 4.2152 5.921 3.12109 5.59921C4.24738 5.59921 5.40583 5.43831 6.49991 6.04972Z" fill="#887966"/>
<path d="M22.8795 10.3616C22.8152 9.10664 22.783 7.85166 22.7186 6.59667C22.6864 6.17835 22.7186 5.85655 23.2657 5.85655C24.7137 5.82438 26.1618 5.59912 27.6098 5.7922C29.1544 5.98527 30.4094 6.72539 30.9565 8.30217C31.2139 9.04228 31.0852 9.171 30.3129 9.171C29.9589 9.171 29.6049 9.13882 29.2832 9.13882C28.897 9.13882 28.6074 9.01011 28.4465 8.65614C28.1247 7.9482 27.5133 7.75512 26.8054 7.69076C24.6172 7.49769 24.6494 7.49769 24.5528 9.65369C24.4885 11.2626 24.3598 12.8716 24.2954 14.4806C24.2632 14.8989 24.1989 15.1563 23.7162 15.1241C23.2335 15.1241 23.1691 14.8345 23.1369 14.4484C23.0082 13.0968 22.9439 11.7131 22.8795 10.3616Z" fill="white"/>
<path d="M90.6167 14.416C90.4558 14.77 90.8097 15.5101 89.9087 15.4779C88.879 15.4136 88.4928 15.1239 88.6215 14.3195C88.7503 13.3541 89.6513 13.8368 90.1661 13.6759C90.681 13.515 90.6488 13.9655 90.6167 14.416Z" fill="white"/>
<path d="M50.8748 35.0747C50.6496 35.7827 50.2312 36.4262 49.5233 36.8767C49.1371 37.102 49.0084 36.7158 49.1371 36.4584C49.4589 35.7827 49.8129 35.1391 50.4243 34.6886C50.7139 34.4633 50.907 34.592 50.8748 35.0747Z" fill="white"/>
<path d="M54.19 29.2509C53.9648 29.6049 54.0291 30.3128 53.3534 30.2484C52.8707 30.2163 52.9029 29.6692 52.935 29.2831C52.9672 28.8004 53.2246 28.4464 53.7395 28.4786C54.1578 28.4786 54.2222 28.8326 54.19 29.2509Z" fill="#3B301F"/>
<path d="M46.0482 34.6891C46.1125 34.2707 46.1447 33.8846 46.2412 33.4984C46.3056 33.1445 46.563 32.9836 46.8848 33.0157C47.2388 33.0479 47.2066 33.3697 47.2066 33.6271C47.2066 34.2064 46.7239 34.6247 46.5308 35.1074C46.4987 35.1717 46.3378 35.2361 46.2734 35.2039C46.016 35.1074 46.0482 34.85 46.0482 34.6891Z" fill="white"/>
<path d="M57.375 29.5079C57.3107 29.7654 57.5038 30.2481 56.9567 30.1837C56.3775 30.1194 56.2166 29.6367 56.1844 29.1218C56.1522 28.8 56.281 28.3817 56.6671 28.4139C57.2785 28.4782 57.3429 28.9931 57.375 29.5079Z" fill="#2E281D"/>
<path d="M52.4517 42.8302C52.5161 43.506 52.4839 43.9887 51.9369 44.2783C51.8082 44.3426 51.6473 44.2783 51.6151 44.1495C51.3898 43.6669 51.5507 43.1842 51.8082 42.7658C51.969 42.5084 51.969 41.9614 52.2908 42.0257C52.7092 42.1223 52.3874 42.6371 52.4517 42.8302Z" fill="white"/>
<path d="M49.749 49.3629C49.8134 49.0411 49.5881 48.3331 50.1673 48.3653C50.7144 48.3975 50.5213 49.0733 50.5535 49.4916C50.5535 49.6525 50.5213 49.8134 50.4891 49.9421C50.4248 50.1352 50.3604 50.3926 50.103 50.3604C49.7812 50.3282 49.7812 50.0386 49.7812 49.8134C49.749 49.7168 49.749 49.5881 49.749 49.3629Z" fill="white"/>
<path d="M49.9418 40.0947C50.1348 40.2556 50.2957 40.32 50.2957 40.3843C50.3279 40.867 50.2957 41.3819 50.0705 41.8324C50.0383 41.9289 49.8452 41.9289 49.7809 41.8324C49.62 41.5106 49.3304 41.3175 49.0408 41.1245C48.8799 41.0279 48.8799 40.7383 49.0729 40.6418C49.3625 40.4487 49.9096 40.8027 49.9418 40.0947Z" fill="#805A2A"/>
<path d="M48.6544 43.0553C48.4935 43.4415 48.8475 44.1172 48.3648 44.1172C47.7534 44.1494 48.0108 43.4736 48.0108 43.0875C48.0108 42.7013 47.8178 42.0256 48.3648 42.0577C48.8797 42.0899 48.4613 42.7657 48.6544 43.0553Z" fill="#7D5A2A"/>
<path d="M44.5356 34.0771C44.6322 34.1093 44.7609 34.1737 44.7287 34.2702C44.6643 34.8494 44.6643 35.4287 44.3747 35.9435C44.3104 36.0723 44.1495 36.1688 43.9886 35.9757C43.7955 35.7183 44.1173 34.2702 44.3747 34.1093C44.4391 34.1093 44.5034 34.1093 44.5356 34.0771Z" fill="#845920"/>
<path d="M44.0852 41.189C44.1496 40.7707 43.9887 40.0949 44.4713 40.1271C45.0506 40.1593 44.6001 40.7707 44.6322 41.1246C44.6322 41.1568 44.6322 41.189 44.6322 41.189C44.5357 41.4786 44.8575 42.0257 44.3104 42.0257C43.9243 41.9935 44.1496 41.4786 44.0852 41.189Z" fill="#815926"/>
<path d="M45.5332 42.734C45.6619 42.3478 45.3401 41.6721 45.8872 41.7042C46.4342 41.7364 45.9515 42.3478 46.0802 42.7018C46.0802 42.734 46.0802 42.7661 46.0802 42.7661C46.0159 43.0879 46.2733 43.7315 45.855 43.7315C45.3079 43.6993 45.6619 43.0879 45.5332 42.734Z" fill="#7D531B"/>
<path d="M52.4838 26.516C52.709 26.5804 53.1917 26.162 53.1595 26.8378C52.7412 27.1596 52.2263 27.3205 51.8724 27.7066C51.7758 27.8354 51.5506 27.8354 51.454 27.6745C51.3575 27.5457 51.4541 27.417 51.5506 27.3205C51.8402 27.0631 52.162 26.7734 52.4838 26.516Z" fill="#704D20"/>
<path d="M48.5262 27.1913C48.1079 27.7062 47.593 27.9314 47.1747 28.2532C47.0781 28.3176 46.9172 28.3176 46.8207 28.221C46.7242 28.1245 46.7563 28.028 46.8207 27.9314C47.239 27.4487 47.6895 27.0304 48.5262 27.1913Z" fill="#67461E"/>
<path d="M47.3359 30.2808C47.3037 30.4738 47.2072 30.5704 47.0463 30.6347C46.821 30.6991 46.5958 30.7313 46.3705 30.8922C46.2096 31.0209 45.9522 31.2783 45.7591 30.9887C45.5982 30.6991 45.8235 30.4738 46.0809 30.3773C46.3705 30.2486 46.6923 30.152 46.9819 30.0877C47.175 29.9911 47.3037 30.0877 47.3359 30.2808Z" fill="#7A5626"/>
<path d="M45.1794 31.6643C44.922 32.0183 44.6646 32.4044 44.3428 32.7905C44.2141 32.9514 44.0532 32.8227 43.9888 32.6296C43.8923 32.3078 44.4393 31.4068 44.7611 31.3425C44.9864 31.3103 45.1472 31.3747 45.1794 31.6643Z" fill="#805623"/>
<path d="M46.2098 37.1984C46.2098 37.1019 46.2098 37.0053 46.2741 36.9088C46.4672 36.5548 46.4994 35.879 46.9821 36.0721C47.4648 36.233 46.8855 36.6835 46.8212 37.0053C46.789 37.134 46.7246 37.2627 46.6925 37.3915C46.6603 37.5524 46.5637 37.7133 46.4029 37.6811C46.1132 37.6489 46.2098 37.3915 46.2098 37.1984Z" fill="#6D4B22"/>
<path d="M45.2432 38.9047C45.3397 38.4864 45.1788 37.7785 45.7259 37.8106C46.1442 37.8428 45.758 38.4864 45.8224 38.8404C45.8224 38.8725 45.8224 38.9047 45.8224 38.9047C45.7258 39.13 45.9511 39.5483 45.5971 39.5483C45.1466 39.6127 45.3397 39.1622 45.2432 38.9047Z" fill="#634117"/>
<path d="M50.3604 43.1201C50.3604 43.0236 50.3604 42.8948 50.3925 42.7661C50.4247 42.5409 50.4569 42.2191 50.7787 42.2513C51.1327 42.2834 50.9718 42.6052 50.9396 42.8305C50.9074 43.0236 50.9074 43.2488 50.8752 43.4741C50.843 43.6671 50.9718 43.9568 50.65 43.9889C50.3603 44.0211 50.3925 43.7315 50.3604 43.5062C50.3604 43.4097 50.3604 43.281 50.3604 43.1201Z" fill="#673F0D"/>
<path d="M51.9688 38.6144C52.0009 38.3569 52.0009 38.1639 52.0009 37.9708C52.0331 37.7777 52.1296 37.5846 52.3549 37.6168C52.5802 37.6812 52.5802 37.8742 52.548 38.0673C52.5158 38.2282 52.5158 38.3891 52.4836 38.55C52.4193 38.8074 52.6445 39.2901 52.2584 39.2901C51.7757 39.3223 52.1296 38.8074 51.9688 38.6144Z" fill="#6B4F2A"/>
<path d="M47.3672 52.1305C47.2707 52.4201 47.6246 52.9028 47.1098 52.9028C46.7558 52.9028 46.7558 52.3557 46.7236 52.034C46.7236 51.7443 46.788 51.326 47.1098 51.3582C47.5925 51.4226 47.2385 51.9052 47.3672 52.1305Z" fill="#7B5522"/>
<path d="M48.7841 47.4965C48.7519 47.6896 49.0094 48.2045 48.6232 48.2366C48.2371 48.2688 48.3979 47.7218 48.3014 47.4322C48.2692 47.3678 48.3014 47.2713 48.3014 47.2069C48.3336 46.9495 48.1727 46.4668 48.5588 46.4668C48.945 46.4668 48.7519 46.9173 48.7841 47.2069C48.8163 47.2713 48.7841 47.3356 48.7841 47.4965Z" fill="#5E3402"/>
<path d="M50.264 33.2411C50.1353 33.2411 50.0709 33.1446 50.0709 33.0159C50.0065 32.6941 50.8432 31.8575 51.1972 31.954C51.2937 31.9862 51.3902 32.0505 51.4224 32.1471C51.4546 32.2758 50.4249 33.2733 50.264 33.2411Z" fill="#6D4B1F"/>
<path d="M54.9298 37.9393C54.8654 38.1967 54.962 38.5185 54.7367 38.4541C54.1575 38.2611 54.3828 37.6497 54.254 37.2313C54.2219 37.1026 54.254 36.813 54.4471 36.8774C54.9942 37.0383 54.7367 37.6175 54.9298 37.9393Z" fill="#694D2B"/>
<path d="M46.9814 47.7212C46.9814 47.5925 46.9814 47.4316 47.0136 47.2707C47.0458 47.1742 47.1102 47.0776 47.2067 47.0454C47.4641 46.9811 47.5607 47.2063 47.5285 47.3672C47.432 47.7856 47.979 48.3004 47.3998 48.59C47.1102 48.7509 47.0458 48.3648 47.0136 48.1395C46.9814 48.0108 46.9814 47.8821 46.9814 47.7212Z" fill="#825B27"/>
<path d="M51.9364 35.2041C52.1295 35.8477 51.8721 36.266 51.6468 36.7165C51.5824 36.8452 51.4537 36.9418 51.325 36.8452C51.1963 36.7809 51.1641 36.62 51.2285 36.4913C51.4215 36.1051 51.4215 35.5903 51.9364 35.2041Z" fill="#67451D"/>
<path d="M52.0021 49.5555C51.8734 49.8129 52.1952 50.4243 51.7125 50.3921C51.262 50.3599 51.5516 49.7807 51.4872 49.4589C51.4872 49.3946 51.4872 49.298 51.4872 49.2337C51.5194 49.0084 51.5194 48.751 51.809 48.751C52.1308 48.7832 52.0021 49.0728 52.0021 49.2658C52.0343 49.3302 52.0021 49.3946 52.0021 49.5555Z" fill="#624829"/>
<path d="M47.6575 51.1C47.6253 50.7461 47.6896 50.5208 47.8505 50.3277C47.9149 50.2634 48.0114 50.1668 48.1401 50.2312C48.2045 50.2955 48.301 50.3921 48.301 50.4886C48.301 50.6817 48.2045 50.8426 48.2045 51.0357C48.2045 51.2931 48.4941 51.7114 48.0758 51.7758C47.7218 51.7758 47.6896 51.3253 47.6575 51.1Z" fill="#765225"/>
<path d="M53.2881 38.2931C53.3203 38.0356 53.2559 37.4564 53.6099 37.4886C54.1247 37.5208 53.7708 38.0356 53.8029 38.3252C53.8029 38.4218 53.8029 38.5505 53.8029 38.647C53.7708 38.8401 53.7708 39.0654 53.5133 39.0332C53.3203 39.001 53.3203 38.8079 53.2881 38.647C53.2881 38.5827 53.2881 38.4861 53.2881 38.2931Z" fill="#68461C"/>
<path d="M44.5041 49.2016C44.3754 49.4268 44.7937 49.9417 44.2789 49.9417C43.9249 49.9417 43.9892 49.4268 44.0214 49.1372C44.0214 48.8798 43.9571 48.3971 44.311 48.4293C44.7937 48.4293 44.4719 48.8798 44.5041 49.2016Z" fill="#643701"/>
<path d="M53.4176 34.8826C53.1923 35.1078 53.4498 35.6549 52.9992 35.7514C52.7096 35.8158 52.6453 35.494 52.6775 35.2687C52.7418 34.9469 52.774 34.5608 53.1601 34.4642C53.3854 34.3999 53.4498 34.6251 53.4176 34.8826Z" fill="#875B22"/>
<path d="M52.1303 46.2097C51.8407 46.435 52.3234 47.1107 51.7442 47.1429C51.3902 47.1751 51.5189 46.6602 51.5189 46.4028C51.5189 46.1132 51.5189 45.7592 51.8729 45.6948C52.1303 45.6627 52.1625 45.9523 52.1303 46.2097Z" fill="#73542B"/>
<path d="M49.1049 52.0661C49.0083 52.3235 49.2979 52.7418 48.8796 52.774C48.5256 52.8062 48.4935 52.3557 48.4935 52.0982C48.4613 51.8408 48.4935 51.4547 48.7831 51.4547C49.3301 51.4225 48.9761 51.9052 49.1049 52.0661Z" fill="#644B2B"/>
<path d="M50.7782 46.338C50.6174 46.5954 50.907 47.0781 50.4886 47.1424C50.199 47.1746 50.0703 46.8206 50.1025 46.531C50.1347 46.2414 50.1668 45.8875 50.5208 45.8553C50.8104 45.8231 50.8426 46.0805 50.7782 46.338Z" fill="#765324"/>
<path d="M46.6279 44.3433C46.7245 44.0858 46.467 43.6031 46.8854 43.6353C47.2715 43.6675 47.1428 44.1502 47.1428 44.4398C47.1428 44.6651 47.2715 45.1156 46.9175 45.0834C46.4349 45.0834 46.7245 44.6007 46.6279 44.3433Z" fill="#5E4221"/>
<path d="M49.2985 38.5824C49.2341 38.8076 49.4915 39.2581 49.1376 39.2581C48.7193 39.2581 48.8158 38.7754 48.8158 38.4858C48.8158 38.2284 48.6871 37.7457 49.041 37.7779C49.4594 37.8101 49.2019 38.3249 49.2985 38.5824Z" fill="#5D3402"/>
<path d="M45.533 46.9815C45.5008 47.2067 45.6295 47.5607 45.2755 47.5607C44.8894 47.5285 44.9216 47.1745 44.9216 46.8849C44.9216 46.6597 44.9216 46.3379 45.2112 46.3379C45.6295 46.3379 45.4686 46.7562 45.533 46.9815Z" fill="#82541C"/>
<path d="M45.2766 51.1975C45.2444 51.4227 45.4053 51.8089 45.0835 51.8089C44.633 51.7767 44.7618 51.3262 44.7618 51.0366C44.7618 50.8113 44.6009 50.3608 44.987 50.4252C45.4053 50.4574 45.1801 50.94 45.2766 51.1975Z" fill="#664C2C"/>
<path d="M46.5628 49.3953C46.4985 49.6206 46.6916 50.0711 46.3376 50.0389C45.9193 50.0067 46.048 49.5562 46.048 49.2666C46.048 49.0092 45.9836 48.623 46.3376 48.6552C46.6916 48.6874 46.5307 49.1057 46.5628 49.3953Z" fill="#764E18"/>
<path d="M52.2588 40.7389C52.0335 40.932 52.1944 41.4791 51.7118 41.5434C51.5187 41.5756 51.4865 41.3503 51.5187 41.1894C51.5509 40.8355 51.6152 40.4815 52.0014 40.385C52.1944 40.3528 52.2588 40.5137 52.2588 40.7389Z" fill="#6D4A20"/>
<path d="M47.6568 37.8742C47.3671 37.8742 47.335 37.7133 47.335 37.5524C47.3993 37.1663 47.528 36.8445 47.9142 36.6836C48.0751 36.6192 48.1716 36.7801 48.1716 36.9089C48.1073 37.295 47.9464 37.649 47.6568 37.8742Z" fill="#764F1F"/>
<path d="M47.818 34.786C47.9789 34.4964 47.9467 33.9815 48.4615 33.9172C48.6224 33.885 48.6868 34.1103 48.6224 34.2068C48.4294 34.5608 48.4294 35.0756 48.011 35.2365C47.7858 35.3331 47.7858 35.0113 47.818 34.786Z" fill="#58370D"/>
<path d="M46.2737 53.4499C46.2094 53.7074 46.3703 54.0935 46.0485 54.0613C45.6302 54.0292 45.7589 53.6108 45.7589 53.3534C45.7589 53.1281 45.6302 52.7098 46.0163 52.742C46.4346 52.8063 46.1128 53.2569 46.2737 53.4499Z" fill="#5A4020"/>
<path d="M50.8428 39.3228C50.875 39.0332 50.7784 38.6792 51.1967 38.6149C51.3576 38.5827 51.4864 38.7758 51.3898 38.9367C51.2289 39.2585 51.5185 39.8377 51.1002 39.9342C50.7462 39.9986 50.875 39.5481 50.8428 39.3228Z" fill="#653901"/>
<path d="M45.3079 37.2637C45.0505 37.2315 44.954 37.0706 45.0183 36.9097C45.1149 36.5879 45.1471 36.1374 45.5654 36.0731C45.7585 36.0409 45.7585 36.2983 45.7585 36.427C45.6941 36.781 45.5976 37.0706 45.3079 37.2637Z" fill="#734E21"/>
<path d="M47.2066 40.868C47.0779 41.0933 47.3997 41.5438 46.9492 41.5438C46.6274 41.5438 46.6918 41.1577 46.6918 40.9002C46.6918 40.6428 46.6596 40.2566 46.9814 40.2566C47.3997 40.2245 47.1423 40.6428 47.2066 40.868Z" fill="#634929"/>
<path d="M44.2783 44.5038C44.3105 44.2786 44.214 43.8603 44.6001 43.9246C44.9863 43.989 44.7288 44.4717 44.8575 44.7291C44.9541 44.89 44.8897 45.1474 44.6323 45.1152C44.2783 45.1152 44.2783 44.7935 44.2783 44.5038Z" fill="#6B4F2B"/>
<path d="M45.3082 33.2408C45.0829 33.2086 45.0186 33.0799 45.0507 32.9512C45.1151 32.565 45.2438 32.2111 45.6943 32.1145C45.823 32.0823 46.0161 32.1467 45.9839 32.3076C45.8552 32.6937 45.5656 32.9512 45.3082 33.2408Z" fill="#704916"/>
<path d="M48.8805 31.6318C48.6874 31.6318 48.4621 31.664 48.4943 31.4387C48.5587 31.0204 49.0092 31.0526 49.2988 30.956C49.4597 30.9238 49.7815 30.9238 49.7171 31.1813C49.6206 31.5996 49.1379 31.4709 48.8805 31.6318Z" fill="#6B4819"/>
<path d="M49.266 28.2537C49.0729 28.2215 48.7833 28.4146 48.6546 28.1249C48.558 27.8997 48.7511 27.8032 48.9442 27.771C48.9764 27.7388 49.0407 27.7066 49.0729 27.7066C49.3625 27.6423 49.7487 27.3526 49.8774 27.8032C50.0383 28.2858 49.4591 28.0928 49.266 28.2537Z" fill="#5F4322"/>
<path d="M52.0012 33.9818C51.9368 34.2392 51.8725 34.5288 51.4863 34.561C51.3254 34.5932 51.2289 34.4644 51.261 34.3357C51.3254 34.0461 51.4541 33.7887 51.7759 33.6921C51.969 33.6278 52.0012 33.7887 52.0012 33.9818Z" fill="#79521E"/>
<path d="M45.4044 29.6052C45.2757 29.8305 45.1792 30.1201 44.8574 30.1845C44.6965 30.2166 44.6 30.1201 44.6321 29.9592C44.6965 29.6374 44.9218 29.4443 45.1792 29.3478C45.2757 29.2834 45.4044 29.4122 45.4044 29.6052Z" fill="#724B17"/>
<path d="M49.2661 28.2536C49.3305 28.2214 49.3948 28.1571 49.4592 28.1249C49.6201 28.0605 49.8775 28.0605 49.8132 27.8031C49.7488 27.5779 49.5236 27.6744 49.3305 27.7066C49.2018 27.7388 49.0731 27.7388 48.9443 27.7388C49.1052 27.4814 49.3305 27.417 49.6201 27.417C49.8775 27.417 50.0706 27.4813 50.0706 27.8031C50.0706 28.0927 49.9419 28.2215 49.6523 28.2215C49.5236 28.2536 49.3948 28.2536 49.2661 28.2536Z" fill="#C69247"/>
<path d="M49.2979 52.9348C49.33 52.7417 49.2335 52.4199 49.5875 52.4199C49.8771 52.4199 49.8127 52.7417 49.7805 52.9348C49.7805 53.1279 49.9093 53.4818 49.5553 53.4818C49.2979 53.4818 49.33 53.16 49.2979 52.9348Z" fill="#663801"/>
<path d="M50.6822 51.872C50.4248 51.8076 50.3926 51.6467 50.3926 51.4536C50.3926 51.2284 50.4248 51.0031 50.7144 50.9709C50.9074 50.9388 51.004 51.0997 50.9718 51.2606C50.9396 51.4858 50.9718 51.7754 50.6822 51.872Z" fill="#7C541E"/>
<path d="M49.2661 43.9248C49.5557 44.0535 49.4592 44.3431 49.5235 44.5362C49.5557 44.6971 49.4592 44.8902 49.2661 44.858C48.9443 44.7936 48.9443 44.4718 48.9765 44.2144C48.9765 44.0535 49.0409 43.9248 49.2661 43.9248Z" fill="#7B501B"/>
<path d="M44.5997 38.004C44.5997 38.1971 44.5353 38.3902 44.3101 38.3902C44.117 38.4224 43.9883 38.3258 43.9883 38.1328C43.9883 37.9075 44.117 37.7144 44.3423 37.6823C44.5353 37.6501 44.5997 37.8432 44.5997 38.004Z" fill="#926120"/>
<path d="M47.0775 31.9541C47.2384 31.9863 47.3349 32.0828 47.3028 32.2115C47.2706 32.4046 47.174 32.5655 46.9488 32.5655C46.7235 32.5977 46.6592 32.469 46.6914 32.2759C46.7235 32.115 46.8844 32.0185 47.0775 31.9541Z" fill="#7C5727"/>
<path d="M48.8475 29.3473C48.6866 29.5725 48.5579 29.7334 48.3004 29.6691C48.1395 29.6369 48.1073 29.476 48.1717 29.3473C48.2682 29.1542 48.4613 29.0898 48.6222 29.0898C48.7831 29.122 48.8475 29.2507 48.8475 29.3473Z" fill="#6A4D28"/>
<path d="M46.8848 73.1105C46.6596 72.5956 46.6917 72.0486 46.7239 71.5337C46.7239 71.3728 46.7883 71.2119 46.9814 71.2119C47.1423 71.2119 47.2388 71.3406 47.2066 71.4693C47.1101 72.0164 47.464 72.5634 47.2066 73.1427C47.0779 73.1427 46.9814 73.1105 46.8848 73.1105Z" fill="#664D2D"/>
<path d="M45.4364 75.524C45.3077 75.1701 45.1468 74.8161 45.3077 74.4621C45.3721 74.3334 45.4364 74.1403 45.6295 74.1725C45.8226 74.2047 45.9191 74.3656 45.8226 74.5265C45.6617 74.8804 45.9513 75.2022 45.8548 75.524C45.726 75.524 45.5651 75.524 45.4364 75.524Z" fill="#684A25"/>
<path d="M45.0829 67.3504C45.0829 67.3182 45.0507 67.286 45.0507 67.286C44.922 66.8999 44.8255 66.5137 45.1151 66.1598C45.1472 66.1276 45.3081 66.0954 45.3403 66.1276C45.5977 66.4172 45.4047 66.7712 45.4369 67.1251C45.4369 67.1895 45.4369 67.286 45.4047 67.3504C45.3081 67.3504 45.1794 67.3504 45.0829 67.3504Z" fill="#6B3D06"/>
<path d="M44.1172 77.4869C44.1494 76.7468 44.1815 75.9745 44.2137 75.2344C44.2459 75.2666 44.2781 75.2987 44.3103 75.2987C44.5677 75.6205 44.5355 75.9423 44.3103 76.2319C44.3103 76.9399 44.3103 77.6478 44.3103 78.3879C44.2781 78.3879 44.2459 78.3879 44.1815 78.3879C44.1494 78.0983 44.1172 77.7765 44.1172 77.4869Z" fill="white"/>
<path d="M44.2783 76.2318C44.2783 75.9101 44.2783 75.5883 44.2783 75.2987C45.115 75.2343 44.6645 75.8457 44.7288 76.1675C44.6001 76.1997 44.4392 76.2318 44.2783 76.2318Z" fill="#5E4627"/>
<path d="M47.1424 61.2045C47.3999 61.0758 47.3033 60.8506 47.3355 60.6575C47.3677 60.4322 47.3677 60.207 47.6573 60.1748C47.9147 60.1748 48.0113 60.4001 48.0434 60.5931C48.1722 61.0758 48.2365 61.5907 48.0113 62.0734C47.8825 62.3308 47.9147 62.5882 47.9791 62.8457C47.6573 62.9422 47.5929 62.6204 47.432 62.4595C47.2711 62.8135 47.4964 63.264 47.1424 63.5536C47.0781 63.5858 47.0137 63.618 46.9172 63.6501C46.7885 63.6823 46.6919 63.6823 46.5632 63.6501C46.4988 63.618 46.4345 63.5858 46.3701 63.5214C46.3058 63.5858 46.2414 63.6823 46.1449 63.7467C45.9518 63.8754 45.7587 64.165 45.5657 64.0685C45.276 63.9398 45.4369 63.5858 45.4048 63.3605C45.3726 63.0709 45.4691 62.8778 45.7909 62.8778C46.2414 62.8778 46.3701 62.5882 46.3701 62.2021C46.338 61.9447 46.4023 61.6872 46.531 61.4298C46.7885 61.4941 47.1103 61.7516 47.1424 61.2045Z" fill="white"/>
<path d="M46.3379 58.1474C47.3033 57.729 47.979 58.083 47.979 58.984C47.979 59.5311 47.8825 59.8529 47.2711 59.4989C47.1102 59.4023 46.9493 59.4345 46.8849 59.6276C46.531 59.6276 46.3701 59.4667 46.3701 59.0806C46.4023 58.7909 46.3701 58.4692 46.3379 58.1474Z" fill="white"/>
<path d="M44.1821 71.5987C44.1177 71.277 44.1177 70.9552 44.1821 70.6656C44.5682 70.022 44.9222 70.2472 45.244 70.7299C45.437 70.9552 45.3727 71.1482 45.244 71.3735C45.3083 71.5987 45.3727 71.7918 45.437 72.0171C45.6945 72.3389 45.6945 72.6607 45.437 72.9824C45.2118 73.1433 45.3083 72.8859 45.244 72.8216C45.0831 72.4676 44.7935 72.3067 44.4395 72.178C44.1821 72.0493 44.3751 71.7596 44.1821 71.5987Z" fill="white"/>
<path d="M47.0137 63.4896C47.3355 63.1678 47.1103 62.7816 47.1746 62.4277C47.2068 62.2668 47.1103 62.0093 47.3355 61.9772C47.5608 61.945 47.6251 62.138 47.6573 62.3633C47.6895 62.5886 47.7538 62.7816 47.9791 62.8782C48.0113 63.1356 47.8826 63.4574 48.14 63.6826C48.1078 64.1331 47.8504 64.1975 47.4964 64.0044C47.3355 63.9723 47.2068 64.0366 47.0781 64.1653C46.7885 63.9401 46.8528 63.7148 47.0137 63.4896Z" fill="white"/>
<path d="M47.496 63.9719C47.7535 63.9719 48.0109 63.9397 48.1396 63.6501C48.1718 63.3927 48.0753 63.1353 48.3327 62.8135C48.4292 63.3283 48.5258 63.7145 48.5901 64.1328C48.7189 64.6799 48.3649 64.8408 47.9466 64.9051C47.3673 65.0017 47.496 64.5512 47.4639 64.2294C47.496 64.1328 47.496 64.0685 47.496 63.9719Z" fill="white"/>
<path d="M46.4669 61.1729C46.4347 60.7224 45.0832 61.559 45.405 60.4006C45.5337 59.9501 46.0807 59.9179 46.2416 59.9822C46.8852 60.2719 46.3381 60.9476 46.4669 61.1729Z" fill="white"/>
<path d="M47.0135 67.9304C46.8526 68.2522 47.2065 68.8314 46.7238 68.8636C46.3699 68.8636 46.4986 68.2844 46.5308 67.9948C46.5629 67.6408 46.3055 66.965 46.756 66.965C47.2065 66.9329 46.8526 67.5764 47.0135 67.9304Z" fill="#663901"/>
<path d="M44.1815 67.6409C44.0528 65.7101 44.0206 63.7794 44.1493 61.8486C44.2137 61.913 44.2459 61.9773 44.3102 62.0095C44.5033 62.2348 44.4711 62.4279 44.3102 62.6531C44.3102 64.069 44.3102 65.4527 44.3102 66.8686C44.278 67.1582 44.3424 67.4156 44.1815 67.6409Z" fill="white"/>
<path d="M44.4395 65.227C44.4395 64.9374 44.4716 64.6156 44.89 64.6477C45.1796 64.6799 45.2439 64.9052 45.2439 65.1626C45.2118 65.4844 45.2117 65.8705 44.7934 65.8384C44.4395 65.8384 44.4395 65.5166 44.4395 65.227Z" fill="white"/>
<path d="M45.2433 63.6824C45.1789 63.9076 45.4042 64.3903 44.9858 64.3582C44.5675 64.326 44.664 63.8433 44.6319 63.5215C44.5997 63.2641 44.5675 62.8779 44.9215 62.9101C45.372 62.9423 45.1789 63.3928 45.2433 63.6824Z" fill="#805C2D"/>
<path d="M44.2783 62.685C44.2783 62.4597 44.2783 62.2666 44.2783 62.0414C44.5679 61.977 44.6645 61.4622 45.0828 61.7518C45.2759 61.8805 45.2759 62.0736 45.2115 62.2345C45.0506 62.6528 44.6966 62.7172 44.2783 62.685Z" fill="white"/>
<path d="M48.1719 66.6753C48.1719 66.2248 48.1719 65.7743 48.1719 65.3237C48.1719 65.1628 48.2684 65.002 48.4615 65.002C48.6867 65.002 48.6867 65.2272 48.6546 65.3559C48.4937 65.8064 49.0085 66.5144 48.1719 66.6753Z" fill="#614827"/>
<path d="M46.2089 65.5813C45.9193 65.7744 45.7262 65.7101 45.6297 65.3561C45.5331 65.0343 45.4688 64.6481 45.7262 64.3907C45.9515 64.1976 46.1445 64.3907 46.1767 64.616C46.2411 64.9378 46.2089 65.2595 46.2089 65.5813Z" fill="#8D632A"/>
<path d="M44.4392 72.1776C44.9862 72.0167 45.4046 72.0488 45.2437 72.8211C45.0506 72.8855 44.9219 73.2073 44.6322 73.0464C44.3105 72.8211 44.4714 72.4672 44.4392 72.1776Z" fill="white"/>
<path d="M47.1423 61.2048C46.2091 60.8508 46.7884 60.2072 46.8527 59.6602C47.2067 59.6602 47.3032 59.7889 47.2389 60.1428C47.2067 60.4646 47.1745 60.8508 47.1423 61.2048Z" fill="#654A26"/>
<path d="M45.4365 72.9829C45.4365 72.6611 45.4365 72.3394 45.4365 72.0176C45.6296 71.7923 45.8227 71.6958 45.9192 72.0819C45.9836 72.3394 45.9514 72.5968 45.9836 72.8542C45.9836 73.0473 46.1123 73.2725 45.887 73.3369C45.5652 73.4334 45.5652 73.1117 45.4365 72.9829Z" fill="#643601"/>
<path d="M45.0829 68.3164C45.4691 68.5095 45.6943 69.6357 45.3725 69.8288C45.1151 69.9897 45.0186 69.7645 45.0186 69.5714C45.0507 69.1531 45.0829 68.7347 45.0829 68.3164Z" fill="#673901"/>
<path d="M45.9199 70.5686C46.0165 70.2468 45.9199 69.8606 46.2739 69.7963C46.5313 69.7319 46.5635 70.0215 46.467 70.1824C46.3061 70.5042 46.6279 71.0513 46.1774 71.1478C45.7912 71.2122 46.0486 70.7295 45.9199 70.5686Z" fill="#653803"/>
<path d="M44.4393 73.6257C44.6002 73.5292 44.7932 73.3039 44.9541 73.6579C45.1794 74.1728 44.8898 74.7842 44.4714 74.752C44.2462 74.3658 44.2784 73.9797 44.4393 73.6257Z" fill="#6E3E05"/>
<path d="M46.0802 61.9446C46.0481 62.1698 46.1768 62.4916 45.8228 62.4594C45.5976 62.4594 45.5332 62.1698 45.5332 61.9446C45.5332 61.7193 45.5654 61.4297 45.7906 61.4297C46.209 61.4297 45.9515 61.8158 46.0802 61.9446Z" fill="#714B18"/>
<path d="M47.6573 66.2248C47.6573 66.1926 47.6251 66.1926 47.6251 66.1604C47.432 65.903 47.1746 65.6777 47.4964 65.3559C47.5929 65.2594 47.7538 65.2594 47.8504 65.3881C48.1078 65.7099 48.0435 65.9995 47.6573 66.2248Z" fill="#AC762C"/>
<path d="M47.0134 63.4893C47.0455 63.7145 47.0455 63.9076 47.0777 64.1328C47.1099 64.3903 47.0777 64.6477 46.7559 64.6477C46.5307 64.6477 46.4019 64.4225 46.3698 64.1972C46.3376 63.9719 46.3698 63.7145 46.3698 63.4893C46.4341 63.4893 46.4985 63.5214 46.5307 63.5214C46.6272 63.6502 46.6594 63.7789 46.6594 63.9398C46.6594 63.7789 46.6916 63.6502 46.7881 63.5214C46.8846 63.5214 46.949 63.4893 47.0134 63.4893Z" fill="#A87835"/>
<path d="M45.2432 71.3734C45.2432 71.1481 45.2432 70.955 45.2432 70.7298C45.4041 70.5689 45.5971 70.5045 45.6937 70.7298C45.8546 71.1159 45.5006 71.2446 45.2432 71.3734Z" fill="white"/>
<path d="M44.4391 73.626C44.4391 74.0121 44.4391 74.3661 44.4391 74.7522C44.3425 74.6557 44.246 74.5913 44.1816 74.4948C44.1816 74.3017 44.1816 74.0765 44.1816 73.8834C44.2782 73.7869 44.3747 73.6903 44.4391 73.626Z" fill="white"/>
<path d="M46.4026 72.6277C46.1451 72.3381 46.2095 72.1129 46.3382 71.8232C46.5956 72.145 46.5313 72.3381 46.4026 72.6277Z" fill="white"/>
<path d="M62.1379 9.26761C61.977 10.3295 61.7839 11.7776 61.5586 13.2256C61.4943 13.6118 61.3012 13.7727 60.915 13.7405C60.4967 13.7083 60.0462 13.7405 59.6279 13.6761C58.2442 13.4509 57.9546 13.1291 57.7293 11.7454C57.6328 11.0696 57.5041 10.4261 57.4397 9.7503C57.2788 8.43096 57.7937 7.72302 59.0808 7.4334C59.5957 7.30469 60.0784 7.30469 60.5933 7.30469C62.0413 7.30469 62.1379 7.4334 62.1379 9.26761Z" fill="#291C16"/>
<path d="M4.15063 14.2553C2.31644 14.3196 1.99465 14.03 2.15555 12.4532C2.28426 11.0695 2.5417 9.718 2.76695 8.3343C2.83131 7.94815 3.05656 7.78725 3.44269 7.81943C3.86102 7.85161 4.31153 7.85161 4.72986 7.91597C6.0492 8.14122 6.37099 8.49519 6.59624 9.81454C6.69278 10.4259 6.78932 11.0373 6.88586 11.6487C7.11111 13.1933 6.56407 13.9656 5.01947 14.2553C4.63332 14.2553 4.27935 14.2553 4.15063 14.2553Z" fill="#291C16"/>
</svg>
