<svg width="162" height="49" viewBox="0 0 162 49" fill="none" xmlns="http://www.w3.org/2000/svg">
<g clip-path="url(#clip0_564_7239)">
<path d="M0.819336 0C53.7703 0 106.721 0 161.277 0C161.277 15.9766 161.277 31.9532 161.277 48.4139C108.326 48.4139 55.3749 48.4139 0.819336 48.4139C0.819336 32.4373 0.819336 16.4607 0.819336 0Z" fill="#F9F9F9"/>
<path d="M92.623 0C115.279 0 137.934 0 161.277 0C161.277 15.9766 161.277 31.9532 161.277 48.4139C138.621 48.4139 115.965 48.4139 92.623 48.4139C92.623 32.4373 92.623 16.4607 92.623 0Z" fill="#F9F9F9"/>
<path d="M30.4768 8.59766C31.7914 8.59766 33.1061 8.59766 34.4606 8.59766C34.4614 9.23342 34.4623 9.86917 34.4632 10.5242C34.4651 11.8889 34.4672 13.2536 34.4695 14.6183C34.4695 14.6631 34.4695 14.6631 34.4696 14.7088C34.4707 15.3582 34.4718 16.0075 34.473 16.6569C34.4735 16.9755 34.4741 17.2941 34.4746 17.6127C34.4747 17.6602 34.4747 17.6602 34.4748 17.7087C34.4765 18.7302 34.478 19.7517 34.4794 20.7732C34.4807 21.8257 34.4824 22.8782 34.4844 23.9308C34.4847 24.0806 34.485 24.2303 34.4853 24.3801C34.4853 24.4096 34.4854 24.439 34.4854 24.4694C34.4862 24.9089 34.4868 25.3483 34.4873 25.7878C34.4812 29.0275 34.4812 29.0275 34.5803 32.2653C34.5933 32.5334 34.5953 32.8008 34.5934 33.0692C34.1209 33.0702 33.6484 33.071 33.1759 33.0715C32.9565 33.0717 32.7372 33.072 32.5178 33.0725C32.3063 33.073 32.0947 33.0732 31.8832 33.0734C31.8023 33.0734 31.7215 33.0736 31.6406 33.0738C31.5277 33.0742 31.4148 33.0742 31.3019 33.0742C31.2681 33.0743 31.2343 33.0745 31.1995 33.0747C30.9687 33.0742 30.9687 33.0742 30.9194 33.0251C30.9061 32.9246 30.8955 32.8238 30.8861 32.723C30.8832 32.6925 30.8803 32.6619 30.8773 32.6305C30.8712 32.5656 30.8652 32.5008 30.8594 32.4359C30.8504 32.3374 30.8411 32.239 30.8317 32.1406C30.8057 31.8615 30.783 31.5862 30.7866 31.3055C30.6567 31.4007 30.5494 31.4975 30.4491 31.6224C30.2645 31.8425 30.0393 32.0119 29.8128 32.1873C29.7765 32.2164 29.7401 32.2455 29.7027 32.2755C28.8981 32.8938 27.8609 33.3282 26.8471 33.4219C26.807 33.4258 26.7669 33.4296 26.7256 33.4336C24.7679 33.6091 22.997 33.1736 21.469 31.9117C19.9872 30.6556 19.2243 28.6991 19.0124 26.808C19.0082 26.7709 19.004 26.7337 18.9997 26.6955C18.9551 26.2207 18.9583 25.7441 18.9575 25.2677C18.957 25.1178 18.9557 24.968 18.9543 24.8181C18.9502 23.9863 19.0176 23.171 19.2254 22.3629C19.2369 22.317 19.2484 22.2712 19.2603 22.2239C19.7797 20.1988 20.892 18.3349 22.7093 17.2223C24.2672 16.3032 26.1205 16.0301 27.8839 16.446C28.8204 16.6892 29.6769 17.1496 30.4768 17.6808C30.4768 14.6833 30.4768 11.6859 30.4768 8.59766Z" fill="#000816"/>
<path d="M61.7492 17.3822C62.3351 17.8596 62.781 18.4518 63.0991 19.1359C63.0991 19.165 63.0991 19.1941 63.0991 19.2241C63.2588 19.0696 63.4033 18.9077 63.5445 18.7363C64.6839 17.3809 66.2927 16.4491 68.0778 16.2838C69.63 16.1646 71.159 16.434 72.3946 17.4163C72.4341 17.4475 72.4736 17.4787 72.5142 17.5108C73.7261 18.5339 74.1125 20.0114 74.2416 21.5252C74.2741 21.9773 74.2709 22.4297 74.2688 22.8827C74.2687 22.995 74.2687 23.1073 74.2688 23.2195C74.2689 23.4581 74.2685 23.6967 74.2677 23.9353C74.2666 24.2802 74.2663 24.6251 74.2661 24.97C74.2658 25.53 74.265 26.0901 74.2637 26.6501C74.2625 27.1931 74.2615 27.7361 74.261 28.2791C74.2609 28.3128 74.2609 28.3464 74.2609 28.3811C74.2607 28.5499 74.2605 28.7188 74.2604 28.8876C74.259 30.2815 74.2566 31.6754 74.2537 33.0692C72.9244 33.0692 71.5952 33.0692 70.2256 33.0692C70.2247 32.5722 70.2247 32.5722 70.2237 32.0652C70.2215 31.0027 70.2187 29.9402 70.2155 28.8778C70.215 28.7125 70.2145 28.5472 70.214 28.3819C70.2139 28.3326 70.2139 28.3326 70.2137 28.2822C70.2122 27.7508 70.2111 27.2194 70.2101 26.688C70.2092 26.142 70.2077 25.596 70.2058 25.0499C70.2046 24.7135 70.2038 24.3771 70.2035 24.0407C70.2033 23.7819 70.2023 23.5231 70.2011 23.2643C70.2007 23.1587 70.2006 23.0532 70.2006 22.9476C70.2011 21.9598 70.1574 21.0199 69.4732 20.2382C68.9185 19.713 68.2193 19.6833 67.4944 19.6958C66.4064 19.7351 65.2752 20.2883 64.47 21.0054C64.3755 21.0878 64.2826 21.162 64.1823 21.2365C63.9243 21.442 63.7197 21.6401 63.6619 21.9745C63.6329 22.2654 63.6391 22.5559 63.6444 22.8477C63.6441 22.9594 63.6436 23.0712 63.6428 23.1829C63.6417 23.4224 63.6425 23.6618 63.6451 23.9013C63.6488 24.2475 63.649 24.5936 63.6484 24.9399C63.6476 25.5017 63.6495 26.0636 63.6532 26.6254C63.6567 27.1708 63.6589 27.7162 63.6594 28.2616C63.6595 28.2953 63.6595 28.329 63.6595 28.3637C63.6597 28.5327 63.6598 28.7018 63.6599 28.8708C63.6608 30.2703 63.6667 31.6697 63.6746 33.0692C62.3453 33.0692 61.016 33.0692 59.6465 33.0692C59.6455 32.5722 59.6455 32.5722 59.6446 32.0652C59.6424 31.0027 59.6396 29.9402 59.6364 28.8778C59.6359 28.7125 59.6354 28.5472 59.6349 28.3819C59.6348 28.3326 59.6348 28.3326 59.6346 28.2822C59.633 27.7508 59.6319 27.2194 59.631 26.688C59.63 26.142 59.6286 25.596 59.6267 25.0499C59.6255 24.7135 59.6247 24.3771 59.6244 24.0407C59.6242 23.7819 59.6232 23.5231 59.622 23.2643C59.6216 23.1587 59.6214 23.0532 59.6215 22.9476C59.622 21.9509 59.5764 20.9809 58.8667 20.2039C58.3283 19.6997 57.6201 19.6843 56.9267 19.6958C55.7911 19.7351 54.6501 20.3183 53.8216 21.0753C53.7268 21.161 53.6343 21.2345 53.5299 21.3095C53.2923 21.4991 53.1381 21.6584 53.0911 21.9662C53.0656 22.2565 53.071 22.5466 53.0753 22.8377C53.075 22.9494 53.0745 23.0611 53.0738 23.1728C53.0727 23.4126 53.0733 23.6522 53.0753 23.8919C53.0783 24.2385 53.0783 24.585 53.0776 24.9316C53.0766 25.494 53.0779 26.0564 53.0807 26.6188C53.0834 27.1648 53.085 27.7108 53.0852 28.2568C53.0852 28.2905 53.0852 28.3242 53.0852 28.359C53.0852 28.5281 53.0852 28.6972 53.0852 28.8663C53.0852 30.2673 53.0895 31.6683 53.0954 33.0692C51.7662 33.0692 50.4369 33.0692 49.0674 33.0692C49.0674 27.6564 49.0674 22.2436 49.0674 16.6667C50.1629 16.6667 51.2585 16.6667 52.3872 16.6667C52.4856 16.7648 52.4808 16.9705 52.5036 17.1062C52.5104 17.1464 52.5172 17.1865 52.5242 17.2278C52.5386 17.313 52.5529 17.3983 52.5672 17.4835C52.5889 17.613 52.6111 17.7423 52.6333 17.8717C52.6473 17.9546 52.6612 18.0375 52.6751 18.1204C52.685 18.1779 52.685 18.1779 52.6952 18.2365C52.7353 18.4808 52.7473 18.712 52.7413 18.9595C52.8921 18.8118 53.0369 18.6599 53.1799 18.5047C54.1008 17.5075 55.2063 16.8156 56.5259 16.46C56.5755 16.4466 56.5755 16.4466 56.6261 16.4329C58.3342 15.9942 60.3462 16.2758 61.7492 17.3822Z" fill="#000816"/>
<path d="M116.957 23.0945C117.555 23.072 118.056 23.1843 118.518 23.5897C118.561 23.6233 118.603 23.6569 118.647 23.6915C119.306 24.2401 119.662 25.2551 119.748 26.0821C119.821 26.9436 119.727 27.6275 119.158 28.3108C118.739 28.7863 118.266 29.115 117.71 29.4127C117.656 29.4425 117.601 29.4722 117.546 29.502C116.263 30.1999 116.263 30.1999 115.694 30.3146C115.48 30.3616 115.275 30.4403 115.069 30.5149C114.738 30.6347 114.405 30.7467 114.069 30.854C114.028 30.8675 113.986 30.881 113.943 30.8949C113.742 30.9585 113.549 31.015 113.339 31.0414C114.253 31.5219 115.442 31.5645 116.433 31.3054C116.874 31.1661 117.293 30.9558 117.71 30.7573C118.018 30.6108 118.328 30.4682 118.645 30.3414C118.692 30.3225 118.738 30.3035 118.786 30.2839C118.933 30.2432 118.997 30.2337 119.138 30.2918C119.318 30.4691 119.401 30.639 119.478 30.8788C119.683 31.4637 120.018 31.9719 120.405 32.4529C120.504 32.5777 120.597 32.7053 120.69 32.8354C120.865 33.0764 121.056 33.2953 121.262 33.5106C121.286 33.5356 121.31 33.5607 121.335 33.5865C122.419 34.724 122.419 34.724 123.832 35.2765C123.88 35.2745 123.88 35.2745 123.928 35.2724C123.963 35.2715 123.998 35.2706 124.033 35.2696C124.106 35.2672 124.179 35.2644 124.252 35.261C124.517 35.2551 124.517 35.2551 124.628 35.356C124.681 35.4737 124.694 35.5436 124.671 35.6712C124.523 35.8155 124.346 35.8514 124.151 35.897C124.118 35.9052 124.084 35.9134 124.049 35.9218C123.942 35.948 123.835 35.9736 123.727 35.9991C123.622 36.0245 123.517 36.05 123.412 36.0756C123.342 36.0925 123.272 36.1093 123.203 36.1261C122.879 36.2045 122.558 36.2902 122.236 36.3766C122.074 36.4193 121.912 36.4614 121.749 36.5034C121.661 36.5263 121.573 36.5491 121.485 36.572C121.419 36.5892 121.419 36.5892 121.351 36.6067C121.137 36.6622 120.923 36.7179 120.709 36.7735C120.624 36.7955 120.539 36.8176 120.454 36.8396C120.413 36.8505 120.371 36.8614 120.327 36.8727C119.945 36.9719 119.945 36.9719 119.818 37.005C119.733 37.027 119.649 37.049 119.564 37.071C119.349 37.1269 119.135 37.1826 118.92 37.238C118.833 37.2605 118.746 37.2829 118.659 37.3053C118.617 37.3162 118.575 37.327 118.532 37.3382C118.332 37.3899 118.133 37.443 117.935 37.5005C117.882 37.516 117.882 37.516 117.827 37.5317C117.761 37.5509 117.695 37.5704 117.63 37.5904C117.542 37.6157 117.456 37.6369 117.367 37.6553C117.322 37.6651 117.322 37.6651 117.276 37.675C117.184 37.686 117.184 37.686 117.013 37.6553C116.9 37.5374 116.827 37.4003 116.747 37.2585C116.704 37.1923 116.659 37.1265 116.614 37.0613C116.592 37.0284 116.569 36.9955 116.546 36.9616C116.318 36.627 116.084 36.2984 115.838 35.9761C115.657 35.7385 115.484 35.4962 115.312 35.2521C115.151 35.0229 114.987 34.7955 114.822 34.5688C114.613 34.2822 114.407 33.9939 114.203 33.7044C114.019 33.4435 113.831 33.1848 113.643 32.9265C113.453 32.6647 113.265 32.4011 113.079 32.1363C112.951 31.9538 112.818 31.7757 112.68 31.6C112.631 31.5264 112.631 31.5264 112.631 31.4382C112.178 31.5547 111.725 31.6711 111.259 31.791C111.307 31.9849 111.307 31.9849 111.356 32.1787C111.404 32.3699 111.452 32.5612 111.499 32.7526C111.61 33.2038 111.726 33.6522 111.86 34.0971C111.941 34.3629 112.017 34.6299 112.094 34.8968C112.109 34.9493 112.124 35.0019 112.14 35.0561C112.23 35.3707 112.316 35.6862 112.398 36.0029C112.654 37.0494 112.654 37.0494 113.347 37.8372C113.649 37.9061 113.969 37.9133 114.269 37.8317C114.39 37.8152 114.502 37.8098 114.623 37.8317C114.749 37.939 114.794 38.0011 114.814 38.1652C114.717 38.343 114.542 38.3826 114.357 38.449C114.149 38.5075 113.94 38.5558 113.729 38.6033C113.349 38.6907 112.972 38.7845 112.598 38.8933C112.397 38.9501 112.195 38.9978 111.992 39.0443C111.67 39.1192 111.351 39.1991 111.032 39.2854C110.793 39.3493 110.554 39.4077 110.314 39.4664C110.066 39.5276 109.819 39.5924 109.572 39.6584C109.261 39.7412 108.95 39.8214 108.639 39.9013C108.609 39.9089 108.579 39.9165 108.549 39.9244C108.148 40.0273 107.748 40.1287 107.346 40.2278C107.13 40.2814 106.914 40.3371 106.699 40.3946C106.647 40.4086 106.594 40.4226 106.54 40.437C106.442 40.4633 106.344 40.4901 106.246 40.5176C105.968 40.593 105.705 40.641 105.416 40.6096C105.371 40.5655 105.371 40.5655 105.355 40.4194C105.371 40.2568 105.371 40.2568 105.467 40.165C105.594 40.0798 105.71 40.028 105.853 39.9757C106.185 39.8421 106.185 39.8421 106.434 39.5954C106.521 39.3274 106.539 39.0767 106.539 38.7962C106.541 38.7401 106.541 38.7401 106.542 38.6829C106.544 38.3899 106.479 38.1381 106.393 37.8589C106.315 37.5994 106.26 37.3354 106.201 37.0711C106.175 36.9513 106.148 36.8316 106.121 36.7118C106.111 36.6657 106.111 36.6657 106.1 36.6187C105.837 35.4297 105.837 35.4297 105.511 34.2569C105.436 34.01 105.379 33.7583 105.322 33.5069C105.25 33.1988 105.169 32.8935 105.086 32.5882C105.061 32.4941 105.036 32.3999 105.01 32.3057C104.807 31.5516 104.604 30.7978 104.385 30.0481C104.285 29.7026 104.186 29.3567 104.089 29.01C104.075 28.9587 104.061 28.9074 104.046 28.8545C104.017 28.7505 103.988 28.6465 103.959 28.5424C103.801 27.9846 103.641 27.4308 103.158 27.0731C103.022 27.0277 102.925 27.0231 102.782 27.0235C102.74 27.0233 102.697 27.0232 102.653 27.0231C102.533 27.0241 102.533 27.0241 102.406 27.0731C102.325 27.0794 102.244 27.0828 102.162 27.0841C102.099 27.0858 102.099 27.0858 102.034 27.0875C101.919 27.0731 101.919 27.0731 101.839 27.0142C101.754 26.8963 101.764 26.8168 101.786 26.6762C101.944 26.4833 102.074 26.4192 102.316 26.3633C102.345 26.3562 102.375 26.3491 102.405 26.3418C102.499 26.3193 102.594 26.2979 102.688 26.2766C102.75 26.2622 102.811 26.2477 102.873 26.2331C102.965 26.2114 103.057 26.1896 103.149 26.1682C103.464 26.0947 103.776 26.011 104.088 25.9266C104.159 25.9078 104.23 25.8891 104.301 25.8705C104.331 25.8625 104.362 25.8545 104.393 25.8462C104.424 25.8382 104.455 25.8302 104.486 25.8219C104.521 25.8129 104.555 25.8038 104.591 25.7945C104.917 25.7093 105.243 25.6246 105.569 25.54C105.835 25.4708 106.101 25.4013 106.367 25.3314C106.677 25.2501 106.987 25.1693 107.297 25.0889C107.426 25.0554 107.555 25.022 107.683 24.9885C107.762 24.968 107.841 24.9475 107.92 24.927C108.256 24.8397 108.592 24.7521 108.926 24.658C109.358 24.5364 109.793 24.4273 110.229 24.3211C110.534 24.246 110.837 24.164 111.14 24.0768C111.441 23.9915 111.744 23.9129 112.047 23.835C112.081 23.8263 112.114 23.8177 112.149 23.8088C112.711 23.6646 113.275 23.5392 113.847 23.4343C113.945 23.4158 114.044 23.3961 114.142 23.3755C114.962 23.2081 115.808 23.1311 116.645 23.1079C116.749 23.1047 116.853 23.0996 116.957 23.0945Z" fill="#000816"/>
<path d="M143.895 14.5562C144.051 14.6068 144.102 14.6784 144.202 14.8068C144.236 14.8509 144.27 14.8949 144.306 14.9403C144.358 15.0093 144.358 15.0093 144.412 15.0797C144.445 15.1225 144.479 15.1653 144.514 15.2093C144.72 15.4762 144.9 15.7514 145.075 16.0399C145.251 16.3193 145.458 16.5766 145.661 16.837C145.874 17.1135 146.062 17.3965 146.245 17.6933C146.365 17.8884 146.494 18.0712 146.639 18.2495C146.722 18.3526 146.799 18.4586 146.877 18.5657C147.021 18.7649 147.168 18.9619 147.317 19.1582C147.512 19.4169 147.705 19.6771 147.898 19.9381C148.149 20.2789 148.405 20.6155 148.663 20.9512C148.883 21.2379 149.098 21.5275 149.312 21.8186C149.505 22.0806 149.702 22.3394 149.901 22.5975C150.152 22.9241 150.399 23.2531 150.643 23.5849C150.833 23.8434 151.026 24.0997 151.22 24.3557C151.436 24.6407 151.644 24.9285 151.846 25.2232C152.476 26.1302 152.476 26.1302 153.257 26.9051C153.353 26.9847 153.353 26.9847 153.447 27.0808C153.774 27.38 154.088 27.3751 154.518 27.3684C154.817 27.3655 155 27.4022 155.257 27.5579C155.224 27.7255 155.224 27.7255 155.123 27.8049C154.955 27.8833 154.788 27.9275 154.609 27.9713C154.534 27.9905 154.458 28.0096 154.382 28.0288C154.324 28.0433 154.324 28.0433 154.265 28.0581C154.086 28.1031 153.908 28.1502 153.729 28.1973C153.659 28.2157 153.589 28.2341 153.519 28.2526C153.381 28.2887 153.243 28.3249 153.105 28.3611C152.68 28.4727 152.254 28.5836 151.829 28.6941C151.422 28.7997 151.015 28.9062 150.609 29.013C150.116 29.1425 149.622 29.2714 149.129 29.3996C148.756 29.4963 148.383 29.5938 148.011 29.6916C147.802 29.7466 147.592 29.8015 147.383 29.8564C147.176 29.9107 146.968 29.965 146.761 30.0194C146.693 30.0374 146.624 30.0553 146.556 30.0731C146.356 30.1255 146.155 30.1785 145.955 30.2321C145.863 30.2565 145.771 30.281 145.679 30.3055C145.636 30.3172 145.592 30.329 145.547 30.3411C145.506 30.3519 145.466 30.3627 145.423 30.3738C145.387 30.3835 145.351 30.3932 145.314 30.4032C145.201 30.4255 145.102 30.4336 144.987 30.424C144.899 30.3358 144.899 30.3358 144.882 30.187C144.902 29.9947 144.929 29.9704 145.076 29.8507C145.188 29.7875 145.305 29.7339 145.422 29.6799C145.793 29.5004 146.085 29.3469 146.242 28.9462C146.337 28.5859 146.267 28.2518 146.138 27.9107C146.122 27.865 146.106 27.8193 146.089 27.7722C145.922 27.3426 145.676 26.9941 145.402 26.6262C145.325 26.5214 145.252 26.4143 145.178 26.3068C144.917 25.9353 144.619 25.5956 144.308 25.2649C144.235 25.1769 144.235 25.1769 144.235 25.0887C144.2 25.098 144.166 25.1073 144.13 25.1169C143.479 25.2924 142.828 25.4634 142.171 25.6171C141.886 25.6844 141.605 25.7604 141.324 25.8436C141.058 25.9156 140.787 25.9648 140.517 26.0147C140.519 26.0459 140.522 26.0772 140.524 26.1094C140.531 26.2025 140.539 26.2956 140.546 26.3887C140.554 26.4945 140.562 26.6002 140.571 26.7059C140.606 27.1568 140.606 27.1568 140.615 27.3628C140.642 27.9803 140.77 28.5372 141.235 28.9732C141.297 29.0263 141.36 29.0783 141.424 29.1287C141.457 29.1587 141.457 29.1587 141.49 29.1894C141.49 29.2185 141.49 29.2476 141.49 29.2775C141.527 29.2912 141.527 29.2912 141.565 29.3051C141.668 29.3657 141.668 29.3657 141.759 29.4842C142.14 29.9586 142.79 30.1541 143.369 30.2283C143.407 30.2323 143.445 30.2363 143.485 30.2404C143.712 30.2668 143.846 30.3004 144.014 30.468C144.003 30.5492 144.003 30.5492 143.969 30.6444C143.683 30.8551 143.316 30.9322 142.976 31.0137C142.87 31.0402 142.763 31.0667 142.657 31.0933C142.576 31.1132 142.576 31.1132 142.493 31.1335C142.239 31.1963 141.987 31.2622 141.734 31.3279C141.634 31.3536 141.535 31.3793 141.435 31.405C141.361 31.4241 141.361 31.4241 141.286 31.4436C140.838 31.5593 140.838 31.5593 140.688 31.5979C140.589 31.6236 140.489 31.6493 140.39 31.675C140.139 31.7399 139.887 31.8047 139.636 31.8695C139.387 31.9338 139.138 31.9982 138.889 32.0626C138.75 32.0984 138.611 32.1342 138.473 32.1699C138.386 32.1924 138.299 32.2148 138.212 32.2373C138.171 32.2479 138.129 32.2586 138.087 32.2696C137.891 32.3203 137.696 32.3727 137.502 32.4295C137.466 32.4398 137.43 32.4502 137.394 32.4608C137.328 32.4799 137.263 32.4995 137.198 32.5196C136.979 32.5833 136.76 32.617 136.533 32.5845C136.504 32.5554 136.474 32.5263 136.444 32.4963C136.448 32.3384 136.463 32.2583 136.574 32.1436C136.688 32.0696 136.803 32.0018 136.92 31.9341C138.244 31.1441 138.764 29.2233 139.12 27.8258C139.145 27.7331 139.172 27.6413 139.199 27.5495C139.522 26.4403 139.657 25.2446 139.705 24.093C139.714 23.935 139.737 23.7808 139.761 23.6244C139.823 23.2058 139.848 22.7852 139.875 22.3632C139.886 22.194 139.897 22.0247 139.909 21.8555C139.912 21.8144 139.914 21.7732 139.917 21.7309C139.936 21.4532 139.958 21.176 139.982 20.8988C140.013 20.5423 140.04 20.1857 140.049 19.8279C140.051 19.7957 140.052 19.7635 140.054 19.7303C140.055 19.5712 140.044 19.504 139.932 19.3878C139.891 19.363 139.85 19.3382 139.808 19.3126C139.759 19.2772 139.759 19.2772 139.708 19.2411C139.546 19.1595 139.385 19.1255 139.208 19.0893C139.173 19.0818 139.138 19.0742 139.101 19.0664C138.899 19.0238 138.696 18.9878 138.492 18.9571C138.305 18.9272 138.149 18.8966 137.994 18.7834C137.955 18.665 137.955 18.665 137.949 18.563C138.214 18.3173 138.538 18.2282 138.882 18.1441C139.663 17.9267 140.393 17.5062 141.049 17.0376C141.133 16.9783 141.217 16.9205 141.301 16.863C141.91 16.4454 142.435 15.9542 142.957 15.4352C142.981 15.4106 143.006 15.3861 143.031 15.3608C143.103 15.2898 143.174 15.2186 143.245 15.1473C143.266 15.126 143.287 15.1047 143.309 15.0828C143.46 14.9307 143.593 14.7695 143.723 14.6001C143.792 14.5505 143.792 14.5505 143.895 14.5562Z" fill="#000816"/>
<path d="M122.855 7.27539C123.008 7.34153 123.113 7.4299 123.234 7.5427C123.39 7.6851 123.548 7.82146 123.713 7.95332C123.914 8.11567 124.105 8.2864 124.295 8.46218C124.437 8.59319 124.583 8.7172 124.734 8.83793C124.945 9.00741 125.143 9.18768 125.341 9.37237C125.489 9.50982 125.641 9.64034 125.799 9.76663C125.983 9.91404 126.157 10.0687 126.33 10.2296C126.764 10.671 126.764 10.671 127.282 10.9792C127.399 10.9652 127.506 10.9461 127.621 10.9194C127.655 10.912 127.689 10.9045 127.725 10.8968C127.839 10.8717 127.954 10.8457 128.068 10.8197C128.149 10.8017 128.231 10.7837 128.312 10.7658C128.532 10.7173 128.751 10.668 128.971 10.6186C129.199 10.5672 129.428 10.5165 129.657 10.4658C130.03 10.3832 130.402 10.3002 130.774 10.217C131.257 10.1088 131.741 10.0018 132.225 9.8953C133.332 9.65161 134.439 9.40773 135.543 9.15086C136.117 9.01739 136.692 8.89356 137.269 8.77202C137.929 8.63286 138.586 8.48469 139.242 8.33C139.607 8.2446 139.969 8.16738 140.34 8.11315C140.209 8.2157 140.076 8.29584 139.929 8.37323C139.883 8.3977 139.837 8.42217 139.789 8.44738C139.74 8.4735 139.691 8.49962 139.64 8.52652C139.258 8.72951 138.878 8.93567 138.503 9.14934C138.096 9.38039 137.685 9.6026 137.272 9.82261C136.957 9.99094 136.644 10.1635 136.334 10.3398C135.927 10.5709 135.516 10.7931 135.103 11.0131C134.788 11.1814 134.475 11.354 134.165 11.5303C133.758 11.7614 133.347 11.9836 132.934 12.2036C132.619 12.3719 132.306 12.5445 131.996 12.7209C131.62 12.9339 131.242 13.1419 130.861 13.3464C130.812 13.3729 130.763 13.3994 130.713 13.4267C130.644 13.4636 130.644 13.4636 130.573 13.5013C130.533 13.523 130.492 13.5448 130.45 13.5672C130.34 13.6225 130.23 13.6692 130.114 13.7129C130.114 13.742 130.114 13.7711 130.114 13.8011C130.151 13.816 130.151 13.816 130.188 13.8313C130.322 13.9066 130.427 14.0071 130.538 14.1125C130.707 14.2708 130.879 14.4227 131.061 14.5672C131.314 14.7705 131.55 14.9906 131.787 15.2123C131.994 15.4053 132.208 15.5892 132.424 15.772C132.847 16.131 133.265 16.4939 133.656 16.8876C133.177 16.8583 132.705 16.7866 132.231 16.7168C131.744 16.6452 131.258 16.5771 130.769 16.5211C130.266 16.4629 129.765 16.3922 129.264 16.3196C129.224 16.3138 129.185 16.3081 129.144 16.3022C128.857 16.2605 128.57 16.2186 128.283 16.1766C127.994 16.1343 127.704 16.0921 127.414 16.05C127.3 16.0334 127.186 16.0166 127.072 15.9999C126.876 15.9713 126.681 15.9439 126.485 15.9176C126.435 15.9108 126.385 15.904 126.334 15.8969C126.291 15.8919 126.248 15.8869 126.204 15.8817C126.169 15.8774 126.134 15.8731 126.097 15.8687C125.884 15.8789 125.72 16.0154 125.553 16.1353C125.467 16.1928 125.382 16.2502 125.296 16.3075C125.252 16.3377 125.207 16.3679 125.162 16.399C124.93 16.5534 124.692 16.6966 124.454 16.8408C124.357 16.9004 124.259 16.96 124.161 17.0197C124.113 17.0491 124.065 17.0785 124.016 17.1088C123.791 17.2471 123.566 17.387 123.342 17.527C122.926 17.7867 122.508 18.0435 122.09 18.2995C121.769 18.4961 121.448 18.6944 121.129 18.8938C120.77 19.118 120.41 19.3414 120.049 19.5633C119.974 19.6092 119.9 19.6552 119.825 19.7012C119.78 19.7292 119.734 19.7572 119.687 19.786C119.627 19.823 119.627 19.823 119.566 19.8607C119.44 19.9339 119.312 19.9989 119.181 20.0623C119.25 19.7159 119.357 19.3865 119.47 19.0521C119.49 18.9922 119.51 18.9323 119.53 18.8723C119.583 18.7129 119.637 18.5536 119.69 18.3943C119.724 18.2958 119.757 18.1972 119.79 18.0987C120.138 17.0597 120.494 16.0234 120.863 14.9916C120.839 14.989 120.815 14.9864 120.79 14.9837C120.019 14.8981 119.251 14.7876 118.483 14.6743C118.444 14.6686 118.406 14.663 118.367 14.6571C118.31 14.6488 118.31 14.6488 118.253 14.6403C117.865 14.5833 117.477 14.5305 117.089 14.4788C116.897 14.4529 116.704 14.4262 116.512 14.3996C115.794 14.3005 115.075 14.2046 114.356 14.1098C114.463 14.0034 114.528 13.9933 114.674 13.9584C114.722 13.9468 114.77 13.9351 114.819 13.9231C114.871 13.9108 114.924 13.8984 114.978 13.8857C115.059 13.8661 115.059 13.8661 115.141 13.8461C115.285 13.8113 115.43 13.7767 115.574 13.7422C115.83 13.6811 116.086 13.6195 116.341 13.5578C116.397 13.5444 116.452 13.5311 116.509 13.5173C116.83 13.4394 117.149 13.3565 117.466 13.2661C118.004 13.1145 118.549 12.9908 119.092 12.86C119.878 12.6712 119.878 12.6712 120.657 12.4586C120.882 12.3939 121.106 12.3517 121.338 12.3221C121.514 12.2102 121.524 12.0107 121.572 11.817C121.596 11.7336 121.621 11.6503 121.646 11.5672C121.778 11.1222 121.904 10.6779 122.013 10.227C122.063 10.0301 122.123 9.83662 122.183 9.64262C122.293 9.28593 122.389 8.92672 122.482 8.56511C122.593 8.13025 122.713 7.70127 122.855 7.27539Z" fill="#000816"/>
<path d="M132.205 18.7781C132.284 18.8276 132.284 18.8276 132.328 18.9295C132.328 19.048 132.328 19.048 132.259 19.1638C132.079 19.3384 131.875 19.4049 131.642 19.4862C131.374 19.5815 131.137 19.7049 130.956 19.9299C130.879 20.1514 130.853 20.3556 130.856 20.5885C130.857 20.6198 130.857 20.6511 130.857 20.6833C130.861 20.8676 130.877 21.0312 130.932 21.2065C130.963 21.3222 130.975 21.4367 130.989 21.5558C131.039 21.9207 131.126 22.2755 131.211 22.6335C131.274 22.9018 131.334 23.1694 131.382 23.4408C131.438 23.751 131.511 24.0552 131.591 24.3601C131.626 24.4924 131.66 24.6249 131.694 24.7573C131.772 25.059 131.851 25.3605 131.93 25.6619C131.938 25.6941 131.947 25.7264 131.955 25.7595C132.03 26.0433 132.108 26.3261 132.187 26.6086C132.334 27.1327 132.477 27.6564 132.602 28.1863C132.68 28.5152 132.762 28.8403 132.861 29.1634C132.932 29.3967 132.996 29.6315 133.058 29.8674C133.338 31.0489 133.338 31.0489 133.907 32.1062C133.966 32.1877 133.966 32.1877 133.966 32.2759C133.995 32.2759 134.024 32.2759 134.055 32.2759C134.069 32.305 134.084 32.3341 134.099 32.364C134.262 32.4181 134.41 32.4111 134.579 32.4078C134.648 32.407 134.718 32.4063 134.788 32.4056C134.897 32.4042 135.007 32.4026 135.116 32.4006C135.222 32.3987 135.328 32.3977 135.434 32.3968C135.483 32.3955 135.483 32.3955 135.533 32.3943C135.759 32.3932 135.759 32.3932 135.868 32.4683C135.914 32.5404 135.914 32.5404 135.925 32.6479C135.835 32.8315 135.657 32.868 135.471 32.9373C135.316 32.9855 135.159 33.0253 135.001 33.064C134.91 33.0869 134.82 33.1097 134.729 33.1326C134.683 33.144 134.637 33.1555 134.59 33.1673C134.374 33.2215 134.159 33.2779 133.944 33.3341C133.859 33.3561 133.775 33.3781 133.69 33.4001C133.648 33.411 133.606 33.4219 133.563 33.4331C133.433 33.4668 133.304 33.5004 133.174 33.5341C132.781 33.636 132.389 33.7381 131.996 33.8412C131.56 33.9556 131.124 34.0689 130.688 34.1822C130.475 34.2375 130.262 34.2929 130.049 34.3482C129.792 34.4149 129.535 34.4816 129.279 34.5482C128.741 34.6879 128.741 34.6879 128.203 34.8285C128.135 34.8463 128.068 34.864 128 34.8816C127.807 34.9321 127.613 34.9837 127.421 35.0365C126.483 35.2906 126.483 35.2906 126.131 35.2742C126.087 35.2301 126.087 35.2301 126.07 35.084C126.087 34.9214 126.087 34.9214 126.167 34.825C126.329 34.7336 126.491 34.6759 126.666 34.6159C127.113 34.456 127.113 34.456 127.423 34.1197C127.47 33.9589 127.472 33.8059 127.47 33.64C127.47 33.6065 127.47 33.573 127.469 33.5385C127.464 33.2575 127.429 32.9919 127.371 32.7168C127.349 32.6102 127.327 32.5037 127.306 32.3971C127.29 32.32 127.274 32.2428 127.258 32.1657C127.214 31.9457 127.176 31.7268 127.147 31.5042C127.116 31.2725 127.067 31.0519 127.007 30.8261C126.968 30.6727 126.938 30.5187 126.909 30.3633C126.857 30.0977 126.788 29.8416 126.711 29.5822C126.652 29.3768 126.603 29.1688 126.555 28.9606C126.459 28.5545 126.355 28.151 126.247 27.7481C126.211 27.6148 126.176 27.4813 126.141 27.3479C126.104 27.2075 126.067 27.0672 126.03 26.9269C126.008 26.8434 125.986 26.7598 125.964 26.6762C125.817 26.1238 125.665 25.5744 125.495 25.0288C125.382 24.6641 125.279 24.2969 125.179 23.9284C125.108 23.67 125.026 23.4191 124.931 23.1685C124.893 23.0645 124.864 22.9609 124.837 22.8538C124.756 22.5745 124.616 22.3227 124.482 22.0658C124.405 21.9141 124.405 21.9141 124.361 21.7818C124.259 21.7317 124.259 21.7317 124.139 21.6936C124.106 21.6784 124.072 21.6631 124.038 21.6474C123.748 21.5456 123.418 21.5992 123.121 21.6495C123.037 21.6548 122.954 21.6583 122.87 21.6605C122.828 21.6617 122.787 21.6628 122.745 21.664C122.634 21.6495 122.634 21.6495 122.554 21.5921C122.502 21.5172 122.502 21.5172 122.496 21.3656C122.553 21.1865 122.605 21.1567 122.767 21.0715C122.91 21.0081 123.056 20.9753 123.21 20.944C123.277 20.9293 123.344 20.9145 123.411 20.8996C123.445 20.8923 123.478 20.885 123.512 20.8775C123.705 20.8339 123.896 20.7807 124.086 20.7292C124.315 20.6677 124.544 20.609 124.773 20.5499C125.071 20.473 125.368 20.394 125.664 20.3102C126.1 20.187 126.541 20.0797 126.982 19.9714C127.497 19.8447 128.009 19.7113 128.519 19.5661C128.963 19.4414 129.411 19.332 129.859 19.2218C130.365 19.0973 130.87 18.9708 131.368 18.8165C131.643 18.7378 131.93 18.6693 132.205 18.7781Z" fill="#000816"/>
<path d="M92.623 0C93.2219 0 93.8208 0 94.4379 0C94.4379 15.9766 94.4379 31.9532 94.4379 48.4139C93.839 48.4139 93.2401 48.4139 92.623 48.4139C92.623 32.4373 92.623 16.4607 92.623 0Z" fill="#000816"/>
<path d="M28.3957 19.6652C28.4529 19.6836 28.5101 19.702 28.5674 19.7203C29.2387 19.9448 29.97 20.3075 30.4761 20.8116C30.4817 20.9102 30.4841 21.0089 30.4853 21.1077C30.4857 21.139 30.4862 21.1703 30.4866 21.2026C30.4881 21.3084 30.4892 21.4141 30.4903 21.5199C30.4912 21.5954 30.4921 21.671 30.4931 21.7465C30.5014 22.438 30.506 23.1295 30.5096 23.821C30.5123 24.332 30.5169 24.8429 30.5238 25.3539C30.5286 25.7133 30.5311 26.0726 30.532 26.432C30.5327 26.6466 30.5343 26.861 30.5383 27.0755C30.5421 27.2778 30.5431 27.4799 30.542 27.6822C30.5421 27.7561 30.5431 27.8299 30.5453 27.9038C30.5555 28.2716 30.5409 28.5395 30.2804 28.818C30.1593 28.9347 30.0333 29.0418 29.9007 29.1452C29.8741 29.1663 29.8474 29.1874 29.82 29.2091C29.2048 29.693 28.5225 29.9804 27.776 30.2034C27.7494 30.2115 27.7228 30.2196 27.6953 30.2279C26.7859 30.4127 25.7131 30.2628 24.9317 29.7708C23.9181 29.0821 23.4395 27.9056 23.2109 26.7471C23.1184 26.198 23.1187 25.6439 23.1176 25.0887C23.1172 24.9607 23.1158 24.8328 23.1144 24.7048C23.106 23.2026 23.4183 21.5677 24.517 20.4589C24.9678 20.0255 25.4561 19.7617 26.0497 19.577C26.1024 19.5604 26.1551 19.5438 26.2095 19.5267C26.8948 19.3638 27.7344 19.4323 28.3957 19.6652Z" fill="#F9F9F9"/>
<path d="M39.8164 16.667C41.1457 16.667 42.4749 16.667 43.8444 16.667C43.8444 22.0798 43.8444 27.4927 43.8444 33.0695C42.5152 33.0695 41.1859 33.0695 39.8164 33.0695C39.8164 27.6567 39.8164 22.2439 39.8164 16.667Z" fill="#000816"/>
<path d="M0.819336 37.3467C0.833943 37.3467 0.84855 37.3467 0.8636 37.3467C0.866464 37.3734 0.869327 37.4002 0.872278 37.4277C1.14923 39.9528 2.10104 42.4434 3.87356 44.3133C3.91987 44.3674 3.96598 44.4216 4.01189 44.4759C4.41225 44.9323 4.85257 45.3545 5.33428 45.7243C5.37867 45.7594 5.42306 45.7946 5.4688 45.8308C6.06524 46.3001 6.69735 46.696 7.37043 47.0471C7.40713 47.0665 7.44382 47.0859 7.48163 47.1058C8.87408 47.833 10.3735 48.2046 11.9296 48.3699C11.9296 48.3844 11.9296 48.399 11.9296 48.414C8.26324 48.414 4.59684 48.414 0.819336 48.414C0.819336 44.7618 0.819336 41.1096 0.819336 37.3467Z" fill="#000816"/>
<path d="M112.373 24.6704C113.077 25.2933 113.297 26.2092 113.522 27.0872C113.529 27.1168 113.537 27.1464 113.545 27.1768C113.664 27.6388 113.764 28.0993 113.826 28.5726C113.834 28.6293 113.834 28.6293 113.843 28.6871C113.857 28.7963 113.865 28.9035 113.87 29.0135C113.872 29.0459 113.874 29.0784 113.875 29.1118C113.881 29.2278 113.884 29.3438 113.887 29.46C113.889 29.516 113.889 29.516 113.892 29.5733C113.896 29.854 113.826 30.0303 113.649 30.2481C113.204 30.6982 112.558 30.8225 111.967 30.9674C111.886 30.9876 111.806 31.0078 111.726 31.0281C111.143 31.1741 111.143 31.1741 111.037 31.1741C111.029 31.1422 111.021 31.1102 111.012 31.0774C110.82 30.3276 110.82 30.3276 110.614 29.5812C110.498 29.1747 110.401 28.7637 110.304 28.3525C110.251 28.1283 110.195 27.9048 110.139 27.6815C109.923 26.8247 109.923 26.8247 109.886 26.412C109.872 26.3829 109.857 26.3538 109.842 26.3239C109.807 25.941 109.835 25.5657 110.019 25.2215C110.362 24.8972 110.864 24.8052 111.311 24.7007C111.372 24.6862 111.372 24.6862 111.434 24.6714C111.743 24.6025 112.078 24.5317 112.373 24.6704Z" fill="#F9F9F9"/>
<path d="M42.5162 8.20081C42.5542 8.21161 42.5922 8.22241 42.6313 8.23353C43.2425 8.42731 43.7382 8.8682 44.0378 9.42989C44.308 10.0153 44.3884 10.6633 44.1982 11.2873C43.9149 11.9945 43.434 12.5143 42.7361 12.8287C42.1331 13.0397 41.4173 13.0635 40.8341 12.7865C40.1735 12.4609 39.7327 11.9578 39.4941 11.2656C39.3199 10.6666 39.3537 9.9917 39.639 9.43541C39.7331 9.28 39.8352 9.13612 39.9489 8.99448C39.9766 8.9577 40.0043 8.92093 40.0329 8.88304C40.6261 8.18774 41.6547 7.93127 42.5162 8.20081Z" fill="#000816"/>
<path d="M148.036 39.2482C148.37 39.5313 148.553 39.9171 148.617 40.345C148.687 41.2704 148.427 42.2524 147.817 42.9668C147.434 43.3709 146.945 43.66 146.381 43.7098C145.862 43.7188 145.394 43.6617 144.99 43.3131C144.661 42.9722 144.519 42.5499 144.517 42.0827C144.518 42.0349 144.519 41.9871 144.52 41.9378C144.521 41.8622 144.521 41.8622 144.523 41.7851C144.544 41.0275 144.829 40.2564 145.342 39.6836C145.367 39.6544 145.391 39.6253 145.417 39.5952C146.079 38.8689 147.212 38.6695 148.036 39.2482Z" fill="#000816"/>
<path d="M152.911 39.1104C153.145 39.3099 153.264 39.5248 153.353 39.8159C153.377 39.7871 153.4 39.7584 153.425 39.7287C153.79 39.3016 154.243 38.9896 154.814 38.9172C155.185 38.903 155.504 38.9893 155.804 39.2096C156.009 39.4235 156.119 39.6524 156.122 39.9496C156.121 39.9809 156.121 40.0123 156.12 40.0446C156.119 40.079 156.119 40.1133 156.118 40.1486C156.104 40.5761 156.013 40.987 155.921 41.4032C155.902 41.4887 155.883 41.5742 155.864 41.6597C155.818 41.8724 155.771 42.0851 155.724 42.2975C155.649 42.6308 155.58 42.9639 155.521 43.3002C155.483 43.515 155.483 43.515 155.434 43.5638C155.314 43.567 155.196 43.5679 155.077 43.5665C155.043 43.5663 155.01 43.5661 154.975 43.5659C154.892 43.5654 154.809 43.5646 154.725 43.5638C154.754 43.2668 154.803 42.9795 154.864 42.6874C154.873 42.641 154.883 42.5946 154.892 42.5468C154.945 42.2881 154.998 42.0297 155.053 41.7715C155.082 41.6349 155.11 41.4981 155.139 41.3613C155.152 41.2946 155.167 41.2279 155.181 41.1613C155.354 40.4838 155.354 40.4838 155.238 39.8256C155.16 39.7163 155.118 39.6808 154.991 39.6395C154.518 39.5789 154.217 39.6979 153.832 39.9537C153.348 40.391 153.207 41.0573 153.093 41.6678C153.071 41.7841 153.048 41.9005 153.025 42.0168C153.02 42.0461 153.014 42.0755 153.008 42.1057C152.946 42.4221 152.876 42.7367 152.805 43.0512C152.794 43.1028 152.782 43.1544 152.77 43.2076C152.743 43.3264 152.716 43.4451 152.689 43.5638C152.441 43.5638 152.193 43.5638 151.937 43.5638C152.023 43.0467 152.114 42.531 152.222 42.0178C152.235 41.9524 152.235 41.9524 152.249 41.8857C152.296 41.6656 152.345 41.4464 152.398 41.2277C152.615 40.4694 152.615 40.4694 152.468 39.7277C152.236 39.5937 151.931 39.6081 151.671 39.6395C151.187 39.7948 150.882 40.1227 150.633 40.5498C150.485 40.871 150.412 41.2083 150.352 41.5548C150.272 41.9898 150.177 42.4207 150.078 42.8517C150.068 42.8997 150.057 42.9477 150.045 42.9971C150.036 43.0395 150.026 43.0819 150.016 43.1255C149.986 43.2705 149.966 43.4173 149.945 43.5638C149.697 43.5638 149.448 43.5638 149.192 43.5638C149.224 43.2224 149.287 42.891 149.356 42.5552C149.367 42.4966 149.379 42.4381 149.391 42.3796C149.48 41.9439 149.576 41.51 149.674 41.0763C149.752 40.7316 149.821 40.3859 149.886 40.0385C150.035 39.2388 150.035 39.2388 150.122 39.0663C150.326 39.0663 150.531 39.0663 150.742 39.0663C150.764 39.3282 150.764 39.3282 150.786 39.5954C150.842 39.5418 150.899 39.4881 150.957 39.4328C151.485 38.9664 152.268 38.7165 152.911 39.1104Z" fill="#000816"/>
<path d="M140.872 20.459C140.901 20.459 140.93 20.459 140.96 20.459C141.014 20.5247 141.014 20.5247 141.076 20.6174C141.099 20.6516 141.122 20.6858 141.145 20.721C141.17 20.7582 141.195 20.7954 141.22 20.8338C141.409 21.114 141.601 21.3895 141.807 21.6578C142.001 21.9126 142.186 22.1722 142.367 22.4371C142.544 22.6952 142.727 22.9483 142.911 23.201C143.106 23.4688 143.298 23.7385 143.489 24.0093C143.509 24.0385 143.53 24.0676 143.551 24.0977C143.57 24.1247 143.589 24.1516 143.608 24.1794C143.651 24.2387 143.697 24.2957 143.744 24.3519C143.76 24.3768 143.776 24.4017 143.793 24.4273C143.771 24.4928 143.771 24.4928 143.749 24.5596C143.656 24.6003 143.656 24.6003 143.525 24.6368C143.472 24.6517 143.42 24.6667 143.366 24.6821C143.336 24.6905 143.306 24.6989 143.275 24.7075C143.118 24.7514 142.963 24.7973 142.807 24.8429C142.67 24.8828 142.533 24.9224 142.396 24.962C142.204 25.0174 142.013 25.0735 141.822 25.1301C141.775 25.1439 141.728 25.1578 141.679 25.172C141.59 25.1984 141.501 25.2248 141.411 25.2515C141.145 25.3297 140.879 25.3912 140.606 25.4415C140.598 24.9864 140.622 24.5365 140.653 24.0829C140.658 24.0078 140.663 23.9327 140.667 23.8577C140.68 23.6612 140.693 23.4646 140.706 23.2681C140.729 22.9178 140.752 22.5675 140.775 22.2172C140.777 22.1801 140.779 22.143 140.782 22.1047C140.817 21.5564 140.849 21.0081 140.872 20.459Z" fill="#F9F9F9"/>
<path d="M147.405 39.6697C147.642 39.8145 147.761 40.0058 147.841 40.2667C147.981 40.986 147.772 41.7543 147.383 42.3649C147.116 42.7365 146.853 42.9495 146.404 43.0786C146.103 43.1278 145.856 43.0799 145.607 42.9023C145.32 42.6287 145.246 42.3317 145.236 41.946C145.254 41.2171 145.482 40.4923 145.993 39.9563C146.068 39.8884 146.144 39.8294 146.227 39.7717C146.252 39.7535 146.277 39.7353 146.303 39.7166C146.62 39.5234 147.07 39.5166 147.405 39.6697Z" fill="#F9F9F9"/>
<path d="M144.103 39.1544C144.151 39.3206 144.133 39.4174 144.083 39.5843C144.064 39.6494 144.064 39.6494 144.045 39.7159C144.035 39.7489 144.024 39.7818 144.014 39.8158C143.967 39.8031 143.92 39.7903 143.871 39.7772C143.289 39.6259 142.773 39.5186 142.223 39.8327C142.186 39.8562 142.149 39.8797 142.111 39.904C142.063 39.934 142.016 39.964 141.967 39.9949C141.519 40.4063 141.291 41.077 141.261 41.6672C141.246 42.2533 141.246 42.2533 141.505 42.7645C141.753 42.9604 141.954 43.0138 142.263 43.0098C142.297 43.0096 142.332 43.0094 142.368 43.0092C142.761 42.9998 143.111 42.8934 143.483 42.77C143.474 42.8666 143.465 42.9625 143.452 43.0587C143.441 43.1505 143.432 43.2427 143.425 43.335C143.332 43.5089 143.278 43.5175 143.096 43.5802C142.501 43.7514 141.814 43.795 141.249 43.5084C140.804 43.2381 140.632 42.8498 140.473 42.3732C140.427 41.4152 140.592 40.46 141.242 39.7138C142.075 38.8395 143.009 38.8293 144.103 39.1544Z" fill="#000816"/>
<path d="M138.038 42.6377C138.331 42.6377 138.623 42.6377 138.924 42.6377C138.899 42.9592 138.855 43.2428 138.791 43.5636C138.484 43.5636 138.177 43.5636 137.861 43.5636C137.874 43.46 137.887 43.3563 137.9 43.2495C137.904 43.2174 137.908 43.1852 137.912 43.1521C137.936 42.9655 137.977 42.8201 138.038 42.6377Z" fill="#000816"/>
</g>
<defs>
<clipPath id="clip0_564_7239">
<rect width="160.458" height="48.4139" fill="white" transform="translate(0.819336)"/>
</clipPath>
</defs>
</svg>
