<svg width="51" height="51" viewBox="0 0 51 51" fill="none" xmlns="http://www.w3.org/2000/svg">
<circle cx="25.5" cy="25.5" r="25.5" fill="white"/>
<path d="M27.3838 28.0728C27.5086 28.1732 27.593 28.2833 27.611 28.4474C27.6301 28.7994 27.5249 29.1195 27.2936 29.3885C27.2847 29.3993 27.2757 29.4101 27.2665 29.4213C27.1405 29.5613 26.9335 29.6572 26.746 29.6755C26.6973 29.6774 26.6489 29.6776 26.6002 29.6769C26.5829 29.6768 26.5656 29.6766 26.5478 29.6765C26.2542 29.6709 25.9416 29.5986 25.7241 29.3894C25.5657 29.219 25.5586 29.0508 25.5654 28.8282C25.5694 28.7577 25.5874 28.6996 25.6145 28.635C25.6214 28.6165 25.6282 28.598 25.6353 28.5789C25.7478 28.2783 25.9102 28.0512 26.1989 27.9047C26.5534 27.7515 27.0821 27.848 27.3838 28.0728Z" fill="black"/>
<path d="M26.4207 30.6983C26.5341 30.8037 26.5767 30.9127 26.5872 31.0642C26.5876 31.1474 26.5714 31.2248 26.5531 31.3056C26.5495 31.3227 26.5458 31.3399 26.5421 31.3576C26.5313 31.4077 26.5202 31.4577 26.509 31.5077C26.5061 31.5204 26.5033 31.5332 26.5003 31.5464C26.4952 31.569 26.4901 31.5917 26.485 31.6143C26.4825 31.6251 26.4801 31.6359 26.4776 31.647C26.4751 31.6581 26.4726 31.6691 26.47 31.6805C26.4306 31.8573 26.3992 32.0357 26.3678 32.2141C26.3659 32.2246 26.364 32.2352 26.3621 32.2461C26.266 32.7912 26.1951 33.3375 26.1449 33.8888C26.1438 33.9001 26.1428 33.9114 26.1417 33.9231C26.124 34.1216 26.114 34.3192 26.1135 34.5185C26.1134 34.5299 26.1134 34.5414 26.1134 34.5531C26.1131 34.6138 26.113 34.6745 26.1129 34.7351C26.1128 34.7839 26.1126 34.8327 26.1123 34.8815C26.1091 35.3215 26.1221 35.7627 26.2108 36.1951C26.2179 36.23 26.2247 36.2649 26.2313 36.2999C26.259 36.4423 26.2948 36.5803 26.3364 36.7193C26.3427 36.7424 26.3491 36.7656 26.3553 36.7887C26.4885 37.2685 26.7365 37.7075 27.0582 38.0851C27.0693 38.0982 27.0804 38.1113 27.0918 38.1249C27.1761 38.2232 27.2645 38.3106 27.3662 38.3912C27.4477 38.4568 27.5109 38.5173 27.5447 38.6188C27.5524 38.7598 27.5596 38.897 27.4976 39.0269C27.4876 39.0499 27.4876 39.0499 27.4774 39.0733C27.4046 39.2313 27.3141 39.3345 27.1524 39.4037C26.9096 39.4656 26.7336 39.397 26.5247 39.2781C26.5027 39.2656 26.5027 39.2656 26.4803 39.2529C26.2921 39.1445 26.1118 39.0281 25.9417 38.8929C25.913 38.8702 25.8839 38.8481 25.8547 38.8261C25.5781 38.6135 25.3157 38.3532 25.1124 38.0694C25.0979 38.0502 25.0834 38.0311 25.0689 38.0121C24.9686 37.8797 24.8792 37.7435 24.7985 37.5984C24.7913 37.5855 24.7841 37.5725 24.7766 37.5592C24.4345 36.9395 24.2505 36.2744 24.1708 35.5734C24.1689 35.5573 24.1671 35.5412 24.1652 35.5246C24.1166 35.0841 24.1243 34.6322 24.1708 34.192C24.1729 34.1716 24.175 34.1512 24.1772 34.1302C24.2244 33.6781 24.2982 33.2359 24.41 32.7949C24.4196 32.7569 24.4289 32.7188 24.4379 32.6805C24.4699 32.5461 24.5077 32.4132 24.5458 32.2804C24.552 32.2588 24.5582 32.2371 24.5644 32.2154C24.5964 32.1034 24.6302 31.9936 24.6752 31.886C24.6932 31.8418 24.7068 31.7968 24.72 31.751C24.7422 31.6771 24.7673 31.6061 24.7968 31.5349C24.8173 31.4844 24.8358 31.4333 24.8544 31.3821C24.8986 31.2633 24.9462 31.146 24.9947 31.0289C25.0017 31.0115 25.0088 30.9941 25.0161 30.9761C25.1036 30.7672 25.2166 30.6415 25.4262 30.5501C25.7406 30.4398 26.1607 30.482 26.4207 30.6983Z" fill="black"/>
<path d="M19.5995 27.894C19.6149 27.8939 19.6303 27.8938 19.6462 27.8937C20.1003 27.8912 20.5147 27.9146 20.9538 28.0385C20.9683 28.0425 20.9828 28.0466 20.9977 28.0507C21.1548 28.0949 21.3075 28.1428 21.456 28.2112C21.4764 28.2203 21.4969 28.2294 21.5173 28.2385C21.7542 28.3455 21.9744 28.4725 22.1779 28.635C22.1979 28.6507 22.218 28.6664 22.238 28.682C22.4325 28.8354 22.6108 29.0002 22.7585 29.2001C22.7676 29.2123 22.7767 29.2244 22.7861 29.237C22.8644 29.345 22.9303 29.4597 22.9939 29.5769C23.0082 29.6034 23.0082 29.6034 23.0229 29.6304C23.3207 30.202 23.3748 30.8829 23.1871 31.4979C23.0419 31.9516 22.8035 32.3539 22.476 32.7007C22.4593 32.7203 22.4426 32.7399 22.426 32.7596C22.2888 32.9166 22.1381 33.0591 21.9738 33.1874C21.9621 33.197 21.9503 33.2067 21.9382 33.2167C21.5605 33.527 21.1333 33.7962 20.688 33.9978C20.482 34.0918 20.2252 34.2216 20.1196 34.4326C20.0443 34.6734 20.157 34.9667 20.2634 35.181C20.3451 35.3299 20.4431 35.4697 20.5458 35.6048C20.5583 35.6213 20.5707 35.6377 20.5835 35.6547C20.7547 35.8798 20.9357 36.0979 21.1259 36.3073C21.1543 36.3387 21.1821 36.3704 21.2098 36.4025C21.3156 36.5238 21.4246 36.6428 21.5396 36.7554C21.5653 36.7816 21.589 36.8088 21.6128 36.8368C21.689 36.9244 21.7715 37.0058 21.8536 37.0878C21.8708 37.105 21.8879 37.1221 21.905 37.1393C21.9408 37.1751 21.9765 37.2108 22.0123 37.2465C22.0579 37.292 22.1033 37.3375 22.1488 37.3831C22.1841 37.4185 22.2195 37.4538 22.2548 37.4891C22.2716 37.5059 22.2883 37.5227 22.3051 37.5395C22.3874 37.622 22.4699 37.7036 22.5589 37.779C22.6098 37.8234 22.6564 37.8721 22.7036 37.9202C22.7724 37.9898 22.8413 38.0575 22.9161 38.1206C22.9648 38.1638 23.0099 38.2105 23.0554 38.2569C23.0976 38.2996 23.1408 38.3393 23.1871 38.3774C23.2906 38.4664 23.3596 38.5768 23.3739 38.7146C23.3812 38.8528 23.3872 38.9865 23.3077 39.1054C23.3011 39.1161 23.2944 39.1268 23.2875 39.1378C23.1746 39.304 22.9638 39.4413 22.7702 39.491C22.5024 39.5336 22.2645 39.4524 22.0464 39.2997C21.8382 39.1413 21.6577 38.9487 21.4734 38.7638C21.4351 38.7254 21.3967 38.687 21.3583 38.6487C21.3211 38.6116 21.2839 38.5744 21.2468 38.5372C21.2332 38.5236 21.2196 38.51 21.2056 38.496C21.1372 38.4274 21.0711 38.3577 21.008 38.2842C20.9817 38.2537 20.9546 38.2242 20.9269 38.1949C20.9171 38.1846 20.9073 38.1742 20.8973 38.1635C20.8874 38.1532 20.8776 38.1428 20.8675 38.1322C20.7897 38.05 20.7139 37.9667 20.64 37.881C20.6284 37.8675 20.6284 37.8675 20.6165 37.8538C20.5694 37.7991 20.5225 37.7442 20.4757 37.6893C20.4533 37.6631 20.4308 37.6371 20.4083 37.6111C20.1546 37.3163 19.9256 36.9985 19.7141 36.6723C19.707 36.6614 19.6999 36.6506 19.6926 36.6394C19.4838 36.3191 19.2993 35.9881 19.1492 35.6362C19.1445 35.6255 19.1398 35.6148 19.135 35.6038C18.923 35.1185 18.8177 34.5475 18.9923 34.035C19.0268 33.947 19.0699 33.8653 19.1178 33.7839C19.1297 33.7634 19.1297 33.7634 19.1418 33.7426C19.2013 33.6476 19.2764 33.5668 19.3532 33.4856C19.364 33.4738 19.3748 33.462 19.3859 33.4498C19.5488 33.2778 19.7426 33.1699 19.9499 33.0602C20.2178 32.9171 20.449 32.7343 20.6714 32.5281C20.6853 32.5154 20.6853 32.5154 20.6995 32.5025C20.867 32.3437 20.9958 32.1459 21.1108 31.9472C21.121 31.9297 21.1311 31.9121 21.1417 31.8941C21.4035 31.4088 21.421 30.8183 21.2677 30.299C21.2386 30.2112 21.2009 30.1295 21.1578 30.0478C21.1526 30.0374 21.1474 30.0271 21.142 30.0164C21.0611 29.8571 20.965 29.7236 20.844 29.5926C20.8335 29.5808 20.8231 29.5691 20.8123 29.557C20.5101 29.2338 20.0364 29.1017 19.6068 29.0848C19.1961 29.0761 18.7193 29.1362 18.4028 29.4268C18.0923 29.7257 18.0418 30.0938 18.0064 30.5045C18.0028 30.5457 17.9989 30.5869 17.995 30.6281C17.9435 31.1946 17.9353 31.7634 17.9368 32.3319C17.9369 32.3829 17.937 32.4339 17.9371 32.4848C17.9379 32.9944 17.9431 33.5031 17.9695 34.0121C17.9724 34.0691 17.9751 34.1262 17.9779 34.1832C18.0129 34.9057 18.0747 35.6257 18.1387 36.3462C18.158 36.5643 18.177 36.7824 18.195 37.0006C18.1986 37.0444 18.2023 37.0882 18.206 37.132C18.2337 37.465 18.242 37.7974 18.2419 38.1314C18.242 38.1922 18.2423 38.253 18.2425 38.3138C18.243 38.5223 18.2389 38.7264 18.2076 38.9327C18.2053 38.9481 18.2031 38.9634 18.2007 38.9792C18.1635 39.2053 18.0974 39.42 17.9115 39.5684C17.7735 39.6622 17.6189 39.6899 17.4544 39.6705C17.2364 39.6194 17.0117 39.4882 16.8738 39.3095C16.7974 39.1813 16.7621 39.0803 16.7601 38.9321C16.7596 38.9064 16.7591 38.8808 16.7586 38.8551C16.7583 38.8417 16.7581 38.8283 16.7578 38.8144C16.7499 38.3961 16.7109 37.988 16.6526 37.574C16.6267 37.39 16.6026 37.2058 16.5795 37.0214C16.5756 36.9904 16.5717 36.9593 16.5678 36.9283C16.5535 36.8149 16.5405 36.7015 16.5288 36.5878C16.5189 36.4915 16.5081 36.3954 16.4959 36.2993C16.402 35.553 16.3336 34.8018 16.2931 34.0507C16.2923 34.0362 16.2915 34.0217 16.2907 34.0067C16.2482 33.2341 16.233 32.4524 16.2931 31.6804C16.2941 31.6676 16.2951 31.6549 16.2962 31.6418C16.32 31.3416 16.3537 31.0435 16.403 30.7464C16.4058 30.7293 16.4058 30.7293 16.4087 30.7118C16.4355 30.551 16.4718 30.3939 16.5128 30.2362C16.5207 30.2044 16.5285 30.1727 16.5363 30.1409C16.7138 29.4288 17.1215 28.8254 17.7511 28.4374C18.3075 28.1047 18.9478 27.8972 19.5995 27.894Z" fill="black"/>
<path d="M10.0667 29.0981C10.1019 29.0981 10.137 29.098 10.1721 29.0979C10.4731 29.0973 10.7687 29.1129 11.0675 29.153C11.0803 29.1547 11.0932 29.1565 11.1064 29.1582C11.1751 29.1676 11.2434 29.1785 11.3118 29.1903C11.3312 29.1936 11.3507 29.1969 11.3708 29.2003C11.5288 29.228 11.6826 29.2647 11.8365 29.31C11.8517 29.3142 11.867 29.3183 11.8828 29.3226C11.9861 29.3515 12.0833 29.3929 12.1817 29.4356C12.2012 29.4438 12.2206 29.452 12.2401 29.4601C12.4658 29.5556 12.6772 29.6629 12.8722 29.8123C12.8983 29.8304 12.9244 29.8484 12.9506 29.8663C13.2435 30.071 13.5153 30.3316 13.7353 30.6129C13.7487 30.6295 13.7622 30.6461 13.7757 30.6626C14.1949 31.1805 14.5298 31.8111 14.7144 32.4504C14.7239 32.4811 14.7349 32.5108 14.7466 32.5408C14.8313 32.7621 14.8831 32.9985 14.9328 33.2295C14.9385 33.2559 14.9385 33.2559 14.9443 33.2828C14.9666 33.3894 14.984 33.4958 14.9979 33.6038C15.0044 33.6455 15.0123 33.6851 15.022 33.7261C15.039 33.8006 15.0473 33.8745 15.054 33.9505C15.056 33.9717 15.056 33.9717 15.058 33.9932C15.0607 34.0229 15.0634 34.0526 15.0661 34.0822C15.0701 34.1266 15.0742 34.171 15.0784 34.2153C15.2006 35.5363 15.1602 37.0501 14.2094 38.3943C13.8699 38.8031 13.4505 39.0953 12.9663 39.3095C12.9509 39.3165 12.9509 39.3165 12.9353 39.3236C12.6385 39.4571 12.3105 39.5249 11.9934 39.592C11.9813 39.5946 11.9692 39.5972 11.9568 39.5998C11.8676 39.6183 11.7788 39.6322 11.6883 39.6426C11.6746 39.6442 11.661 39.6458 11.6469 39.6475C11.6025 39.6526 11.5582 39.6577 11.5138 39.6627C11.4983 39.6644 11.4829 39.6662 11.467 39.668C11.1071 39.7081 10.749 39.7299 10.3872 39.741C10.3763 39.7413 10.3654 39.7417 10.3542 39.742C10.2436 39.7454 10.1329 39.7487 10.0222 39.7516C9.81467 39.757 9.60748 39.7639 9.40039 39.7793C9.37638 39.7811 9.37638 39.7811 9.35188 39.7828C9.08097 39.8047 8.78352 39.8519 8.5891 40.06C8.55212 40.1071 8.52128 40.1572 8.49004 40.2082C8.42513 40.3132 8.34488 40.3992 8.25857 40.4868C8.24807 40.4975 8.23758 40.5082 8.22676 40.5193C8.05142 40.685 7.85116 40.744 7.61591 40.745C7.42163 40.7394 7.26428 40.632 7.13258 40.4965C6.94626 40.2793 6.92272 40.0383 6.93662 39.7632C6.96878 39.3764 7.24753 38.974 7.53672 38.7287C7.82025 38.5116 8.16353 38.411 8.51799 38.4132C8.53862 38.4132 8.53862 38.4132 8.55967 38.4132C8.60316 38.4133 8.64664 38.4135 8.69012 38.4137C8.71979 38.4138 8.74946 38.4139 8.77912 38.4139C8.85146 38.4141 8.92379 38.4144 8.99612 38.4147C8.9765 38.0972 8.95428 37.7801 8.92845 37.463C8.92761 37.4527 8.92677 37.4424 8.92591 37.4318C8.81777 36.0113 8.81777 36.0113 8.5953 34.6056C8.58315 34.5433 8.57448 34.4805 8.56556 34.4177C8.52672 34.1489 8.52672 34.1489 8.45824 33.8867C8.44669 33.846 8.43971 33.8066 8.43346 33.7648C8.41292 33.6376 8.38481 33.5122 8.35665 33.3865C8.35387 33.3741 8.3511 33.3616 8.34823 33.3488C8.2592 32.9506 8.15595 32.5553 8.02405 32.169C8.00499 32.1125 7.9878 32.0556 7.97127 31.9984C7.96396 31.9745 7.95589 31.9509 7.94712 31.9275C7.90247 31.8082 7.89145 31.6887 7.94326 31.5694C8.03764 31.4025 8.20573 31.2985 8.38411 31.2408C8.39463 31.2373 8.40515 31.2338 8.41599 31.2301C8.57276 31.1864 8.77488 31.1844 8.92557 31.2494C9.1224 31.3643 9.20271 31.5328 9.27957 31.7383C9.28617 31.7554 9.29278 31.7726 9.29958 31.7903C9.33891 31.894 9.37373 31.9983 9.40565 32.1044C9.43217 32.1922 9.46203 32.2787 9.49221 32.3652C9.549 32.5293 9.59723 32.6936 9.63748 32.8624C9.65671 32.9431 9.67762 33.0227 9.70118 33.1022C9.7398 33.2357 9.76758 33.3711 9.79546 33.5072C9.80099 33.5339 9.80652 33.5607 9.81206 33.5874C9.82031 33.6272 9.82854 33.667 9.83673 33.7068C9.85123 33.7771 9.86605 33.8474 9.88146 33.9175C10.0331 34.6106 10.1206 35.3229 10.1888 36.0287C10.1901 36.0421 10.1914 36.0555 10.1927 36.0693C10.2731 36.9047 10.3429 37.7475 10.33 38.5874C10.3601 38.5869 10.3601 38.5869 10.3908 38.5864C10.4419 38.5863 10.4914 38.589 10.5421 38.5951C10.6577 38.6076 10.7739 38.6062 10.89 38.606C10.9021 38.606 10.9142 38.606 10.9267 38.606C11.4613 38.6052 12.0052 38.5547 12.4171 38.1792C12.428 38.1696 12.4389 38.16 12.4501 38.1501C12.6663 37.9481 12.8213 37.6593 12.909 37.3794C12.9206 37.3431 12.9331 37.3071 12.9456 37.271C13.0054 37.0929 13.0454 36.9145 13.0742 36.7292C13.0774 36.7089 13.0806 36.6886 13.0839 36.6676C13.1879 35.9573 13.1341 35.2146 13.0448 34.506C13.0426 34.4882 13.0426 34.4882 13.0403 34.47C12.9823 34.0047 12.8877 33.5397 12.7413 33.0938C12.7297 33.0578 12.7185 33.0218 12.7073 32.9857C12.7012 32.966 12.7012 32.966 12.695 32.9459C12.6872 32.9208 12.6795 32.8957 12.6718 32.8706C12.5144 32.3669 12.2436 31.8693 11.8854 31.4811C11.8548 31.4478 11.8255 31.4137 11.7963 31.3792C11.6425 31.2036 11.4394 31.0618 11.2402 30.9426C11.2233 30.932 11.2064 30.9214 11.189 30.9105C10.7417 30.6377 10.2193 30.514 9.70229 30.4716C9.68612 30.4702 9.66996 30.4687 9.65331 30.4672C9.49993 30.4543 9.34707 30.4536 9.19324 30.4539C9.14941 30.454 9.1056 30.4539 9.06177 30.4538C8.83527 30.4537 8.60922 30.4593 8.38411 30.4864C8.36372 30.4888 8.34333 30.4912 8.32232 30.4937C8.30488 30.4958 8.30488 30.4958 8.28708 30.4979C8.23998 30.5034 8.19284 30.5084 8.14569 30.5134C7.995 30.5297 7.84525 30.5496 7.69561 30.5737C7.6836 30.5756 7.67159 30.5775 7.65922 30.5795C7.38433 30.6238 7.11386 30.6862 6.84294 30.75C6.31228 30.8748 6.31228 30.8748 6.1087 30.7699C5.96556 30.6721 5.86401 30.5314 5.82623 30.3618C5.80661 30.1744 5.8332 30.0238 5.94491 29.8712C6.13337 29.6529 6.42478 29.6067 6.69456 29.5541C6.76164 29.541 6.82864 29.5274 6.89566 29.514C6.91555 29.51 6.91555 29.51 6.93585 29.5059C7.06848 29.4793 7.20046 29.45 7.33231 29.4197C7.55822 29.3683 7.7864 29.3304 8.01503 29.2935C8.05823 29.2865 8.10142 29.2795 8.14462 29.2724C8.22965 29.2586 8.31472 29.245 8.39981 29.2315C8.41291 29.2294 8.42602 29.2274 8.43953 29.2252C8.9802 29.14 9.51968 29.0982 10.0667 29.0981Z" fill="black"/>
<path d="M15.9587 16.2465C15.9771 16.2463 15.9955 16.2461 16.0144 16.2459C16.2158 16.2456 16.3987 16.2926 16.5511 16.4329C16.6572 16.5506 16.6971 16.6731 16.6948 16.8304C16.6866 16.983 16.6205 17.1295 16.5128 17.2384C16.3747 17.3512 16.2268 17.3942 16.0508 17.4033C16.0391 17.4039 16.0275 17.4045 16.0155 17.4052C15.9767 17.4072 15.9378 17.4092 15.8989 17.4111C15.8853 17.4118 15.8716 17.4125 15.8576 17.4132C15.6203 17.425 15.3832 17.4308 15.1456 17.4346C14.88 17.439 14.6147 17.4459 14.3492 17.4572C14.3347 17.4578 14.3202 17.4584 14.3053 17.459C14.024 17.4706 13.7436 17.4898 13.4665 17.5416C13.4479 17.545 13.4294 17.5485 13.4102 17.552C12.9682 17.6357 12.5291 17.7683 12.2605 18.1571C11.9789 18.5817 11.8383 19.0695 11.7266 19.5617C11.7234 19.5755 11.7202 19.5894 11.7169 19.6036C11.6218 20.0213 11.5974 20.457 11.579 20.8838C11.5785 20.8961 11.578 20.9085 11.5774 20.9213C11.5764 20.9441 11.5755 20.967 11.5747 20.9899C11.5714 21.069 11.5636 21.1471 11.554 21.2257C12.3703 21.2321 12.3703 21.2321 13.186 21.21C13.207 21.2089 13.207 21.2089 13.2285 21.2079C13.6913 21.1849 14.151 21.1528 14.6092 21.0816C14.6284 21.0786 14.6476 21.0756 14.6674 21.0725C14.7029 21.0669 14.7383 21.0611 14.7736 21.055C14.9442 21.0273 15.0956 21.0313 15.2417 21.1315C15.3632 21.2356 15.4604 21.4115 15.4771 21.571C15.4871 21.7178 15.4871 21.8468 15.4144 21.9792C15.4056 21.996 15.3969 22.0128 15.3879 22.0302C15.3068 22.1266 15.2165 22.1702 15.0949 22.1989C15.0839 22.2015 15.0729 22.2042 15.0615 22.2069C14.9471 22.2341 14.8319 22.2562 14.716 22.2764C14.7049 22.2784 14.6938 22.2803 14.6824 22.2824C14.2711 22.3543 13.8537 22.4067 13.4371 22.4344C13.4181 22.4358 13.3992 22.4372 13.3796 22.4386C13.0219 22.4647 12.6643 22.4687 12.3058 22.4687C12.282 22.4687 12.2581 22.4687 12.2343 22.4687C12.1656 22.4688 12.0969 22.4687 12.0281 22.4685C11.9969 22.4684 11.9656 22.4684 11.9344 22.4684C11.8324 22.4678 11.7335 22.4638 11.6325 22.4501C11.643 22.5154 11.6536 22.5808 11.6643 22.6461C11.6679 22.6683 11.6715 22.6905 11.675 22.7127C11.6802 22.7448 11.6854 22.7768 11.6907 22.8088C11.6954 22.8377 11.6954 22.8377 11.7002 22.8671C11.7104 22.9185 11.7249 22.9658 11.7423 23.0152C11.7497 23.0468 11.7565 23.0786 11.7629 23.1104C11.8332 23.4432 11.9138 23.7722 12.0562 24.0827C12.062 24.0955 12.0678 24.1083 12.0738 24.1215C12.1977 24.3928 12.3298 24.6422 12.5269 24.8675C12.5377 24.8805 12.5484 24.8935 12.5594 24.9069C12.7199 25.0958 12.9197 25.2272 13.1389 25.3385C13.1486 25.3435 13.1583 25.3485 13.1682 25.3537C13.5586 25.5533 13.9998 25.5804 14.4297 25.5798C14.4489 25.5798 14.4682 25.5798 14.488 25.5798C14.9081 25.5794 15.3203 25.5442 15.7365 25.4899C15.8857 25.4705 16.0327 25.4589 16.1833 25.4572C16.2001 25.4568 16.2169 25.4565 16.2342 25.4561C16.3715 25.4565 16.4919 25.4902 16.5913 25.5896C16.6921 25.7199 16.7417 25.8396 16.7404 26.0046C16.7403 26.0178 16.7402 26.031 16.7401 26.0446C16.7371 26.1459 16.7216 26.2177 16.6541 26.296C16.6462 26.3063 16.6384 26.3166 16.6303 26.3272C16.3231 26.6837 15.7118 26.6904 15.2818 26.7461C15.2439 26.751 15.206 26.756 15.1681 26.761C15.0202 26.7804 14.8722 26.798 14.7239 26.8141C14.7075 26.8159 14.691 26.8178 14.6741 26.8197C14.4104 26.8485 14.1463 26.8487 13.8814 26.8494C13.8638 26.8495 13.8462 26.8496 13.8281 26.8496C13.1103 26.8522 12.3797 26.753 11.7403 26.4061C11.7099 26.3897 11.6793 26.3736 11.6487 26.3576C11.4177 26.2345 11.2158 26.0768 11.0282 25.8949C11.0056 25.873 10.9827 25.8513 10.9598 25.8297C10.5255 25.41 10.2427 24.8423 10.0318 24.2845C10.0241 24.264 10.0241 24.264 10.0161 24.2431C10.011 24.2294 10.0058 24.2157 10.0004 24.2016C9.98546 24.163 9.96965 24.1248 9.95373 24.0866C9.91317 23.9855 9.88335 23.8812 9.85333 23.7765C9.85027 23.7659 9.8472 23.7553 9.84405 23.7444C9.56105 22.7609 9.56105 22.7609 9.56105 22.2774C9.54755 22.2767 9.53406 22.276 9.52015 22.2753C9.36697 22.2663 9.21556 22.2498 9.06348 22.2296C9.02446 22.2244 8.98542 22.2194 8.94638 22.2145C8.53093 22.1606 8.53093 22.1606 8.38019 22.0056C8.30166 21.885 8.27907 21.7811 8.28113 21.6377C8.28128 21.6211 8.28143 21.6045 8.28158 21.5873C8.28639 21.4064 8.33343 21.2487 8.46258 21.1158C8.58997 21.0033 8.72201 20.9969 8.88627 21.0059C8.9931 21.0138 9.09954 21.0256 9.20601 21.0373C9.23449 21.0403 9.26298 21.0433 9.29146 21.0464C9.36041 21.0537 9.42935 21.0611 9.49828 21.0687C9.49806 21.0405 9.49806 21.0405 9.49783 21.0117C9.49696 20.8519 9.50004 20.6935 9.51103 20.534C9.51173 20.5237 9.51242 20.5134 9.51313 20.5028C9.5333 20.2066 9.56877 19.9135 9.61696 19.6206C9.62025 19.6005 9.62354 19.5804 9.62694 19.5597C9.63014 19.5408 9.63334 19.522 9.63664 19.5026C9.64087 19.4776 9.64087 19.4776 9.64519 19.4522C9.6555 19.4033 9.67043 19.3577 9.68659 19.3105C9.69329 19.2746 9.69946 19.2387 9.70523 19.2026C9.73614 19.0253 9.7908 18.8544 9.84352 18.6826C9.84679 18.6716 9.85006 18.6607 9.85343 18.6493C9.94072 18.3565 10.0672 18.0679 10.2201 17.8035C10.2255 17.794 10.2309 17.7845 10.2364 17.7746C10.3226 17.6213 10.4212 17.4831 10.534 17.3483C10.5458 17.3341 10.5576 17.3199 10.5697 17.3052C10.9478 16.8669 11.5263 16.6614 12.0763 16.5414C12.1194 16.5319 12.1623 16.522 12.2052 16.512C12.9784 16.3364 13.7931 16.3284 14.582 16.3004C14.5967 16.2999 14.6114 16.2994 14.6265 16.2988C14.7766 16.2935 14.9268 16.2882 15.0769 16.2832C15.1341 16.2812 15.1913 16.2793 15.2484 16.2773C15.2753 16.2764 15.3021 16.2755 15.329 16.2746C15.456 16.2704 15.5824 16.2655 15.7088 16.2528C15.7919 16.245 15.8754 16.2466 15.9587 16.2465Z" fill="black"/>
<path d="M22.8055 15.9512C22.8243 15.9581 22.8243 15.9581 22.8435 15.9651C23.2971 16.1338 23.7045 16.3797 24.054 16.7144C24.0741 16.7337 24.0944 16.7527 24.1148 16.7717C24.634 17.2699 24.9595 18.0221 25.0999 18.7157C25.1105 18.768 25.1228 18.8193 25.1359 18.871C25.175 19.0418 25.1989 19.2154 25.2222 19.389C25.2258 19.4154 25.2258 19.4154 25.2296 19.4424C25.3411 20.286 25.2915 21.1777 25.128 22.0105C25.1215 22.0452 25.1149 22.0799 25.1084 22.1145C25.0527 22.4048 24.9857 22.6881 24.8881 22.9673C24.8769 22.9997 24.8662 23.0323 24.8556 23.0649C24.6329 23.7346 24.3183 24.3759 23.8569 24.9146C23.8492 24.9237 23.8415 24.9328 23.8336 24.9422C23.2346 25.6494 22.3856 26.1656 21.4473 26.2464C21.3011 26.2561 21.1542 26.2549 21.0078 26.2548C20.9824 26.2549 20.9824 26.2549 20.9565 26.2549C20.6822 26.2549 20.4211 26.2383 20.1535 26.1744C20.136 26.1702 20.1185 26.1661 20.1005 26.1619C19.9572 26.127 19.8193 26.0849 19.6827 26.0292C19.6716 26.0247 19.6604 26.0202 19.649 26.0156C19.3165 25.8799 19.0172 25.6966 18.7569 25.4484C18.7428 25.435 18.7428 25.435 18.7284 25.4214C18.4049 25.1136 18.1717 24.7555 18.0193 24.3338C18.0145 24.3213 18.0096 24.3088 18.0046 24.2959C17.9638 24.189 17.9366 24.0829 17.9144 23.9708C17.911 23.9548 17.9077 23.9388 17.9043 23.9223C17.8245 23.5303 17.8284 23.0894 17.9252 22.7012C17.9302 22.6804 17.9302 22.6804 17.9354 22.6591C18.048 22.2043 18.2642 21.782 18.5529 21.414C18.5647 21.399 18.5765 21.3839 18.5887 21.3683C18.7813 21.132 19.0007 20.908 19.2473 20.728C19.2772 20.7058 19.3066 20.6828 19.3358 20.6597C19.6535 20.4102 19.9936 20.1922 20.3575 20.0166C20.3798 20.0057 20.402 19.9945 20.4241 19.9831C20.7412 19.8204 21.0809 19.7142 21.4246 19.6245C21.437 19.6212 21.4493 19.6178 21.4621 19.6144C22.2625 19.3999 22.2625 19.3999 22.5035 19.5107C22.5287 19.5282 22.5287 19.5282 22.5545 19.546C22.5681 19.5547 22.5816 19.5635 22.5957 19.5725C22.7362 19.7094 22.7865 19.8813 22.7957 20.0728C22.7941 20.218 22.7424 20.3706 22.6381 20.4747C22.4338 20.6357 22.1993 20.662 21.9483 20.6995C21.5495 20.7606 21.1725 20.8873 20.8126 21.0687C20.8006 21.0747 20.7886 21.0807 20.7762 21.0869C20.5251 21.2145 20.3085 21.392 20.1064 21.5867C20.0952 21.5971 20.0841 21.6075 20.0725 21.6182C19.7948 21.8827 19.6082 22.2423 19.5034 22.6073C19.4949 22.6369 19.4858 22.6663 19.4767 22.6957C19.3588 23.0968 19.3693 23.5498 19.4473 23.9571C19.4509 23.9762 19.4545 23.9953 19.4582 24.015C19.5225 24.3208 19.6552 24.6207 19.8867 24.8361C19.8969 24.8466 19.9071 24.8571 19.9176 24.8678C20.0297 24.9775 20.1521 25.0421 20.2947 25.103C20.3109 25.1102 20.3271 25.1174 20.3437 25.1248C20.6153 25.2234 20.9654 25.1918 21.2363 25.103C21.255 25.0973 21.2736 25.0916 21.2929 25.0858C21.5817 24.9912 21.817 24.8243 22.0366 24.6164C22.0503 24.6037 22.064 24.591 22.0781 24.5779C22.3422 24.3251 22.5423 24.0009 22.6976 23.6719C22.7127 23.6404 22.7284 23.6092 22.7442 23.578C22.767 23.5327 22.7874 23.4874 22.8055 23.44C22.8245 23.3906 22.8451 23.3424 22.8671 23.2942C22.8997 23.2212 22.9259 23.1471 22.9507 23.0711C22.9553 23.057 22.9599 23.043 22.9647 23.0285C22.9798 22.9822 22.9947 22.9359 23.0095 22.8896C23.0147 22.8735 23.0199 22.8575 23.0253 22.8409C23.1286 22.5191 23.216 22.1948 23.2698 21.8609C23.2774 21.8159 23.2858 21.771 23.2943 21.7261C23.3542 21.4041 23.3885 21.0808 23.4176 20.7547C23.4191 20.7371 23.4207 20.7195 23.4224 20.7013C23.4346 20.5558 23.4392 20.4101 23.4431 20.2642C23.4434 20.2511 23.4437 20.238 23.4441 20.2245C23.4497 20.0028 23.4477 19.783 23.4332 19.5617C23.4325 19.5474 23.4317 19.5331 23.4309 19.5184C23.4099 19.1425 23.3462 18.7535 23.2135 18.4001C23.2073 18.3832 23.201 18.3664 23.1946 18.3491C22.9761 17.7987 22.6344 17.3761 22.0879 17.1334C21.8106 17.0171 21.4994 16.9838 21.201 16.9853C21.1852 16.9854 21.1695 16.9854 21.1533 16.9855C20.9519 16.987 20.759 17.0033 20.5616 17.0438C20.5204 17.052 20.479 17.059 20.4375 17.0662C20.0978 17.126 19.7662 17.2421 19.4426 17.3592C19.2494 17.4284 19.0362 17.4779 18.8412 17.3876C18.7109 17.3114 18.6028 17.1837 18.5601 17.0366C18.525 16.8734 18.5313 16.6818 18.6188 16.5383C18.9451 16.1035 19.8324 15.9213 20.3261 15.8099C20.3372 15.8074 20.3482 15.8048 20.3596 15.8022C20.4317 15.786 20.5041 15.7735 20.5772 15.7628C20.5912 15.7607 20.6052 15.7586 20.6197 15.7564C21.3488 15.6504 22.1118 15.6959 22.8055 15.9512Z" fill="black"/>
<path d="M29.2395 15.6059C29.2553 15.6065 29.271 15.6071 29.2873 15.6077C29.8712 15.6337 30.5159 15.8033 30.9814 16.171C30.9955 16.1817 31.0096 16.1923 31.0241 16.2034C31.3929 16.4921 31.686 16.8944 31.7465 17.3694C31.7682 17.6065 31.7708 17.8565 31.7032 18.0861C31.7002 18.0973 31.6972 18.1085 31.694 18.12C31.6345 18.3375 31.5502 18.5204 31.3512 18.6449C31.1814 18.7376 30.9977 18.7619 30.8078 18.7188C30.7689 18.7043 30.7347 18.6877 30.6989 18.6669C30.6867 18.6601 30.6745 18.6532 30.662 18.6462C30.5233 18.5613 30.4254 18.4498 30.385 18.2902C30.3611 18.1634 30.397 18.0614 30.44 17.9438C30.4808 17.8315 30.5054 17.7312 30.5047 17.6112C30.5047 17.5995 30.5046 17.5877 30.5046 17.5756C30.4976 17.3848 30.4075 17.2141 30.2703 17.0845C29.9596 16.8307 29.579 16.7944 29.1924 16.8146C28.8941 16.8447 28.6236 17.0005 28.4284 17.2247C28.1006 17.6443 28.0611 18.1917 28.1234 18.7041C28.1901 19.1607 28.3417 19.5894 28.6222 19.9578C28.6446 19.9874 28.6665 20.0172 28.6883 20.0472C28.7792 20.1711 28.8745 20.2896 28.9755 20.4053C29.0167 20.4525 29.0561 20.5009 29.0953 20.5497C29.1424 20.6077 29.1912 20.6611 29.2448 20.713C29.2818 20.7499 29.3154 20.7894 29.3496 20.829C29.4818 20.9802 29.621 21.1255 29.7585 21.2719C30.0131 21.5431 30.0131 21.5431 30.0927 21.6358C30.1236 21.6713 30.1553 21.706 30.1869 21.7407C30.7485 22.3643 31.2365 23.1066 31.2038 23.9775C31.1581 24.6833 30.765 25.3661 30.2462 25.833C29.5186 26.4677 28.5265 26.6777 27.5849 26.6747C27.5702 26.6747 27.5555 26.6747 27.5404 26.6746C26.1297 26.6707 26.1297 26.6707 25.8292 26.3858C25.7 26.2536 25.6559 26.1191 25.6544 25.9369C25.6567 25.8195 25.6893 25.734 25.7558 25.6367C25.7629 25.626 25.7701 25.6152 25.7775 25.6042C25.8562 25.5004 25.9772 25.4357 26.101 25.4013C26.2416 25.3838 26.3757 25.4041 26.514 25.4294C26.9482 25.5086 27.388 25.5274 27.8115 25.3856C27.8262 25.3807 27.8409 25.3758 27.8561 25.3708C28.4081 25.1834 28.878 24.83 29.1406 24.2998C29.2013 24.1729 29.2522 24.0466 29.2866 23.91C29.2893 23.8993 29.292 23.8887 29.2948 23.8777C29.3037 23.8427 29.3124 23.8077 29.3209 23.7726C29.3235 23.7619 29.3262 23.7511 29.3289 23.74C29.4593 23.1795 29.313 22.5893 29.023 22.1048C28.8303 21.7996 28.5962 21.5191 28.3384 21.2667C28.3129 21.2406 28.2899 21.2134 28.2666 21.1854C28.2165 21.1275 28.1616 21.076 28.1052 21.0245C27.9488 20.8798 27.7987 20.7286 27.6483 20.5778C27.6075 20.5369 27.5666 20.4961 27.5257 20.4553C27.4937 20.4233 27.4618 20.3914 27.4298 20.3594C27.4076 20.3371 27.3853 20.3148 27.363 20.2926C27.2314 20.1605 27.1128 20.0204 26.9955 19.8756C26.9855 19.8636 26.9755 19.8515 26.9652 19.8391C26.6818 19.4933 26.4647 19.1213 26.3305 18.6944C26.3252 18.6779 26.32 18.6614 26.3146 18.6443C26.2528 18.4397 26.237 18.2403 26.2383 18.0272C26.2382 18.0061 26.2381 17.985 26.2379 17.9639C26.2382 17.8485 26.2457 17.7428 26.2736 17.6309C26.2768 17.6167 26.28 17.6025 26.2832 17.5878C26.3498 17.2913 26.4411 17.0251 26.6031 16.7675C26.6136 16.7505 26.6241 16.7335 26.635 16.716C26.8512 16.383 27.1678 16.1369 27.5133 15.9512C27.5288 15.9428 27.5442 15.9345 27.5601 15.9258C28.0708 15.6593 28.6704 15.582 29.2395 15.6059Z" fill="black"/>
<path d="M33.0057 10.3C33.4873 10.3 33.9689 10.3 34.4651 10.3C34.4651 11.0252 34.4651 11.7505 34.4651 12.4977C34.3201 12.4977 34.1751 12.4977 34.0257 12.4977C34.0257 11.8864 34.0257 11.2752 34.0257 10.6454C33.8393 10.6454 33.6529 10.6454 33.4608 10.6454C33.4611 10.7233 33.4615 10.8012 33.4619 10.8814C33.462 10.9312 33.4622 10.981 33.4623 11.0308C33.4625 11.1096 33.4627 11.1884 33.4631 11.2671C33.4635 11.3308 33.4637 11.3944 33.4638 11.458C33.4638 11.4821 33.4639 11.5062 33.4641 11.5303C33.466 11.8144 33.4474 12.1229 33.2411 12.3407C33.2319 12.3505 33.2228 12.3603 33.2133 12.3704C33.1081 12.4724 32.9898 12.5165 32.8439 12.5183C32.7801 12.5166 32.7242 12.5083 32.6605 12.4977C32.6605 12.4045 32.6605 12.3112 32.6605 12.2151C32.7226 12.1996 32.7226 12.1996 32.786 12.1837C32.8945 12.136 32.9309 12.0368 32.9743 11.9326C32.9874 11.8883 32.9921 11.8487 32.9925 11.8026C32.9927 11.7827 32.9927 11.7827 32.9929 11.7624C32.993 11.7479 32.9931 11.7334 32.9932 11.7186C32.9934 11.7032 32.9935 11.6879 32.9937 11.6721C32.9942 11.6215 32.9946 11.5709 32.995 11.5203C32.9953 11.4852 32.9956 11.4501 32.996 11.4149C32.9968 11.3226 32.9976 11.2302 32.9984 11.1378C32.9993 11.0269 33.0003 10.9161 33.0013 10.8052C33.0029 10.6368 33.0043 10.4684 33.0057 10.3Z" fill="black"/>
<path d="M27.4662 10.3C27.6061 10.3 27.7459 10.3 27.8899 10.3C27.8951 10.616 27.9003 10.932 27.9056 11.2576C28.0632 11.0522 28.0632 11.0522 28.2175 10.8445C28.2967 10.7365 28.3765 10.6289 28.4568 10.5217C28.4716 10.502 28.4716 10.502 28.4867 10.4819C28.496 10.4695 28.5052 10.4571 28.5148 10.4444C28.5229 10.4335 28.5311 10.4227 28.5395 10.4115C28.552 10.3952 28.552 10.3952 28.5647 10.3785C28.5736 10.3643 28.5824 10.3502 28.5915 10.3356C28.6333 10.2942 28.6581 10.2911 28.7159 10.2911C28.7273 10.2915 28.7386 10.2919 28.7503 10.2923C28.768 10.2925 28.768 10.2925 28.7859 10.2927C28.8234 10.2931 28.8608 10.2941 28.8982 10.2951C28.9236 10.2955 28.949 10.2959 28.9744 10.2962C29.0366 10.297 29.0988 10.2984 29.161 10.3C29.1035 10.3879 29.0442 10.4735 28.9806 10.5571C28.964 10.5789 28.9475 10.6008 28.931 10.6227C28.9225 10.634 28.9139 10.6454 28.9051 10.6571C28.8498 10.7308 28.7955 10.8051 28.741 10.8794C28.6963 10.9402 28.6514 11.0008 28.6058 11.061C28.5974 11.0722 28.589 11.0833 28.5803 11.0948C28.5647 11.1155 28.549 11.1361 28.5332 11.1567C28.4819 11.2245 28.4361 11.2947 28.3921 11.3675C28.3974 11.3743 28.4028 11.3811 28.4083 11.3882C28.5188 11.5297 28.6287 11.6718 28.7373 11.8148C28.8172 11.92 28.8975 12.0247 28.9786 12.1288C28.992 12.146 28.992 12.146 29.0057 12.1636C29.0474 12.2172 29.0892 12.2707 29.1311 12.324C29.1457 12.3427 29.1602 12.3613 29.1748 12.38C29.1873 12.396 29.1999 12.412 29.2129 12.4285C29.2395 12.4663 29.2395 12.4663 29.2395 12.4977C28.7659 12.5348 28.7659 12.5348 28.6498 12.4779C28.5922 12.4273 28.5619 12.3637 28.5323 12.2939C28.509 12.2437 28.4752 12.2037 28.4401 12.1612C28.4272 12.1445 28.4142 12.1278 28.4013 12.111C28.3915 12.0982 28.3915 12.0982 28.3814 12.0852C28.3192 12.004 28.2582 11.9217 28.1969 11.8398C28.1718 11.8062 28.1466 11.7726 28.1213 11.7391C28.113 11.7279 28.1046 11.7168 28.096 11.7053C28.0801 11.6842 28.0642 11.6631 28.0484 11.642C28.0411 11.6323 28.0338 11.6227 28.0263 11.6127C28.02 11.6043 28.0138 11.596 28.0073 11.5874C27.9729 11.5406 27.9394 11.4932 27.9056 11.4459C27.9004 11.793 27.8953 12.1401 27.8899 12.4977C27.7501 12.4977 27.6103 12.4977 27.4662 12.4977C27.4662 11.7725 27.4662 11.0472 27.4662 10.3Z" fill="black"/>
<path d="M23.9511 10.3C24.0909 10.3 24.2307 10.3 24.3748 10.3C24.3748 10.9061 24.3748 11.5122 24.3748 12.1366C24.6027 12.1366 24.8305 12.1366 25.0653 12.1366C25.0653 11.5306 25.0653 10.9245 25.0653 10.3C25.2051 10.3 25.3449 10.3 25.489 10.3C25.489 10.9113 25.489 11.5226 25.489 12.1523C25.722 12.1523 25.955 12.1523 26.1951 12.1523C26.1951 11.5411 26.1951 10.9298 26.1951 10.3C26.335 10.3 26.4748 10.3 26.6188 10.3C26.6188 11.0252 26.6188 11.7505 26.6188 12.4977C25.7385 12.4977 24.8581 12.4977 23.9511 12.4977C23.9511 11.7725 23.9511 11.0472 23.9511 10.3Z" fill="black"/>
<path d="M18.7098 10.3C19.2225 10.3 19.7351 10.3 20.2634 10.3C20.2634 10.414 20.2634 10.5279 20.2634 10.6454C20.0821 10.6454 19.9009 10.6454 19.7141 10.6454C19.7141 11.2566 19.7141 11.8679 19.7141 12.4977C19.5691 12.4977 19.4241 12.4977 19.2747 12.4977C19.2747 11.8864 19.2747 11.2752 19.2747 10.6454C19.0883 10.6454 18.9019 10.6454 18.7098 10.6454C18.7098 10.5314 18.7098 10.4174 18.7098 10.3Z" fill="black"/>
<path fill-rule="evenodd" clip-rule="evenodd" d="M15.022 10.3H14.614L14.6115 10.3051C14.5971 10.3338 14.5828 10.3626 14.5696 10.3919L14.5567 10.4222L14.5416 10.4572L14.5255 10.4949C14.5077 10.5365 14.4899 10.5781 14.4721 10.6197C14.4595 10.6494 14.4468 10.679 14.4341 10.7086C14.3449 10.917 14.2562 11.1255 14.1678 11.3342L14.1647 11.3414L14.1645 11.3418L14.1644 11.3421C14.1188 11.4499 14.0731 11.5576 14.0271 11.6652L14.0109 11.703C13.9776 11.7807 13.9443 11.8583 13.9107 11.9358C13.8892 11.9853 13.8678 12.0349 13.8464 12.0845C13.8355 12.1097 13.8246 12.135 13.8137 12.1602L13.8136 12.1605L13.8135 12.1607L13.8134 12.1609C13.7978 12.1969 13.7821 12.233 13.7665 12.2691L13.7519 12.3029C13.7234 12.3681 13.7023 12.4271 13.6882 12.4977H14.1903L14.1948 12.4828C14.2193 12.401 14.2419 12.3255 14.2743 12.2471C14.2941 12.2 14.3134 12.153 14.3316 12.1053L14.3473 12.0268H15.2731C15.2731 12.0395 15.2731 12.047 15.2742 12.0545C15.2757 12.0654 15.2795 12.0759 15.289 12.1021L15.3109 12.1574L15.3321 12.2112L15.3594 12.2799L15.4457 12.4977H15.9479C15.9479 12.4847 15.9479 12.4771 15.9467 12.4697C15.9451 12.4591 15.941 12.449 15.9313 12.4244C15.9192 12.3968 15.9071 12.3691 15.8951 12.3415L15.8817 12.3107C15.8586 12.2578 15.8358 12.2047 15.813 12.1516C15.8037 12.1298 15.7943 12.108 15.785 12.0862C15.7753 12.0637 15.7656 12.0411 15.7559 12.0185L15.741 11.9836C15.6774 11.8354 15.614 11.6871 15.5514 11.5384C15.4836 11.3773 15.4146 11.2166 15.3446 11.0564L15.33 11.0231C15.325 11.0115 15.3199 11 15.3149 10.9884L15.3148 10.9882C15.2785 10.9051 15.2422 10.822 15.2045 10.7394C15.1668 10.6574 15.131 10.575 15.0976 10.4911L15.0899 10.4715L15.0871 10.4644C15.0772 10.4392 15.0672 10.4141 15.0274 10.3136L15.0236 10.3038L15.022 10.3ZM14.8798 10.9957C14.8606 10.947 14.8416 10.9158 14.8024 10.8808C14.7958 10.8874 14.7919 10.8913 14.789 10.8957C14.7851 10.9018 14.7828 10.9091 14.7776 10.9263C14.7577 10.9996 14.7344 11.0681 14.7023 11.1369C14.6264 11.2991 14.5727 11.4627 14.5199 11.6343H15.1005C15.0892 11.5667 15.0861 11.5476 15.0801 11.5294C15.0778 11.5223 15.0751 11.5153 15.0712 11.5055C15.0482 11.4588 15.0264 11.4127 15.0107 11.363C14.9874 11.2797 14.9602 11.1992 14.9285 11.1188L14.9122 11.078L14.8959 11.036L14.8798 10.9957Z" fill="black"/>
<path fill-rule="evenodd" clip-rule="evenodd" d="M16.6541 10.3C17.4422 10.3 17.6182 10.3 17.7409 10.3809C17.7761 10.4042 17.807 10.4341 17.8467 10.4727C17.9552 10.5918 17.9968 10.711 17.9948 10.871L17.9944 10.9108C17.9904 11.0616 17.9452 11.1639 17.8494 11.2796C17.8387 11.2916 17.8333 11.2977 17.831 11.3047C17.8287 11.3117 17.8295 11.3198 17.831 11.3361C17.852 11.3525 17.8737 11.3681 17.8957 11.3832C18.0113 11.4707 18.0861 11.6016 18.1135 11.7442C18.133 11.9292 18.0949 12.1106 17.9841 12.2623C17.8547 12.4094 17.7069 12.4597 17.5172 12.4977H16.6541V10.3ZM17.0935 10.6611L17.2445 10.6571L17.2916 10.6554C17.3804 10.6543 17.4314 10.6639 17.5015 10.7238C17.5609 10.7849 17.5696 10.8366 17.5731 10.9191C17.5705 10.9975 17.5609 11.049 17.5121 11.1105C17.4238 11.1824 17.3453 11.1852 17.2367 11.182L17.0935 11.1791V10.6611ZM17.2749 11.5372L17.0935 11.5401V12.1366L17.2602 12.1386L17.2629 12.1387C17.3834 12.1407 17.4785 12.1422 17.5819 12.0719C17.6445 12.0155 17.6835 11.9484 17.6947 11.8644C17.6975 11.7586 17.6713 11.6942 17.6067 11.6097C17.5218 11.5385 17.4382 11.535 17.3315 11.5359L17.2749 11.5372Z" fill="black"/>
<path fill-rule="evenodd" clip-rule="evenodd" d="M12.1032 10.3H11.6952C11.6937 10.3092 11.6922 10.3183 11.6907 10.3274L11.6905 10.3281L11.6905 10.3284L11.6905 10.3284C11.6748 10.422 11.6605 10.5073 11.6557 10.6019C11.652 10.6864 11.652 10.6864 11.6482 10.7709H11.35V11.0849H11.5854C11.5551 11.2746 11.53 11.4639 11.5121 11.6552L11.5069 11.7128H11.2715V12.0111H11.4598C11.4285 12.1738 11.4058 12.3319 11.3971 12.4977H11.8051C11.8225 12.3781 11.8393 12.2585 11.8541 12.1386L11.8678 12.0268H12.2602L12.2366 12.1828L12.2292 12.231L12.2234 12.2705C12.2203 12.2912 12.2181 12.3057 12.2166 12.3202C12.2131 12.3534 12.2131 12.387 12.2131 12.4977H12.6211C12.6376 12.3721 12.6534 12.2473 12.6623 12.121L12.6682 12.0268H12.9663V11.6971H12.7309C12.7382 11.6521 12.7454 11.607 12.7525 11.562L12.7613 11.5058C12.7792 11.3951 12.795 11.2852 12.8036 11.1734L12.8094 11.0849H13.0448V10.7709H12.8565C12.864 10.73 12.8714 10.689 12.8788 10.648L12.8879 10.5973L12.8969 10.5479L12.9055 10.4996C12.9182 10.4296 12.9192 10.3736 12.9192 10.3H12.5112L12.4887 10.4383C12.4799 10.4916 12.4719 10.5448 12.4642 10.5983L12.4485 10.7709H12.0405C12.0725 10.6121 12.0948 10.4621 12.1032 10.3ZM12.4014 11.0849H11.9934C11.9605 11.2942 11.9345 11.5019 11.9149 11.7128H12.3229C12.352 11.5037 12.379 11.2949 12.4014 11.0849Z" fill="black"/>
<path fill-rule="evenodd" clip-rule="evenodd" d="M35.846 29.0117L35.8792 29.0354C36.2519 29.3102 36.4858 29.7311 36.5659 30.1842C36.6197 30.5402 36.5883 30.9051 36.5208 31.2565L36.5135 31.2956C36.4771 31.4823 36.4144 31.6594 36.3482 31.8373L36.3358 31.8712C36.2739 32.039 36.2034 32.2031 36.1324 32.3671L36.1188 32.3986C36.1058 32.4286 36.0928 32.4586 36.0797 32.4886L36.0567 32.5414C36.0348 32.5899 36.0114 32.6375 35.9873 32.685L36.0165 32.6933C36.1102 32.7205 36.2001 32.7528 36.2903 32.79C36.3179 32.8012 36.3455 32.8123 36.3732 32.8235L36.4157 32.8407C36.6516 32.9355 36.8897 33.0188 37.1328 33.0932L37.1411 33.0646C37.2167 32.8077 37.3138 32.5599 37.4276 32.3176C37.4472 32.2757 37.4666 32.2337 37.4859 32.1917L37.4868 32.1897C37.6279 31.8861 37.7875 31.5933 37.9802 31.3193L37.9996 31.2915C38.0938 31.1565 38.1914 31.0242 38.2941 30.8955L38.3326 30.8471C38.4379 30.7183 38.5545 30.6003 38.6717 30.4824L38.6958 30.4581C38.8024 30.3506 38.9125 30.2514 39.0316 30.1577L39.0605 30.1346C39.1828 30.0367 39.3101 29.9471 39.4418 29.8625C39.4465 29.8595 39.4512 29.8565 39.4558 29.8535L39.4668 29.8464C39.4771 29.8397 39.4875 29.8329 39.4978 29.8262C39.7923 29.6337 40.1262 29.4971 40.4596 29.3885L40.499 29.3754C41.4756 29.057 42.6134 29.1776 43.5225 29.6389C43.6925 29.7267 43.8542 29.8209 44.0062 29.9379L44.0314 29.957C44.1394 30.0386 44.2431 30.1237 44.3426 30.2156L44.3689 30.2398C44.5868 30.4445 44.7654 30.6926 44.9006 30.9583L44.9154 30.9868C45.2519 31.6411 45.2417 32.3371 45.0229 33.0243C44.9921 33.1173 44.9556 33.2075 44.9163 33.2972L44.9027 33.3289C44.7234 33.7435 44.4343 34.1423 44.0689 34.4118L44.0429 34.4313C43.613 34.7519 43.1172 34.9291 42.5938 35.024L42.5367 35.0361C41.3745 35.2763 40.0549 35.0149 38.922 34.7218C38.7866 34.687 38.6511 34.6577 38.5138 34.6315C38.4337 34.9331 38.3627 35.2316 38.3255 35.542L38.32 35.5877C38.2957 35.7977 38.2887 36.0058 38.2941 36.217L38.2949 36.2744C38.3128 36.7159 38.4756 37.1702 38.7982 37.4785C38.9996 37.6548 39.2432 37.7496 39.5024 37.8025L39.5375 37.8108C39.5919 37.8201 39.6455 37.821 39.7005 37.8214L39.7355 37.8217L39.7496 37.8218L39.7594 37.8219C39.7679 37.8219 39.7764 37.822 39.7849 37.822C39.7953 37.822 39.8058 37.8221 39.8163 37.8221L39.836 37.8221L39.8476 37.8221L39.8863 37.8221C40.086 37.8219 40.2795 37.8135 40.4753 37.7711L40.5101 37.7637C40.6729 37.7277 40.8312 37.6753 40.9893 37.6229L41.0158 37.6141L41.0459 37.6042C41.2334 37.542 41.4136 37.4668 41.5934 37.3855L41.633 37.3678C41.6938 37.3404 41.7539 37.3123 41.8131 37.2818C41.972 37.2017 42.1711 37.1732 42.3438 37.2246C42.4842 37.2839 42.5883 37.3815 42.6468 37.5219C42.703 37.6931 42.6772 37.8462 42.604 38.0057C42.3767 38.4271 41.7234 38.6219 41.28 38.7541C41.2622 38.7594 41.2448 38.7646 41.2277 38.7697C41.0284 38.8277 40.8218 38.8572 40.6166 38.8856L40.5547 38.8943C40.3926 38.9158 40.2327 38.9228 40.0693 38.9219L40.0313 38.9218C39.6379 38.9199 39.2701 38.8642 38.8904 38.7601L38.8537 38.7501C38.1379 38.5516 37.494 38.0481 37.1269 37.4051C37.1078 37.3703 37.0888 37.3353 37.0701 37.3002L37.0454 37.2557C36.968 37.1104 36.9174 36.9552 36.8665 36.7991L36.8661 36.7978L36.8546 36.7629C36.8124 36.633 36.7796 36.5022 36.7533 36.3681L36.7459 36.3312C36.6978 36.0713 36.688 35.8116 36.6895 35.5479L36.6897 35.4997C36.6914 35.1047 36.7301 34.728 36.798 34.3394L36.8036 34.3067C36.8124 34.2575 36.8216 34.2088 36.8347 34.1606L36.7724 34.1553C36.6977 34.147 36.631 34.1279 36.5601 34.1037C36.4412 34.0647 36.3217 34.0292 36.2011 33.9958L36.1508 33.9818C36.1175 33.9726 36.0843 33.9634 36.051 33.9542C35.9777 33.9338 35.9045 33.9128 35.8313 33.8918C35.6848 33.8497 35.5379 33.8087 35.391 33.7682L35.3777 33.8031C35.3611 33.8431 35.3426 33.8788 35.3207 33.9161L35.297 33.9564L35.2713 33.9997L35.2443 34.0453C35.1444 34.2126 35.0392 34.3764 34.9333 34.5399C34.9074 34.58 34.8815 34.6201 34.8557 34.6603C34.7254 34.8629 34.5924 35.0635 34.4546 35.261C34.4488 35.2692 34.443 35.2775 34.4373 35.2857L34.4249 35.3035L34.4169 35.3151C34.4075 35.3286 34.3981 35.342 34.3887 35.3555L34.3832 35.3635C34.269 35.5274 34.1536 35.6903 34.0359 35.8517C34.0184 35.8759 34.0008 35.9001 33.9833 35.9243C33.8592 36.0961 33.73 36.2619 33.594 36.4244C33.5631 36.4615 33.533 36.4991 33.503 36.5369C33.3995 36.6669 33.2937 36.7946 33.1852 36.9204C33.138 36.9754 33.0915 37.0309 33.0459 37.0873C32.9147 37.2487 32.7768 37.4042 32.6357 37.557C32.5946 37.6018 32.5545 37.6474 32.5146 37.6933C32.4594 37.7566 32.4033 37.819 32.3466 37.881L32.3231 37.9067C32.1729 38.0703 32.017 38.2281 31.8601 38.3853L31.8301 38.4155C31.7278 38.5181 31.6257 38.6194 31.5149 38.713C31.5057 38.7211 31.4965 38.7293 31.4873 38.7375C31.4793 38.7446 31.4714 38.7517 31.4634 38.7588C31.2272 38.9675 30.9401 39.2155 30.6077 39.2049C30.2426 39.166 29.9332 38.9292 29.6789 38.6816L29.6539 38.6576C29.4589 38.4698 29.3008 38.2589 29.1453 38.038L29.1247 38.0088C28.8005 37.5482 28.5712 37.041 28.3764 36.5153L28.3584 36.4673C28.3267 36.3818 28.2988 36.2963 28.2754 36.2082C28.2687 36.1834 28.262 36.1587 28.2553 36.1339L28.2452 36.0964C28.2358 36.0623 28.226 36.0284 28.216 35.9945C28.0932 35.5744 28.0254 35.1432 27.9684 34.71L27.9613 34.6564C27.9341 34.4383 27.9337 34.2185 27.9333 33.999C27.9332 33.9741 27.9332 33.9491 27.9331 33.9242L27.9328 33.8741C27.9315 33.5242 27.9603 33.1802 28.0106 32.8342L28.0167 32.7917C28.0556 32.5226 28.1077 32.2584 28.1724 31.9943L28.1862 31.9379C28.2796 31.5603 28.3829 31.1828 28.5208 30.8188C28.5343 30.7829 28.5476 30.747 28.561 30.7112C28.6247 30.5407 28.6925 30.3732 28.7686 30.2079C28.7849 30.1723 28.8009 30.1366 28.8169 30.1009C28.9082 29.8991 28.9972 29.7356 29.213 29.6495C29.4887 29.5666 29.775 29.6361 30.0226 29.7676C30.1619 29.8508 30.2714 29.9696 30.3223 30.1263C30.3395 30.2768 30.3177 30.3973 30.2652 30.5393C30.2381 30.6127 30.2173 30.6871 30.1963 30.7624C30.1859 30.7997 30.1752 30.8369 30.1643 30.8741C30.1376 30.9651 30.113 31.0553 30.0956 31.1485C30.0837 31.21 30.0701 31.271 30.0565 31.3321L30.049 31.3659L30.0413 31.4001L30.0332 31.4369C30.0269 31.4641 30.0204 31.4912 30.0135 31.5183C29.9731 31.6827 29.9489 31.8493 29.9247 32.0166L29.9247 32.0167L29.9221 32.0345L29.9148 32.0846C29.883 32.3039 29.8554 32.523 29.8378 32.7439L29.8351 32.7768C29.8302 32.8399 29.8259 32.903 29.8221 32.9662C29.8208 32.9884 29.8194 33.0105 29.8179 33.0326C29.8025 33.268 29.802 33.5035 29.8024 33.7393C29.8025 33.7934 29.8024 33.8476 29.8023 33.9017C29.8018 34.235 29.8075 34.5674 29.8387 34.8994L29.8416 34.9302C29.8659 35.1867 29.9076 35.4405 29.9502 35.6945C29.9602 35.7546 29.9698 35.8148 29.9792 35.875C30.0029 36.0256 30.0293 36.1724 30.0712 36.3191C30.0883 36.3789 30.1035 36.4391 30.1183 36.4996C30.1286 36.5415 30.139 36.5833 30.1497 36.6252L30.1625 36.6758C30.2028 36.831 30.2499 36.9833 30.3007 37.1353L30.3131 37.1725C30.4036 37.4434 30.5067 37.7076 30.649 37.9559C30.6593 37.9753 30.6638 37.9839 30.6659 37.9931C30.6675 38.0005 30.6675 38.0083 30.6675 38.0223C30.7494 37.9604 30.8052 37.8907 30.8646 37.8074L30.8935 37.7675C30.9133 37.7402 30.933 37.7129 30.9526 37.6855C30.9794 37.6483 31.0063 37.6112 31.0333 37.5741C31.1595 37.4007 31.2827 37.2252 31.4051 37.049L31.4275 37.0168C31.5255 36.8757 31.6211 36.7331 31.7161 36.59C31.7904 36.4782 31.8653 36.3668 31.9406 36.2556L31.9707 36.211L32.0147 36.1459C32.0258 36.1295 32.0343 36.1169 32.0415 36.1063C32.0598 36.0792 32.0697 36.0647 32.0918 36.032C32.1996 35.8731 32.3056 35.7137 32.4064 35.5503C32.4546 35.4724 32.5049 35.3958 32.5552 35.3193L32.5553 35.3192L32.5553 35.3191L32.5554 35.3191L32.5555 35.3188L32.5565 35.3173C32.7921 34.9573 33.0189 34.5915 33.239 34.2218C33.259 34.1882 33.2792 34.1548 33.2994 34.1213C33.4785 33.8242 33.6528 33.5243 33.8227 33.2219C33.8513 33.171 33.8802 33.1204 33.9094 33.0699L33.9275 33.0386C33.943 33.012 33.9585 32.9855 33.974 32.9589L33.974 32.9589C33.9865 32.9392 33.9922 32.9304 33.9943 32.9207C33.9953 32.9163 33.9955 32.9117 33.9953 32.9059C33.9952 32.9013 33.9948 32.8958 33.9943 32.8891C33.9624 32.8647 33.9305 32.8419 33.8972 32.8194C33.7822 32.7393 33.6754 32.6524 33.5706 32.5594L33.5444 32.5362C33.1777 32.2094 32.8743 31.7955 32.7503 31.3136C32.7459 31.2898 32.7442 31.2802 32.7393 31.2727C32.7359 31.2676 32.7312 31.2635 32.7233 31.2565L32.7232 31.2565C32.6301 30.9144 32.6164 30.5172 32.7075 30.1734L32.7165 30.1383C32.8472 29.6392 33.1728 29.2039 33.615 28.937C34.2731 28.5614 35.2235 28.5431 35.846 29.0117ZM43.046 30.6816C43.347 30.9403 43.4645 31.249 43.4939 31.6358C43.5202 32.1708 43.2501 32.7469 42.902 33.1416C42.4638 33.6243 41.8341 33.8311 41.1972 33.8624C40.5534 33.8849 39.9255 33.8003 39.2984 33.6583L39.2409 33.6454C39.1848 33.6328 39.1288 33.62 39.0728 33.6073L39.0214 33.5956L38.9734 33.5845L38.9316 33.5748C38.8856 33.5629 38.8411 33.5481 38.7962 33.5327C39.0303 32.8098 39.372 32.0986 39.8319 31.492L39.8521 31.4653C40.0542 31.1995 40.2923 30.9426 40.5695 30.7542L40.6119 30.725C40.774 30.6179 40.9502 30.5186 41.1344 30.4559L41.1901 30.4364C41.7966 30.235 42.5324 30.277 43.046 30.6816ZM34.7251 29.7917L34.673 29.7927C34.3948 29.794 34.1432 29.8613 33.9594 30.0886L33.9315 30.1263C33.9114 30.153 33.8918 30.1802 33.8727 30.2077C33.7584 30.3972 33.7175 30.6466 33.7661 30.8649L33.7746 30.8955C33.8588 31.2101 34.0184 31.4814 34.2681 31.6945L34.3082 31.7275C34.3212 31.7385 34.3342 31.7498 34.3472 31.761C34.4081 31.814 34.4693 31.8671 34.5436 31.9001C34.7828 31.439 35.0194 30.9356 35.1081 30.4207C35.1344 30.2492 35.1686 30.0257 35.0604 29.8781C34.9578 29.8016 34.8505 29.7911 34.7251 29.7917Z" fill="black"/>
<path fill-rule="evenodd" clip-rule="evenodd" d="M34.98 16.0012L34.9479 15.9764C34.5831 15.7648 33.9621 15.7309 33.602 15.9669C33.4068 16.1101 33.3655 16.272 33.3272 16.5006L33.3195 16.5477C33.2989 16.6745 33.2805 16.8014 33.2641 16.9288L33.2568 16.9873C33.1867 17.527 33.1631 18.1015 33.2498 18.6405L33.2568 18.6826C33.3121 19.0487 33.4226 19.4099 33.6115 19.7296L33.6334 19.7658C33.6538 19.7997 33.6745 19.8333 33.6958 19.8667C33.9716 20.2817 34.4176 20.5806 34.9037 20.6853L34.9359 20.6919C35.3106 20.7698 35.7193 20.7628 36.0971 20.7076C36.1122 20.6991 36.1201 20.6946 36.1285 20.6919C36.1378 20.6889 36.1478 20.6881 36.1686 20.6863C36.8866 20.6018 37.5997 20.2317 38.1268 19.7424C38.1392 19.7307 38.1515 19.719 38.164 19.7074C38.1711 19.7007 38.1782 19.694 38.1854 19.6873C38.1896 19.6834 38.1938 19.6795 38.198 19.6755C38.2603 19.6175 38.3226 19.5594 38.3848 19.5011L38.4039 19.4832C38.4047 19.5083 38.405 19.5193 38.4039 19.5302C38.4031 19.5387 38.4014 19.5472 38.3983 19.5622C38.3792 19.6521 38.3625 19.7422 38.3467 19.8326C38.3043 20.074 38.2586 20.3146 38.2114 20.555L38.1999 20.6134C38.1892 20.6683 38.1785 20.7231 38.1677 20.7779L38.1577 20.8283C38.1395 20.9217 38.1197 21.0143 38.0963 21.1065C38.0822 21.1606 38.0705 21.2133 38.0636 21.2688L38.0587 21.3198C38.0291 21.3189 38.0062 21.3182 37.9832 21.3189C37.9037 21.3211 37.8246 21.3394 37.4711 21.4215L37.4711 21.4216L37.4711 21.4216C37.4595 21.4242 37.448 21.4269 37.4365 21.4296C37.4245 21.4323 37.4125 21.4351 37.4005 21.4379C37.3429 21.4512 37.2853 21.4644 37.2277 21.4778C37.1881 21.487 37.1484 21.4962 37.1087 21.5053C37.0636 21.5157 37.0183 21.5259 36.9729 21.536L36.9729 21.536C36.7994 21.575 36.6254 21.614 36.4561 21.6672C36.4064 21.6833 36.357 21.6985 36.3066 21.7122C36.0074 21.7905 35.7162 21.888 35.4278 21.9991L35.388 22.0145C34.7774 22.2501 34.163 22.5337 33.6545 22.9533L33.6177 22.9838C33.1871 23.3218 32.8213 23.7698 32.6375 24.2898L32.6212 24.3377C32.5432 24.5665 32.5128 24.7897 32.5143 25.0303C32.5148 25.0719 32.5153 25.1135 32.5154 25.1551C32.5155 25.1828 32.5156 25.2106 32.5158 25.2384L32.516 25.2783C32.5179 25.6193 32.6132 25.9972 32.7748 26.2978C33.0623 26.7819 33.4742 27.0961 34.0185 27.2434L34.0571 27.2536C34.2614 27.3092 34.462 27.3216 34.6727 27.3223L34.7132 27.3223C34.9526 27.3229 35.1858 27.3069 35.4209 27.2599L35.4645 27.2507C35.6956 27.2019 35.9264 27.1362 36.1428 27.0404L36.1913 27.0181C36.4573 26.9007 36.7036 26.7591 36.9338 26.5806L36.9759 26.5472C37.1796 26.3897 37.3547 26.2078 37.5183 26.0095L37.5408 25.9821C37.7246 25.7597 37.8837 25.5229 38.0204 25.2688C38.0397 25.2327 38.059 25.1965 38.0787 25.1606C38.1641 25.0044 38.2415 24.847 38.3085 24.6819C38.3259 24.6387 38.3432 24.5955 38.3608 24.5524C38.3748 24.518 38.3888 24.4836 38.4027 24.4492L38.4235 24.3976C38.4612 24.3047 38.4976 24.2118 38.5292 24.1167C38.5458 24.066 38.5624 24.0153 38.5794 23.9647C38.5927 23.9256 38.6059 23.8865 38.6191 23.8474C38.6258 23.8274 38.6326 23.8074 38.6393 23.7873C38.6801 23.6674 38.7192 23.5477 38.7512 23.4251C38.7705 23.351 38.7908 23.2778 38.8148 23.205C38.8512 23.0951 38.8841 22.9844 38.9141 22.8725L38.9267 22.8249C38.9492 22.7411 38.9697 22.6591 38.9793 22.5728L38.9845 22.5129C39.0999 22.4934 39.2138 22.4694 39.3278 22.4428L39.3886 22.4285C39.5106 22.3999 39.6326 22.3713 39.7535 22.3382C39.8834 22.3054 39.9484 22.289 40.0136 22.2737C40.0788 22.2583 40.1443 22.2441 40.2753 22.2156C40.3117 22.2075 40.3482 22.1994 40.3847 22.1914C40.434 22.1804 40.4834 22.1695 40.5328 22.1587C40.648 22.1334 40.7631 22.1077 40.8778 22.0802L40.9108 22.0722C41.014 22.0474 41.0979 22.0138 41.1815 21.9478C41.2852 21.8582 41.3458 21.7282 41.3601 21.5929C41.3629 21.4132 41.3316 21.2626 41.2109 21.1247C41.0936 21.0099 40.9752 20.9566 40.81 20.9554L40.7774 20.9557C40.6444 20.9563 40.5132 20.9675 40.381 20.982C40.3552 20.9849 40.3293 20.9877 40.3035 20.9905C40.2223 20.9991 40.1412 21.008 40.0601 21.0171L40.0202 21.0216C39.9336 21.0312 39.8469 21.041 39.7603 21.051L39.726 21.0549C39.5977 21.0696 39.4703 21.0857 39.3434 21.1099L39.3141 21.1158L39.3141 21.1157C39.3298 21.0687 39.3298 21.0687 39.3363 21.0332L39.3428 20.9916C39.348 20.9594 39.3531 20.9272 39.3582 20.895C39.3739 20.7942 39.3915 20.6944 39.4144 20.595C39.4519 20.4322 39.4805 20.2688 39.5065 20.1038L39.5142 20.0552L39.5217 20.0075C39.5281 19.967 39.5346 19.9264 39.541 19.8858L39.5411 19.8854C39.7015 18.8747 39.8655 17.8407 39.8692 16.8175L39.8692 16.7852C39.8694 16.6162 39.8573 16.5014 39.7378 16.375C39.5861 16.2521 39.423 16.2004 39.2299 16.1959L39.1836 16.1955C39.056 16.1941 38.9628 16.2098 38.8494 16.2719C38.7003 16.3726 38.6139 16.5048 38.5795 16.6819C38.554 16.8225 38.5213 16.9607 38.483 17.0983L38.4667 17.156C38.434 17.2739 38.3976 17.3857 38.345 17.4963C38.3323 17.5224 38.3199 17.5487 38.3078 17.575C38.2451 17.7118 38.1816 17.8474 38.1036 17.9762C38.0881 18.0012 38.0726 18.0263 38.0574 18.0515C37.964 18.2074 37.8623 18.3545 37.7507 18.4979L37.7291 18.5256C37.6242 18.6629 37.5072 18.7857 37.3828 18.9052C36.9474 19.3161 36.4172 19.6125 35.8047 19.5989C35.5707 19.5873 35.3171 19.532 35.1526 19.3547C34.8447 18.9641 34.8722 18.399 34.9169 17.931L34.9202 17.8977C34.9428 17.655 34.9776 17.4144 35.0149 17.1736L35.0222 17.1266L35.0278 17.0904C35.0491 16.9528 35.0703 16.8153 35.0973 16.6787C35.1157 16.5854 35.1307 16.4949 35.1321 16.3997L35.132 16.3603C35.1366 16.2238 35.1069 16.1271 35.0127 16.0255L34.98 16.0012ZM37.5428 23.2026C37.5725 23.1041 37.598 23.0059 37.6193 22.9053C37.6102 22.9053 37.6024 22.9053 37.5946 22.9057C37.5467 22.9079 37.4995 22.9236 37.1617 23.036C37.1388 23.0436 37.1159 23.0512 37.093 23.0589C37.0795 23.0634 37.0659 23.0679 37.0524 23.0723C36.9237 23.1149 36.7957 23.1585 36.6689 23.2065C36.6045 23.231 36.5403 23.2553 36.475 23.2773C36.1795 23.3761 35.8876 23.4952 35.6068 23.6303C35.5744 23.646 35.542 23.6616 35.5094 23.6768C35.0252 23.9025 34.503 24.1521 34.1282 24.5428C34.1075 24.5648 34.0867 24.5867 34.0655 24.6082C33.9119 24.7627 33.8059 24.9177 33.7275 25.1226C33.6716 25.3031 33.6647 25.5293 33.7438 25.704C33.8352 25.8802 33.9739 26.0164 34.165 26.0777L34.214 26.092C34.5798 26.207 34.9661 26.1619 35.326 26.0405L35.3596 26.0292C35.7633 25.8998 36.1164 25.6799 36.4074 25.3711L36.4482 25.3267C36.8952 24.8431 37.172 24.249 37.3896 23.6333L37.39 23.6323C37.4081 23.5807 37.4263 23.5292 37.4467 23.4784C37.4786 23.4005 37.507 23.3227 37.5312 23.242L37.5428 23.2026Z" fill="black"/>
<path fill-rule="evenodd" clip-rule="evenodd" d="M36.5051 10.3H36.0971C36.0818 10.346 36.0638 10.3902 36.045 10.4349L36.0294 10.4717C35.9757 10.5992 35.9212 10.7263 35.8666 10.8534C35.8025 11.0026 35.7392 11.1521 35.6766 11.302C35.6197 11.4383 35.5627 11.5746 35.5038 11.7101L35.4851 11.753C35.4548 11.8226 35.4245 11.8921 35.3939 11.9615C35.3705 12.0146 35.3471 12.0676 35.3239 12.1207L35.3144 12.1423C35.3082 12.1564 35.302 12.1706 35.2958 12.1847L35.2955 12.1854C35.2822 12.2155 35.2688 12.2456 35.2556 12.2757L35.2433 12.304C35.213 12.3727 35.1997 12.4214 35.187 12.4977H35.6734L35.7333 12.3505L35.7518 12.3052L35.7669 12.2677C35.7782 12.24 35.7888 12.2119 35.799 12.1837L35.846 12.0268H36.7719C36.7719 12.0396 36.7719 12.0472 36.7729 12.0547C36.7742 12.0655 36.7776 12.076 36.7858 12.1016L36.8052 12.1563L36.8053 12.1564L36.8055 12.157C36.814 12.1811 36.8203 12.1988 36.8268 12.2165C36.8452 12.2659 36.866 12.3145 36.9445 12.4976L36.9445 12.4977H37.431L37.431 12.4976L37.431 12.4975C37.4205 12.4349 37.417 12.414 37.411 12.3938C37.408 12.3837 37.4044 12.3738 37.399 12.3589L37.3786 12.3125L37.3558 12.2598C37.3432 12.2312 37.3306 12.2025 37.3181 12.1739C37.305 12.1436 37.2919 12.1133 37.2787 12.0831C37.2407 11.9959 37.2033 11.9084 37.1664 11.8208C37.0771 11.6085 36.9864 11.3967 36.8956 11.1851L36.859 11.0997L36.8409 11.0575C36.8032 10.9696 36.7655 10.8817 36.7281 10.7936C36.7193 10.7728 36.7104 10.752 36.7016 10.7312C36.6894 10.7026 36.6772 10.674 36.665 10.6454L36.6431 10.5936L36.6225 10.5453C36.5934 10.4765 36.5934 10.4765 36.5051 10.3ZM36.3727 10.9801C36.3588 10.934 36.3447 10.8869 36.3011 10.8651C36.2946 10.8782 36.2908 10.8858 36.2872 10.8936C36.2823 10.9045 36.2779 10.9156 36.2673 10.9423L36.2449 11.0005C36.2323 11.0331 36.2198 11.0656 36.2072 11.0982C36.1903 11.1422 36.1733 11.1863 36.1563 11.2304L36.1439 11.2625C36.1171 11.3321 36.0898 11.4014 36.0616 11.4705C36.0539 11.4889 36.0488 11.5013 36.0441 11.514C36.0343 11.5402 36.0266 11.5671 36.003 11.65H36.5993C36.5993 11.6076 36.5993 11.5938 36.5961 11.5809C36.5945 11.5746 36.5922 11.5686 36.5888 11.5596C36.5558 11.4932 36.5285 11.4257 36.504 11.3558C36.4962 11.3333 36.4883 11.3108 36.4805 11.2883L36.4683 11.2533C36.4452 11.187 36.4219 11.1208 36.3981 11.0547L36.3835 11.0142C36.3796 11.0032 36.3761 10.9917 36.3727 10.9801Z" fill="black"/>
<path fill-rule="evenodd" clip-rule="evenodd" d="M31.2694 10.3087L31.2324 10.3C30.841 10.1869 30.3867 10.2947 30.0993 10.5827C29.8677 10.8267 29.7939 11.1164 29.7959 11.4465C29.8052 11.7495 29.9179 12.0351 30.1367 12.2484C30.4145 12.4881 30.7293 12.5252 31.0836 12.5154C31.3143 12.5038 31.5666 12.3886 31.7222 12.2167L31.7503 12.1837C31.8772 12.0472 31.9497 11.8953 32.003 11.7181C32.081 11.383 32.0375 11.0458 31.868 10.7464C31.7293 10.5312 31.5186 10.3729 31.2694 10.3087ZM31.5934 11.2419C31.5619 11.0646 31.4741 10.8787 31.3266 10.7709C31.0403 10.5986 30.7029 10.5787 30.4512 10.8268C30.2867 11.0079 30.2334 11.1901 30.2353 11.432C30.2427 11.6418 30.3118 11.8302 30.4639 11.9795C30.6426 12.1304 30.8178 12.1477 31.0426 12.1397C31.1947 12.1257 31.3399 12.0263 31.4356 11.9116C31.5742 11.7114 31.6205 11.4816 31.5934 11.2419Z" fill="black"/>
<path fill-rule="evenodd" clip-rule="evenodd" d="M23.1351 11.2262C23.101 10.9267 22.97 10.6835 22.7391 10.4905C22.3219 10.1754 21.6712 10.175 21.2687 10.5178C21.0385 10.7407 20.91 11.0166 20.8994 11.3369C20.8962 11.6405 20.9574 11.9446 21.1752 12.1708L21.2049 12.1994C21.2417 12.2367 21.2788 12.2723 21.3183 12.3066C21.5807 12.5122 21.9025 12.5391 22.2249 12.5134C22.4626 12.4798 22.7303 12.3603 22.88 12.1649L22.8997 12.1367C23.104 11.8592 23.1553 11.5634 23.1351 11.2262ZM22.6985 11.3304C22.6887 11.1318 22.6306 10.9525 22.4801 10.8151C22.2898 10.6623 22.0903 10.6062 21.8463 10.6552C21.6681 10.7091 21.542 10.8142 21.4442 10.9691C21.335 11.1666 21.3159 11.3964 21.3678 11.6151L21.3775 11.65C21.4081 11.7606 21.4649 11.8575 21.5344 11.9483C21.655 12.0717 21.805 12.1392 21.9767 12.1442L22.016 12.1445C22.1953 12.1459 22.3558 12.0877 22.4913 11.968C22.6625 11.7865 22.7029 11.5714 22.6985 11.3304Z" fill="black"/>
</svg>
