<svg width="52" height="85" viewBox="0 0 52 85" fill="none" xmlns="http://www.w3.org/2000/svg">
<path d="M50.4887 70.869C50.5853 70.9245 50.6287 70.9495 50.67 70.9776C50.7038 71.0005 50.7362 71.0255 50.7951 71.071C50.8457 71.1074 50.8962 71.1439 50.9483 71.1814C51.2794 71.4599 51.5464 71.9104 51.6122 72.3335C51.6619 73.0205 51.6416 73.6655 51.1777 74.2189C51.1526 74.2467 51.1274 74.2745 51.1015 74.3031C51.0625 74.3469 51.0236 74.3906 50.9834 74.4357C50.3874 74.9566 49.794 75.1063 49.0052 75.0697C48.7646 75.0478 48.5581 74.9641 48.3438 74.8586C48.2998 74.8372 48.2557 74.8158 48.2104 74.7937C47.6218 74.4766 47.2768 73.9656 47.0671 73.3436C46.998 72.6394 47.064 72.0631 47.4948 71.4813C48.2477 70.5943 49.4412 70.3277 50.4887 70.869ZM48.0885 71.576C48.0378 71.6404 48.0124 71.6728 47.9889 71.7066C47.9653 71.7407 47.9436 71.7761 47.9002 71.8474C47.8705 71.8937 47.8408 71.9399 47.8102 71.9875C47.5791 72.4078 47.5591 72.8554 47.6718 73.3175C47.8476 73.8163 48.1102 74.1651 48.5736 74.4325C49.0087 74.6288 49.516 74.6273 49.9748 74.502C50.4385 74.313 50.737 73.9888 50.9483 73.5456C51.0494 73.3002 51.0702 73.084 51.0696 72.8228C51.0695 72.7848 51.0694 72.7468 51.0694 72.7076C51.0627 72.4102 51.0087 72.1834 50.8462 71.9295C50.8167 71.8774 50.7872 71.8253 50.7568 71.7717C50.4338 71.3636 50.0665 71.114 49.5413 71.0483C48.9614 71.0219 48.5209 71.1951 48.0885 71.576Z" fill="white"/>
<path d="M44.951 77.7878C45.3027 77.9987 45.608 78.281 45.7585 78.6658C45.8703 79.1281 45.8306 79.5986 45.5861 80.0099C45.3449 80.3603 45.0364 80.5917 44.6222 80.7074C44.5432 80.7121 44.5432 80.7121 44.4626 80.7169C44.4224 80.7212 44.3821 80.7255 44.3406 80.7299C43.8825 80.7597 43.5437 80.5967 43.1772 80.3346C42.8703 80.0661 42.7529 79.7247 42.7052 79.3297C42.6882 78.9226 42.7524 78.6316 42.9817 78.2928C43.0013 78.2633 43.0209 78.2338 43.0411 78.2034C43.4611 77.6454 44.3254 77.4997 44.951 77.7878Z" fill="white"/>
<path d="M44.8229 66.9753C45.1949 67.1829 45.4053 67.4376 45.5351 67.8388C45.5647 68.0134 45.5666 68.1828 45.5638 68.3596C45.5631 68.44 45.5631 68.44 45.5623 68.5221C45.5404 69.4046 45.411 70.2827 45.3006 71.1576C45.2635 71.4528 45.227 71.7479 45.1904 72.0431C45.1443 72.4145 45.0981 72.7858 45.0516 73.1571C44.9324 74.1106 44.8211 75.0648 44.718 76.0202C44.5659 76.0215 44.4137 76.0225 44.2616 76.0233C44.2182 76.0238 44.1748 76.0242 44.13 76.0246C44.0681 76.0249 44.0681 76.0249 44.0049 76.0251C43.9666 76.0254 43.9284 76.0256 43.889 76.0259C43.7988 76.0202 43.7988 76.0202 43.7477 75.9697C43.7298 75.8278 43.7148 75.6865 43.7016 75.5442C43.6974 75.5008 43.6932 75.4575 43.6889 75.4128C43.6753 75.2734 43.662 75.1339 43.6488 74.9944C43.5783 74.2372 43.5783 74.2372 43.4647 73.4856C43.4184 73.2043 43.3971 72.9202 43.3711 72.6365C43.3213 72.1153 43.2584 71.5984 43.1796 71.0804C43.1111 70.6303 43.0622 70.1883 43.0437 69.7336C43.0337 69.5714 43.0108 69.4214 42.9785 69.2623C42.9279 68.9865 42.9158 68.715 42.9115 68.4354C42.9102 68.3934 42.9088 68.3513 42.9075 68.3081C42.9061 67.8785 43.0613 67.5249 43.3537 67.2077C43.7552 66.8595 44.3326 66.7643 44.8229 66.9753Z" fill="white"/>
<path d="M18.8264 69.0004C19.1466 69.0004 19.4668 69.0004 19.7967 69.0004C19.7967 69.917 19.7967 70.8336 19.7967 71.778C20.5213 71.778 21.246 71.778 21.9926 71.778C21.9926 72.0946 21.9926 72.4113 21.9926 72.7375C21.2679 72.7375 20.5433 72.7375 19.7967 72.7375C19.7987 73.5488 19.8016 74.3601 19.806 75.1713C19.8081 75.548 19.8097 75.9247 19.8105 76.3014C19.8112 76.6298 19.8125 76.9582 19.8148 77.2865C19.8159 77.4604 19.8167 77.6342 19.8167 77.808C19.8166 78.0022 19.8182 78.1964 19.8198 78.3906C19.8196 78.448 19.8193 78.5055 19.8191 78.5647C19.8232 78.875 19.8376 79.0687 20.052 79.3028C20.2696 79.4104 20.5312 79.3826 20.767 79.3533C21.136 79.2067 21.3636 78.9113 21.584 78.5958C21.7961 78.6686 21.9568 78.7726 22.1362 78.9051C22.1861 78.9417 22.2359 78.9783 22.2872 79.016C22.3436 79.058 22.3436 79.058 22.4011 79.1008C22.0681 79.682 21.6477 80.1855 21.0223 80.4644C20.9827 80.4835 20.9432 80.5025 20.9024 80.5222C20.4594 80.7291 20.038 80.7275 19.5541 80.7295C19.4603 80.7311 19.4603 80.7311 19.3646 80.7327C18.7296 80.7354 18.2048 80.5997 17.7138 80.1854C17.179 79.6309 17.1245 78.806 17.1295 78.081C17.1295 78.0228 17.1295 77.9645 17.1295 77.9046C17.1295 77.7144 17.1303 77.5242 17.1311 77.334C17.1313 77.2013 17.1315 77.0685 17.1316 76.9358C17.1319 76.6235 17.1327 76.3113 17.1337 75.999C17.1349 75.6431 17.1354 75.2872 17.136 74.9313C17.137 74.2 17.1388 73.4688 17.1411 72.7375C16.8209 72.7375 16.5007 72.7375 16.1708 72.7375C16.1708 72.4709 16.1708 72.2042 16.1708 71.9295C16.225 71.9075 16.2793 71.8855 16.3352 71.8628C16.7234 71.7022 17.076 71.5485 17.3964 71.273C17.4376 71.2421 17.4787 71.2113 17.5211 71.1795C18.1613 70.6479 18.5278 69.7527 18.8264 69.0004Z" fill="white"/>
<path d="M14.2302 71.9137C14.6975 72.1623 14.9068 72.4873 15.0804 72.9837C15.1737 73.5413 15.1075 74.0848 14.8941 74.6061C14.8774 74.6495 14.8607 74.6928 14.8434 74.7375C14.4824 75.5583 13.6777 76.0476 12.905 76.4422C12.7816 76.4805 12.7164 76.4664 12.596 76.4242C12.5623 76.3075 12.5286 76.1909 12.4939 76.0707C12.526 76.0487 12.5582 76.0267 12.5912 76.004C13.5148 75.3863 13.5148 75.3863 14.077 74.4546C14.1124 74.2518 14.1273 74.0543 14.1281 73.8486C14.0941 73.873 14.0602 73.8974 14.0252 73.9226C13.7274 74.074 13.3805 74.0384 13.0557 74.0001C12.7925 73.9046 12.6107 73.7504 12.4652 73.514C12.3351 73.2019 12.3384 72.8678 12.4333 72.5466C12.5776 72.2175 12.7862 72.0398 13.1067 71.879C13.4545 71.7644 13.8915 71.772 14.2302 71.9137Z" fill="white"/>
<path fill-rule="evenodd" clip-rule="evenodd" d="M43.8959 0.143282L43.7477 0.115269C41.5218 -0.338184 39.2901 0.581055 37.8384 2.26063L37.7727 2.33737C36.5979 3.70118 35.8782 5.46526 35.4555 7.1919C35.3911 7.4661 35.315 7.72854 35.2193 7.99362C34.986 7.83142 34.7422 7.69541 34.4916 7.5609L34.332 7.47598C34.274 7.44507 34.216 7.41407 34.158 7.38308C33.5841 7.07626 33.0104 6.76956 32.3968 6.54642C32.2915 6.50891 32.1863 6.47123 32.0813 6.43279C31.9874 6.39826 31.8934 6.36384 31.7994 6.32951L31.6541 6.27655C30.9505 6.01873 30.2361 5.80459 29.5088 5.62311L29.3943 5.59477C28.2423 5.30881 27.0763 5.10322 25.8897 5.02462L25.7206 5.01399C23.7997 4.89107 21.7912 4.7731 19.8892 5.13709C19.6228 5.19166 19.3579 5.23636 19.0882 5.2729C18.6848 5.32701 18.2855 5.3855 17.8882 5.47502L17.7029 5.51901C15.5428 6.02417 13.3962 6.76269 11.4773 7.88049L11.3704 7.94312C10.6332 8.37053 9.9152 8.82517 9.25745 9.36665C9.11342 9.4886 8.96971 9.61008 8.82217 9.72786C8.57495 9.92378 8.33687 10.1215 8.11639 10.3467L7.99989 10.4682C7.57252 10.9071 7.16191 11.3512 6.79313 11.8398L6.72319 11.9328C5.14005 14.0051 4.37147 16.4463 4.3646 19.0305L4.36446 19.1483C4.36335 19.8407 4.38538 20.5238 4.49722 21.2089L4.52405 21.3673C4.57676 21.6913 4.63209 22.0135 4.70677 22.3333L4.73151 22.4373C4.83223 22.8754 4.9416 23.2997 5.11273 23.7168L5.19113 23.9018C5.6776 25.0818 6.27494 26.1335 7.09463 27.1194C7.11616 27.1451 7.13769 27.1707 7.15922 27.1964C7.18411 27.2261 7.20899 27.2558 7.23387 27.2855C9.30479 29.8343 13.2404 32.005 16.477 32.4667L16.6304 32.4872V32.5882C16.4531 32.5849 16.2826 32.5871 16.1063 32.6082L15.9352 32.6364C15.8381 32.6522 15.741 32.6681 15.6439 32.6845L15.542 32.7019C13.7131 33.0099 11.8573 33.4747 10.2396 34.4023C10.176 34.4389 10.1121 34.475 10.0479 34.5107C9.38271 34.8807 8.73108 35.3103 8.20437 35.8608L8.10203 35.9719C7.12282 36.9981 6.47923 38.1262 6.49484 39.5636C6.53644 40.7519 7.05153 41.9201 7.93506 42.7372L8.05096 42.8402C9.02442 43.7472 10.1147 44.3588 11.3761 44.7855L11.5619 44.8477C11.8761 44.953 12.1869 45.057 12.5129 45.1205C12.657 45.1465 12.7974 45.1747 12.9402 45.2085C13.2767 45.2939 13.6136 45.3772 13.9516 45.4567L14.0866 45.4884C14.3127 45.5415 14.5387 45.5945 14.7649 45.6472C15.1806 45.7438 15.596 45.8414 16.0102 45.9442L16.117 45.9707C16.2961 46.0153 16.4753 46.0597 16.6544 46.1047L16.6629 46.1068L16.663 46.1069L16.6631 46.1069C16.9498 46.1789 17.2363 46.2508 17.5254 46.3132C17.9369 46.3986 18.345 46.4933 18.7523 46.5962L18.8171 46.6126L18.9044 46.6346L19.0209 46.6641C19.4104 46.7623 19.7999 46.8607 20.1893 46.9593C20.2208 46.9673 20.2524 46.9753 20.2839 46.9833L20.3323 46.9956L20.4241 47.0189L20.458 47.0276C20.9715 47.1582 21.485 47.2888 22.0023 47.4043C22.4583 47.5047 22.9116 47.6119 23.3635 47.729C24.0453 47.906 24.7287 48.0717 25.4162 48.226C25.6884 48.2869 25.9599 48.35 26.2313 48.4144C26.5209 48.4831 26.8105 48.5511 27.1005 48.618C27.1993 48.6408 27.2982 48.6635 27.397 48.6862L27.3973 48.6862C28.0213 48.8295 28.6454 48.9728 29.2635 49.1394C29.3917 49.1743 29.52 49.2088 29.6485 49.2427C30.2695 49.406 30.8798 49.5769 31.4746 49.819C31.5881 49.866 31.7016 49.9129 31.8156 49.9588C31.9396 50.0086 32.0635 50.0588 32.1871 50.1094C34.0143 50.8717 35.8816 51.9856 36.6684 53.8781C37.0137 54.7668 37.0709 55.8961 36.6916 56.7844L36.6492 56.8798C36.343 57.5805 35.9547 58.1758 35.3647 58.6798L35.2193 58.7989C34.134 59.7111 32.6188 60.2965 31.22 60.5255C31.0673 60.5464 30.9177 60.569 30.7668 60.6004C29.6438 60.835 28.5099 60.882 27.3659 60.8823L27.1952 60.8821C27.0295 60.882 26.8637 60.8817 26.698 60.8808L26.5437 60.8798C26.5347 60.8797 26.5257 60.8797 26.5167 60.8797C26.5026 60.8796 26.4885 60.8796 26.4744 60.8796H26.4743C26.2759 60.8791 26.0803 60.8786 25.8838 60.845L25.8837 60.845C25.8313 60.8328 25.8033 60.8263 25.7751 60.8216C25.7431 60.8162 25.7107 60.8131 25.6416 60.8064H25.6415L25.5947 60.8033C25.5591 60.801 25.5235 60.7987 25.4879 60.7965C25.039 60.7677 24.5903 60.739 24.1503 60.6423C23.992 60.6044 23.8357 60.5673 23.6753 60.5397C23.1355 60.4566 22.6233 60.3436 22.1107 60.1562C21.795 60.0406 21.5151 59.9711 21.1755 59.9605C21.1755 60.1597 21.2104 60.2519 21.3026 60.4239L21.3575 60.5223C21.5068 60.7934 21.6631 61.055 21.848 61.3043L21.9416 61.425C22.5309 62.1933 23.3199 62.8856 24.1959 63.3232L24.3418 63.3946C25.4052 63.9696 26.6897 64.4588 27.9205 64.4118L28.0187 64.4047V64.5057C27.8521 64.5001 27.7019 64.5074 27.5373 64.5353C26.5507 64.7333 25.5636 64.7663 24.5598 64.7676L24.4088 64.7677C23.8759 64.7682 23.3437 64.7634 22.8113 64.7418L22.6637 64.7353C22.1021 64.711 21.5522 64.6416 20.9968 64.5562C20.8234 64.5288 20.6506 64.504 20.4761 64.484C19.3268 64.3552 18.1818 64.074 17.0941 63.6852L16.9879 63.6471C15.8304 63.2414 14.6494 62.7201 13.6561 61.9958L13.5663 61.9301C13.0595 61.5671 12.584 61.1952 12.1561 60.7424C12.1085 60.692 12.0606 60.6419 12.0124 60.592C11.0353 59.5816 10.3398 58.3946 10.0149 57.0304L9.99156 56.9303C9.83397 56.2743 9.82168 55.5128 9.91196 54.8444L9.94049 54.7082C10.1567 53.2689 10.8334 51.9329 11.9116 50.9283L12.0343 50.8196C13.6625 49.3407 15.7701 48.4147 17.9243 47.9674L18.0604 47.9409L18.1114 47.7389C17.127 47.5788 17.127 47.5788 14.9125 47.5779L14.7441 47.5779C13.8647 47.5773 12.987 47.5812 12.1132 47.6911L11.9673 47.7105C11.653 47.7509 11.339 47.7925 11.0257 47.8399C10.882 47.863 10.7384 47.886 10.5942 47.9062C9.75809 48.021 8.96384 48.1943 8.15613 48.4382L8.05735 48.468C7.70636 48.5733 7.36293 48.6807 7.0292 48.8322C6.8893 48.8978 6.75322 48.9588 6.60828 49.0131C4.6786 49.6772 2.74443 51.0564 1.62166 52.7532L1.56528 52.8396C1.09552 53.5589 0.74762 54.3806 0.655996 55.238C0.492898 57.3162 1.12658 59.0452 2.4671 60.6369L2.53558 60.718C2.71604 60.9354 2.90088 61.1335 3.11329 61.3209C3.23419 61.4243 3.35449 61.5277 3.47216 61.6347C4.40388 62.4844 5.47615 63.1557 6.59689 63.7336L6.72319 63.7986C8.35414 64.6536 10.1354 65.2519 11.9262 65.6822C12.1038 65.7241 12.2813 65.7662 12.4583 65.8102C13.1751 65.9903 13.8933 66.1393 14.6224 66.2618C14.813 66.2934 15.0036 66.325 15.194 66.3575C15.9832 66.4927 16.7679 66.6059 17.5676 66.6591C17.6916 66.6665 17.808 66.6778 17.93 66.7015C18.2892 66.7739 18.558 66.828 18.8289 66.8686C19.6337 66.989 20.4569 66.9892 23.7263 66.9897L23.8566 66.9898C24.0836 66.9899 24.3115 66.9914 24.54 66.993C25.6163 67.0003 26.7043 67.0077 27.7664 66.8682C27.944 66.8442 28.1209 66.8234 28.2995 66.8087C28.844 66.7639 29.3832 66.6973 29.9235 66.6185L30.0391 66.6015C32.0326 66.3092 34.005 65.9238 35.9095 65.2574L36.0364 65.2127C38.1148 64.4854 40.1087 63.579 41.8696 62.2512L41.9603 62.1826C42.4917 61.7841 43.0274 61.3753 43.4668 60.8758C43.57 60.7539 43.6751 60.6353 43.7854 60.5197C44.1134 60.1763 44.4248 59.8274 44.7047 59.4439L44.7691 59.3544C45.8974 57.789 46.5217 55.9954 46.5307 54.0736L46.5309 53.9444C46.5339 53.4274 46.5105 52.9314 46.4107 52.4229C46.3775 52.2587 46.3452 52.095 46.3193 51.9295C46.193 51.1163 45.9201 50.2959 45.5265 49.571C45.4776 49.4845 45.4288 49.3978 45.3818 49.3102C45.119 48.8182 44.8229 48.3653 44.4786 47.9251L44.4116 47.8399C44.0428 47.3674 43.6372 46.939 43.1828 46.5458C43.1156 46.4892 43.0485 46.4324 42.9817 46.3754C42.4291 45.8666 41.8322 45.4189 41.1997 45.0112L41.0411 44.9108C40.5278 44.5819 40.0068 44.2802 39.4621 44.0049L39.3558 43.9512C38.796 43.6657 38.2279 43.4021 37.6514 43.151L37.5174 43.0927C36.9764 42.8562 36.4366 42.6247 35.8758 42.4375C35.7368 42.3912 35.599 42.344 35.4629 42.2897C35.21 42.1867 34.9567 42.0944 34.6956 42.0141L34.5668 41.9751L34.5368 41.966C34.4924 41.9524 34.4479 41.9388 34.4034 41.9252C34.3644 41.9133 34.3253 41.9014 34.2862 41.8894C34.1414 41.8456 33.9966 41.8017 33.8519 41.7575C33.829 41.7505 33.8061 41.7434 33.7832 41.7364L33.7309 41.7204L33.7307 41.7203C33.3543 41.605 32.978 41.4897 32.5977 41.3879C32.4503 41.3492 32.3037 41.3095 32.1578 41.2658C31.7341 41.1383 31.3086 41.0255 30.8785 40.9211C30.5555 40.8428 30.2338 40.7632 29.9151 40.6688C29.6468 40.5883 29.3799 40.5105 29.1065 40.4483C28.6903 40.3551 28.2774 40.2516 27.8651 40.1431L27.7633 40.1162C27.3862 40.0168 27.0094 39.9168 26.6356 39.8056C26.3029 39.7059 25.97 39.6191 25.6312 39.5418C25.1799 39.4388 24.7336 39.3207 24.2875 39.1977L24.2757 39.1945C23.9358 39.1001 23.5962 39.0059 23.2534 38.9221C23.0421 38.8706 22.8326 38.8154 22.6237 38.7551C22.0988 38.6028 21.5713 38.4605 21.0433 38.3193L20.917 38.2855C20.8902 38.2784 20.8635 38.2712 20.8367 38.264L20.7664 38.2451L20.7658 38.245L20.7657 38.245C20.4504 38.1604 20.1351 38.0757 19.8182 37.9972L19.811 37.9954L19.8109 37.9954C19.6107 37.9467 19.4124 37.8985 19.2158 37.8373C19.0218 37.7688 18.83 37.7017 18.6293 37.6548C18.0285 37.524 17.4364 37.2902 16.9426 36.9218C16.5977 36.6299 16.3034 36.2885 16.259 35.8267C16.2521 35.3133 16.3905 34.9392 16.7485 34.561C17.7225 33.643 19.0302 33.4297 20.3282 33.4258C20.472 33.426 20.6157 33.4262 20.7595 33.4256C21.0738 33.4236 21.3881 33.4224 21.7024 33.4218L21.7444 33.4217C23.4872 33.4188 25.2276 33.4159 26.9516 33.1274L27.1505 33.0933C27.9938 32.9683 28.8267 32.7807 29.6457 32.547C29.75 32.5172 29.8542 32.488 29.9592 32.4606C30.3663 32.3575 30.7628 32.2437 31.1572 32.0996L31.3381 32.0327C32.4048 31.6564 33.457 31.2228 34.4474 30.6782C34.5197 30.6383 34.5921 30.5987 34.6646 30.5593C36.5068 29.5586 38.1812 28.3102 39.4959 26.6743L39.6112 26.528C40.7163 25.158 41.5895 23.4963 41.9174 21.761C41.9389 21.6415 41.9615 21.5228 41.988 21.4042C42.1523 20.6765 42.1812 19.9656 42.181 19.2227L42.1806 19.0662C42.1737 16.3132 41.3814 13.7191 39.4963 11.6329C39.3976 11.5286 39.303 11.4255 39.2138 11.313C38.9392 10.9627 38.6312 10.656 38.3121 10.3451L38.1726 10.2109L38.041 10.0834C37.931 9.97782 37.8373 9.88349 37.7558 9.75521C37.7336 9.709 37.7216 9.68394 37.7216 9.6589C37.7216 9.62926 37.7386 9.59963 37.7755 9.53493C38.4633 8.5235 39.3965 7.82752 40.5815 7.46966C42.2527 7.04422 43.8777 7.60407 45.3017 8.4227L45.433 8.49865C46.1693 7.72557 46.7395 6.94203 47.0842 5.92392L47.1182 5.82203C47.172 5.66328 47.2226 5.50501 47.2649 5.3429C47.5264 4.17028 47.2469 2.936 46.6075 1.93335C45.9739 1.01555 44.9906 0.378675 43.8959 0.143282ZM22.7693 6.97456L22.6315 6.97507C21.8273 6.97613 21.0416 7.14865 20.273 7.37776C18.3509 8.00876 16.8628 9.40913 15.9635 11.181L15.9154 11.2762C15.271 12.5342 14.9056 13.9087 14.7122 15.3023L14.6898 15.4679C14.5314 16.5883 14.5231 17.7077 14.5237 18.8367L14.5238 18.9526C14.5239 19.1411 14.5219 19.3308 14.5198 19.5213C14.5115 20.2879 14.5031 21.0654 14.6324 21.8155C14.6688 22.0073 14.699 22.1986 14.7233 22.3923C14.8804 23.6543 15.0986 24.92 15.5638 26.1109L15.609 26.2249C16.158 27.611 16.8867 28.7783 18.0284 29.7589C19.786 31.2144 22.1537 31.5151 24.3686 31.3501C26.1656 31.1897 28.0576 30.4562 29.2497 29.0684L29.3464 28.9521C30.8002 27.2405 31.4628 25.0579 31.7562 22.8728C31.7744 22.7168 31.7935 22.5619 31.8209 22.4072C32.0097 21.356 32.0097 21.356 32.0144 18.7797C32.0145 18.6727 32.0147 18.5657 32.0151 18.4587C32.0194 17.3938 31.9838 16.3439 31.8312 15.2884L31.8073 15.1334C31.7237 14.5864 31.6155 14.0499 31.4721 13.5152L31.4402 13.3973C30.9897 11.6704 30.1489 10.0146 28.7791 8.82629L28.6315 8.70063C27.6208 7.82691 26.4008 7.33945 25.091 7.10854L24.9545 7.08456C24.4641 6.98755 23.9881 6.97065 23.4898 6.97221C23.3454 6.97317 23.201 6.97408 23.0565 6.97419C22.9608 6.97418 22.865 6.97431 22.7693 6.97456Z" fill="white"/>
<path fill-rule="evenodd" clip-rule="evenodd" d="M10.9587 71.6312C11.1821 71.7549 11.3854 71.8912 11.4951 72.1262C11.6042 72.5331 11.5403 72.8757 11.3391 73.2396C11.2715 73.3388 11.2074 73.4181 11.1151 73.4951C10.9925 73.4864 10.9006 73.441 10.7948 73.3886C10.7795 73.3811 10.764 73.3734 10.748 73.3657C10.5312 73.2727 10.3266 73.2547 10.0937 73.2931C9.99711 73.3365 9.95193 73.3568 9.91196 73.3845C9.87683 73.4088 9.84572 73.4387 9.78728 73.4951C9.78728 73.6709 9.84645 73.7346 9.94876 73.8447L9.94902 73.845L9.95954 73.8564C9.96367 73.8608 9.96787 73.8653 9.97213 73.87C9.98248 73.8812 9.99322 73.893 10.0043 73.9054C10.5353 74.5287 10.5675 75.1804 10.5022 75.9697C10.3939 76.5907 9.94133 77.1757 9.4298 77.5353C9.06073 77.7761 8.68698 77.9625 8.27119 78.1097L8.16847 78.1462C7.58657 78.3406 7.00959 78.3605 6.40021 78.3675C6.081 78.3747 5.82732 78.3836 5.5486 78.5453C5.51969 78.602 5.50647 78.628 5.50078 78.6554C5.49599 78.6785 5.49653 78.7027 5.49753 78.7473C5.6985 78.8802 5.89864 78.9494 6.1303 79.0095L6.23926 79.0387C6.34948 79.0681 6.45983 79.097 6.57019 79.1259L6.57272 79.1266L6.58274 79.1292L6.65846 79.1495L6.72288 79.1667L6.81115 79.1903C7.1374 79.2772 7.46348 79.3611 7.79402 79.4307C7.98767 79.4748 8.17759 79.532 8.36762 79.5892L8.36778 79.5892L8.40205 79.5995L8.53832 79.6405C9.3028 79.8722 10.0482 80.1344 10.6554 80.6664L10.752 80.7459C11.089 81.0451 11.353 81.5124 11.3826 81.9623C11.3936 82.3939 11.3879 82.7565 11.1661 83.141L11.1023 83.2564C10.6321 84.0265 9.84649 84.3803 9.02125 84.6561L8.87623 84.7052C7.31319 85.1792 4.99278 85.092 3.52681 84.3683L3.40373 84.3026L3.27267 84.2353C2.82073 83.9876 2.32886 83.5992 2.17809 83.0905C2.1257 82.7313 2.09512 82.313 2.2898 81.9921C2.32655 81.9462 2.34423 81.9242 2.36291 81.903C2.38023 81.8833 2.39841 81.8644 2.43343 81.828L2.5611 81.6891C2.77356 81.5 2.97827 81.3457 3.23457 81.2188L3.38199 81.1444C3.80331 80.9662 4.2057 80.8917 4.66129 80.8589L4.81669 80.8464C4.94148 80.8364 5.06627 80.8269 5.19113 80.8179L4.99683 80.7733C4.36136 80.6218 3.79055 80.4706 3.40373 79.9089C3.26441 79.6772 3.26377 79.4131 3.30159 79.1513C3.4945 78.6199 3.89659 78.387 4.39079 78.1563C4.45773 78.1259 4.49334 78.1098 4.52731 78.0908C4.56593 78.0691 4.60244 78.0438 4.68045 77.9898L4.5438 77.9192C3.77696 77.5118 3.21287 77.011 2.94412 76.1717C2.82026 75.592 2.78975 74.8757 3.09732 74.3536L3.16295 74.2276C3.62131 73.398 4.45979 72.9385 5.35072 72.6776C6.52292 72.3477 7.89537 72.466 8.97019 73.0406L8.99113 72.9496C9.1357 72.3992 9.39246 72.0005 9.87745 71.6892C10.1996 71.5121 10.6163 71.5052 10.9587 71.6312ZM7.46682 73.3211C7.88718 73.5676 8.08535 73.9491 8.20412 74.4041C8.40266 75.2346 8.38732 76.3152 7.94878 77.0807C7.74075 77.3885 7.50267 77.6057 7.13168 77.6868C6.63772 77.747 6.16372 77.7425 5.75284 77.4342C5.38445 77.1444 5.24795 76.6577 5.15957 76.2163C5.07218 75.3398 5.01544 74.3892 5.55974 73.6436C6.05103 73.1141 6.81422 73.0464 7.46682 73.3211ZM9.27657 82.434C9.20176 82.1578 9.07103 81.9908 8.84608 81.8122C7.73298 81.0895 5.80324 80.7384 4.68999 81.6133C4.39089 81.8955 4.20314 82.1433 4.18889 82.5634C4.21329 83.0145 4.37827 83.2919 4.70914 83.5981C5.3174 84.0791 6.10263 84.3006 6.87636 84.252C6.82636 84.2005 6.77504 84.1502 6.72315 84.1005C6.38133 83.8525 6.23009 83.5739 6.05926 83.1915C6.38265 83.3672 6.76718 83.4653 7.13362 83.5061C7.79862 83.5499 8.54687 83.483 9.0723 83.04C9.2134 82.8378 9.26793 82.6816 9.27657 82.434Z" fill="white"/>
<path fill-rule="evenodd" clip-rule="evenodd" d="M30.3678 73.5456L30.221 73.4067C29.0406 72.4433 27.3297 72.1828 25.9063 72.735L25.7716 72.788C25.1977 72.9833 24.6461 73.2958 24.2322 73.7409L24.1375 73.8486C23.8929 74.1106 23.6819 74.3788 23.5106 74.6927C23.0073 75.6695 22.8619 76.8256 23.2082 77.883L23.2693 78.0403C23.4557 78.5214 23.7087 78.9849 24.0704 79.3596C25.2651 80.4685 26.5862 80.7102 28.1644 80.6843L28.2806 80.682C28.8494 80.6709 29.3347 80.5245 29.8571 80.3129C30.4566 80.0279 31.0556 79.5302 31.287 78.8988L31.1843 78.825L31.0476 78.7284C30.8767 78.6067 30.7196 78.5144 30.521 78.4443C30.1064 79.0593 29.404 79.4248 28.6885 79.5731C27.9936 79.6951 27.29 79.61 26.7014 79.2046C26.2564 78.582 26.0297 78.2649 25.8995 77.9129C25.7643 77.5475 25.7331 77.1445 25.6695 76.3232H31.3891C31.3891 75.4603 31.2372 74.7515 30.7526 74.031L30.6902 73.9401C30.6199 73.838 30.5487 73.7428 30.4699 73.6466H30.3678V73.5456ZM29.04 74.7071C28.9222 74.2993 28.7798 73.9485 28.44 73.675C27.7378 73.2116 26.8357 73.2781 26.2313 73.8486C25.8089 74.3393 25.7206 74.8193 25.7206 75.4647H29.04V74.7071Z" fill="white"/>
<path fill-rule="evenodd" clip-rule="evenodd" d="M36.1087 72.5244L35.9787 72.5253C34.9257 72.5309 33.9186 72.7984 33.1937 73.5876C32.9718 73.8788 32.9801 74.2039 33.0233 74.5556C33.1245 74.8525 33.2862 75.0757 33.5721 75.226C33.8742 75.3223 34.2523 75.3147 34.5522 75.209C34.8643 75.0137 35.0356 74.7477 35.1772 74.4158L35.1929 74.3772C35.2654 74.199 35.3379 74.021 35.4235 73.8486C35.5934 73.6123 35.7544 73.4365 36.0364 73.3436C36.4186 73.3016 36.8942 73.2656 37.2301 73.4667C37.5254 73.7517 37.6326 74.0429 37.6444 74.4465L37.645 74.5682C37.6468 74.7902 37.6343 74.9696 37.5572 75.1798C37.4157 75.3177 37.3441 75.3874 37.2603 75.4367C37.1747 75.4872 37.0763 75.5164 36.8773 75.5754C35.831 75.8978 34.7623 76.2828 33.8404 76.8787C33.3383 77.2185 32.8413 77.6809 32.7169 78.2928C32.6673 78.9519 32.6751 79.5589 33.1322 80.0846C33.5734 80.5034 34.0486 80.6974 34.6609 80.696L34.8363 80.6917C35.7321 80.6937 36.4831 80.456 37.2253 79.9656C37.3701 79.8693 37.5118 79.7788 37.6705 79.7069C37.7819 80.0371 37.9706 80.2967 38.2674 80.4865C38.8148 80.7795 39.4625 80.7841 40.0526 80.6248C40.5896 80.4387 41.2357 80.1804 41.5007 79.6563L41.0921 79.2018C41.0723 79.2104 41.0527 79.219 41.0333 79.2275L41.0304 79.2288C40.7593 79.3472 40.5291 79.4478 40.224 79.4038C40.1602 79.3235 40.1345 79.291 40.1223 79.2542C40.114 79.2292 40.112 79.2022 40.1086 79.157L40.108 79.0476L40.1064 78.9216L40.1064 78.784C40.105 78.6313 40.1038 78.4786 40.1031 78.3259C40.1029 78.2775 40.1027 78.2291 40.1024 78.1807C40.1021 78.1197 40.1017 78.0587 40.1012 77.9977C40.0988 77.711 40.0967 77.4242 40.0951 77.1375C40.0925 76.6687 40.0894 76.1999 40.0858 75.7311C40.0845 75.5662 40.0833 75.4013 40.0825 75.2364C40.082 75.1321 40.0814 75.0279 40.0807 74.9236L40.0796 74.778L40.0792 74.6406L40.0782 74.5143C40.0756 74.0463 39.8377 73.573 39.509 73.2426C38.7218 72.6332 37.7566 72.5138 36.7879 72.5197C36.6521 72.5213 36.5163 72.5229 36.3805 72.5234C36.3354 72.5235 36.2902 72.5236 36.245 72.5238C36.1996 72.524 36.1541 72.5242 36.1087 72.5244ZM37.679 76.9413C37.6772 76.7016 37.6744 76.4619 37.6706 76.2222C37.2193 76.2222 36.6334 76.4614 36.2407 76.6767C35.7332 76.986 35.4124 77.3034 35.2704 77.8888C35.2299 78.289 35.2484 78.6174 35.481 78.9556C35.6842 79.1763 35.8948 79.2873 36.196 79.3204C36.5828 79.3306 36.9128 79.3075 37.2237 79.0598L37.3131 78.9493C37.4425 78.7981 37.529 78.697 37.586 78.5817C37.7008 78.3494 37.6962 78.0594 37.6821 77.1851C37.6808 77.1038 37.6797 77.0226 37.679 76.9413Z" fill="white"/>
<path fill-rule="evenodd" clip-rule="evenodd" d="M49.1386 71.718L48.4971 71.7275V74.0001H49.0077V73.0911L49.0111 73.0914C49.2106 73.1123 49.3807 73.1301 49.5695 73.1921C49.6311 73.2752 49.6558 73.3085 49.6712 73.3455C49.6745 73.3532 49.6773 73.3612 49.68 73.3697C49.6808 73.3722 49.6816 73.3748 49.6823 73.3774C49.6843 73.3842 49.6862 73.3914 49.6883 73.3993C49.69 73.4061 49.6917 73.4132 49.6936 73.4211C49.695 73.4271 49.6965 73.4334 49.6982 73.4402C49.7092 73.4879 49.7153 73.514 49.7225 73.5397C49.7313 73.571 49.7417 73.6018 49.7648 73.6699L49.8089 73.7949L49.8759 74.0001H50.4376C50.4181 73.9092 50.3983 73.8183 50.3775 73.7277L50.3515 73.615C50.3024 73.3825 50.2545 73.1994 50.0983 73.0141L49.978 72.8891L50.0706 72.8291C50.2585 72.6751 50.3286 72.5492 50.3547 72.3083C50.3336 72.1143 50.3107 72.0265 50.1823 71.879C49.9031 71.7173 49.659 71.7116 49.3388 71.7139L49.1386 71.718ZM49.5114 72.0884C49.4174 72.0594 49.3124 72.0649 49.0077 72.081V72.7375L49.0085 72.7376C49.265 72.753 49.4152 72.762 49.6493 72.6523C49.719 72.5869 49.7497 72.5581 49.7693 72.5233C49.7848 72.4959 49.7934 72.4648 49.8089 72.4093C49.7925 72.3503 49.7837 72.3189 49.7693 72.2903C49.7529 72.2576 49.7291 72.2285 49.678 72.1662C49.6072 72.1284 49.5608 72.1037 49.5114 72.0884Z" fill="white"/>
<path fill-rule="evenodd" clip-rule="evenodd" d="M50.4887 70.869C50.5853 70.9245 50.6287 70.9495 50.67 70.9776C50.7038 71.0005 50.7362 71.0255 50.7951 71.071L50.9483 71.1814C51.2794 71.4599 51.5464 71.9104 51.6122 72.3335C51.6619 73.0205 51.6416 73.6655 51.1777 74.2189L51.1015 74.3031L50.9834 74.4357C50.3874 74.9566 49.794 75.1063 49.0052 75.0697C48.7646 75.0478 48.5581 74.9641 48.3438 74.8586L48.2104 74.7937C47.6218 74.4766 47.2768 73.9656 47.0671 73.3436C46.998 72.6394 47.064 72.0631 47.4948 71.4813C48.2477 70.5943 49.4412 70.3277 50.4887 70.869ZM48.0885 71.576C48.0378 71.6404 48.0124 71.6728 47.9889 71.7066C47.9653 71.7407 47.9436 71.7761 47.9002 71.8474L47.8102 71.9875C47.5791 72.4078 47.5591 72.8554 47.6718 73.3175C47.8476 73.8163 48.1102 74.1651 48.5736 74.4325C49.0087 74.6288 49.516 74.6273 49.9748 74.502C50.4385 74.313 50.737 73.9888 50.9483 73.5456C51.0494 73.3002 51.0702 73.084 51.0696 72.8228L51.0694 72.7076C51.0627 72.4102 51.0087 72.1834 50.8462 71.9295L50.7568 71.7717C50.4338 71.3636 50.0665 71.114 49.5413 71.0483C48.9614 71.0219 48.5209 71.1951 48.0885 71.576ZM49.1386 71.718L48.4971 71.7275V74.0001H49.0077V73.0911L49.0111 73.0914C49.2106 73.1123 49.3807 73.1301 49.5695 73.1921C49.6311 73.2752 49.6558 73.3085 49.6712 73.3455C49.6745 73.3532 49.6773 73.3612 49.68 73.3697C49.6808 73.3722 49.6816 73.3748 49.6823 73.3774C49.6843 73.3842 49.6862 73.3914 49.6883 73.3993C49.69 73.4061 49.6917 73.4132 49.6936 73.4211C49.695 73.4271 49.6965 73.4334 49.6982 73.4402C49.7092 73.4879 49.7153 73.514 49.7225 73.5397C49.7313 73.571 49.7417 73.6018 49.7648 73.6699L49.8089 73.7949L49.8759 74.0001H50.4376C50.4181 73.9092 50.3983 73.8183 50.3775 73.7277L50.3515 73.615C50.3024 73.3825 50.2545 73.1994 50.0983 73.0141L49.978 72.8891L50.0706 72.8291C50.2585 72.6751 50.3286 72.5492 50.3547 72.3083C50.3336 72.1143 50.3107 72.0265 50.1823 71.879C49.9031 71.7173 49.659 71.7116 49.3388 71.7139L49.1386 71.718ZM49.0077 72.081V72.7375L49.0085 72.7376C49.265 72.753 49.4152 72.762 49.6493 72.6523C49.719 72.5869 49.7497 72.5581 49.7693 72.5233C49.7848 72.4959 49.7934 72.4648 49.8089 72.4093C49.7925 72.3503 49.7837 72.3189 49.7693 72.2903C49.7529 72.2576 49.7291 72.2285 49.678 72.1662C49.6072 72.1284 49.5608 72.1037 49.5114 72.0884C49.4174 72.0594 49.3124 72.0649 49.0077 72.081Z" fill="white"/>
</svg>
