<svg width="50" height="36" viewBox="0 0 50 36" fill="none" xmlns="http://www.w3.org/2000/svg">
<path fill-rule="evenodd" clip-rule="evenodd" d="M0.230282 5.82379L0.217375 5.95608V22.3897H2.91283C2.90721 21.2405 2.90243 20.0913 2.8997 18.9421C2.89839 18.3835 2.89696 17.8249 2.89404 17.2663C2.89143 16.7756 2.88928 16.2849 2.88847 15.7942L2.88839 15.7204C2.88812 15.4859 2.88785 15.2515 2.88638 15.017C2.88456 14.769 2.88302 14.521 2.8831 14.273C2.88325 14.1818 2.88329 14.0905 2.88322 13.9993L2.88319 13.9967C2.88177 13.8701 2.88036 13.7436 2.88078 13.617L2.88146 13.5019C2.87999 13.4331 2.87964 13.3643 2.88073 13.2955C2.88871 13.2073 2.89265 13.1637 2.91271 13.1297C2.93228 13.0964 2.96718 13.0723 3.03612 13.0245L3.17368 12.9556L3.31922 12.8717C4.30432 12.344 5.51948 12.1236 6.61687 12.4291L6.73863 12.4773C7.16761 12.6443 7.56067 12.824 7.89887 13.1431C8.53195 13.8141 8.62236 14.6416 8.61843 15.523C8.61809 15.5945 8.61792 15.666 8.61789 15.7376C8.61802 15.9336 8.61785 16.1297 8.61725 16.3257C8.61662 16.5335 8.61635 16.7414 8.61624 16.9492C8.61605 17.3421 8.61549 17.7349 8.61462 18.1278C8.61362 18.5783 8.61301 19.0288 8.61257 19.4793C8.61185 20.2225 8.61088 20.9657 8.60944 21.7089L8.60806 22.3897H11.26C11.2555 21.4703 11.2509 20.5509 11.246 19.6315C11.2436 19.1841 11.2412 18.7367 11.2391 18.2894C11.2372 17.8967 11.2352 17.5041 11.2331 17.1115C11.2319 16.9037 11.2307 16.6959 11.2297 16.488C11.2289 16.2899 11.228 16.0918 11.2268 15.8937C11.2263 15.8199 11.2259 15.7462 11.2255 15.6724C11.2235 15.132 11.2137 14.5941 11.1514 14.0565L11.1296 13.8984C11.1166 13.8013 11.1025 13.7043 11.0861 13.6077L11.0427 13.5207C10.8203 12.6125 10.4425 11.7086 9.71667 11.0861C9.67006 11.0499 9.64873 11.0333 9.6284 11.0155C9.61125 11.0006 9.59481 10.9848 9.56451 10.9557V10.8688C9.52008 10.873 9.49735 10.8751 9.47736 10.8687C9.45643 10.862 9.43851 10.8459 9.40182 10.8129C8.94345 10.4309 8.43503 10.174 7.8717 9.98415C6.46161 9.52853 4.65452 9.57787 3.32312 10.2465C3.18638 10.3193 3.05855 10.3757 2.91283 10.434V2.91283C2.60489 3.0448 2.32084 3.19364 2.0314 3.36142L1.92343 3.42434C1.84925 3.46755 1.77509 3.5108 1.70096 3.55409C1.68814 3.56165 1.67533 3.56921 1.66254 3.57677C1.50163 3.67183 1.34287 3.76562 1.17077 3.84007L1.08688 3.86928V3.95623L0.953734 4.0622C0.42379 4.50632 0.299222 5.17107 0.230282 5.82379ZM49.1836 35.2557C49.1191 35.2532 49.0545 35.2507 48.99 35.248C48.9423 35.246 48.8946 35.244 48.8469 35.242C48.9592 35.2467 49.0714 35.2515 49.1836 35.2557Z" fill="white"/>
<path fill-rule="evenodd" clip-rule="evenodd" d="M39.3083 9.89219L39.2133 9.86818C37.1877 9.35329 34.8689 9.92299 33.3441 11.3463V11.4333H33.2572L33.2137 11.5637H33.1268C33.0944 11.5993 33.0762 11.6193 33.0588 11.64C33.0363 11.6664 33.015 11.6939 32.9664 11.7566C32.904 11.8373 32.8415 11.9179 32.779 11.9985C31.8425 13.0998 31.3719 14.6201 31.378 16.051C31.3788 16.142 31.3796 16.233 31.3797 16.324C31.3796 16.7587 31.4111 17.1674 31.4905 17.5949L31.5127 17.7127C31.5603 17.9757 31.6166 18.2276 31.7053 18.48L31.7356 18.5632C32.0032 19.3191 32.4022 20.0629 32.9532 20.6483L33.0398 20.7369L33.1539 20.8538L33.2572 20.9543C33.3004 21.0007 33.3439 21.0469 33.3876 21.0929C34.5259 22.2166 36.1388 22.6593 37.7019 22.6608L37.7922 22.6607C37.9588 22.6605 38.1252 22.6589 38.2918 22.6552C39.7414 22.5989 41.2988 21.8807 42.2957 20.8351C42.3462 20.7808 42.3967 20.7267 42.4479 20.6732C42.7179 20.3917 42.9667 20.1157 43.1695 19.7805C42.8116 19.5462 42.4538 19.3132 42.0853 19.0958C41.8953 18.9839 41.7122 18.8668 41.5337 18.7371C41.3971 18.6335 41.2967 18.5871 41.1262 18.5632C40.839 19.1375 40.1313 19.6136 39.5454 19.8282L39.4306 19.8674C39.1906 19.9535 38.9533 20.0251 38.7023 20.0716C37.5537 20.2335 36.3911 20.1214 35.4309 19.4218C35.3591 19.3667 35.2867 19.3122 35.2136 19.2588C35.1548 19.2315 35.0966 19.2028 35.0397 19.1718C35.016 19.1008 35.0052 19.0684 34.988 19.04C34.9736 19.0162 34.9547 18.9952 34.9201 18.9565C34.7414 18.774 34.5825 18.5864 34.446 18.3707L34.3957 18.2888C34.2895 18.082 34.2352 17.9763 34.1912 17.8666C34.1453 17.752 34.1106 17.6329 34.0397 17.3894H43.6912C43.7291 17.3136 43.7588 17.2542 43.7817 17.1923C43.8653 16.9665 43.8588 16.7074 43.8284 15.5041C43.7672 14.0837 43.1793 12.4915 42.1173 11.5027L42.0391 11.4333C41.9325 11.3345 41.8255 11.2364 41.7166 11.14L41.6044 11.042C40.949 10.4623 40.149 10.1109 39.3083 9.89219ZM37.8655 12.1724C39.679 12.1724 41.3218 13.3027 41.4522 15.2621H34.1392C34.3875 13.1288 36.052 12.1724 37.8655 12.1724Z" fill="white"/>
<path d="M28.9101 2.86914C28.9101 9.28215 28.9101 15.6952 28.9101 22.3025C28.0063 22.3025 27.1024 22.3025 26.1712 22.3025C26.1692 20.2263 26.1676 18.1502 26.1667 16.074C26.1666 15.8287 26.1665 15.5834 26.1664 15.3381C26.1664 15.2893 26.1663 15.2404 26.1663 15.1901C26.1659 14.4002 26.1653 13.6102 26.1645 12.8203C26.1636 12.0093 26.1632 11.1983 26.163 10.3873C26.1629 9.88719 26.1625 9.38707 26.1618 8.88694C26.1613 8.54364 26.1612 8.20034 26.1613 7.85703C26.1614 7.65919 26.1613 7.46135 26.1608 7.2635C26.1604 7.08192 26.1604 6.90035 26.1607 6.71877C26.1607 6.65351 26.1606 6.58826 26.1603 6.52301C26.1568 5.6404 26.2082 4.7701 26.8464 4.1019C27.2576 3.70951 28.3318 2.86914 28.9101 2.86914Z" fill="white"/>
<path d="M22.9971 2.86914C22.9971 9.28215 22.9971 15.6952 22.9971 22.3025C22.0932 22.3025 21.1894 22.3025 20.2582 22.3025C20.2552 20.2175 20.2529 18.1325 20.2515 16.0474C20.2513 15.801 20.2512 15.5546 20.251 15.3081C20.2509 15.2345 20.2509 15.2345 20.2509 15.1594C20.2503 14.3662 20.2493 13.573 20.2481 12.7798C20.2469 11.9652 20.2461 11.1506 20.2459 10.336C20.2457 9.83384 20.2451 9.33164 20.2441 8.82945C20.2434 8.48456 20.2432 8.13967 20.2433 7.79478C20.2434 7.59613 20.2433 7.39748 20.2426 7.19883C20.2347 4.85304 20.2347 4.85304 20.9923 4.04212C21.2598 3.78379 21.5739 3.61788 21.8989 3.44385C22.074 3.34937 22.2473 3.25157 22.421 3.15445C22.486 3.11822 22.551 3.08204 22.616 3.04593C22.6572 3.02303 22.6572 3.02303 22.6992 2.99966C22.9404 2.86914 22.9404 2.86914 22.9971 2.86914Z" fill="white"/>
<path d="M49.1698 2.91211C49.1698 9.31077 49.1698 15.7094 49.1698 22.302C48.266 22.302 47.3621 22.302 46.4309 22.302C46.426 20.1956 46.4221 18.0891 46.4198 15.9827C46.4195 15.7337 46.4192 15.4847 46.419 15.2357C46.4189 15.1613 46.4189 15.1613 46.4188 15.0855C46.4178 14.2841 46.4161 13.4828 46.4141 12.6815C46.4121 11.8585 46.4109 11.0355 46.4104 10.2125C46.4101 9.70516 46.4092 9.19783 46.4074 8.6905C46.4063 8.34203 46.4059 7.99357 46.4062 7.64511C46.4064 7.44442 46.4062 7.24375 46.405 7.04306C46.3928 4.85194 46.3928 4.85194 47.1129 4.07507C47.4599 3.75218 47.8811 3.51886 48.3003 3.30338C48.3319 3.28714 48.3635 3.27089 48.3961 3.25416C48.5026 3.19961 48.6093 3.14545 48.7161 3.09144C48.7508 3.07379 48.7855 3.05614 48.8213 3.03796C48.8539 3.02165 48.8864 3.00534 48.92 2.98853C48.9493 2.9738 48.9786 2.95907 49.0088 2.94389C49.0829 2.91211 49.0829 2.91211 49.1698 2.91211Z" fill="white"/>
<path d="M17.085 8.7373C17.085 13.2278 17.085 17.7184 17.085 22.345C16.1811 22.345 15.2773 22.345 14.3461 22.345C14.3432 20.9896 14.3408 19.6342 14.3394 18.2787C14.3392 18.1184 14.3391 17.958 14.3389 17.7977C14.3389 17.7658 14.3388 17.7338 14.3388 17.701C14.3382 17.1854 14.3372 16.6699 14.336 16.1544C14.3348 15.6247 14.3341 15.0949 14.3338 14.5652C14.3336 14.2388 14.333 13.9124 14.332 13.5861C14.3312 13.335 14.3311 13.0839 14.3313 12.8328C14.3313 12.7304 14.331 12.628 14.3305 12.5256C14.3261 11.5908 14.3414 10.6184 15.0417 9.91113C15.3733 9.62222 15.7388 9.41519 16.1285 9.21553C16.2111 9.17049 16.2935 9.12521 16.3758 9.07967C17.0026 8.7373 17.0026 8.7373 17.085 8.7373Z" fill="white"/>
<path fill-rule="evenodd" clip-rule="evenodd" d="M37.0938 29.7629C37.0369 29.7067 36.9795 29.6511 36.9194 29.5984C35.9511 28.7814 34.8239 28.6185 33.6158 28.9205C33.1122 29.0735 32.4778 29.3874 32.213 29.8614L32.1811 29.9368H32.0942C31.7546 30.4462 31.4823 30.9749 31.3986 31.5888C31.3464 32.4309 31.471 33.3393 32.0072 34.0234H32.0942C32.0942 34.0649 32.0942 34.0909 32.101 34.115C32.1123 34.1554 32.1429 34.1904 32.2246 34.2843L32.355 34.3278V34.4147C32.413 34.4694 32.4366 34.4917 32.4613 34.5128C32.4783 34.5272 32.4958 34.5411 32.5254 34.5645C33.4922 35.2864 34.4514 35.4055 35.6156 35.2407V35.1538C36.0673 35.1332 36.4578 34.8605 36.8043 34.5894C37.5408 33.9862 37.8673 33.1239 37.9633 32.1975C38.0256 31.3407 37.7254 30.507 37.1807 29.8498H37.0938V29.7629ZM34.6701 34.2572C35.9066 34.2572 36.909 33.2547 36.909 32.0182C36.909 30.7816 35.9066 29.7792 34.6701 29.7792C33.4335 29.7792 32.4311 30.7816 32.4311 32.0182C32.4311 33.2547 33.4335 34.2572 34.6701 34.2572Z" fill="white"/>
<path fill-rule="evenodd" clip-rule="evenodd" d="M43.0884 28.8839L42.9961 28.8664C42.3465 28.7386 41.7647 28.7702 41.1267 28.9534C40.6339 29.1345 40.0299 29.4406 39.7697 29.9202L39.7355 29.9968H39.6486L39.5657 30.1097C39.0901 30.8825 38.8187 31.7832 39.0164 32.6974L39.0399 32.7792C39.199 33.3793 39.4245 33.8793 39.8583 34.3392C40.6212 35.0815 41.433 35.3155 42.4685 35.3173C43.2854 35.306 44.0417 34.9576 44.6127 34.3784C45.3176 33.626 45.5471 32.7868 45.5202 31.7791L45.5177 31.6923C45.5078 31.1742 45.3165 30.608 45.0395 30.1707L44.9525 30.1272C44.526 29.4938 43.836 29.0471 43.0884 28.8839ZM42.2353 34.2573C43.4719 34.2573 44.4743 33.2549 44.4743 32.0184C44.4743 30.7818 43.4719 29.7794 42.2353 29.7794C40.9988 29.7794 39.9964 30.7818 39.9964 32.0184C39.9964 33.2549 40.9988 34.2573 42.2353 34.2573Z" fill="white"/>
<path d="M24.4336 26.5186C24.8783 26.5186 25.3231 26.5186 25.7813 26.5186C25.7957 27.4367 25.81 28.3549 25.8248 29.301C25.9539 29.2149 26.083 29.1288 26.2161 29.0401C26.8129 28.7417 27.5557 28.7455 28.1942 28.9014C28.5375 29.0182 28.8708 29.1869 29.1724 29.3879C29.1724 29.4166 29.1724 29.4453 29.1724 29.4749C29.1993 29.4856 29.2262 29.4964 29.2539 29.5075C29.3631 29.5717 29.3794 29.6244 29.4332 29.7357C29.4978 29.7572 29.4978 29.7572 29.5636 29.7792C29.9577 30.2805 30.1007 30.962 30.0952 31.5869C30.0952 31.626 30.0952 31.6651 30.0953 31.7053C30.0952 31.8328 30.0945 31.9603 30.0938 32.0878C30.0937 32.1768 30.0936 32.2659 30.0935 32.3549C30.0931 32.5881 30.0923 32.8212 30.0913 33.0543C30.0904 33.2927 30.09 33.5311 30.0896 33.7695C30.0887 34.2364 30.0871 34.7032 30.0854 35.1701C29.6406 35.1701 29.1959 35.1701 28.7376 35.1701C28.7363 35.004 28.7363 35.004 28.735 34.8345C28.7321 34.4671 28.7287 34.0998 28.7251 33.7324C28.723 33.5098 28.7209 33.2873 28.7193 33.0647C28.7177 32.8496 28.7157 32.6346 28.7134 32.4195C28.7126 32.3377 28.7119 32.256 28.7114 32.1742C28.7256 31.2686 28.7256 31.2686 28.3217 30.4857C27.9158 30.1089 27.385 30.018 26.8493 30.0261C26.4759 30.0596 26.1532 30.2175 25.8248 30.3878C25.7961 30.3878 25.7674 30.3878 25.7378 30.3878C25.7378 31.966 25.7378 33.5441 25.7378 35.1701C25.3074 35.1701 24.877 35.1701 24.4336 35.1701C24.4336 32.3151 24.4336 29.4601 24.4336 26.5186Z" fill="white"/>
<path d="M2.69434 26.4756C4.51638 26.4756 6.33841 26.4756 8.21567 26.4756C8.21567 26.9203 8.21567 27.3651 8.21567 27.8233C7.54137 27.809 6.86707 27.7946 6.17234 27.7798C6.15799 30.2188 6.14365 32.6577 6.12886 35.1706C5.66977 35.1706 5.21067 35.1706 4.73766 35.1706C4.73766 32.7316 4.73766 30.2927 4.73766 27.7798C4.06337 27.7798 3.38907 27.7798 2.69434 27.7798C2.69434 27.3494 2.69434 26.919 2.69434 26.4756Z" fill="white"/>
<path d="M15.4321 28.9539C15.4693 28.9697 15.5064 28.9854 15.5447 29.0017C15.8311 29.1318 16.0637 29.3152 16.3016 29.5191C16.2794 29.6866 16.2475 29.7673 16.1223 29.8805C15.9525 30.0401 15.8008 30.2116 15.6495 30.3886C15.4977 30.356 15.3792 30.2937 15.2439 30.2176C14.8142 29.9805 14.4375 29.9117 13.954 30.049C13.7773 30.1185 13.6532 30.2111 13.5192 30.3451C13.4602 30.5221 13.453 30.6818 13.4757 30.8668C13.5746 31.0645 13.6713 31.1608 13.867 31.2581C14.0006 31.2948 14.1357 31.3201 14.2719 31.3451C14.5408 31.3952 14.7872 31.4597 15.0408 31.5624C15.0847 31.5783 15.1285 31.5942 15.1736 31.6105C15.698 31.8117 16.1285 32.1517 16.3831 32.6575C16.5517 33.0906 16.5507 33.6503 16.4076 34.0922C16.1908 34.5774 15.7963 34.9374 15.3017 35.1274C15.1292 35.1778 14.9556 35.2198 14.78 35.2578C14.7459 35.2654 14.7118 35.273 14.6766 35.2808C14.4897 35.3144 14.3037 35.3093 14.1143 35.3095C14.0746 35.31 14.035 35.3105 13.9941 35.3111C13.6285 35.3119 13.3305 35.2417 12.9975 35.0839C12.9686 35.0708 12.9397 35.0576 12.9099 35.044C12.5426 34.8611 12.1877 34.5521 11.9541 34.2144C12.0412 34.0232 12.168 33.8991 12.3155 33.7525C12.3402 33.7271 12.365 33.7016 12.3905 33.6754C12.5258 33.54 12.635 33.4429 12.8236 33.3884C12.8395 33.4068 12.8554 33.4253 12.8718 33.4443C13.1996 33.7994 13.6164 34.0504 14.1015 34.0932C14.3326 34.1024 14.5204 34.0688 14.7362 33.9864C14.8235 33.9536 14.8235 33.9536 14.9184 33.933C15.0065 33.9172 15.0065 33.9172 15.049 33.8231C15.0606 33.7945 15.0723 33.7658 15.0843 33.7362C15.0987 33.7219 15.113 33.7075 15.1278 33.6927C15.1498 33.4608 15.1548 33.2441 15.0734 33.0243C14.7685 32.7333 14.4039 32.6325 13.9978 32.567C13.3872 32.4653 12.7803 32.1843 12.3889 31.6929C12.1088 31.249 12.0457 30.6878 12.128 30.1712C12.2865 29.6833 12.6552 29.3064 13.0921 29.0562C13.3125 28.9507 13.5438 28.8839 13.7801 28.8235C13.8124 28.8151 13.8448 28.8067 13.8782 28.798C14.3972 28.7197 14.953 28.7308 15.4321 28.9539Z" fill="white"/>
<path d="M22.7201 29.5289C22.8136 29.6115 22.906 29.695 22.9974 29.7799C22.8871 29.9882 22.7372 30.1459 22.5762 30.3152C22.5499 30.3433 22.5235 30.3713 22.4963 30.4002C22.4317 30.469 22.3668 30.5375 22.3018 30.606C22.15 30.5503 22.0259 30.4847 21.8942 30.3913C21.4106 30.0638 20.8744 29.9784 20.3001 30.0595C19.7962 30.1651 19.3772 30.4414 19.0846 30.8668C19.0139 31.0084 18.9609 31.1517 18.9107 31.3016C18.896 31.3346 18.8812 31.3675 18.866 31.4015C18.7909 31.6105 18.8077 31.8262 18.8075 32.0461C18.8064 32.0929 18.8054 32.1398 18.8043 32.188C18.8023 32.7247 18.9794 33.1793 19.3485 33.5708C19.7587 33.958 20.1619 34.0482 20.7122 34.0486C20.7479 34.0492 20.7836 34.0497 20.8203 34.0503C21.04 34.0508 21.2221 34.0249 21.4323 33.9535C21.4703 33.9413 21.5084 33.9291 21.5476 33.9165C21.5804 33.9054 21.6132 33.8943 21.647 33.8829C21.6805 33.8716 21.7141 33.8603 21.7487 33.8486C21.7734 33.8402 21.7981 33.8318 21.8236 33.8231C21.8236 33.7944 21.8236 33.7657 21.8236 33.7362C21.9 33.6937 21.9764 33.6513 22.0528 33.6088C22.1349 33.5619 22.1349 33.5619 22.2148 33.4753C22.3838 33.486 22.4655 33.5807 22.5789 33.6981C22.6129 33.7332 22.6468 33.7682 22.6817 33.8043C22.8058 33.9378 22.9245 34.0741 23.0409 34.2144C22.857 34.6655 22.2428 34.9335 21.8236 35.1274C21.0154 35.4384 19.9813 35.3917 19.1904 35.0501C18.3912 34.6485 17.8551 34.0135 17.5601 33.1686C17.3277 32.3578 17.331 31.3171 17.7369 30.5625C17.7498 30.5338 17.7627 30.5052 17.776 30.4757C18.1034 29.758 18.7482 29.2373 19.4732 28.9593C20.6074 28.5867 21.8047 28.7513 22.7201 29.5289Z" fill="white"/>
<path d="M46.9084 26.5186C47.3531 26.5186 47.7979 26.5186 48.2561 26.5186C48.2574 26.8365 48.2574 26.8365 48.2587 27.1609C48.2616 27.8606 48.265 28.5602 48.2686 29.2599C48.2708 29.6842 48.2728 30.1085 48.2744 30.5328C48.2759 30.9026 48.2776 31.2724 48.2797 31.6422C48.2808 31.838 48.2817 32.0338 48.2823 32.2296C48.2829 32.414 48.2838 32.5983 48.2851 32.7826C48.2855 32.8502 48.2858 32.9179 48.2858 32.9855C48.286 33.0779 48.2867 33.1703 48.2875 33.2628C48.2877 33.3145 48.2879 33.3662 48.2882 33.4194C48.3001 33.5682 48.3277 33.6854 48.3865 33.8224C48.4921 33.8827 48.4921 33.8827 48.6039 33.9093C48.6326 33.9237 48.6613 33.938 48.6908 33.9528C48.863 33.9671 49.0352 33.9815 49.2125 33.9963C49.2125 34.398 49.2125 34.7997 49.2125 35.2136C49.0095 35.2163 49.0095 35.2163 48.8023 35.219C48.7604 35.2198 48.7186 35.2206 48.6755 35.2214C48.1498 35.2247 47.7539 35.0833 47.354 34.7353C46.8524 34.1981 46.9017 33.463 46.9034 32.7817C46.9034 32.7131 46.9034 32.6445 46.9034 32.5759C46.9034 32.3911 46.9037 32.2063 46.904 32.0215C46.9042 31.8278 46.9043 31.6341 46.9043 31.4404C46.9044 31.0743 46.9048 30.7082 46.9052 30.342C46.9057 29.9249 46.906 29.5079 46.9062 29.0908C46.9066 28.2334 46.9074 27.376 46.9084 26.5186Z" fill="white"/>
<path d="M0.129883 26.4756C0.588979 26.4756 1.04808 26.4756 1.52108 26.4756C1.52108 29.3449 1.52108 32.2143 1.52108 35.1706C1.06199 35.1706 0.602891 35.1706 0.129883 35.1706C0.129883 32.3012 0.129883 29.4319 0.129883 26.4756Z" fill="white"/>
<path d="M18.1281 2.95508C18.1568 2.95508 18.1855 2.95508 18.215 2.95508C18.3862 3.87903 18.2834 4.87988 17.9107 5.73748C17.8915 5.7836 17.8723 5.82973 17.8525 5.87725C17.501 6.65254 16.9104 7.05765 16.1559 7.40241C15.3658 7.77045 14.6452 8.27547 14.0075 8.86735C13.9397 8.9287 13.8694 8.98739 13.7976 9.04396C13.7097 9.11548 13.6431 9.18106 13.5741 9.26983C13.5418 9.30928 13.5095 9.34874 13.4763 9.38939C13.4619 9.38939 13.4476 9.38939 13.4328 9.38939C13.393 8.40975 13.739 7.30657 14.3892 6.56351C14.4107 6.49895 14.4107 6.49895 14.4327 6.43308C14.5823 6.29146 14.7486 6.16848 14.9109 6.04181C14.9388 6.01989 14.9667 5.99797 14.9954 5.97538C15.3481 5.69875 15.7052 5.43486 16.08 5.18903C16.9474 4.61911 17.6447 3.87721 18.1281 2.95508Z" fill="white"/>
<path d="M17.1721 0.129883C17.2008 0.129883 17.2295 0.129883 17.2591 0.129883C17.4029 0.880991 17.2995 1.71233 16.8989 2.37292C16.7592 2.5689 16.6029 2.74215 16.4331 2.91229C16.3982 2.94759 16.3634 2.9829 16.3276 3.01928C15.9917 3.34239 15.6107 3.58128 15.2157 3.82526C14.6108 4.20097 14.0631 4.62166 13.5637 5.12951C13.5281 4.25458 13.7937 3.47874 14.3471 2.80547C14.711 2.41935 15.1716 2.10979 15.6152 1.82269C16.2816 1.3814 16.7881 0.83353 17.1721 0.129883Z" fill="white"/>
</svg>
