<svg width="191" height="57" viewBox="0 0 191 57" fill="none" xmlns="http://www.w3.org/2000/svg">
<path d="M60.4732 12.3597C60.788 12.3822 61.1037 12.3942 61.4193 12.3999C61.611 12.4038 61.8028 12.4077 62.0004 12.4117C62.2069 12.415 62.4134 12.4182 62.6262 12.4216C62.838 12.4257 63.0498 12.4297 63.2681 12.4339C63.9454 12.4467 64.6227 12.4582 65.3001 12.4697C65.759 12.4782 66.2179 12.4867 66.6767 12.4953C67.8024 12.5164 68.928 12.5358 70.0536 12.5553C70.0536 14.3618 70.0536 16.1684 70.0536 18.0298C69.4729 18.2233 68.8923 18.4169 68.294 18.6163C68.4023 18.8381 68.5107 19.0599 68.6224 19.2884C68.7655 19.5858 68.9086 19.8831 69.0516 20.1805C69.1586 20.3986 69.1586 20.3986 69.2677 20.6212C70.7204 23.6586 70.7736 27.6513 69.739 30.8462C68.0278 35.0906 65.5086 38.1144 61.2568 39.9905C57.7497 41.3318 53.6109 41.4446 50.1349 39.9675C46.6177 38.3841 43.772 35.711 42.2899 32.1072C40.9394 28.5409 40.6707 24.1108 42.238 20.5677C42.9393 19.0613 43.7404 17.7258 44.8317 16.4656C44.9517 16.3068 45.0716 16.1481 45.1952 15.9845C48.8376 11.6641 55.3352 10.6471 60.4732 12.3597Z" fill="#F9F9F9"/>
<path d="M28.9951 12.3597C29.1879 12.4286 29.3807 12.4974 29.5794 12.5683C33.2669 13.988 36.1295 16.5929 37.7492 20.2026C39.3802 24.1435 39.3757 28.1532 37.8336 32.1155C36.2635 35.8212 33.4115 38.3898 29.7795 39.9898C29.2615 40.1883 28.7454 40.3593 28.213 40.5145C27.9968 40.5803 27.9968 40.5803 27.7762 40.6474C24.1534 41.5593 20.091 40.8317 16.8836 39.0153C16.3458 38.6833 15.8252 38.337 15.3088 37.9727C15.1868 37.8873 15.0648 37.8019 14.9391 37.7138C12.1009 35.5056 10.448 31.8471 9.83424 28.3923C9.48515 23.5782 10.5808 19.7809 13.7049 16.0456C15.27 14.3534 17.4231 13.0537 19.6102 12.3597C19.8461 12.2728 19.8461 12.2728 20.0868 12.1841C22.7535 11.3391 26.3762 11.3732 28.9951 12.3597Z" fill="#F9F9F9"/>
<path d="M119.877 14.1255C122.84 16.4215 124.638 19.6555 125.386 23.3088C125.595 25.1884 125.581 27.0877 125.581 28.9788C118.678 28.9788 111.774 28.9788 104.661 28.9788C106.237 32.1314 106.974 33.3063 109.964 34.5023C112.777 35.0466 115.106 34.4418 117.456 32.8663C118.184 32.3302 118.862 31.7497 119.52 31.1296C120.285 31.4412 120.766 31.9388 121.341 32.5226C121.435 32.6183 121.529 32.7139 121.627 32.8125C122.554 33.7611 123.475 34.7158 124.213 35.822C121.416 38.8685 117.509 40.7109 113.384 40.9303C108.935 41.0662 104.951 40.2443 101.609 37.102C98.689 33.9863 97.5883 30.2265 97.5854 26.0461C97.583 25.8636 97.5806 25.6811 97.5782 25.4931C97.5702 21.681 99.3212 18.1237 101.959 15.4277C106.832 10.7715 114.431 10.2086 119.877 14.1255Z" fill="#F9F9F9"/>
<path d="M156.473 0.824118C158.731 0.824118 160.99 0.824118 163.316 0.824118C163.381 5.40513 163.445 9.98614 163.512 14.706C164.157 14.1898 164.802 13.6736 165.467 13.1418C166.159 12.7462 166.159 12.7462 166.762 12.4819C166.962 12.3917 167.163 12.3015 167.369 12.2085C170.359 11.0882 173.52 11.3257 176.421 12.6248C179.183 14.0375 180.928 16.2797 181.891 19.2029C182.35 20.6827 182.506 22.0266 182.499 23.5649C182.499 23.7444 182.499 23.9238 182.499 24.1087C182.499 24.699 182.498 25.2893 182.496 25.8796C182.496 26.2899 182.496 26.7003 182.495 27.1107C182.495 28.1888 182.493 29.2668 182.491 30.3449C182.489 31.4458 182.488 32.5467 182.487 33.6476C182.485 35.8062 182.481 37.9648 182.477 40.1234C180.283 40.1234 178.09 40.1234 175.83 40.1234C175.827 39.6441 175.824 39.1648 175.821 38.671C175.811 37.0797 175.798 35.4886 175.783 33.8974C175.775 32.9335 175.767 31.9696 175.762 31.0057C175.757 30.0739 175.749 29.1422 175.739 28.2104C175.736 27.8565 175.733 27.5027 175.732 27.1488C175.748 23.2673 175.748 23.2673 173.874 19.985C172.521 18.6676 171.046 18.5224 169.239 18.5335C168.099 18.5705 167.219 18.7744 166.249 19.3984C166.126 19.4692 166.002 19.5401 165.875 19.613C164.573 20.4299 163.919 21.6599 163.512 23.1133C163.454 23.6783 163.451 24.2403 163.449 24.8079C163.447 25.0571 163.447 25.0571 163.444 25.3112C163.438 25.8571 163.434 26.4029 163.431 26.9488C163.427 27.3285 163.423 27.7082 163.419 28.0879C163.409 29.085 163.402 30.082 163.394 31.0791C163.387 32.0975 163.377 33.1158 163.367 34.1341C163.348 36.1306 163.332 38.127 163.316 40.1234C161.058 40.1234 158.8 40.1234 156.473 40.1234C156.473 27.1547 156.473 14.1859 156.473 0.824118Z" fill="#F9F9F9"/>
<path d="M150.887 14.1339C152.087 15.0317 153.205 15.9194 153.932 17.2477C153.807 17.3707 153.681 17.4937 153.552 17.6204C152.76 18.4043 151.977 19.1839 151.256 20.0339C150.642 20.7529 149.971 21.3427 149.24 21.9402C149.166 21.8573 149.092 21.7743 149.016 21.6889C147.513 20.0878 145.507 18.6606 143.253 18.5316C142.939 18.5271 142.625 18.5269 142.311 18.5308C142.147 18.532 141.983 18.5332 141.815 18.5344C140.623 18.5647 139.692 18.7335 138.682 19.3984C138.484 19.5073 138.286 19.6162 138.083 19.7284C136.458 21.0072 135.17 22.6061 134.915 24.7166C134.723 27.3123 135.002 29.6778 136.744 31.723C138.21 33.2308 139.847 34.0895 141.969 34.1601C144.141 34.0893 145.968 33.4433 147.675 32.1072C147.795 32.0152 147.914 31.9232 148.037 31.8284C148.628 31.3585 148.628 31.3585 149.044 30.7385C149.78 31.0441 150.244 31.5023 150.801 32.0659C150.891 32.1565 150.981 32.2471 151.073 32.3404C151.359 32.6283 151.644 32.9176 151.928 33.207C152.122 33.4031 152.316 33.5991 152.511 33.795C152.985 34.2742 153.459 34.7545 153.932 35.2355C152.666 37.8827 149.624 39.3927 146.992 40.3653C143.693 41.5202 139.492 41.1514 136.335 39.7324C132.434 37.7611 130.006 34.9766 128.515 30.934C127.514 27.8432 127.472 23.9787 128.71 20.9626C128.761 20.8372 128.813 20.7118 128.866 20.5826C129.726 18.5486 130.838 17.0122 132.425 15.488C132.56 15.3537 132.695 15.2194 132.834 15.081C137.713 10.4917 145.525 10.519 150.887 14.1339Z" fill="#F9F9F9"/>
<path d="M86.2818 3.95242C88.54 3.95242 90.7982 3.95242 93.1249 3.95242C93.1249 6.79135 93.1249 9.63029 93.1249 12.5553C94.2863 12.5553 95.4477 12.5553 96.6443 12.5553C96.6443 14.5554 96.6443 16.5556 96.6443 18.6163C95.4829 18.6163 94.3215 18.6163 93.1249 18.6163C93.1249 25.7137 93.1249 32.811 93.1249 40.1234C90.8667 40.1234 88.6084 40.1234 86.2818 40.1234C86.2818 33.0261 86.2818 25.9288 86.2818 18.6163C85.0559 18.6163 83.8299 18.6163 82.5669 18.6163C82.5669 16.6162 82.5669 14.616 82.5669 12.5553C83.7928 12.5553 85.0187 12.5553 86.2818 12.5553C86.2818 9.71632 86.2818 6.87738 86.2818 3.95242Z" fill="#F9F9F9"/>
<path d="M0.449219 0.824118C2.64294 0.824118 4.83667 0.824118 7.09686 0.824118C7.09686 13.7929 7.09686 26.7617 7.09686 40.1234C4.90314 40.1234 2.70942 40.1234 0.449219 40.1234C0.449219 27.1547 0.449219 14.1859 0.449219 0.824118Z" fill="#F9F9F9"/>
<path d="M41.3125 42.0786C43.5707 42.0786 45.829 42.0786 48.1557 42.0786C48.2847 42.8529 48.4138 43.6271 48.5467 44.4249C49.4229 46.8426 50.6926 48.2274 53.0047 49.3235C54.8361 50.1108 57.1624 49.8747 58.9848 49.167C60.9661 48.2163 62.2579 46.6215 63.0495 44.5906C63.2878 43.7671 63.4335 42.9193 63.6017 42.0786C65.7954 42.0786 67.9891 42.0786 70.2493 42.0786C70.2493 45.259 70.2493 45.259 69.7483 46.6C69.669 46.8225 69.669 46.8225 69.5881 47.0495C68.1332 50.9783 65.2683 53.872 61.4937 55.6267C59.7687 56.3464 58.1251 56.3934 56.2765 56.3985C55.8594 56.4004 55.4426 56.4064 55.0256 56.4126C51.4291 56.4411 48.4094 55.3512 45.8104 52.8434C45.5471 52.5812 45.2871 52.3158 45.0274 52.0501C44.8973 51.9263 44.7673 51.8026 44.6333 51.6751C42.1533 49.1449 41.3125 45.4704 41.3125 42.0786Z" fill="#F9F9F9"/>
<path d="M60.131 19.5573C60.3972 19.769 60.3972 19.769 60.6687 19.985C60.8302 20.1124 60.8302 20.1124 60.9948 20.2423C62.4985 21.5668 63.5056 23.6619 63.6412 25.6512C63.6768 28.0842 63.1235 30.144 61.4294 31.9636C59.535 33.7273 57.5593 34.3721 54.9704 34.3312C53.0974 34.149 51.4392 33.227 50.1107 31.9116C48.4057 29.8291 47.7252 27.5452 47.96 24.8729C48.5003 22.5758 49.8012 20.7997 51.6748 19.3984C54.3135 17.7882 57.5061 18.0933 60.131 19.5573Z" fill="#000816"/>
<path d="M27.7837 18.9333C29.7784 20.1862 31.3696 21.8272 32.0378 24.1489C32.4058 26.4228 32.2999 28.6473 31.0396 30.6255C29.6715 32.4913 28.0038 33.8888 25.6712 34.2579C22.9719 34.4418 21.14 33.8771 19.0419 32.2003C17.8723 31.1488 16.7941 29.3999 16.6396 27.8085C16.5428 25.0942 16.6639 23.0584 18.4736 20.8893C20.7748 18.5037 24.674 17.3784 27.7837 18.9333Z" fill="#000816"/>
<path d="M72.9868 12.5552C75.2451 12.5552 77.5033 12.5552 79.83 12.5552C79.83 21.6527 79.83 30.7502 79.83 40.1234C77.5717 40.1234 75.3135 40.1234 72.9868 40.1234C72.9868 31.0259 72.9868 21.9284 72.9868 12.5552Z" fill="#F9F9F9"/>
<path d="M78.4617 0.433073C79.4696 1.13881 80.3871 1.90415 80.7361 3.1184C80.9627 4.51672 81.0241 5.87943 80.2855 7.13036C79.4159 8.27369 78.2715 9.08423 76.8295 9.30017C75.5268 9.37668 74.6075 9.04053 73.5737 8.25383C72.5817 7.34045 72.0972 6.45618 71.937 5.09651C71.9074 3.65866 72.004 2.69058 72.9871 1.60619C74.5087 0.0245146 76.4005 -0.434776 78.4617 0.433073Z" fill="#F9F9F9"/>
<path d="M188.14 5.28211C189.258 5.93986 190.086 7.02975 190.494 8.25385C190.678 9.83706 190.43 11.0456 189.516 12.3597C188.624 13.3836 187.715 13.8156 186.356 13.9728C185.227 14.0348 184.372 13.8113 183.455 13.1418C182.464 12.2071 181.78 11.345 181.623 9.96082C181.59 8.24163 181.761 7.25096 182.951 6.00843C184.545 4.55107 186.266 4.36448 188.14 5.28211Z" fill="#000816"/>
<path d="M115.53 18.6744C116.408 19.2949 117.06 19.813 117.602 20.7548C117.745 20.9994 117.745 20.9994 117.891 21.249C118.314 22.0534 118.543 22.5832 118.543 23.5043C113.897 23.5043 109.252 23.5043 104.465 23.5043C105.175 21.1398 106.142 19.6903 108.186 18.3574C110.38 17.2567 113.454 17.464 115.53 18.6744Z" fill="#000816"/>
<path d="M188.14 5.28211C189.258 5.93986 190.086 7.02975 190.494 8.25385C190.678 9.83706 190.43 11.0456 189.516 12.3597C188.624 13.3836 187.715 13.8156 186.356 13.9728C185.227 14.0348 184.372 13.8113 183.455 13.1418C182.464 12.2071 181.78 11.345 181.623 9.96082C181.59 8.24163 181.761 7.25096 182.951 6.00843C184.545 4.55107 186.266 4.36448 188.14 5.28211ZM182.917 6.87299C182.126 7.95025 181.886 8.88592 182.086 10.209C182.548 11.5959 183.17 12.4173 184.432 13.1418C185.411 13.4681 186.452 13.5517 187.423 13.1533C188.561 12.472 189.277 11.6677 189.711 10.4046C189.887 9.19669 189.868 8.14067 189.223 7.08073C188.434 6.07035 187.666 5.6031 186.394 5.44402C184.825 5.37996 183.97 5.69917 182.917 6.87299Z" fill="#F9F9F9"/>
<path d="M184.433 6.88521C186.857 6.88521 186.857 6.88521 187.561 7.47177C187.756 7.66728 187.756 7.66728 187.805 8.32716C187.756 9.03592 187.756 9.03592 187.488 9.41474C187.17 9.62247 187.17 9.62247 186.779 9.62247C187.101 10.2677 187.424 10.9129 187.756 11.5777C186.974 11.3821 186.974 11.3821 186.534 10.8078C186.192 10.209 186.192 10.209 186.192 9.81799C185.805 9.81799 185.418 9.81799 185.019 9.81799C185.019 10.4632 185.019 11.1084 185.019 11.7732C184.826 11.7732 184.632 11.7732 184.433 11.7732C184.433 10.1602 184.433 8.54712 184.433 6.88521Z" fill="#F9F9F9"/>
<path d="M185.215 5.12553C184.853 5.5271 184.515 5.78466 184.054 6.07869C183.164 6.69633 182.569 7.3962 182.282 8.44935C182.071 9.86402 182.456 10.9921 183.26 12.1642C183.663 12.5088 183.663 12.5088 184.042 12.7508C183.977 12.9443 183.913 13.1379 183.846 13.3373C181.922 11.8338 181.922 11.8338 181.696 10.6001C181.542 9.14048 181.465 7.8255 182.381 6.61407C184.104 4.75535 184.104 4.75535 185.215 5.12553Z" fill="#F9F9F9"/>
<path d="M185.019 7.47177C185.265 7.4637 185.511 7.45564 185.764 7.44733C185.903 7.44279 186.041 7.43826 186.184 7.43358C186.583 7.47177 186.583 7.47177 187.17 7.86281C187.231 8.35161 187.231 8.35161 187.17 8.8404C186.779 9.23144 186.779 9.23144 186.356 9.26963C185.91 9.2569 185.465 9.24417 185.019 9.23144C185.019 8.65075 185.019 8.07006 185.019 7.47177Z" fill="#000816"/>
<path d="M181.891 8.44936C181.956 8.44936 182.02 8.44936 182.087 8.44936C182.106 8.60285 182.125 8.75634 182.145 8.91449C182.351 10.3677 182.541 11.545 183.7 12.543C183.869 12.6459 183.869 12.6459 184.042 12.7508C183.977 12.9443 183.913 13.1379 183.846 13.3373C182.825 12.539 182.047 11.8949 181.696 10.6001C181.645 9.94401 181.63 9.30023 181.696 8.64488C181.76 8.58036 181.825 8.51584 181.891 8.44936Z" fill="#F9F9F9"/>
<path d="M185.215 5.12553C184.746 5.6924 184.371 5.81017 183.65 5.9076C183.846 5.32105 183.846 5.32105 184.213 5.07665C184.628 4.93001 184.628 4.93001 185.215 5.12553Z" fill="#F9F9F9"/>
<path d="M182.282 7.27624C182.477 7.86279 182.477 7.86279 182.282 8.44935C182.088 8.51387 181.895 8.57839 181.695 8.64487C181.769 8.07053 181.769 8.07053 181.891 7.47176C182.02 7.40724 182.149 7.34271 182.282 7.27624Z" fill="#F9F9F9"/>
</svg>
