<svg width="115" height="54" viewBox="0 0 115 54" fill="none" xmlns="http://www.w3.org/2000/svg">
<g clip-path="url(#clip0_562_2600)">
<path d="M0.384766 0.122375C37.9477 0.122375 75.5106 0.122375 114.212 0.122375C114.212 17.8283 114.212 35.5341 114.212 53.7766C76.6489 53.7766 39.086 53.7766 0.384766 53.7766C0.384766 36.0707 0.384766 18.3648 0.384766 0.122375ZM4.2513 3.96822C4.2513 19.1668 4.2513 34.3654 4.2513 50.0245C19.5317 50.0245 34.812 50.0245 50.5554 50.0245C50.5554 34.8259 50.5554 19.6274 50.5554 3.96822C35.2751 3.96822 19.9947 3.96822 4.2513 3.96822ZM54.5163 3.96822C54.5163 19.1668 54.5163 34.3654 54.5163 50.0245C72.9399 50.0245 91.3634 50.0245 110.345 50.0245C110.345 34.8259 110.345 19.6274 110.345 3.96822C91.9217 3.96822 73.4982 3.96822 54.5163 3.96822Z" fill="#F9F9F9"/>
<path d="M30.2796 12.0351C30.348 12.0552 30.4164 12.0753 30.487 12.096C32.9359 12.8365 35.2655 14.4179 36.598 16.6314C36.6596 16.7303 36.7211 16.8292 36.7844 16.9311C37.5621 18.2101 38.2532 19.7149 38.3239 21.2236C38.3198 22.0559 38.3198 22.0559 38.693 22.7493C38.9548 22.8859 38.9548 22.8859 39.2371 22.9882C40.3657 23.4462 41.095 24.6584 41.5716 25.7103C41.8344 26.3756 41.9088 26.9396 41.9027 27.6471C41.9035 27.7318 41.9042 27.8165 41.905 27.9038C41.9004 29.4563 41.2004 30.7748 40.1522 31.8975C39.2094 32.7783 38.0124 33.3439 36.715 33.3329C36.6047 33.3322 36.4945 33.3315 36.3809 33.3307C36.255 33.3293 36.255 33.3293 36.1265 33.3279C36.1264 33.2706 36.1262 33.2133 36.1261 33.1542C36.1226 31.7508 36.117 30.3474 36.1092 28.944C36.1054 28.2653 36.1024 27.5867 36.101 26.9079C36.0997 26.3155 36.0972 25.7231 36.0931 25.1306C36.091 24.8177 36.0897 24.5049 36.0896 24.192C36.0876 21.2112 35.5361 18.61 33.3791 16.4199C31.5199 14.6487 29.1713 13.9372 26.6392 13.9734C24.3642 14.0554 22.1837 15.1906 20.6254 16.8127C19.1441 18.4829 18.3904 20.5294 18.3758 22.7385C18.3748 22.8514 18.3737 22.9644 18.3726 23.0808C18.3693 23.4537 18.3668 23.8266 18.3646 24.1996C18.3642 24.2633 18.3639 24.3271 18.3635 24.3928C18.36 24.9958 18.3571 25.5989 18.3551 26.202C18.3525 26.9689 18.3477 27.7357 18.3399 28.5026C18.3346 29.0442 18.3319 29.5859 18.3311 30.1275C18.3305 30.4498 18.3288 30.772 18.3243 31.0943C18.3071 32.5117 18.3042 33.6845 19.0572 34.9225C19.1187 35.0264 19.1803 35.1304 19.2438 35.2374C20.4071 37.1275 22.3549 38.5936 24.5269 39.1436C24.7726 39.1725 24.7726 39.1725 24.9984 39.1436C25.1599 38.9917 25.3164 38.8344 25.47 38.6746C26.2699 38.1201 26.9546 37.998 27.9219 38.1118C28.2745 38.2221 28.5602 38.3749 28.865 38.5808C28.9505 38.633 29.0361 38.6853 29.1243 38.7391C29.7248 39.3529 30.0285 40.0307 30.0173 40.8785C29.9429 41.7248 29.6017 42.3819 28.9828 42.9601C28.3286 43.4999 27.7485 43.6078 26.9015 43.5845C26.1295 43.5015 25.5041 43.0975 24.9984 42.5204C24.9306 42.3664 24.8671 42.2103 24.8076 42.0529C24.6124 41.6513 24.4576 41.5049 24.0355 41.353C23.8426 41.2974 23.6487 41.245 23.4542 41.1955C23.2488 41.1351 23.0438 41.0738 22.839 41.0116C22.7398 40.9817 22.6406 40.9519 22.5385 40.9211C19.9621 40.0858 17.8689 37.822 16.6642 35.4854C16.2702 34.6899 15.8508 33.7543 15.8508 32.8589C15.7987 32.8494 15.7467 32.8398 15.6931 32.83C14.5378 32.4887 13.6833 31.4697 13.1001 30.4776C12.3781 29.1173 12.2223 27.5911 12.6444 26.1053C13.0434 24.8905 13.7685 23.8579 14.8134 23.1036C14.9995 23.0319 15.1862 22.9616 15.3733 22.8926C15.6554 22.7519 15.8132 22.6499 15.9174 22.3472C16.0236 21.8422 16.0623 21.3294 16.1073 20.8161C16.319 18.8523 17.4052 16.981 18.6799 15.5057C18.7318 15.4417 18.7838 15.3776 18.8372 15.3115C20.2229 13.642 22.2817 12.5541 24.3383 11.9413C24.4438 11.9093 24.5493 11.8772 24.658 11.8442C26.4489 11.3989 28.5186 11.5092 30.2796 12.0351Z" fill="#F9F9F9"/>
<path d="M81.8173 14.9371C82.1474 15.0367 82.1474 15.0367 82.3301 15.324C82.3632 15.4149 82.3963 15.5059 82.4303 15.5995C82.4747 15.56 82.5191 15.5205 82.5648 15.4797C82.6235 15.4283 82.6822 15.377 82.7427 15.324C82.8007 15.2729 82.8587 15.2217 82.9184 15.169C83.3853 14.8101 84.0419 14.8976 84.5994 14.9429C85.2318 15.1046 85.65 15.5476 86.0139 16.0686C86.4004 16.7228 86.4043 17.5027 86.2283 18.2263C85.9967 18.9149 85.7294 19.4104 85.065 19.7561C84.4965 20.0215 83.8619 20.1452 83.2548 19.9342C82.9252 19.7757 82.6859 19.6122 82.4303 19.3516C82.4279 19.4691 82.4255 19.5866 82.423 19.7077C82.4176 19.8626 82.4122 20.0175 82.4067 20.1723C82.4047 20.2884 82.4047 20.2884 82.4027 20.4068C82.3794 20.9817 82.3794 20.9817 82.1581 21.2793C81.9091 21.4491 81.7833 21.4681 81.4873 21.4152C81.3337 21.3076 81.3337 21.3076 81.2043 21.1338C81.1684 20.8775 81.1684 20.8775 81.1677 20.5639C81.1668 20.4465 81.166 20.3291 81.165 20.2082C81.1655 20.0799 81.1661 19.9517 81.1668 19.8235C81.1666 19.6921 81.1663 19.5607 81.166 19.4293C81.1655 19.1539 81.1661 18.8786 81.1675 18.6032C81.1691 18.2503 81.1681 17.8973 81.1665 17.5444C81.1654 17.273 81.1658 17.0017 81.1665 16.7303C81.1667 16.6002 81.1664 16.47 81.1658 16.3399C81.1651 16.158 81.1664 15.9762 81.1677 15.7943C81.168 15.6908 81.1682 15.5873 81.1684 15.4806C81.2043 15.2243 81.2043 15.2243 81.3275 15.0484C81.4873 14.9429 81.4873 14.9429 81.8173 14.9371Z" fill="#F9F9F9"/>
<path d="M77.291 35.2919C77.621 35.3915 77.621 35.3915 77.8038 35.6788C77.8368 35.7697 77.8699 35.8607 77.904 35.9544C78.0323 35.8441 78.0323 35.8441 78.1633 35.7316C78.6778 35.2896 79.0934 35.2557 79.7658 35.2692C80.3857 35.3268 80.7586 35.5754 81.187 36.013C81.6939 36.6358 81.8276 37.3472 81.804 38.136C81.7228 38.7595 81.4653 39.3534 81.016 39.8002C80.4317 40.2424 79.869 40.4527 79.1299 40.363C78.6335 40.238 78.2978 40.0338 77.904 39.7064C77.9031 39.7589 77.9022 39.8114 77.9013 39.8655C77.8962 40.1037 77.8883 40.3418 77.8804 40.5799C77.8784 40.7039 77.8784 40.7039 77.8763 40.8304C77.853 41.441 77.853 41.441 77.6317 41.6839C77.3844 41.7908 77.2278 41.8109 76.9609 41.77C76.8074 41.6627 76.8074 41.6627 76.678 41.4886C76.6421 41.2323 76.6421 41.2323 76.6414 40.9187C76.6405 40.8013 76.6396 40.6839 76.6387 40.563C76.6392 40.4347 76.6398 40.3065 76.6404 40.1783C76.6402 40.0469 76.6399 39.9155 76.6396 39.7841C76.6392 39.5087 76.6398 39.2334 76.6411 38.958C76.6427 38.6051 76.6418 38.2522 76.6401 37.8992C76.6391 37.6278 76.6394 37.3565 76.6401 37.0851C76.6403 36.955 76.6401 36.8249 76.6394 36.6947C76.6387 36.5128 76.64 36.331 76.6414 36.1491C76.6416 36.0456 76.6418 35.9421 76.6421 35.8354C76.678 35.5791 76.678 35.5791 76.8011 35.4032C76.9609 35.2977 76.9609 35.2977 77.291 35.2919Z" fill="#F9F9F9"/>
<path d="M75.7347 14.9429C75.9978 15.1538 76.0986 15.2785 76.2062 15.5995C76.2506 15.56 76.2949 15.5205 76.3407 15.4797C76.3994 15.4283 76.4581 15.3769 76.5186 15.324C76.5766 15.2729 76.6346 15.2217 76.6943 15.169C77.1788 14.7965 77.8933 14.8769 78.4695 14.9429C79.2035 15.2485 79.6748 15.8185 79.9784 16.5375C80.0203 16.814 80.0235 17.0849 80.0197 17.3642C80.0188 17.4393 80.0179 17.5144 80.0169 17.5918C79.9917 18.4248 79.8019 18.9073 79.1886 19.4864C78.6415 19.9315 78.1824 20.0522 77.4826 20.0386C76.9547 19.9714 76.5711 19.723 76.2062 19.3516C76.2038 19.4691 76.2013 19.5866 76.1988 19.7077C76.1935 19.8626 76.1881 20.0175 76.1826 20.1723C76.1806 20.2884 76.1806 20.2884 76.1786 20.4068C76.1553 20.9817 76.1553 20.9817 75.934 21.2793C75.685 21.4491 75.5592 21.4681 75.2631 21.4152C75.1096 21.3076 75.1096 21.3076 74.9802 21.1338C74.9443 20.8775 74.9443 20.8775 74.9436 20.5638C74.9427 20.4465 74.9418 20.3291 74.9409 20.2081C74.9414 20.0799 74.942 19.9517 74.9427 19.8235C74.9425 19.6921 74.9422 19.5607 74.9418 19.4293C74.9414 19.1539 74.942 18.8786 74.9433 18.6032C74.945 18.2503 74.944 17.8973 74.9423 17.5444C74.9413 17.273 74.9416 17.0017 74.9424 16.7303C74.9426 16.6002 74.9423 16.47 74.9417 16.3399C74.9409 16.158 74.9422 15.9762 74.9436 15.7943C74.9438 15.6908 74.9441 15.5873 74.9443 15.4806C74.9802 15.2243 74.9802 15.2243 75.1096 15.0506C75.3338 14.8934 75.4666 14.8974 75.7347 14.9429Z" fill="#F9F9F9"/>
<path d="M71.0668 35.2919C71.3969 35.3916 71.3969 35.3916 71.5796 35.6788C71.6127 35.7698 71.6458 35.8607 71.6798 35.9544C71.7242 35.9148 71.7686 35.8753 71.8143 35.8346C71.873 35.7832 71.9317 35.7318 71.9922 35.6788C72.0502 35.6277 72.1082 35.5765 72.1679 35.5238C72.6156 35.1796 73.2185 35.2603 73.7546 35.2978C74.4218 35.4936 74.94 35.8777 75.28 36.4809C75.4889 36.9165 75.5085 37.3069 75.4992 37.7835C75.5007 37.8588 75.5021 37.9342 75.5036 38.0118C75.4993 38.6753 75.3111 39.1558 74.8722 39.6558C74.2481 40.1895 73.7868 40.4096 72.9563 40.3934C72.4283 40.3263 72.0447 40.0778 71.6798 39.7064C71.6774 39.8239 71.675 39.9415 71.6725 40.0626C71.6672 40.2174 71.6618 40.3723 71.6563 40.5272C71.6543 40.6432 71.6543 40.6432 71.6522 40.7617C71.6289 41.3365 71.6289 41.3365 71.4076 41.6341C71.1586 41.8039 71.0328 41.8229 70.7368 41.77C70.5832 41.6624 70.5832 41.6624 70.4539 41.4886C70.4179 41.2323 70.4179 41.2323 70.4173 40.9187C70.4164 40.8013 70.4155 40.6839 70.4146 40.563C70.4151 40.4348 70.4156 40.3066 70.4163 40.1783C70.4161 40.0469 70.4158 39.9155 70.4155 39.7841C70.415 39.5087 70.4157 39.2334 70.417 38.9581C70.4186 38.6051 70.4177 38.2522 70.416 37.8992C70.4149 37.6278 70.4153 37.3565 70.416 37.0852C70.4162 36.955 70.416 36.8249 70.4153 36.6947C70.4146 36.5129 70.4159 36.331 70.4173 36.1491C70.4175 36.0456 70.4177 35.9421 70.4179 35.8355C70.4539 35.5792 70.4539 35.5792 70.577 35.4032C70.7368 35.2978 70.7368 35.2978 71.0668 35.2919Z" fill="#F9F9F9"/>
<path d="M90.9239 15.1012C91.6529 15.493 92.1463 16.025 92.3908 16.8208C92.5307 17.5407 92.4013 18.1481 92.0497 18.7888C91.6042 19.4405 91.0926 19.7627 90.3522 20.0082C89.5177 20.0897 88.8824 20.0133 88.1832 19.5392C87.6058 19.0523 87.218 18.4706 87.1148 17.7192C87.0674 16.9723 87.283 16.398 87.7116 15.7871C88.5638 14.9336 89.7779 14.6216 90.9239 15.1012Z" fill="#F9F9F9"/>
<path d="M73.1236 25.6538C73.7491 26.3049 73.9788 26.9871 73.9691 27.8746C73.9053 28.5919 73.5284 29.1889 72.9999 29.6697C72.2425 30.2073 71.4467 30.2065 70.5479 30.1387C70.2563 30.0569 70.0372 29.9405 69.7935 29.7635C69.6923 29.6919 69.5912 29.6203 69.487 29.5466C68.8965 28.9726 68.7422 28.3928 68.7207 27.5885C68.7178 26.8356 68.8908 26.3757 69.4004 25.8246C70.497 24.7877 71.8963 24.8477 73.1236 25.6538Z" fill="#F9F9F9"/>
<path d="M66.3008 33.6566C66.5851 33.7255 66.6796 33.8557 66.8699 34.0784C67.0146 34.3368 67.1327 34.6054 67.2516 34.8764C67.2869 34.9551 67.3223 35.0339 67.3587 35.115C67.4716 35.3671 67.5834 35.6197 67.6951 35.8723C67.7687 36.0371 67.8424 36.2019 67.9161 36.3666C68.0622 36.6931 68.2074 37.02 68.3521 37.3472C68.4953 37.6704 68.6415 37.9921 68.7901 38.3129C68.8253 38.3895 68.8605 38.4662 68.8968 38.5451C68.9631 38.6894 69.0302 38.8333 69.098 38.9769C69.257 39.3243 69.3738 39.6036 69.3219 39.9878C69.1661 40.2374 69.0563 40.2651 68.7678 40.3337C68.4304 40.2599 68.4016 40.2213 68.2197 39.9468C67.9768 39.5359 67.8767 39.1462 67.7187 38.6746C66.6606 38.6746 65.6024 38.6746 64.5123 38.6746C64.4189 38.9532 64.3255 39.2318 64.2294 39.5188C64.1034 39.7989 63.9705 40.0452 63.7578 40.2692C63.4366 40.3395 63.2922 40.3271 63.0093 40.1637C62.853 39.8894 62.9292 39.7321 63.0034 39.425C63.1352 39.0809 63.2871 38.7463 63.4395 38.4108C63.4844 38.311 63.5293 38.2111 63.5755 38.1083C63.7018 37.8278 63.8288 37.5476 63.9559 37.2674C64.0775 36.9988 64.1979 36.7297 64.3185 36.4607C64.4454 36.1777 64.573 35.895 64.7008 35.6124C64.7636 35.4733 64.8261 35.3342 64.8885 35.195C64.9766 34.9986 65.0656 34.8026 65.1547 34.6067C65.1809 34.5479 65.2071 34.4891 65.2341 34.4285C65.5005 33.8479 65.6408 33.6756 66.3008 33.6566Z" fill="#F9F9F9"/>
<path d="M67.4359 13.8173C67.609 13.9558 67.609 13.9558 67.7188 14.0987C67.7483 14.386 67.7483 14.386 67.7188 14.6615C67.5302 14.8491 67.5302 14.8491 67.2414 14.8843C66.9013 14.8521 66.7657 14.8097 66.4752 14.6615C65.9617 14.4141 65.4506 14.4045 64.8896 14.4739C64.5884 14.5889 64.5884 14.5889 64.4181 14.8491C64.3709 15.1226 64.3709 15.1226 64.4181 15.4119C64.8787 15.9039 65.555 16.0062 66.1836 16.1792C66.8913 16.3868 67.4711 16.66 67.9074 17.2704C68.1139 17.925 68.0445 18.4646 67.7361 19.076C67.4048 19.6155 66.8032 19.8506 66.2099 20.0082C65.1572 20.1394 64.1164 19.8887 63.2334 19.2977C63.0978 19.164 63.0978 19.164 62.9858 18.8239C63.0035 18.5074 63.0035 18.5074 63.0978 18.3198C63.4056 18.1667 63.6195 18.2371 63.9466 18.3198C64.1381 18.4403 64.3269 18.5654 64.5124 18.695C65.0776 18.9505 65.7105 18.9727 66.3042 18.8005C66.5061 18.6986 66.5061 18.6986 66.6814 18.5074C66.7043 18.3215 66.7043 18.3215 66.6932 18.1204C66.6893 18.0005 66.6855 17.8805 66.6814 17.7569C66.1322 17.4496 65.5784 17.2624 64.9745 17.0935C64.254 16.8843 63.731 16.586 63.2864 15.9747C63.1156 15.465 63.0878 14.929 63.2853 14.4226C64.1718 12.9422 66.0827 13.0923 67.4359 13.8173Z" fill="#F9F9F9"/>
<path d="M70.0766 15.0367C70.3482 15.3068 70.2893 15.5019 70.291 15.8795C70.2929 16.0131 70.2949 16.1467 70.2969 16.2803C70.299 16.4907 70.3006 16.701 70.3012 16.9114C70.3021 17.1146 70.3053 17.3178 70.3087 17.521C70.3095 17.6426 70.3103 17.7642 70.3111 17.8895C70.3673 18.2797 70.4898 18.4842 70.7368 18.7888C71.0258 18.9325 71.2664 18.9041 71.5855 18.8826C71.984 18.7114 72.1513 18.5162 72.34 18.1322C72.3827 17.8104 72.3827 17.8104 72.3783 17.4602C72.3793 17.397 72.3803 17.3338 72.3814 17.2686C72.3857 16.9998 72.3868 16.731 72.3882 16.4622C72.3897 16.2652 72.3928 16.0683 72.396 15.8714C72.3966 15.7541 72.3973 15.6367 72.398 15.5158C72.4343 15.2243 72.4343 15.2243 72.5571 15.0421C72.7172 14.9429 72.7172 14.9429 73.0532 14.9605C73.3773 15.0367 73.3773 15.0367 73.5659 15.2243C73.5905 15.4124 73.5905 15.4124 73.5918 15.6459C73.5932 15.7769 73.5932 15.7769 73.5946 15.9105C73.5945 16.0051 73.5944 16.0997 73.5943 16.1972C73.5947 16.2941 73.5951 16.391 73.5955 16.4909C73.5961 16.6961 73.5961 16.9014 73.5957 17.1066C73.5954 17.4212 73.5976 17.7357 73.6 18.0503C73.6002 18.2494 73.6003 18.4486 73.6002 18.6477C73.6011 18.7421 73.6019 18.8365 73.6028 18.9338C73.6022 19.0214 73.6017 19.109 73.6011 19.1993C73.6011 19.2765 73.6012 19.3536 73.6012 19.433C73.5573 19.6821 73.4855 19.765 73.283 19.9144C72.9825 19.9518 72.8 19.9712 72.5463 19.7971C72.4237 19.6174 72.3769 19.4707 72.34 19.2578C72.2738 19.3294 72.2077 19.401 72.1396 19.4747C71.7246 19.8605 71.3976 20.0239 70.8311 20.0434C70.2593 20.0229 69.9374 19.873 69.5344 19.463C69.16 18.9354 69.1044 18.4505 69.1052 17.8174C69.1048 17.7439 69.1044 17.6705 69.104 17.5947C69.1034 17.4403 69.1034 17.2859 69.1038 17.1314C69.1041 16.8949 69.1019 16.6585 69.0995 16.422C69.0993 16.2715 69.0992 16.1211 69.0993 15.9707C69.0984 15.9001 69.0976 15.8294 69.0967 15.7566C69.0992 15.4772 69.1011 15.2743 69.2562 15.0359C69.5336 14.875 69.7773 14.9664 70.0766 15.0367Z" fill="#F9F9F9"/>
<path d="M63.6637 23.5726C63.9961 23.8685 64.2554 24.1884 64.508 24.5528C64.5741 24.6477 64.6403 24.7427 64.7084 24.8406C64.776 24.9387 64.8436 25.0368 64.9132 25.1379C64.9823 25.2371 65.0513 25.3363 65.1225 25.4386C65.6283 26.1676 65.6283 26.1676 65.7384 26.3866C66.2789 25.7117 66.7753 25.0121 67.2652 24.3003C67.3491 24.1795 67.3491 24.1795 67.4348 24.0563C67.4849 23.9835 67.535 23.9108 67.5867 23.8359C67.7188 23.6664 67.7188 23.6664 67.9074 23.5726C68.4062 23.5304 68.4062 23.5304 68.6501 23.684C68.7934 23.9137 68.7804 24.0554 68.7562 24.323C68.6514 24.5175 68.6514 24.5175 68.5038 24.7092C68.4495 24.7808 68.3952 24.8524 68.3392 24.9262C68.2804 25.0019 68.2215 25.0775 68.1609 25.1555C68.1015 25.2352 68.0421 25.3148 67.9809 25.3969C67.7072 25.7624 67.4311 26.1173 67.1206 26.4526C66.385 27.2774 66.2907 27.9711 66.3179 29.0703C66.3203 29.168 66.3227 29.2656 66.3252 29.3663C66.3299 29.4541 66.3345 29.5419 66.3393 29.6324C66.3042 29.8573 66.3042 29.8573 66.1294 30.0294C65.927 30.1387 65.927 30.1387 65.6854 30.127C65.4325 30.0367 65.3346 29.9743 65.1726 29.7635C65.1497 29.5401 65.1497 29.5401 65.1641 29.2758C65.2009 27.8879 65.0582 27.1208 64.1097 26.1006C63.8167 25.7719 63.5651 25.4139 63.31 25.0558C63.2605 24.9895 63.211 24.9231 63.16 24.8547C62.8243 24.3907 62.8243 24.3907 62.7773 24.0533C62.8149 23.854 62.8149 23.854 62.921 23.684C63.1883 23.5156 63.3533 23.5232 63.6637 23.5726Z" fill="#F9F9F9"/>
<path d="M75.5933 25.1438C75.9233 25.1672 75.9233 25.1672 76.1119 25.3549C76.1375 25.624 76.1375 25.624 76.141 25.9657C76.1434 26.0891 76.1458 26.2124 76.1482 26.3396C76.1509 26.5355 76.1532 26.7314 76.155 26.9274C76.157 27.1169 76.1607 27.3063 76.1646 27.4958C76.1659 27.609 76.1671 27.7223 76.1685 27.839C76.2133 28.2303 76.306 28.477 76.4892 28.8255C76.8686 29.0771 77.175 29.0777 77.6208 29.0131C77.9508 28.8148 78.0646 28.7207 78.1867 28.3565C78.1977 28.1388 78.2035 27.9208 78.2066 27.7028C78.2092 27.5725 78.2119 27.4422 78.2147 27.3118C78.2186 27.1068 78.222 26.9018 78.2245 26.6968C78.2271 26.4986 78.2314 26.3005 78.236 26.1023C78.2379 25.9838 78.2398 25.8652 78.2417 25.7431C78.281 25.4487 78.281 25.4487 78.4076 25.2689C78.6506 25.1108 78.8471 25.138 79.1297 25.1672C79.2231 25.2292 79.3164 25.2911 79.4126 25.3549C79.4486 25.5464 79.4486 25.5464 79.4492 25.785C79.4501 25.8742 79.451 25.9634 79.4519 26.0554C79.4514 26.152 79.4508 26.2486 79.4502 26.3482C79.4505 26.4472 79.4508 26.5462 79.451 26.6482C79.4512 26.8579 79.4507 27.0675 79.4495 27.2772C79.448 27.5986 79.4495 27.9199 79.4513 28.2412C79.4511 28.4447 79.4508 28.6481 79.4502 28.8515C79.4511 28.9962 79.4511 28.9962 79.4519 29.1438C79.4511 29.2333 79.4502 29.3228 79.4492 29.415C79.449 29.4938 79.4488 29.5726 79.4486 29.6538C79.4044 29.9039 79.3305 29.9862 79.1297 30.1387C78.9057 30.1915 78.9057 30.1915 78.6582 30.1387C78.4721 29.9647 78.3384 29.7829 78.1867 29.5759C78.0816 29.663 78.0816 29.663 77.9745 29.7518C77.3813 30.2077 76.8494 30.2118 76.1119 30.1387C75.643 29.926 75.4233 29.6412 75.1689 29.2007C75.0476 28.8389 75.0593 28.4958 75.0587 28.1187C75.0584 28.0404 75.0581 27.9621 75.0578 27.8815C75.0573 27.7162 75.0571 27.5508 75.0571 27.3855C75.0569 27.1318 75.0552 26.8783 75.0534 26.6246C75.0531 26.4641 75.0529 26.3035 75.0528 26.143C75.0522 26.0669 75.0515 25.9908 75.0508 25.9123C75.0538 25.1821 75.0538 25.1821 75.5933 25.1438Z" fill="#F9F9F9"/>
<path d="M98.4625 13.6297C98.6205 13.7364 98.6205 13.7364 98.7454 13.9111C98.7731 14.1848 98.7731 14.1848 98.7631 14.4915C98.7606 14.5935 98.758 14.6954 98.7554 14.8004C98.7521 14.8784 98.7488 14.9564 98.7454 15.0367C98.8249 15.0346 98.9044 15.0324 98.9863 15.0301C99.1413 15.0276 99.1413 15.0276 99.2995 15.025C99.4537 15.0218 99.4537 15.0218 99.6111 15.0184C99.8771 15.0367 99.8771 15.0367 100.066 15.2243C100.095 15.5057 100.095 15.5057 100.066 15.7871C99.7431 16.0011 99.6242 15.9953 99.2464 15.9865C99.1058 15.9839 99.1058 15.9839 98.9624 15.9813C98.8908 15.9792 98.8192 15.977 98.7454 15.9748C98.7542 16.3588 98.7642 16.7427 98.7754 17.1267C98.779 17.2573 98.7823 17.388 98.7852 17.5186C98.7895 17.7063 98.7951 17.894 98.8007 18.0816C98.8051 18.2511 98.8051 18.2511 98.8097 18.424C98.8123 18.7068 98.8123 18.7068 99.0283 18.8826C99.2299 18.9188 99.2299 18.9188 99.4527 18.9295C99.8561 18.9555 99.8561 18.9555 100.066 19.164C100.101 19.3926 100.101 19.3926 100.066 19.633C99.7593 19.9272 99.48 20.0019 99.0578 20.0375C98.6239 20.0295 98.2258 19.9226 97.8967 19.633C97.6499 19.1523 97.5795 18.8037 97.5861 18.2557C97.5865 18.19 97.5869 18.1243 97.5873 18.0566C97.5889 17.8492 97.5925 17.6419 97.5961 17.4345C97.5975 17.2929 97.5988 17.1513 97.5999 17.0097C97.603 16.6647 97.6079 16.3197 97.6138 15.9748C97.427 15.9438 97.2403 15.9128 97.0479 15.8809C96.989 15.5644 96.989 15.5644 96.9536 15.2243C97.1422 15.0367 97.1422 15.0367 97.3898 15.025C97.4637 15.0289 97.5376 15.0328 97.6138 15.0367C97.6105 14.9588 97.6072 14.8808 97.6038 14.8004C97.6013 14.6985 97.5987 14.5965 97.5961 14.4915C97.5928 14.3903 97.5895 14.2891 97.5861 14.1848C97.6138 13.9111 97.6138 13.9111 97.7386 13.7364C97.9847 13.5703 98.1737 13.5938 98.4625 13.6297Z" fill="#F9F9F9"/>
<path d="M66.4927 33.7031C66.4304 33.827 66.3682 33.9508 66.3041 34.0783C66.2418 34.0783 66.1796 34.0783 66.1154 34.0783C66.1621 34.4034 66.1621 34.4034 66.2097 34.7349C66.3654 34.704 66.521 34.673 66.6813 34.6411C66.6047 34.8698 66.6047 34.8698 66.4927 35.1102C66.3993 35.1411 66.3059 35.1721 66.2097 35.204C66.2569 35.309 66.2569 35.309 66.305 35.4162C66.4465 35.7322 66.5875 36.0485 66.7284 36.3647C66.7779 36.475 66.8274 36.5853 66.8784 36.6989C66.9252 36.8041 66.972 36.9093 67.0202 37.0177C67.0636 37.1149 67.1071 37.2122 67.1519 37.3124C67.2471 37.549 67.2471 37.549 67.2471 37.7366C66.864 37.7393 66.4809 37.741 66.0978 37.7424C65.935 37.7436 65.935 37.7436 65.769 37.7448C65.6641 37.7451 65.5593 37.7454 65.4512 37.7457C65.3549 37.7462 65.2586 37.7467 65.1594 37.7472C64.8895 37.7366 64.8895 37.7366 64.6344 37.6854C64.3416 37.6277 64.2012 37.6797 63.9464 37.8304C63.8278 38.0307 63.8278 38.0307 63.7578 38.2994C63.7091 38.4461 63.6599 38.5926 63.6104 38.7391C63.587 38.811 63.5635 38.883 63.5393 38.9571C63.4749 39.1436 63.4749 39.1436 63.3806 39.3312C63.2872 39.3312 63.1938 39.3312 63.0977 39.3312C63.312 38.6395 63.5952 37.998 63.9051 37.3438C64.0064 37.1284 64.1076 36.9129 64.2087 36.6974C64.2594 36.5895 64.3101 36.4816 64.3623 36.3704C64.5061 36.0613 64.6469 35.751 64.7863 35.4399C64.8287 35.3456 64.871 35.2513 64.9147 35.1542C64.9944 34.9761 65.0737 34.7978 65.1525 34.6193C65.1884 34.5396 65.2242 34.4598 65.2612 34.3777C65.292 34.3082 65.3228 34.2388 65.3546 34.1672C65.6487 33.6339 65.9249 33.6754 66.4927 33.7031Z" fill="#F9F9F9"/>
<path d="M90.1634 15.8809C90.6142 16.049 90.9198 16.294 91.1536 16.7134C91.3625 17.2056 91.3503 17.5894 91.1831 18.097C90.9531 18.5229 90.7264 18.821 90.2577 18.9764C89.8301 19.0299 89.4069 19.0728 89.0155 18.8705C88.6125 18.5424 88.319 18.175 88.2511 17.6474C88.2314 17.1774 88.2878 16.8411 88.5602 16.4437C89.0667 15.948 89.4603 15.785 90.1634 15.8809Z" fill="#000816"/>
<path d="M81.6762 25.1672C81.9155 25.3232 81.9527 25.4237 82.0239 25.7007C82.0336 25.7723 82.0434 25.8439 82.0534 25.9177C82.0921 25.8713 82.1307 25.825 82.1705 25.7773C82.2214 25.7172 82.2722 25.6571 82.3245 25.5952C82.3749 25.5354 82.4252 25.4755 82.477 25.4138C82.6421 25.2365 82.742 25.1731 82.9847 25.1515C83.0508 25.1509 83.1169 25.1503 83.1851 25.1497C83.2843 25.1477 83.2843 25.1477 83.3855 25.1456C83.5623 25.1672 83.5623 25.1672 83.7509 25.3549C83.8039 25.8508 83.8039 25.8508 83.6338 26.0653C83.4463 26.2165 83.2746 26.2896 83.0495 26.3749C82.5791 26.5754 82.3516 26.7996 82.1407 27.2686C81.9893 27.8539 82.0194 28.458 82.0166 29.0598C82.0144 29.1579 82.0122 29.2561 82.0099 29.3571C82.0092 29.4464 82.0084 29.5357 82.0076 29.6276C81.9591 29.8573 81.9591 29.8573 81.7857 30.03C81.5819 30.1387 81.5819 30.1387 81.2872 30.127C81.016 30.0449 81.016 30.0449 80.8274 29.7635C80.8028 29.5677 80.8028 29.5677 80.8015 29.3399C80.8006 29.2545 80.7997 29.169 80.7988 29.081C80.7989 28.9889 80.799 28.8969 80.7991 28.802C80.7986 28.7073 80.7982 28.6126 80.7978 28.515C80.7973 28.3148 80.7972 28.1145 80.7976 27.9142C80.7979 27.6073 80.7957 27.3004 80.7933 26.9934C80.7931 26.799 80.7931 26.6046 80.7932 26.4101C80.7923 26.3181 80.7914 26.226 80.7905 26.1312C80.7911 26.0457 80.7917 25.9603 80.7923 25.8722C80.7922 25.797 80.7922 25.7219 80.7921 25.6444C80.8813 25.1498 81.2286 25.1116 81.6762 25.1672Z" fill="#F9F9F9"/>
<path d="M94.1718 14.9312C94.5019 15.0367 94.5019 15.0367 94.6076 15.1903C94.6846 15.3709 94.6846 15.3709 94.7848 15.6934C94.8568 15.6044 94.9288 15.5154 95.0029 15.4237C95.1767 15.2088 95.3005 15.1013 95.5393 14.9429C95.8715 14.9078 96.0437 14.9044 96.3291 15.0836C96.4823 15.2243 96.4823 15.2243 96.5059 15.5175C96.4823 15.7003 96.4823 15.7003 96.388 15.881C96.1155 16.0417 95.8424 16.1578 95.5466 16.2705C95.1452 16.5101 94.9483 16.7574 94.7848 17.1942C94.725 17.6111 94.7231 18.0222 94.7259 18.4429C94.7259 18.6614 94.7247 18.8799 94.7222 19.0984C94.723 19.2423 94.723 19.2423 94.7238 19.3891C94.6905 19.633 94.6905 19.633 94.5648 19.8049C94.3201 19.9754 94.1316 19.9504 93.8418 19.9144C93.6399 19.7652 93.5677 19.682 93.5229 19.4337C93.5226 19.3184 93.5226 19.3184 93.5222 19.2008C93.5213 19.1135 93.5205 19.0261 93.5195 18.9362C93.5201 18.8421 93.5207 18.748 93.5213 18.651C93.521 18.5542 93.5207 18.4574 93.5204 18.3577C93.5203 18.153 93.5208 17.9483 93.522 17.7436C93.5235 17.4299 93.522 17.1162 93.5202 16.8025C93.5203 16.6038 93.5207 16.405 93.5213 16.2063C93.5207 16.1122 93.5201 16.0181 93.5195 15.9212C93.5204 15.8338 93.5213 15.7465 93.5222 15.6565C93.5225 15.5797 93.5227 15.5028 93.5229 15.4237C93.5957 15.0199 93.7773 14.9452 94.1718 14.9312Z" fill="#F9F9F9"/>
<path d="M71.9691 26.1661C72.326 26.3458 72.5707 26.5877 72.7494 26.944C72.9062 27.4334 72.8693 27.9051 72.7052 28.3858C72.4337 28.7728 72.1385 29.0485 71.6796 29.2007C71.1053 29.2483 70.7139 29.203 70.265 28.8255C69.8572 28.3367 69.8143 27.8758 69.8318 27.2474C69.9204 26.7761 70.1698 26.4858 70.5479 26.1991C71.0069 26.0469 71.5029 26.0208 71.9691 26.1661Z" fill="#000816"/>
<path d="M81.8232 14.9546C82.1474 15.0367 82.1474 15.0367 82.336 15.3181C82.336 15.4419 82.336 15.5658 82.336 15.6933C82.4605 15.7243 82.585 15.7552 82.7132 15.7871C82.784 15.9865 82.784 15.9865 82.8075 16.2561C82.7473 16.3355 82.687 16.4148 82.6248 16.4965C82.306 16.9164 82.3891 17.4449 82.4303 17.9445C82.4608 18.1011 82.4921 18.2574 82.5246 18.4136C82.5246 18.6012 82.5246 18.7888 82.5246 18.9764C82.4313 19.0228 82.4313 19.0228 82.336 19.0702C82.3346 19.1345 82.3333 19.1989 82.3319 19.2652C82.3248 19.5559 82.3157 19.8465 82.3065 20.1371C82.3044 20.2385 82.3023 20.3398 82.3001 20.4442C82.2968 20.5409 82.2934 20.6377 82.29 20.7373C82.2875 20.8267 82.285 20.9161 82.2825 21.0082C82.2623 21.1168 82.2623 21.1168 82.2417 21.2276C81.9369 21.4297 81.8408 21.4591 81.4873 21.4152C81.3334 21.3083 81.3334 21.3083 81.2043 21.1338C81.1684 20.8775 81.1684 20.8775 81.1677 20.5638C81.1668 20.4464 81.166 20.3291 81.165 20.2081C81.1655 20.0799 81.1661 19.9517 81.1668 19.8235C81.1666 19.6921 81.1663 19.5607 81.166 19.4293C81.1655 19.1539 81.1661 18.8786 81.1675 18.6032C81.1691 18.2502 81.1681 17.8973 81.1665 17.5443C81.1654 17.273 81.1658 17.0017 81.1665 16.7303C81.1667 16.6002 81.1664 16.47 81.1658 16.3399C81.1651 16.158 81.1664 15.9761 81.1677 15.7943C81.168 15.6908 81.1682 15.5873 81.1684 15.4806C81.2043 15.2243 81.2043 15.2243 81.3271 15.0473C81.4873 14.9429 81.4873 14.9429 81.8232 14.9546Z" fill="#F9F9F9"/>
<path d="M77.3028 35.3212C77.621 35.3915 77.621 35.3915 77.7153 35.4853C77.7192 35.7042 77.7193 35.9231 77.7153 36.1419C77.7776 36.1419 77.8398 36.1419 77.904 36.1419C77.902 36.2155 77.9001 36.289 77.8981 36.3647C77.8863 36.6092 77.8863 36.6092 77.9983 36.7986C77.9676 36.9238 77.936 37.0488 77.904 37.1738C77.8541 37.8941 77.8761 38.4867 78.1869 39.1436C78.1246 39.1436 78.0624 39.1436 77.9983 39.1436C77.9983 39.2674 77.9983 39.3912 77.9983 39.5188C77.9049 39.5188 77.8115 39.5188 77.7153 39.5188C77.7176 39.6111 77.7176 39.6111 77.7198 39.7052C77.7257 39.9831 77.7294 40.261 77.733 40.5389C77.7366 40.6841 77.7366 40.6841 77.7402 40.8324C77.7416 40.9711 77.7416 40.9711 77.743 41.1127C77.7452 41.2409 77.7452 41.2409 77.7475 41.3717C77.7369 41.4412 77.7263 41.5108 77.7153 41.5824C77.4105 41.7845 77.3144 41.814 76.9609 41.77C76.807 41.6631 76.807 41.6631 76.678 41.4886C76.6421 41.2323 76.6421 41.2323 76.6414 40.9186C76.6405 40.8013 76.6396 40.6839 76.6387 40.5629C76.6392 40.4347 76.6398 40.3065 76.6404 40.1783C76.6402 40.0469 76.6399 39.9155 76.6396 39.7841C76.6392 39.5087 76.6398 39.2334 76.6411 38.958C76.6427 38.6051 76.6418 38.2521 76.6401 37.8992C76.6391 37.6278 76.6394 37.3565 76.6401 37.0851C76.6403 36.955 76.6401 36.8248 76.6394 36.6947C76.6387 36.5128 76.64 36.331 76.6414 36.1491C76.6416 36.0456 76.6418 35.9421 76.6421 35.8354C76.678 35.5791 76.678 35.5791 76.8004 35.4013C76.9609 35.2977 76.9609 35.2977 77.3028 35.3212Z" fill="#F9F9F9"/>
<path d="M75.7347 14.9429C75.828 15.0048 75.9214 15.0667 76.0176 15.1305C76.0353 15.4706 76.0353 15.4706 76.0176 15.7871C76.1421 15.7871 76.2666 15.7871 76.3948 15.7871C76.3948 15.88 76.3948 15.9729 76.3948 16.0685C76.3015 16.1304 76.2081 16.1923 76.1119 16.2561C76.1119 16.349 76.1119 16.4419 76.1119 16.5375C76.0497 16.5375 75.9874 16.5375 75.9233 16.5375C75.9855 16.6304 76.0478 16.7233 76.1119 16.8189C76.1443 17.0868 76.1443 17.0868 76.1591 17.3993C76.1811 17.771 76.2118 18.1092 76.3182 18.4663C76.3948 18.7888 76.3948 18.7888 76.3123 19.0233C76.2773 19.0697 76.2423 19.1161 76.2062 19.164C76.144 19.164 76.0817 19.164 76.0176 19.164C76.0198 19.2563 76.0198 19.2563 76.0221 19.3504C76.028 19.6283 76.0316 19.9061 76.0353 20.1841C76.0388 20.3293 76.0388 20.3293 76.0425 20.4775C76.0438 20.6163 76.0438 20.6163 76.0452 20.7578C76.0474 20.8861 76.0474 20.8861 76.0497 21.0169C76.0391 21.0864 76.0285 21.1559 76.0176 21.2276C75.7127 21.4297 75.6167 21.4591 75.2631 21.4152C75.1092 21.3083 75.1092 21.3083 74.9802 21.1338C74.9443 20.8775 74.9443 20.8775 74.9436 20.5638C74.9427 20.4465 74.9418 20.3291 74.9409 20.2081C74.9414 20.0799 74.942 19.9517 74.9427 19.8235C74.9425 19.6921 74.9422 19.5607 74.9418 19.4293C74.9414 19.1539 74.942 18.8786 74.9433 18.6032C74.945 18.2502 74.944 17.8973 74.9423 17.5444C74.9413 17.273 74.9416 17.0017 74.9424 16.7303C74.9426 16.6002 74.9423 16.47 74.9417 16.3399C74.9409 16.158 74.9422 15.9761 74.9436 15.7943C74.9438 15.6908 74.9441 15.5873 74.9443 15.4806C74.9802 15.2243 74.9802 15.2243 75.1092 15.0498C75.3278 14.898 75.4739 14.9105 75.7347 14.9429Z" fill="#F9F9F9"/>
<path d="M79.6016 36.2358C80.0574 36.4581 80.3338 36.714 80.5447 37.1738C80.6138 37.7185 80.6474 38.2815 80.3855 38.7801C80.0955 39.1388 79.9228 39.2969 79.4583 39.3671C78.9817 39.3969 78.6517 39.3831 78.2754 39.0732C77.8757 38.6882 77.7796 38.3512 77.7686 37.8011C77.7762 37.3158 77.821 37.0047 78.1484 36.6392C78.5984 36.2263 79.0019 36.142 79.6016 36.2358Z" fill="#000816"/>
<path d="M73.3774 36.2358C73.8326 36.4579 74.1068 36.716 74.3205 37.1738C74.3946 37.7765 74.4099 38.3561 74.0376 38.8622C73.7727 39.1651 73.6237 39.2984 73.2308 39.3832C72.713 39.4189 72.3987 39.3579 71.9982 39.0205C71.6086 38.6433 71.5679 38.3324 71.5562 37.8011C71.5613 37.2921 71.5927 36.9889 71.9628 36.611C72.4086 36.2191 72.8027 36.1352 73.3774 36.2358Z" fill="#000816"/>
<path d="M77.9038 15.881C78.3589 16.103 78.6332 16.3612 78.8469 16.819C78.9217 17.428 78.9284 17.9895 78.5639 18.5074C78.2952 18.8164 78.1078 18.9447 77.6964 19.0086C77.1966 19.0398 76.9175 18.9957 76.5305 18.6657C76.1355 18.2886 76.0943 17.9814 76.0825 17.4463C76.0876 16.9373 76.119 16.634 76.4892 16.2562C76.935 15.8643 77.3291 15.7804 77.9038 15.881Z" fill="#000816"/>
<path d="M84.1282 15.8809C84.584 16.1033 84.8604 16.3592 85.0713 16.819C85.1402 17.3615 85.1728 17.926 84.9181 18.4253C84.6132 18.7923 84.3794 18.9359 83.9054 19.0123C83.4562 19.0435 83.1636 19.0108 82.808 18.7243C82.484 18.4245 82.3579 18.1095 82.3014 17.6756C82.2891 17.1186 82.2959 16.7183 82.675 16.2877C83.1198 15.8685 83.5301 15.7874 84.1282 15.8809Z" fill="#000816"/>
<path d="M66.0213 35.2039C66.0835 35.2039 66.1457 35.2039 66.2099 35.2039C66.383 35.5927 66.5558 35.9816 66.7285 36.3706C66.778 36.4817 66.8275 36.5927 66.8785 36.7071C66.9253 36.8126 66.9721 36.9181 67.0203 37.0268C67.0638 37.1246 67.1072 37.2223 67.152 37.3231C67.2472 37.549 67.2472 37.549 67.2472 37.6428C66.5003 37.6428 65.7534 37.6428 64.9839 37.6428C65.2969 36.8095 65.6367 36.0071 66.0213 35.2039Z" fill="#000816"/>
<path d="M71.9626 39.0498C72.0625 39.0946 72.0625 39.0946 72.1645 39.1403C72.4455 39.2415 72.6791 39.2714 72.9764 39.2902C73.4621 39.3218 73.4621 39.3218 73.5658 39.425C73.6222 39.4095 73.6786 39.3941 73.7367 39.3781C73.943 39.3312 73.943 39.3312 74.1434 39.384C74.2018 39.3975 74.2601 39.4111 74.3203 39.425C74.3825 39.3631 74.4447 39.3012 74.5089 39.2374C74.6333 39.2993 74.7578 39.3612 74.8861 39.425C74.7097 39.8715 74.4022 40.0939 73.9725 40.2927C73.2941 40.4454 72.7383 40.4313 72.1221 40.0974C71.9626 39.9878 71.9626 39.9878 71.6797 39.7064C71.6486 40.2636 71.6174 40.8208 71.5854 41.3948C71.5543 41.3948 71.5231 41.3948 71.4911 41.3948C71.4773 41.092 71.469 40.7892 71.4616 40.4861C71.4577 40.4006 71.4537 40.315 71.4496 40.2269C71.4382 39.6004 71.4382 39.6004 71.5981 39.3537C71.7287 39.2238 71.7287 39.2238 71.9626 39.0498Z" fill="#F9F9F9"/>
<path d="M66.7758 18.7888C66.7758 18.8507 66.7758 18.9126 66.7758 18.9764C66.8381 18.9764 66.9003 18.9764 66.9644 18.9764C67.1022 19.2247 67.1531 19.3417 67.1531 19.633C66.5162 19.995 65.8905 19.9411 65.1726 19.9144C65.2038 19.7906 65.2349 19.6668 65.2669 19.5392C65.1113 19.5082 64.9557 19.4773 64.7954 19.4454C64.8265 19.3835 64.8577 19.3216 64.8897 19.2578C64.9831 19.2578 65.0764 19.2578 65.1726 19.2578C65.2038 19.1649 65.2349 19.0721 65.2669 18.9764C65.4476 18.9447 65.6284 18.9136 65.8092 18.8826C65.9099 18.8652 66.0105 18.8478 66.1142 18.8298C66.3986 18.7888 66.3986 18.7888 66.7758 18.7888Z" fill="#F9F9F9"/>
<path d="M96.1048 14.9429C96.3287 15.0836 96.3287 15.0836 96.482 15.2243C96.5151 15.6359 96.5151 15.6359 96.3877 15.8809C96.0302 16.1146 95.6469 16.2736 95.256 16.4438C95.1626 16.5057 95.0693 16.5676 94.9731 16.6314C94.9731 16.5694 94.9731 16.5075 94.9731 16.4438C94.9108 16.4128 94.8486 16.3818 94.7845 16.35C94.8156 16.288 94.8467 16.2261 94.8788 16.1624C94.8165 16.1624 94.7543 16.1624 94.6902 16.1624C94.5508 15.885 94.5902 15.6237 94.5959 15.3181C94.6581 15.442 94.7203 15.5658 94.7845 15.6933C94.8564 15.6044 94.9284 15.5154 95.0026 15.4237C95.3277 15.0216 95.5793 14.8896 96.1048 14.9429Z" fill="#F9F9F9"/>
<path d="M71.9626 39.0498C72.021 39.0788 72.0793 39.1078 72.1394 39.1377C72.5462 39.2753 72.9506 39.2999 73.3772 39.3312C73.315 39.3931 73.2527 39.455 73.1886 39.5188C72.941 39.4836 72.941 39.4836 72.7171 39.425C72.6879 39.514 72.6587 39.603 72.6286 39.6947C72.5284 39.9878 72.5284 39.9878 72.4341 40.1754C72.0903 40.0553 71.9469 39.9722 71.6797 39.7064C71.6486 40.2636 71.6174 40.8208 71.5854 41.3948C71.5543 41.3948 71.5231 41.3948 71.4911 41.3948C71.4773 41.092 71.469 40.7892 71.4616 40.4861C71.4577 40.4006 71.4537 40.315 71.4496 40.2269C71.4382 39.6004 71.4382 39.6004 71.5981 39.3537C71.7287 39.2238 71.7287 39.2238 71.9626 39.0498ZM73 39.5188C73.1886 39.6126 73.1886 39.6126 73.1886 39.6126L73 39.5188Z" fill="#F9F9F9"/>
<path d="M63.9465 18.3198C64.0398 18.3817 64.1332 18.4436 64.2294 18.5074C64.2294 18.5693 64.2294 18.6312 64.2294 18.695C64.136 18.695 64.0427 18.695 63.9465 18.695C63.9776 18.7878 64.0087 18.8807 64.0408 18.9764C63.8699 19.076 63.8699 19.076 63.6636 19.164C63.5702 19.133 63.4768 19.1021 63.3806 19.0702C63.2551 19.0381 63.1294 19.0066 63.0034 18.9764C63.0275 18.7566 63.0593 18.5375 63.0977 18.3198C63.3919 18.1735 63.631 18.2592 63.9465 18.3198Z" fill="#F9F9F9"/>
<path d="M78.0926 28.6379C78.1548 28.7307 78.2171 28.8236 78.2812 28.9193C78.2501 29.0121 78.219 29.105 78.1869 29.2007C78.2803 29.2626 78.3736 29.3245 78.4698 29.3883C78.4076 29.5121 78.3453 29.6359 78.2812 29.7635C78.2501 29.7016 78.219 29.6397 78.1869 29.5759C78.0936 29.6688 78.0002 29.7616 77.904 29.8573C77.7213 29.7869 77.7213 29.7869 77.5268 29.6697C77.456 29.4704 77.456 29.4704 77.4325 29.2945C77.2769 29.2635 77.1213 29.2326 76.9609 29.2007C76.9609 29.1697 76.9609 29.1388 76.9609 29.1069C77.0479 29.0915 77.0479 29.0915 77.1367 29.0757C77.2129 29.0609 77.2891 29.046 77.3676 29.0307C77.4431 29.0165 77.5186 29.0024 77.5964 28.9878C77.8318 28.9122 77.9346 28.8236 78.0926 28.6379Z" fill="#F9F9F9"/>
<path d="M78.0926 38.8622C78.2482 39.017 78.4038 39.1717 78.5641 39.3312C78.4707 39.3621 78.3774 39.3931 78.2812 39.425C78.2812 39.5179 78.2812 39.6107 78.2812 39.7064C78.4057 39.7683 78.5301 39.8302 78.6584 39.894C78.6584 39.9869 78.6584 40.0797 78.6584 40.1754C78.3146 40.0553 78.1711 39.9722 77.9039 39.7064C77.8728 40.2945 77.8417 40.8827 77.8096 41.4886C77.7785 41.4886 77.7474 41.4886 77.7153 41.4886C77.7153 40.8386 77.7153 40.1885 77.7153 39.5188C77.8087 39.5188 77.9021 39.5188 77.9982 39.5188C77.9671 39.364 77.936 39.2092 77.9039 39.0498C77.9662 39.0498 78.0284 39.0498 78.0926 39.0498C78.0926 38.9879 78.0926 38.926 78.0926 38.8622Z" fill="#F9F9F9"/>
<path d="M63.6638 23.5726C63.726 23.6346 63.7883 23.6965 63.8524 23.7602C63.759 23.7602 63.6657 23.7602 63.5695 23.7602C63.5384 23.8531 63.5072 23.946 63.4752 24.0417C63.3818 24.0881 63.3818 24.0881 63.2866 24.1355C63.2866 24.3831 63.2866 24.6307 63.2866 24.8859C63.0047 24.6598 62.9146 24.5306 62.8209 24.1765C62.815 23.8541 62.815 23.8541 62.9152 23.6723C63.1759 23.5301 63.3716 23.5417 63.6638 23.5726Z" fill="#F9F9F9"/>
<path d="M88.466 15.5057C88.4349 15.6605 88.4038 15.8153 88.3717 15.9747C88.4651 16.0057 88.5584 16.0367 88.6546 16.0685C88.5613 16.2078 88.5613 16.2078 88.466 16.3499C88.4971 16.4119 88.5282 16.4738 88.5603 16.5375C88.4358 16.5375 88.3113 16.5375 88.1831 16.5375C88.152 16.4137 88.1208 16.2899 88.0888 16.1623C88.0577 16.2243 88.0265 16.2862 87.9945 16.3499C87.9322 16.3499 87.87 16.3499 87.8059 16.3499C87.7747 16.4428 87.7436 16.5357 87.7116 16.6313C87.6493 16.6004 87.5871 16.5694 87.5229 16.5375C87.6041 16.1176 87.6549 15.9268 87.9945 15.6523C88.2774 15.5057 88.2774 15.5057 88.466 15.5057Z" fill="#F9F9F9"/>
<path d="M76.6778 15.1305C76.74 15.1615 76.8023 15.1924 76.8664 15.2243C76.8664 15.5057 76.8664 15.5057 76.7308 15.6523C76.6822 15.6968 76.6336 15.7413 76.5835 15.7871C76.5524 15.849 76.5212 15.9109 76.4892 15.9747C76.5514 15.9747 76.6137 15.9747 76.6778 15.9747C76.5365 16.2666 76.3761 16.5426 76.2063 16.8189C76.1129 16.788 76.0195 16.757 75.9233 16.7251C76 16.4496 76 16.4496 76.112 16.1623C76.2053 16.1314 76.2987 16.1004 76.3949 16.0685C76.3949 15.9757 76.3949 15.8828 76.3949 15.7871C76.2704 15.7871 76.1459 15.7871 76.0176 15.7871C76.0176 15.6324 76.0176 15.4776 76.0176 15.3181C76.111 15.4574 76.111 15.4574 76.2063 15.5995C76.3619 15.4448 76.5175 15.29 76.6778 15.1305Z" fill="#F9F9F9"/>
<path d="M83.3737 25.0734C83.3737 25.1044 83.3737 25.1353 83.3737 25.1672C83.2608 25.1827 83.148 25.1982 83.0318 25.2141C82.5778 25.3216 82.4073 25.5708 82.1598 25.9477C82.1247 25.9997 82.0896 26.0517 82.0534 26.1052C82.0223 26.1052 81.9911 26.1052 81.9591 26.1052C81.8412 25.39 81.8412 25.39 82.0534 25.0734C82.4068 24.7219 82.9674 24.957 83.3737 25.0734Z" fill="#000816"/>
<path d="M63.9464 37.2676C64.0398 37.3604 64.1331 37.4533 64.2293 37.549C64.1982 37.6418 64.1671 37.7347 64.135 37.8304C64.0728 37.8304 64.0105 37.8304 63.9464 37.8304C63.7906 38.2 63.6636 38.5761 63.5393 38.9571C63.4749 39.1436 63.4749 39.1436 63.3806 39.3312C63.2872 39.3312 63.1938 39.3312 63.0977 39.3312C63.3183 38.6119 63.6208 37.9456 63.9464 37.2676Z" fill="#F9F9F9"/>
<path d="M91.2012 18.1322C91.2945 18.1631 91.3879 18.1941 91.4841 18.226C91.4802 18.3285 91.4763 18.431 91.4723 18.5367C91.4539 18.8909 91.4539 18.8909 91.6727 19.164C91.5482 19.1949 91.4237 19.2259 91.2955 19.2578C91.2955 19.3197 91.2955 19.3816 91.2955 19.4454C91.2021 19.4144 91.1088 19.3835 91.0126 19.3516C91.0748 19.2897 91.1371 19.2278 91.2012 19.164C91.1078 19.133 91.0145 19.1021 90.9183 19.0702C90.8837 18.6693 90.9741 18.4616 91.2012 18.1322Z" fill="#F9F9F9"/>
<path d="M74.6034 39.8002C74.3151 40.1311 74.0906 40.2679 73.6603 40.363C73.3453 40.3771 73.0324 40.3742 72.7173 40.363C72.8418 40.3321 72.9663 40.3011 73.0945 40.2692C73.0945 40.2073 73.0945 40.1454 73.0945 40.0816C73.1568 40.0816 73.219 40.0816 73.2831 40.0816C73.2831 40.1435 73.2831 40.2054 73.2831 40.2692C73.5818 40.0972 73.5818 40.0972 73.7546 39.8002C74.0839 39.5631 74.2515 39.6252 74.6034 39.8002Z" fill="#F9F9F9"/>
<path d="M82.1476 25.8239C82.1787 25.9477 82.2098 26.0715 82.2419 26.1991C82.3353 26.1991 82.4286 26.1991 82.5248 26.1991C82.5559 26.1371 82.5871 26.0752 82.6191 26.0115C82.7747 26.0115 82.9303 26.0115 83.0907 26.0115C83.0907 26.0734 83.0907 26.1353 83.0907 26.1991C83.1529 26.23 83.2151 26.261 83.2793 26.2929C83.1781 26.3335 83.077 26.3741 82.9728 26.416C82.6981 26.5324 82.472 26.6634 82.2419 26.8557C82.2127 26.7667 82.1836 26.6777 82.1535 26.586C82.0652 26.3059 82.0652 26.3059 81.959 26.1053C82.0212 26.0124 82.0835 25.9195 82.1476 25.8239Z" fill="#F9F9F9"/>
<path d="M80.2615 39.0498C80.386 39.0808 80.5105 39.1117 80.6387 39.1436C80.6387 39.2055 80.6387 39.2674 80.6387 39.3312C80.7321 39.3622 80.8254 39.3931 80.9216 39.425C80.7068 39.6387 80.5503 39.7113 80.2615 39.8002C80.0434 39.765 80.0434 39.765 79.8843 39.7064C79.9465 39.5516 80.0088 39.3969 80.0729 39.2374C80.1351 39.2374 80.1974 39.2374 80.2615 39.2374C80.2615 39.1755 80.2615 39.1136 80.2615 39.0498Z" fill="#F9F9F9"/>
<path d="M93.8415 14.9429C94.0621 14.9699 94.2823 15.001 94.5017 15.0367C94.5328 15.1296 94.5639 15.2225 94.596 15.3181C94.5201 15.3452 94.4442 15.3723 94.3661 15.4002C94.1119 15.4807 94.1119 15.4807 94.0301 15.6933C93.8415 15.6933 93.8415 15.6933 93.6883 15.5526C93.6455 15.5062 93.6027 15.4598 93.5586 15.4119C93.7354 15.0485 93.7354 15.0485 93.8415 14.9429Z" fill="#F9F9F9"/>
<path d="M67.2471 24.323C67.2782 24.4159 67.3093 24.5088 67.3414 24.6044C67.2185 24.763 67.092 24.9188 66.9642 25.0734C66.9006 25.1972 66.8398 25.3224 66.7815 25.4486C66.6127 25.7976 66.4199 26.0443 66.1154 26.2928C66.0221 26.2928 65.9287 26.2928 65.8325 26.2928C65.903 26.1978 65.9735 26.1028 66.0462 26.0049C66.14 25.8781 66.2338 25.7513 66.3276 25.6245C66.3739 25.5621 66.4203 25.4997 66.468 25.4354C66.7377 25.0706 66.9978 24.702 67.2471 24.323Z" fill="#F9F9F9"/>
<path d="M71.9626 39.0498C72.056 39.0808 72.1493 39.1117 72.2455 39.1436C72.121 39.3603 71.9966 39.577 71.8683 39.8002C71.8061 39.7693 71.7438 39.7383 71.6797 39.7064C71.6486 40.2636 71.6174 40.8208 71.5854 41.3948C71.5543 41.3948 71.5231 41.3948 71.4911 41.3948C71.4773 41.092 71.469 40.7892 71.4616 40.4861C71.4577 40.4006 71.4537 40.315 71.4496 40.2269C71.4382 39.6004 71.4382 39.6004 71.5981 39.3537C71.7287 39.2238 71.7287 39.2238 71.9626 39.0498Z" fill="#F9F9F9"/>
<path d="M65.3611 14.3801C65.3316 14.5619 65.3316 14.5619 65.2668 14.7553C64.9839 14.8491 64.9839 14.8491 64.701 14.7553C64.6698 14.8482 64.6387 14.9411 64.6066 15.0367C64.5153 15.1639 64.4214 15.2894 64.3237 15.4119C64.2775 14.9059 64.2775 14.9059 64.5006 14.6322C64.8065 14.3906 64.9758 14.37 65.3611 14.3801Z" fill="#000816"/>
<path d="M75.3574 29.4821C75.8242 29.5749 75.8242 29.5749 76.3005 29.6697C76.3316 29.8245 76.3627 29.9792 76.3948 30.1387C75.9194 30.097 75.6959 29.889 75.3574 29.5759C75.3574 29.5449 75.3574 29.514 75.3574 29.4821Z" fill="#F9F9F9"/>
<path d="M71.397 25.73C71.6459 25.761 71.8949 25.792 72.1514 25.8238C72.1514 25.9167 72.1514 26.0096 72.1514 26.1052C71.8392 26.1991 71.5572 26.2088 71.2319 26.2049C71.139 26.2041 71.0462 26.2032 70.9505 26.2023C70.88 26.2013 70.8095 26.2002 70.7368 26.199C70.7368 26.1371 70.7368 26.0752 70.7368 26.0114C71.0323 25.9135 71.1131 25.9238 71.397 26.0114C71.397 25.9186 71.397 25.8257 71.397 25.73Z" fill="#F9F9F9"/>
<path d="M18.6798 38.2994C18.8977 38.4851 19.1155 38.6708 19.34 38.8622C19.2777 38.9241 19.2155 38.986 19.1514 39.0498C19.058 39.0188 18.9646 38.9879 18.8684 38.956C18.7751 39.0024 18.7751 39.0024 18.6798 39.0498C18.6176 38.9879 18.5553 38.926 18.4912 38.8622C18.5535 38.6765 18.6157 38.4907 18.6798 38.2994Z" fill="#000816"/>
<path d="M97.897 13.6297C98.4114 13.5956 98.4114 13.5956 98.6219 13.7352C98.8007 13.9893 98.7733 14.1853 98.7634 14.4915C98.7609 14.5934 98.7583 14.6954 98.7557 14.8004C98.7524 14.8784 98.7491 14.9564 98.7457 15.0367C98.7146 15.0367 98.6835 15.0367 98.6514 15.0367C98.649 14.9712 98.6466 14.9056 98.6441 14.8381C98.6387 14.7528 98.6334 14.6674 98.6278 14.5794C98.6235 14.4946 98.6191 14.4097 98.6146 14.3222C98.5801 14.0827 98.5801 14.0827 98.3641 13.9749C98.3033 13.9538 98.2425 13.9328 98.1799 13.9111C98.211 13.8802 98.2421 13.8492 98.2742 13.8173C98.1497 13.7554 98.0252 13.6935 97.897 13.6297Z" fill="#F9F9F9"/>
<path d="M68.4732 23.5726C68.65 23.684 68.65 23.684 68.7561 23.854C68.7738 24.1061 68.7738 24.1061 68.7561 24.323C68.6316 24.2921 68.5071 24.2611 68.3789 24.2292C68.3789 24.1673 68.3789 24.1054 68.3789 24.0416C68.4411 24.0416 68.5034 24.0416 68.5675 24.0416C68.4741 23.9488 68.3808 23.8559 68.2846 23.7602C68.1912 23.8221 68.0979 23.884 68.0017 23.9478C68.0017 23.8859 68.0017 23.824 68.0017 23.7602C67.9083 23.7293 67.8149 23.6983 67.7188 23.6664C67.9827 23.5352 68.1813 23.5489 68.4732 23.5726Z" fill="#F9F9F9"/>
<path d="M81.2989 21.2276C81.4564 21.2508 81.4564 21.2508 81.6172 21.2745C81.9327 21.3257 81.9327 21.3257 82.1476 21.3214C82.1165 21.4762 82.0854 21.6309 82.0533 21.7904C81.8666 21.8214 81.6799 21.8523 81.4875 21.8842C81.4875 21.7913 81.4875 21.6985 81.4875 21.6028C81.3941 21.6028 81.3008 21.6028 81.2046 21.6028C81.2357 21.479 81.2668 21.3552 81.2989 21.2276Z" fill="#000816"/>
<path d="M95.1617 15.2243C95.1928 15.3172 95.2239 15.4101 95.256 15.5057C95.1204 15.7578 95.1204 15.7578 94.9731 15.9747C95.0353 16.0057 95.0976 16.0367 95.1617 16.0685C95.0061 16.0995 94.8505 16.1305 94.6902 16.1623C94.5508 15.885 94.5902 15.6237 94.5959 15.3181C94.6581 15.442 94.7203 15.5658 94.7845 15.6933C94.909 15.5386 95.0334 15.3838 95.1617 15.2243Z" fill="#F9F9F9"/>
<path d="M75.5993 25.1614C75.7063 25.1633 75.8132 25.1652 75.9235 25.1672C75.9546 25.2291 75.9857 25.2911 76.0178 25.3548C75.708 25.5602 75.4324 25.6361 75.0747 25.73C75.176 25.1688 75.176 25.1688 75.5993 25.1614Z" fill="#F9F9F9"/>
<path d="M93.7471 19.8206C93.8677 19.8148 93.9883 19.809 94.1125 19.803C94.2143 19.7981 94.2143 19.7981 94.3181 19.7931C94.3786 19.8022 94.4391 19.8112 94.5015 19.8206C94.5638 19.9134 94.626 20.0063 94.6901 20.102C94.4779 20.2544 94.4779 20.2544 94.2186 20.3834C94.0064 20.3306 94.0064 20.3306 93.8414 20.1958C93.7706 19.9964 93.7706 19.9964 93.7471 19.8206Z" fill="#000816"/>
<path d="M76.6777 15.1305C76.74 15.1615 76.8022 15.1924 76.8663 15.2243C76.8663 15.5057 76.8663 15.5057 76.7367 15.6523C76.6861 15.6968 76.6355 15.7413 76.5834 15.7871C76.5212 15.849 76.4589 15.9109 76.3948 15.9747C76.3948 15.9128 76.3948 15.8509 76.3948 15.7871C76.2703 15.7871 76.1458 15.7871 76.0176 15.7871C76.0176 15.6324 76.0176 15.4776 76.0176 15.3181C76.1109 15.4574 76.1109 15.4574 76.2062 15.5995C76.3618 15.4448 76.5174 15.29 76.6777 15.1305Z" fill="#F9F9F9"/>
<path d="M63.9464 18.3198C64.1291 18.4663 64.1291 18.4663 64.2293 18.6012C64.1399 18.5973 64.0504 18.5934 63.9582 18.5895C63.6538 18.5684 63.6538 18.5684 63.4749 18.7888C63.4438 18.6959 63.4126 18.6031 63.3806 18.5074C63.2872 18.4455 63.1938 18.3836 63.0977 18.3198C63.3947 18.172 63.6291 18.2533 63.9464 18.3198Z" fill="#F9F9F9"/>
<path d="M77.4913 15.8751C77.6069 15.8763 77.6069 15.8763 77.7249 15.8776C77.8135 15.8793 77.8135 15.8793 77.9039 15.8809C77.6006 16.0447 77.4022 16.0877 77.0552 16.0685C77.024 16.1614 76.9929 16.2543 76.9609 16.3499C76.7741 16.3809 76.5874 16.4118 76.395 16.4437C76.9595 15.8675 76.9595 15.8675 77.4913 15.8751Z" fill="#000816"/>
<path d="M69.2277 39.9878C69.2277 40.1441 69.2277 40.3005 69.2277 40.4568C68.603 40.574 68.603 40.574 68.2847 40.363C68.3158 40.2701 68.3469 40.1773 68.379 40.0816C68.4101 40.1125 68.4412 40.1435 68.4733 40.1754C68.7523 40.1989 68.7523 40.1989 69.0391 40.1754C69.1014 40.1135 69.1636 40.0516 69.2277 39.9878Z" fill="#000816"/>
<path d="M72.3398 28.8255C72.4332 28.8564 72.5266 28.8874 72.6228 28.9193C72.7171 29.2007 72.7171 29.2007 72.6286 29.4059C72.579 29.49 72.579 29.49 72.5284 29.5759C72.4351 29.5759 72.3417 29.5759 72.2455 29.5759C72.1578 29.3314 72.1372 29.2343 72.2396 28.9896C72.2727 28.9355 72.3058 28.8813 72.3398 28.8255Z" fill="#F9F9F9"/>
<path d="M15.2849 22.8222C15.2849 23.1036 15.2849 23.1036 15.1905 23.2912C14.9725 23.4495 14.9725 23.4495 14.719 23.5726C14.5945 23.5417 14.4701 23.5107 14.3418 23.4788C14.653 23.2621 14.9642 23.0455 15.2849 22.8222Z" fill="#F9F9F9"/>
<path d="M25.3758 42.1452C25.438 42.1762 25.5002 42.2071 25.5644 42.239C25.5332 42.3319 25.5021 42.4248 25.4701 42.5204C25.5526 42.7237 25.5526 42.7237 25.6587 42.8956C25.5653 42.8956 25.472 42.8956 25.3758 42.8956C25.1695 42.6611 25.1695 42.6611 24.9985 42.4266C25.123 42.3338 25.2475 42.2409 25.3758 42.1452Z" fill="#F9F9F9"/>
<path d="M75.0748 39.2374C75.1681 39.2993 75.2615 39.3612 75.3577 39.425C75.2896 39.4772 75.2215 39.5295 75.1514 39.5833C74.8885 39.7982 74.6517 40.0267 74.4146 40.2692C74.3835 40.1763 74.3524 40.0835 74.3203 39.9878C74.3669 39.9494 74.4134 39.9109 74.4614 39.8713C74.5218 39.8207 74.5822 39.7702 74.6445 39.7181C74.7047 39.6681 74.7648 39.618 74.8268 39.5664C74.9906 39.4323 74.9906 39.4323 75.0748 39.2374Z" fill="#000816"/>
<path d="M67.7188 36.4234C67.781 36.4234 67.8432 36.4234 67.9074 36.4234C68.0318 36.7329 68.1563 37.0425 68.2846 37.3614C68.2223 37.3614 68.1601 37.3614 68.096 37.3614C67.9071 37.1735 67.8195 37.0418 67.7188 36.7986C67.7188 36.6748 67.7188 36.5509 67.7188 36.4234Z" fill="#F9F9F9"/>
<path d="M70.9841 35.286C71.058 35.2899 71.1319 35.2938 71.2081 35.2978C71.0358 35.5547 70.8712 35.748 70.6422 35.9544C70.58 35.9544 70.5177 35.9544 70.4536 35.9544C70.5565 35.3063 70.5565 35.3063 70.9841 35.286Z" fill="#F9F9F9"/>
<path d="M78.4697 36.142C78.5631 36.1729 78.6564 36.2039 78.7526 36.2358C78.6826 36.2899 78.6126 36.3441 78.5404 36.3999C78.3131 36.5849 78.1075 36.7761 77.9039 36.9862C77.8728 36.8624 77.8416 36.7385 77.8096 36.611C77.901 36.551 77.9924 36.491 78.0866 36.4292C78.3528 36.2642 78.3528 36.2642 78.4697 36.142Z" fill="#F9F9F9"/>
<path d="M76.6777 41.3948C76.9111 41.4877 76.9111 41.4877 77.1493 41.5824C77.1804 41.5205 77.2115 41.4586 77.2436 41.3948C77.3681 41.4567 77.4925 41.5186 77.6208 41.5824C77.4322 41.77 77.4322 41.77 77.2023 41.8052C76.9607 41.77 76.9607 41.77 76.7897 41.5824C76.7343 41.4895 76.7343 41.4895 76.6777 41.3948Z" fill="#F9F9F9"/>
<path d="M74.6973 35.8606C74.8529 36.0153 75.0085 36.1701 75.1688 36.3296C75.1377 36.3915 75.1066 36.4534 75.0745 36.5172C74.9811 36.4862 74.8878 36.4553 74.7916 36.4234C74.7605 36.2376 74.7293 36.0519 74.6973 35.8606ZM74.6973 36.5172C74.7595 36.5172 74.8217 36.5172 74.8859 36.5172C74.8859 36.5791 74.8859 36.641 74.8859 36.7048C74.8236 36.7048 74.7614 36.7048 74.6973 36.7048C74.6973 36.6429 74.6973 36.581 74.6973 36.5172Z" fill="#F9F9F9"/>
<path d="M63.9464 23.9478C64.102 24.1026 64.2576 24.2574 64.418 24.4169C64.3557 24.4788 64.2935 24.5407 64.2293 24.6045C64.0737 24.5116 63.9181 24.4187 63.7578 24.323C63.8201 24.1992 63.8823 24.0754 63.9464 23.9478Z" fill="#F9F9F9"/>
<path d="M85.8256 18.9764C85.8878 19.0073 85.9501 19.0383 86.0142 19.0702C85.8945 19.4373 85.7773 19.6134 85.4484 19.8206C85.3861 19.7277 85.3239 19.6349 85.2598 19.5392C85.4484 19.3516 85.637 19.164 85.8256 18.9764Z" fill="#000816"/>
<path d="M29.6191 42.0514C29.6814 42.1133 29.7436 42.1752 29.8077 42.239C29.7147 42.5503 29.6486 42.686 29.3834 42.8839C29.3056 42.9187 29.2278 42.9536 29.1476 42.9894C29.0854 42.9585 29.0231 42.9275 28.959 42.8956C28.9987 42.8504 29.0385 42.8052 29.0794 42.7586C29.1311 42.6993 29.1828 42.6401 29.236 42.5791C29.2874 42.5203 29.3389 42.4615 29.3918 42.401C29.5314 42.2431 29.5314 42.2431 29.6191 42.0514Z" fill="#000816"/>
<path d="M71.5856 38.3932C71.9628 38.827 71.9628 38.827 71.9628 39.1436C71.7301 39.0356 71.5811 38.9515 71.397 38.7684C71.4592 38.6446 71.5215 38.5208 71.5856 38.3932Z" fill="#F9F9F9"/>
<path d="M41.1248 30.5139C41.2182 30.6068 41.3116 30.6996 41.4078 30.7953C41.3144 30.7953 41.221 30.7953 41.1248 30.7953C41.1073 30.9085 41.1073 30.9085 41.0895 31.024C41.07 31.1033 41.0506 31.1826 41.0305 31.2643C40.9372 31.3108 40.9372 31.3108 40.8419 31.3581C40.7797 31.2962 40.7174 31.2343 40.6533 31.1705C40.8089 30.9538 40.9645 30.7372 41.1248 30.5139Z" fill="#000816"/>
<path d="M73.2831 29.2945C73.2831 29.595 73.213 29.7723 73.0945 30.0449C72.97 30.0139 72.8455 29.983 72.7173 29.9511C72.8332 29.6052 72.9944 29.508 73.2831 29.2945Z" fill="#000816"/>
<path d="M66.8699 26.3867C66.9633 26.4176 67.0566 26.4486 67.1528 26.4805C67.0766 26.5902 66.9999 26.6995 66.9229 26.8088C66.8803 26.8697 66.8376 26.9306 66.7936 26.9934C66.7566 27.0408 66.7195 27.0882 66.6813 27.1371C66.6502 27.1371 66.619 27.1371 66.587 27.1371C66.5522 26.7099 66.5522 26.7099 66.7284 26.498C66.7751 26.4613 66.8218 26.4245 66.8699 26.3867Z" fill="#F9F9F9"/>
<path d="M18.8682 18.695C18.9927 18.7569 19.1172 18.8188 19.2455 18.8826C19.1521 19.0993 19.0587 19.3159 18.9625 19.5392C18.9003 19.5392 18.8381 19.5392 18.7739 19.5392C18.805 19.2606 18.8362 18.982 18.8682 18.695Z" fill="#F9F9F9"/>
<path d="M85.0709 18.7888C85.1332 18.7888 85.1954 18.7888 85.2595 18.7888C85.2595 18.8507 85.2595 18.9126 85.2595 18.9764C85.3218 18.9764 85.384 18.9764 85.4482 18.9764C85.417 19.0693 85.3859 19.1621 85.3539 19.2578C85.2916 19.2578 85.2294 19.2578 85.1652 19.2578C85.1341 19.3197 85.103 19.3816 85.0709 19.4454C85.0709 19.3835 85.0709 19.3216 85.0709 19.2578C85.0087 19.2578 84.9465 19.2578 84.8823 19.2578C84.9446 19.103 85.0068 18.9482 85.0709 18.7888Z" fill="#F9F9F9"/>
<path d="M90.8532 18.3374C90.9057 18.3625 90.9582 18.3877 91.0123 18.4136C90.5273 18.9362 90.5273 18.9362 90.1636 18.9764C90.1636 18.7888 90.1636 18.7888 90.3758 18.5367C90.6351 18.3198 90.6351 18.3198 90.8532 18.3374Z" fill="#000816"/>
<path d="M91.5784 16.4438C91.7788 16.5317 91.7788 16.5317 91.9556 16.6314C91.5195 17.0066 91.5195 17.0066 91.2012 17.0066C91.3662 16.5493 91.3662 16.5493 91.5784 16.4438Z" fill="#F9F9F9"/>
<path d="M19.3399 14.7553C19.371 14.8792 19.4021 15.003 19.4342 15.1305C19.3408 15.177 19.3408 15.177 19.2456 15.2243C19.2145 15.3172 19.1833 15.4101 19.1513 15.5057C18.8625 15.6171 18.8625 15.6171 18.5854 15.6934C18.6241 15.6492 18.6628 15.6051 18.7026 15.5596C18.7534 15.5012 18.8042 15.4428 18.8566 15.3826C18.9069 15.325 18.9572 15.2673 19.0091 15.2079C19.1668 15.0241 19.1668 15.0241 19.3399 14.7553Z" fill="#F9F9F9"/>
<path d="M16.6994 18.695C16.7617 18.7878 16.8239 18.8807 16.888 18.9764C16.8136 19.2099 16.715 19.4144 16.6051 19.633C16.5429 19.633 16.4806 19.633 16.4165 19.633C16.5099 19.3234 16.6032 19.0139 16.6994 18.695Z" fill="#F9F9F9"/>
<path d="M88.5607 15.1305C88.6229 15.1615 88.6851 15.1924 88.7493 15.2243C88.3291 15.5493 88.3291 15.5493 87.9005 15.8809C87.8383 15.85 87.776 15.819 87.7119 15.7871C87.992 15.5705 88.2721 15.3538 88.5607 15.1305Z" fill="#F9F9F9"/>
<path d="M81.4873 14.9429C81.7052 14.9739 81.923 15.0048 82.1474 15.0367C82.1474 15.1296 82.1474 15.2225 82.1474 15.3181C81.9918 15.3491 81.8362 15.38 81.6759 15.4119C81.6759 15.2243 81.6759 15.2243 81.7702 15.1305C81.6769 15.0686 81.5835 15.0067 81.4873 14.9429Z" fill="#F9F9F9"/>
<path d="M23.9611 12.2227C23.5549 12.5921 23.5549 12.5921 23.2244 12.6214C23.1563 12.6136 23.0882 12.6059 23.0181 12.5979C23.0181 12.536 23.0181 12.4741 23.0181 12.4103C23.1395 12.3606 23.2614 12.3119 23.3835 12.2637C23.4513 12.2365 23.5192 12.2093 23.5891 12.1813C23.7725 12.1289 23.7725 12.1289 23.9611 12.2227Z" fill="#F9F9F9"/>
<path d="M25.6586 38.487C25.752 38.518 25.8453 38.5489 25.9415 38.5808C25.68 38.8698 25.464 39.0205 25.0928 39.1436C25.2229 38.8308 25.3615 38.6571 25.6586 38.487Z" fill="#F9F9F9"/>
<path d="M94.5959 19.633C94.5025 19.7723 94.5025 19.7723 94.4073 19.9144C94.1244 19.9437 94.1244 19.9437 93.8414 19.9144C93.7792 19.8525 93.717 19.7906 93.6528 19.7268C93.9716 19.6292 94.2637 19.6255 94.5959 19.633Z" fill="#F9F9F9"/>
<path d="M71.5854 39.6126C71.8655 39.7983 71.8655 39.7983 72.1513 39.9878C72.0579 40.0497 71.9646 40.1116 71.8684 40.1754C71.8061 40.1445 71.7439 40.1135 71.6798 40.0816C71.6486 40.1435 71.6175 40.2054 71.5854 40.2692C71.5854 40.0525 71.5854 39.8359 71.5854 39.6126Z" fill="#000816"/>
<path d="M71.7741 35.3915C71.8052 35.4534 71.8364 35.5154 71.8684 35.5791C71.9307 35.6101 71.9929 35.6411 72.057 35.6729C71.9014 35.7968 71.7458 35.9206 71.5855 36.0481C71.5544 35.8934 71.5233 35.7386 71.4912 35.5791C71.5846 35.5172 71.6779 35.4553 71.7741 35.3915Z" fill="#000816"/>
<path d="M82.2418 25.8239C82.4285 25.8703 82.4285 25.8703 82.619 25.9177C82.5879 26.0415 82.5567 26.1653 82.5247 26.2929C82.4002 26.2619 82.2757 26.2309 82.1475 26.1991C82.1786 26.0752 82.2097 25.9514 82.2418 25.8239Z" fill="#F9F9F9"/>
<path d="M66.9645 24.2292C67.089 24.2602 67.2135 24.2912 67.3417 24.323C67.155 24.6016 67.155 24.6016 66.9645 24.8859C66.9022 24.762 66.84 24.6382 66.7759 24.5107C66.8381 24.4178 66.9004 24.3249 66.9645 24.2292Z" fill="#000816"/>
<path d="M40.4646 23.385C40.5579 23.416 40.6513 23.4469 40.7475 23.4788C40.6541 23.6181 40.6541 23.6181 40.5589 23.7602C40.5589 23.8531 40.5589 23.9459 40.5589 24.0416C40.4344 23.9178 40.3099 23.794 40.1816 23.6664C40.275 23.5735 40.3684 23.4807 40.4646 23.385Z" fill="#000816"/>
<path d="M67.1531 19.5392C67.2153 19.5701 67.2776 19.6011 67.3417 19.633C67.2717 19.6939 67.2717 19.6939 67.2003 19.7561C67.0275 19.9141 67.0275 19.9141 67.0588 20.1958C66.9654 20.1648 66.8721 20.1339 66.7759 20.102C66.7759 19.9782 66.7759 19.8544 66.7759 19.7268C66.9527 19.6271 66.9527 19.6271 67.1531 19.5392Z" fill="#000816"/>
<path d="M91.4839 19.164C91.5461 19.1949 91.6084 19.2259 91.6725 19.2578C91.4235 19.4435 91.1745 19.6292 90.918 19.8206C90.8869 19.7277 90.8558 19.6349 90.8237 19.5392C90.9793 19.5082 91.1349 19.4773 91.2953 19.4454C91.2953 19.3835 91.2953 19.3216 91.2953 19.2578C91.3575 19.2268 91.4197 19.1959 91.4839 19.164Z" fill="#F9F9F9"/>
<path d="M19.5287 17.9446C19.5909 17.9755 19.6531 18.0065 19.7173 18.0384C19.5928 18.2551 19.4683 18.4717 19.34 18.695C19.2467 18.6331 19.1533 18.5712 19.0571 18.5074C19.1868 18.3198 19.1868 18.3198 19.34 18.1322C19.4023 18.1322 19.4645 18.1322 19.5287 18.1322C19.5287 18.0703 19.5287 18.0084 19.5287 17.9446Z" fill="#F9F9F9"/>
<path d="M64.5124 14.5677C64.6058 14.5987 64.6991 14.6296 64.7953 14.6615C64.666 14.9386 64.5135 15.1718 64.3238 15.4119C64.3002 14.8843 64.3002 14.8843 64.5124 14.5677Z" fill="#000816"/>
<path d="M82.7133 26.3867C82.7755 26.4176 82.8378 26.4486 82.9019 26.4805C82.8076 26.7619 82.8076 26.7619 82.619 26.8615C82.5567 26.8905 82.4945 26.9196 82.4304 26.9495C82.3993 27.0114 82.3681 27.0733 82.3361 27.1371C82.2738 27.1061 82.2116 27.0752 82.1475 27.0433C82.3342 26.8266 82.5209 26.6099 82.7133 26.3867Z" fill="#000816"/>
<path d="M62.9095 23.4788C62.9718 23.5407 63.034 23.6026 63.0981 23.6664C62.9425 23.8212 62.7869 23.976 62.6266 24.1354C62.5644 24.0735 62.5021 24.0116 62.438 23.9478C62.5936 23.7931 62.7492 23.6383 62.9095 23.4788Z" fill="#000816"/>
<path d="M22.075 15.2243C22.1684 15.2862 22.2618 15.3482 22.358 15.4119C21.9845 15.6441 21.9845 15.6441 21.6035 15.8809C21.6035 15.7881 21.6035 15.6952 21.6035 15.5995C21.8393 15.3943 21.8393 15.3943 22.075 15.2243Z" fill="#F9F9F9"/>
<path d="M18.68 15.2243C18.7423 15.2862 18.8045 15.3482 18.8686 15.4119C18.713 15.5977 18.5574 15.7834 18.3971 15.9747C18.3349 15.8509 18.2726 15.7271 18.2085 15.5995C18.3641 15.5376 18.5197 15.4757 18.68 15.4119C18.68 15.35 18.68 15.2881 18.68 15.2243Z" fill="#000816"/>
<path d="M70.3592 14.7553C70.3903 14.9101 70.4215 15.0649 70.4535 15.2243C70.1706 15.2243 70.1706 15.2243 70.0115 15.0836C69.9706 15.0372 69.9298 14.9908 69.8877 14.9429C70.1706 14.7553 70.1706 14.7553 70.3592 14.7553Z" fill="#000816"/>
<path d="M20.3774 13.9111C20.4396 14.004 20.5018 14.0969 20.566 14.1925C20.3807 14.2927 20.1917 14.3863 20.0001 14.4739C19.9379 14.443 19.8757 14.412 19.8115 14.3801C19.9982 14.2254 20.185 14.0706 20.3774 13.9111Z" fill="#F9F9F9"/>
<path d="M21.5092 12.9731C21.5092 13.066 21.5092 13.1588 21.5092 13.2545C21.3225 13.3474 21.1357 13.4402 20.9434 13.5359C21.0141 13.3073 21.0141 13.3073 21.132 13.0669C21.3324 12.9907 21.3324 12.9907 21.5092 12.9731Z" fill="#000816"/>
<path d="M77.998 39.7064C78.2159 39.7373 78.4337 39.7683 78.6582 39.8002C78.6582 39.924 78.6582 40.0478 78.6582 40.1754C78.3137 40.0582 78.2073 40.0187 77.998 39.7064Z" fill="#F9F9F9"/>
<path d="M81.2046 36.142C81.5818 36.5875 81.5818 36.5875 81.5818 36.7986C81.4573 36.7676 81.3328 36.7367 81.2046 36.7048C81.2046 36.519 81.2046 36.3333 81.2046 36.142Z" fill="#F9F9F9"/>
<path d="M65.8328 35.2978C65.895 35.3287 65.9573 35.3597 66.0214 35.3916C65.8814 35.7166 65.8814 35.7166 65.7385 36.0482C65.6762 36.0482 65.614 36.0482 65.5499 36.0482C65.515 35.621 65.515 35.621 65.6913 35.4091C65.738 35.3724 65.7847 35.3356 65.8328 35.2978Z" fill="#F9F9F9"/>
<path d="M18.4911 15.6934C18.5222 15.7553 18.5533 15.8172 18.5854 15.881C18.4972 16.0715 18.4031 16.2595 18.3024 16.4438C18.2091 16.4128 18.1157 16.3819 18.0195 16.35C18.1751 16.1333 18.3307 15.9166 18.4911 15.6934Z" fill="#F9F9F9"/>
<path d="M98.8399 16.1624C98.9333 16.1933 99.0267 16.2243 99.1228 16.2562C99.1228 16.349 99.1228 16.4419 99.1228 16.5376C98.9361 16.6304 98.9361 16.6304 98.7456 16.7252C98.7416 16.5689 98.7418 16.4124 98.7456 16.2562C98.7767 16.2252 98.8079 16.1942 98.8399 16.1624Z" fill="#000816"/>
<path d="M21.8861 15.5995C21.9173 15.6615 21.9484 15.7234 21.9805 15.7872C21.8871 15.911 21.7937 16.0348 21.6975 16.1624C21.5731 16.1314 21.4486 16.1004 21.3203 16.0686C21.507 15.9138 21.6938 15.759 21.8861 15.5995Z" fill="#000816"/>
</g>
<defs>
<clipPath id="clip0_562_2600">
<rect width="113.827" height="53.6542" fill="white" transform="translate(0.384766 0.122375)"/>
</clipPath>
</defs>
</svg>
