<svg width="111" height="33" viewBox="0 0 111 33" fill="none" xmlns="http://www.w3.org/2000/svg">
<path fill-rule="evenodd" clip-rule="evenodd" d="M4.97063 18.374C5.07988 18.4157 5.18219 18.4631 5.285 18.5187L5.37594 18.5677L5.47323 18.6207L5.57541 18.676C5.83058 18.8148 6.08399 18.9565 6.33673 19.0997C6.66564 19.2859 6.99642 19.4688 7.32723 19.6516L7.36288 19.6713C7.52676 19.7619 7.69056 19.8527 7.85436 19.9435L7.89918 19.9683L8.11289 20.0867L9.39512 20.797L9.50201 20.8562L9.7154 20.9744C9.89502 21.074 10.0747 21.1734 10.2544 21.2728C10.5874 21.4569 10.92 21.6416 11.2512 21.8289C11.5815 22.0157 11.9138 22.1988 12.2464 22.3814L12.3051 22.4136L12.3638 22.4458C12.6327 22.5935 12.9009 22.7423 13.1691 22.891L13.1693 22.8911L13.2864 22.9561C13.4284 23.0349 13.5705 23.1136 13.7127 23.1923L13.9262 23.3106C14.1058 23.4101 14.2855 23.5096 14.4652 23.6089C14.7982 23.7931 15.1308 23.9777 15.462 24.1651C15.7922 24.3519 16.1245 24.5349 16.457 24.7174L16.5157 24.7496L16.5743 24.7819C16.8823 24.951 17.1894 25.1214 17.4965 25.2919C17.589 25.3432 17.6815 25.3942 17.7741 25.4451C17.8303 25.4761 17.8865 25.5071 17.9426 25.5381C18.0129 25.577 18.0833 25.6157 18.1538 25.6543L18.2483 25.7067L18.3318 25.7527C18.3945 25.7929 18.3945 25.7929 18.4262 25.8561C17.1365 25.9216 15.8466 25.9831 14.5566 26.042C14.3215 26.0527 14.0864 26.0635 13.8513 26.0743C13.3711 26.0963 12.8909 26.1183 12.4107 26.1402L12.4885 26.1631C12.7818 26.2495 13.0751 26.3359 13.3685 26.4223L13.4425 26.4442C14.3382 26.7082 15.2336 26.9734 16.1288 27.2392L16.2194 27.2661C16.5856 27.3748 16.9518 27.4836 17.3181 27.5924L12.3638 32.4779L0 32.4857C0.047212 32.344 0.0944607 32.2024 0.141741 32.0607L0.189784 31.9167C0.31141 31.5517 0.436506 31.1882 0.566503 30.8261C0.618225 30.682 0.669625 30.5378 0.721025 30.3936L0.721131 30.3933L0.736838 30.3492L0.773184 30.2473C0.910559 29.8617 1.04588 29.4754 1.18121 29.0891L1.19763 29.0422C1.40465 28.4513 1.61247 27.8607 1.82243 27.2708C2.01682 26.7246 2.20992 26.178 2.40221 25.6311L2.44236 25.5169L2.52269 25.2885L2.56286 25.1742L2.60306 25.0599C2.74497 24.6563 2.88715 24.2528 3.02947 23.8494L3.06725 23.7423C3.25141 23.2204 3.4365 22.6988 3.62207 22.1773C3.75838 21.7942 3.89387 21.4108 4.02837 21.027L4.04983 20.9658L4.22226 20.4736C4.4679 19.7723 4.71694 19.0724 4.97063 18.374Z" fill="white"/>
<path fill-rule="evenodd" clip-rule="evenodd" d="M106.102 18.492L106.061 18.374C106.03 18.374 106.014 18.374 105.999 18.3775C105.983 18.3811 105.968 18.3886 105.937 18.4042L105.862 18.4472L105.777 18.4959C105.713 18.5325 105.649 18.569 105.585 18.6053L105.483 18.6633C105.307 18.7634 105.13 18.8622 104.953 18.9602C104.674 19.1144 104.395 19.2688 104.116 19.4244C103.74 19.6352 103.362 19.8449 102.984 20.054C102.805 20.153 102.627 20.2521 102.448 20.3511L102.234 20.4695L101.807 20.7062L101.7 20.7654L101.486 20.8838L101.439 20.9099C101.276 21.0001 101.114 21.0902 100.951 21.1803C100.57 21.3913 100.188 21.6025 99.8081 21.8151C99.4637 22.0077 99.1187 22.1991 98.7735 22.3902C98.5946 22.4892 98.4157 22.5882 98.2369 22.6873L98.0233 22.8056L97.5959 23.0424L97.489 23.1016L97.2753 23.22L97.2291 23.2456C97.0661 23.3359 96.9031 23.4262 96.74 23.5165C96.3601 23.7267 95.9803 23.9373 95.6013 24.1493C95.3145 24.3098 95.0267 24.4687 94.7386 24.6268C94.4625 24.7783 94.1873 24.9311 93.9134 25.0865C93.7398 25.1853 93.5656 25.2829 93.3892 25.3766L93.3317 25.4071C93.2565 25.447 93.1813 25.4868 93.1061 25.5265L92.9988 25.5824L92.8989 25.6352C92.7807 25.6969 92.6981 25.7607 92.6055 25.8561C92.9037 25.8774 93.2019 25.8943 93.5007 25.9072C93.5802 25.9106 93.6597 25.914 93.7393 25.9175C93.8565 25.9226 93.9737 25.9277 94.0909 25.9328C94.4064 25.9465 94.7219 25.9603 95.0374 25.9742L95.1354 25.9785C95.8734 26.011 96.6112 26.0455 97.349 26.0807L97.4376 26.0849C97.8215 26.1033 98.2053 26.1217 98.5892 26.1402C98.1625 26.2683 97.7353 26.3951 97.3081 26.5216L97.2362 26.5429L97.1635 26.5644C96.9863 26.6169 96.8091 26.6694 96.6319 26.722L96.5537 26.7452L96.2386 26.8387C95.9321 26.9296 95.6257 27.0205 95.3191 27.111C95.1367 27.1648 94.9543 27.2187 94.772 27.2727L94.7431 27.2813C94.6475 27.3097 94.5519 27.338 94.4562 27.3662C94.3569 27.3953 94.2575 27.4246 94.1582 27.4541L94.0498 27.4863L93.947 27.5163L93.8544 27.5441L93.7737 27.5679C93.7623 27.5726 93.753 27.5763 93.7453 27.5798L98.5596 32.3984H110.999C110.998 32.3533 110.994 32.3398 110.982 32.2967L110.957 32.2277L110.926 32.145C110.902 32.0796 110.877 32.0142 110.853 31.9487L110.812 31.8347C110.707 31.5493 110.605 31.2629 110.503 30.9764L110.47 30.8816C110.26 30.2908 110.052 29.6994 109.844 29.1077C109.654 28.5658 109.464 28.0241 109.272 27.483C109.021 26.7801 108.773 26.0767 108.525 25.373C108.436 25.1228 108.348 24.8726 108.26 24.6225L108.2 24.4539C108.017 23.9348 107.834 23.4156 107.651 22.8963L107.611 22.7818L107.45 22.3242C107.255 21.77 107.059 21.2162 106.862 20.6628C106.605 19.9405 106.353 19.2165 106.102 18.492Z" fill="white"/>
<path fill-rule="evenodd" clip-rule="evenodd" d="M51.7634 18.3188L42.71 18.3744C42.71 18.4096 42.71 18.4096 42.8447 18.5446L42.9056 18.6051C42.9738 18.6732 43.042 18.7413 43.1103 18.8094C43.161 18.8598 43.2116 18.9102 43.2621 18.9607C43.4012 19.0995 43.5403 19.2383 43.6795 19.377C43.8319 19.5288 43.9841 19.6806 44.1364 19.8325C44.4345 20.13 44.7327 20.4273 45.0309 20.7246C45.2935 20.9863 45.556 21.2481 45.8184 21.5098L45.871 21.5623L46.0824 21.7731C46.7442 22.4331 47.406 23.0929 48.0679 23.7527C48.6571 24.3402 49.2463 24.9277 49.8355 25.5153C50.4981 26.1762 51.1608 26.8371 51.8235 27.4978L52.0355 27.7092L52.0883 27.7618C52.3508 28.0235 52.6133 28.2853 52.8757 28.547C53.1757 28.8463 53.4758 29.1455 53.7759 29.4446L53.8173 29.4858L53.8193 29.4878C53.9431 29.6112 54.0669 29.7346 54.1907 29.8581C54.3334 30.0005 54.4762 30.143 54.6191 30.2853L54.7752 30.4408L54.7767 30.4423C54.8479 30.5134 54.9191 30.5845 54.9904 30.6555L55.0554 30.7202C55.1986 30.8635 55.3452 30.9986 55.5006 31.1286C56.6892 29.9445 57.8777 28.7603 59.0661 27.576L59.12 27.5222L60.2807 26.3654L60.8505 25.7975L60.9078 25.7403C61.5215 25.1286 62.1353 24.517 62.7492 23.9055C63.3811 23.276 64.0128 22.6465 64.6444 22.0168L64.9118 21.7502L64.965 21.6972C65.2475 21.4156 65.53 21.1341 65.8126 20.8527C66.098 20.5685 66.3833 20.2843 66.6684 19.9999C66.8229 19.8457 66.9774 19.6917 67.1321 19.5377C67.2613 19.4092 67.3904 19.2806 67.5194 19.1519L67.6763 18.9953L67.6799 18.9917L67.6802 18.9914C67.7515 18.9205 67.8229 18.8496 67.8941 18.7785L67.9591 18.7135L68.0201 18.6531L68.0756 18.5974C68.1449 18.5283 68.1873 18.4635 68.228 18.3744H59.3035C59.1824 18.4091 59.0645 18.4488 58.9495 18.4931L55.7302 21.7706C55.6602 21.8676 55.5797 21.9537 55.469 22.0365L51.7634 18.3188Z" fill="white"/>
<path d="M24.8213 0.0634766C26.8586 0.0634766 28.8959 0.0634766 30.995 0.0634766C31.3589 1.07947 31.3589 1.07947 31.5091 1.53149C31.5265 1.58365 31.5439 1.63579 31.5613 1.68794C31.5981 1.79815 31.6349 1.90839 31.6716 2.01864C31.7302 2.19454 31.7889 2.3704 31.8476 2.54625C31.9409 2.82563 32.034 3.10504 32.1272 3.38445C32.293 3.88197 32.459 4.37945 32.625 4.8769C32.6829 5.05014 32.7406 5.22339 32.7984 5.39667C32.9969 5.99241 33.1975 6.58735 33.4015 7.18125C33.5834 7.71097 33.7618 8.24179 33.9389 8.77312C33.9802 8.89687 34.0215 9.0206 34.0628 9.14432C34.1668 9.45586 34.2708 9.76742 34.3747 10.079C34.4875 10.4172 34.6004 10.7555 34.7133 11.0937C34.754 11.2154 34.7946 11.3372 34.8352 11.459C34.9884 11.9186 35.1422 12.378 35.2998 12.8361C35.3205 12.8964 35.3411 12.9566 35.3618 13.0169C35.3803 13.0704 35.3803 13.0704 35.3992 13.1251C35.41 13.1565 35.4209 13.188 35.432 13.2204C35.4528 13.2892 35.4528 13.2892 35.4907 13.3228C36.0888 11.2929 36.0888 11.2929 36.6839 9.26212C36.7376 9.07845 36.7913 8.89479 36.8449 8.71113C36.8516 8.68831 36.8583 8.66549 36.8651 8.64198C37.0378 8.05142 37.2111 7.46106 37.3844 6.87071C37.4004 6.81629 37.4163 6.76187 37.4323 6.70745C37.553 6.29632 37.6738 5.8852 37.7945 5.47408C37.9071 5.09062 38.0197 4.70717 38.1323 4.3237C38.156 4.24288 38.1797 4.16207 38.2035 4.08125C38.3756 3.49498 38.5475 2.90866 38.7189 2.32219C38.7266 2.29607 38.7342 2.26994 38.7421 2.24302C38.8149 1.99394 38.8877 1.74486 38.9604 1.49574C38.9867 1.40578 39.013 1.31582 39.0392 1.22587C39.0567 1.16621 39.0741 1.10655 39.0915 1.04689C39.1874 0.718498 39.2863 0.391137 39.3849 0.0634766C41.1924 0.0634766 42.9999 0.0634766 44.8621 0.0634766C45.2254 0.751825 45.2254 0.751825 45.3497 1.00823C45.3639 1.03726 45.3781 1.0663 45.3927 1.09622C45.4369 1.18667 45.481 1.27718 45.525 1.3677C45.5833 1.48731 45.6416 1.60688 45.7 1.72644C45.7143 1.75583 45.7287 1.78521 45.7434 1.81549C45.8621 2.05823 45.9831 2.29976 46.1046 2.54114C46.2059 2.74282 46.3051 2.94538 46.4016 3.14942C46.5214 3.40154 46.6441 3.65183 46.7731 3.89942C46.8567 4.06258 46.8567 4.06258 46.8567 4.16755C46.185 4.31846 45.5125 4.46558 44.8397 4.61117C44.7224 4.63653 44.6052 4.66196 44.488 4.68756C44.3758 4.71206 44.2635 4.73638 44.1512 4.76056C44.0892 4.77396 44.0272 4.78755 43.9652 4.80115C43.9276 4.80919 43.8901 4.81723 43.8514 4.82552C43.8187 4.83261 43.786 4.8397 43.7523 4.847C43.505 4.88697 43.505 4.88697 43.4142 4.82412C43.3998 4.80649 43.3854 4.78886 43.3705 4.7707C43.354 4.75112 43.3375 4.73155 43.3205 4.71138C43.3036 4.69014 43.2867 4.6689 43.2692 4.64701C43.2512 4.62534 43.2332 4.60368 43.2146 4.58135C43.1617 4.5175 43.1095 4.4531 43.0575 4.38853C43.0093 4.33 42.9612 4.27146 42.913 4.21293C42.8907 4.18546 42.8684 4.15799 42.8454 4.12969C42.7605 4.02664 42.6737 3.92533 42.5865 3.82423C42.5705 3.80561 42.5544 3.787 42.5379 3.76782C42.5218 3.7492 42.5058 3.73058 42.4892 3.71139C42.2921 3.48286 42.0963 3.25333 41.9058 3.0192C41.7912 2.87861 41.673 2.74143 41.5536 2.60484C41.3515 2.37356 41.1521 2.14048 40.9679 1.89452C40.7205 2.71382 40.4784 3.53454 40.2417 4.35697C40.1903 4.53566 40.1388 4.71435 40.0874 4.89303C40.0775 4.92727 40.0775 4.92727 40.0675 4.96219C39.9001 5.54289 39.7306 6.12294 39.561 6.70299C39.499 6.91527 39.4369 7.12754 39.3749 7.33981C39.3635 7.37894 39.3635 7.37894 39.3518 7.41886C39.1948 7.95618 39.0384 8.49369 38.8823 9.03126C38.6441 9.85157 38.4052 10.6717 38.166 11.4917C37.9354 12.2825 37.705 13.0733 37.4752 13.8642C37.4364 13.9976 37.3976 14.131 37.3589 14.2644C37.3526 14.2859 37.3464 14.3074 37.3399 14.3296C37.3089 14.4363 37.2779 14.543 37.2469 14.6496C37.2347 14.6916 37.2225 14.7336 37.2103 14.7755C37.2043 14.7962 37.1983 14.8169 37.1921 14.8383C37.1548 14.9665 37.1176 15.0947 37.0803 15.2229C37.0136 15.4525 36.9468 15.6821 36.88 15.9117C36.8577 15.9885 36.8353 16.0652 36.8131 16.142C36.7828 16.2462 36.7525 16.3503 36.7221 16.4545C36.7132 16.4852 36.7043 16.5159 36.6952 16.5476C36.687 16.5754 36.6789 16.6032 36.6705 16.6319C36.6635 16.656 36.6565 16.6802 36.6493 16.705C36.6305 16.7639 36.6305 16.7639 36.5988 16.827C35.1048 16.827 33.6108 16.827 32.0714 16.827C31.8933 16.4007 31.8933 16.4007 31.8327 16.2403C31.8188 16.2037 31.805 16.1672 31.7907 16.1296C31.7761 16.0909 31.7616 16.0522 31.7466 16.0124C31.7306 15.9702 31.7146 15.928 31.6987 15.8858C31.6557 15.7721 31.6128 15.6585 31.57 15.5448C31.5428 15.4727 31.5156 15.4007 31.4884 15.3286C31.2078 14.5852 30.9297 13.8409 30.6528 13.096C30.3897 12.3882 30.1245 11.6811 29.8572 10.9748C29.8488 10.9524 29.8403 10.93 29.8316 10.907C29.8059 10.8391 29.7802 10.7713 29.7545 10.7034C29.7201 10.6126 29.6858 10.5218 29.6514 10.4311C29.6429 10.4085 29.6344 10.386 29.6256 10.3628C29.3414 9.61204 29.0593 8.86049 28.7769 8.10903C28.6517 7.77568 28.5263 7.44237 28.4007 7.10911C28.3203 6.89548 28.2399 6.68184 28.1594 6.46819C28.1507 6.44484 28.1419 6.4215 28.1328 6.39744C27.9077 5.79942 27.6834 5.20112 27.4609 4.60215C27.3731 4.36582 27.285 4.12959 27.1964 3.89358C27.1628 3.80417 27.1293 3.71474 27.0957 3.62531C27.0876 3.6037 27.0795 3.5821 27.0712 3.55984C26.9766 3.30733 26.8851 3.0542 26.7986 2.79878C26.7557 2.67218 26.7115 2.54606 26.6671 2.41996C26.6389 2.3379 26.613 2.25535 26.587 2.17256C26.5245 1.98766 26.4739 1.84003 26.2965 1.73752C26.1891 1.69817 26.08 1.67543 25.9677 1.65535C25.85 1.63284 25.7359 1.59823 25.6208 1.56551C25.575 1.55312 25.5292 1.54083 25.4834 1.52863C25.4608 1.52262 25.4382 1.5166 25.4149 1.5104C25.392 1.50433 25.3692 1.49826 25.3457 1.49201C25.2527 1.4673 25.1597 1.44246 25.0668 1.41752C25.0062 1.40142 25.0062 1.40142 24.9444 1.385C24.8529 1.35784 24.8529 1.35784 24.8213 1.32627C24.8213 0.909546 24.8213 0.492825 24.8213 0.0634766Z" fill="white"/>
<path fill-rule="evenodd" clip-rule="evenodd" d="M40.2188 18.5346C40.1462 18.4622 40.0803 18.4161 39.9865 18.374C39.2902 19.0669 38.594 19.76 37.8981 20.4533L37.6464 20.704L37.5957 20.7545C37.3245 21.0247 37.0531 21.2949 36.7816 21.565C36.5022 21.843 36.2229 22.1211 35.9437 22.3994C35.7716 22.5709 35.5995 22.7424 35.4272 22.9137C35.308 23.0322 35.1889 23.1507 35.0699 23.2694L34.9043 23.4346L34.9029 23.436C34.826 23.5123 34.7492 23.5886 34.6725 23.6651L34.603 23.7345L34.5375 23.7993L34.478 23.8591C34.4002 23.9365 34.3713 23.9846 34.3193 24.0882L40.0498 24.1197L38.3441 25.8166L38.2615 25.8987C38.037 26.1218 37.8125 26.345 37.5882 26.5684L37.5691 26.5874C37.4894 26.6668 37.4097 26.7463 37.3298 26.8256C37.2379 26.9168 37.146 27.008 37.0543 27.0995L36.9516 27.2019L36.8552 27.2974L36.7679 27.3846C36.6814 27.4707 36.6152 27.5429 36.5672 27.6555L41.4282 32.3779H54.1017L54.0487 32.3251L53.9879 32.264L53.9198 32.1966C53.8437 32.1203 53.7675 32.0441 53.6911 31.9681C53.6345 31.9119 53.5779 31.8555 53.5215 31.7991C53.3826 31.6603 53.2436 31.5216 53.1046 31.3831C52.9177 31.1971 52.7311 31.0109 52.5445 30.8247C52.2114 30.4922 51.8783 30.16 51.545 29.8278C51.2517 29.5355 50.9584 29.2432 50.6652 28.9507L50.6065 28.8922L50.3704 28.6567C49.6315 27.9197 48.8924 27.1828 48.1532 26.4461C47.4948 25.7898 46.8365 25.1335 46.1784 24.4769C45.4383 23.7386 44.6981 23.0003 43.9577 22.2622L43.721 22.0263L43.6621 21.9676C43.3688 21.6751 43.0755 21.3827 42.7823 21.0901C42.4472 20.7558 42.112 20.4215 41.7766 20.0875C41.5888 19.9004 41.401 19.7133 41.2134 19.526C41.0873 19.4 40.9611 19.2741 40.8347 19.1484L40.6608 18.9753L40.6583 18.9728C40.5789 18.8934 40.4995 18.814 40.4199 18.7349L40.3477 18.6632L40.2806 18.5957L40.2188 18.5346Z" fill="white"/>
<path fill-rule="evenodd" clip-rule="evenodd" d="M71.1485 18.532C71.0764 18.4602 71.0104 18.418 70.9188 18.374C69.6024 19.6856 68.286 20.9973 66.9698 22.3091L66.9101 22.3687L65.6245 23.65L64.9935 24.279L64.93 24.3423C64.2502 25.0198 63.5704 25.6973 62.8905 26.3747C62.1907 27.0719 61.491 27.7692 60.7914 28.4666L60.4953 28.7619L60.4364 28.8206C60.1235 29.1325 59.8106 29.4443 59.4975 29.756C59.1815 30.0708 58.8655 30.3857 58.5497 30.7007C58.3619 30.888 58.1741 31.0752 57.9862 31.2623C57.8598 31.3881 57.7334 31.5139 57.6072 31.6399L57.4335 31.8133L57.4308 31.816C57.3512 31.8951 57.2716 31.9742 57.1922 32.0535L57.1202 32.1255L57.0525 32.1925L56.9912 32.2541C56.9339 32.3112 56.893 32.3642 56.8575 32.43H69.5065L74.3651 27.5877L70.8871 24.1197L76.6493 24.0882C76.6493 24.025 76.6493 24.025 76.6135 23.9814L76.5621 23.9302L76.5032 23.8709L76.4374 23.8057C76.3641 23.7324 76.2909 23.6591 76.2174 23.586C76.1633 23.5322 76.1093 23.4784 76.0553 23.4245C75.9088 23.278 75.7622 23.1316 75.6153 22.9854C75.5061 22.8767 75.3969 22.7679 75.2878 22.659L75.241 22.6123L75.1468 22.5183C74.852 22.2242 74.5571 21.9302 74.262 21.6363C74.0078 21.3831 73.7537 21.1298 73.4998 20.8763C73.2041 20.5811 72.9083 20.286 72.6124 19.9911L72.5177 19.8968L72.4706 19.8498C72.3614 19.741 72.2523 19.6321 72.1431 19.5232C72.0088 19.3891 71.8744 19.255 71.7399 19.1212L71.5742 18.9563L71.5732 18.9552C71.4965 18.8786 71.4199 18.802 71.3431 18.7256L71.2734 18.6565L71.2085 18.5913L71.1485 18.532Z" fill="white"/>
<path fill-rule="evenodd" clip-rule="evenodd" d="M26.9425 19.9264C27.0117 19.9545 27.0491 19.9834 27.1017 20.0359L27.1569 20.0903L27.2167 20.1506L27.2811 20.2144C27.3521 20.2849 27.4227 20.3557 27.4934 20.4265L27.4958 20.4289C27.5475 20.4803 27.5992 20.5318 27.6509 20.5832C27.7934 20.7249 27.9356 20.867 28.0778 21.0091C28.2014 21.1327 28.3253 21.256 28.4491 21.3793L28.4506 21.3808L28.4906 21.4207C28.7897 21.7185 29.0885 22.0166 29.3872 22.3148C29.6486 22.5758 29.91 22.8366 30.1716 23.0974L30.2241 23.1497L30.4351 23.3601C31.0952 24.0183 31.7552 24.6767 32.4149 25.3353C33.0016 25.9208 33.5884 26.5062 34.1755 27.0914L34.2886 27.2041L34.345 27.2604L34.6265 27.5409L34.6826 27.5969C35.1726 28.0853 35.6624 28.574 36.1522 29.0627L36.3103 29.2203L36.4151 29.3249C36.6591 29.5684 36.9032 29.8118 37.1474 30.0552C37.4619 30.3687 37.7763 30.6823 38.0905 30.9962C38.2421 31.1476 38.3938 31.299 38.5456 31.4502C38.6844 31.5884 38.823 31.7268 38.9614 31.8653C39.0118 31.9156 39.0622 31.9658 39.1126 32.016C39.1808 32.0838 39.2487 32.1517 39.3166 32.2198L39.3773 32.2798C39.4357 32.3387 39.4687 32.3719 39.4873 32.3964H32.7513L26.9425 26.7081C26.8206 26.8051 26.7163 26.907 26.6181 27.0212L21.0491 32.3964H14.388C14.4165 32.349 14.4493 32.3071 14.4928 32.2636L14.5473 32.2087L14.6074 32.1492L14.6713 32.085C14.742 32.0143 14.8128 31.9437 14.8837 31.8731L14.8854 31.8714L15.0397 31.7171C15.1814 31.5754 15.3233 31.4338 15.4652 31.2923C15.5875 31.1703 15.7097 31.0482 15.8319 30.926L15.8765 30.8815C16.2088 30.5494 16.5414 30.2175 16.874 29.8856L16.9262 29.8335L16.9786 29.7813C17.1697 29.5906 17.3608 29.3998 17.5519 29.2091C18.1288 28.6332 18.7058 28.0573 19.283 27.4817L19.339 27.4259L19.5635 27.202L19.7324 27.0335L19.7888 26.9772C20.374 26.3936 20.9589 25.8097 21.5436 25.2255C22.2001 24.5697 22.8568 23.914 23.5139 23.2588L23.7239 23.0494L23.7761 22.9973C24.054 22.7202 24.3317 22.4428 24.6092 22.1653C24.8879 21.8867 25.1668 21.6084 25.4461 21.3304C25.5975 21.1796 25.7488 21.0287 25.8997 20.8775C26.0377 20.7393 26.176 20.6015 26.3147 20.4639C26.365 20.4139 26.4151 20.3637 26.4651 20.3134C26.5327 20.2454 26.6008 20.1779 26.669 20.1106L26.7285 20.05C26.8188 19.9618 26.8483 19.933 26.8823 19.9258C26.8988 19.9224 26.9164 19.924 26.9425 19.9264Z" fill="white"/>
<path fill-rule="evenodd" clip-rule="evenodd" d="M84.216 20.0718C84.1471 20.0031 84.0822 19.9613 83.9934 19.9209C82.8227 21.0872 81.652 22.2536 80.4815 23.4202L80.4284 23.4731L79.2851 24.6126L78.7239 25.172L78.6674 25.2283C78.0629 25.8308 77.4583 26.4332 76.8536 27.0356C76.2313 27.6555 75.609 28.2756 74.9869 28.8958L74.7235 29.1584L74.6711 29.2106C74.3929 29.488 74.1146 29.7653 73.8362 30.0425C73.5551 30.3224 73.2741 30.6024 72.9933 30.8825L72.9527 30.923L72.9519 30.9238C72.8284 31.047 72.7049 31.1701 72.5813 31.2931C72.4392 31.4346 72.297 31.5761 72.1551 31.7177L72.0006 31.872L71.9982 31.8743C71.9274 31.9446 71.8566 32.015 71.786 32.0855L71.722 32.1496L71.6618 32.2091L71.6072 32.2639C71.5686 32.3024 71.5385 32.3397 71.5123 32.3806H78.172L84.0324 26.5155L89.8668 32.3973H96.5721C96.5529 32.3775 96.5269 32.3514 96.4915 32.316L96.4308 32.2556C96.3629 32.1877 96.295 32.1198 96.2269 32.052L96.1307 31.9561L96.0757 31.9012C95.9371 31.7629 95.7985 31.6246 95.6599 31.4863C95.5081 31.335 95.3564 31.1837 95.2047 31.0323C94.8904 30.7186 94.5761 30.4049 94.2616 30.0914C94.0175 29.848 93.7734 29.6045 93.5294 29.3611L93.3193 29.1515L93.2665 29.0988C92.7766 28.6102 92.2868 28.1216 91.7968 27.633L91.7407 27.5771L91.4593 27.2965L91.4028 27.2402L91.2897 27.1274C90.7028 26.5421 90.1159 25.9568 89.5292 25.3713C88.8694 24.7128 88.2094 24.0545 87.5493 23.3963L87.3383 23.1859L87.2858 23.1335C87.007 22.8555 86.7282 22.5773 86.4495 22.2992C86.1681 22.0183 85.8866 21.7375 85.6049 21.4568L85.5636 21.4157L85.5619 21.414L85.561 21.4131C85.438 21.2905 85.3149 21.1679 85.192 21.0452C85.0498 20.9031 84.9076 20.7611 84.7652 20.6192L84.6101 20.4648L84.6078 20.4625C84.5371 20.3918 84.4663 20.321 84.3954 20.2505L84.331 20.1865L84.2712 20.1264L84.216 20.0718Z" fill="white"/>
<path d="M0.348633 0.0634766C2.50088 0.0634766 4.65313 0.0634766 6.8706 0.0634766C7.01823 0.357885 7.16369 0.648628 7.29566 0.94965C7.35967 1.0953 7.42408 1.24077 7.48859 1.3862C7.50006 1.41206 7.51152 1.43793 7.52333 1.46458C7.6574 1.76659 7.79435 2.06731 7.93122 2.36807C8.128 2.8007 8.32304 3.23403 8.51595 3.66838C8.68846 4.05664 8.86343 4.44376 9.03932 4.83051C9.23592 5.26282 9.43088 5.69579 9.62361 6.12984C9.83121 6.59725 10.0425 7.06299 10.2545 7.52843C10.267 7.55579 10.2794 7.58314 10.2922 7.61132C10.3155 7.66253 10.3389 7.71371 10.3622 7.76489C10.4147 7.88024 10.4657 7.99557 10.5115 8.11377C10.6511 7.7911 10.7733 7.46266 10.8954 7.13313C10.9175 7.07365 10.9396 7.01417 10.9617 6.95469C10.9968 6.86049 11.0318 6.76629 11.0668 6.67209C11.1904 6.33935 11.3147 6.00686 11.439 5.67438C11.5029 5.50359 11.5667 5.33279 11.6305 5.16199C11.643 5.12856 11.6555 5.09512 11.6684 5.06067C11.7894 4.73669 11.9103 4.41266 12.0312 4.08862C12.2388 3.53224 12.4465 2.97591 12.6544 2.41967C12.7741 2.09942 12.8938 1.77913 13.013 1.45872C13.0687 1.30917 13.1244 1.15964 13.1802 1.01011C13.2068 0.938507 13.2335 0.866889 13.2601 0.795262C13.297 0.696045 13.334 0.596862 13.3709 0.497684C13.3819 0.468232 13.3928 0.43878 13.404 0.408436C13.4141 0.381344 13.4243 0.354252 13.4347 0.32634C13.4434 0.302874 13.4522 0.279408 13.4612 0.255231C13.4875 0.18979 13.5192 0.126563 13.5509 0.0634766C15.3688 0.0634766 17.1867 0.0634766 19.0597 0.0634766C19.3 0.73023 19.5403 1.39698 19.7879 2.08394C20.1014 2.96124 20.1014 2.96124 20.4227 3.83574C20.4331 3.86344 20.4435 3.89113 20.4542 3.91966C20.4738 3.97194 20.4936 4.02418 20.5135 4.07635C20.5502 4.17395 20.5794 4.25183 20.5794 4.35697C20.067 4.47101 19.553 4.57572 19.0374 4.67509C18.9156 4.69863 18.7938 4.72249 18.672 4.74635C18.5938 4.76147 18.5156 4.77658 18.4374 4.79167C18.3833 4.80232 18.3833 4.80232 18.3282 4.81318C18.1584 4.84559 17.998 4.87583 17.825 4.86208C17.7649 4.81793 17.7649 4.81793 17.7181 4.75553C17.6998 4.73242 17.6816 4.7093 17.6627 4.68549C17.6333 4.64789 17.6333 4.64789 17.6034 4.60952C17.5576 4.55786 17.5114 4.50657 17.4648 4.45562C17.4409 4.42909 17.4169 4.40255 17.3921 4.37522C17.3678 4.34836 17.3435 4.3215 17.3184 4.29383C17.0471 3.99427 17.0471 3.99427 16.9247 3.85382C16.8357 3.75191 16.7449 3.65178 16.6536 3.55194C16.5442 3.43231 16.4362 3.31166 16.3297 3.1895C16.2174 3.06176 16.1028 2.93609 15.9887 2.81005C15.7174 2.51049 15.7174 2.51049 15.5949 2.37004C15.4151 2.16438 15.233 1.96059 15.0389 1.76824C15.0346 1.78649 15.0302 1.80474 15.0258 1.82354C14.9564 2.09617 14.8579 2.35615 14.7583 2.61887C14.7015 2.76884 14.6452 2.91901 14.5889 3.06914C14.5768 3.10133 14.5646 3.13352 14.5522 3.16668C14.4021 3.56613 14.2546 3.9665 14.1069 4.36683C14.0501 4.52082 13.9932 4.6748 13.9364 4.82878C13.9225 4.86644 13.9086 4.90409 13.8942 4.94289C13.7616 5.30213 13.6286 5.66124 13.4955 6.0203C13.4846 6.04974 13.4736 6.07918 13.4624 6.10952C13.3756 6.34364 13.2888 6.57775 13.202 6.81186C12.9181 7.57716 12.6347 8.34259 12.3518 9.10822C12.3382 9.14477 12.3247 9.18132 12.3108 9.21898C12.2446 9.39814 12.1784 9.57732 12.1124 9.75654C12.0568 9.90742 12.0007 10.0581 11.9445 10.2088C11.7426 10.7509 11.5552 11.2968 11.3762 11.8469C11.3556 11.91 11.3349 11.9732 11.3143 12.0363C11.1316 12.5944 10.9515 13.1534 10.773 13.7129C10.5696 14.3497 10.3608 14.9846 10.1514 15.6195C10.1391 15.6567 10.1391 15.6567 10.1266 15.6947C9.85165 16.5279 9.85165 16.5279 9.75167 16.827C8.36211 16.827 6.97255 16.827 5.54088 16.827C5.56272 16.6528 5.58468 16.5156 5.63383 16.3516C5.64004 16.3307 5.64625 16.3098 5.65265 16.2882C5.67329 16.2189 5.69421 16.1496 5.71514 16.0803C5.73007 16.0303 5.74499 15.9803 5.75989 15.9303C5.79192 15.823 5.82407 15.7157 5.85633 15.6084C5.90744 15.4384 5.95828 15.2683 6.00908 15.0982C6.07123 14.8902 6.13343 14.6822 6.19572 14.4742C6.36478 13.9096 6.53253 13.3446 6.70026 12.7796C6.74901 12.6154 6.79781 12.4512 6.84662 12.287C6.86958 12.2098 6.89255 12.1325 6.91551 12.0552C6.92964 12.0077 6.94377 11.9602 6.9579 11.9126C6.96448 11.8905 6.97107 11.8683 6.97785 11.8455C6.98431 11.8238 6.99077 11.8021 6.99742 11.7797C7.01004 11.7372 7.02261 11.6947 7.03513 11.6521C7.06831 11.5394 7.10254 11.4271 7.13814 11.3151C7.14564 11.291 7.15314 11.267 7.16087 11.2421C7.17522 11.1961 7.18988 11.1502 7.20491 11.1044C7.25918 10.9283 7.25323 10.8084 7.17631 10.642C7.14926 10.5941 7.14926 10.5941 7.12166 10.5453C7.10135 10.509 7.08105 10.4726 7.06012 10.4352C7.03785 10.3961 7.01557 10.3569 6.99329 10.3177C6.97026 10.2768 6.94726 10.2358 6.92429 10.1948C6.87697 10.1104 6.8295 10.0262 6.78192 9.94196C6.69761 9.79268 6.61431 9.64285 6.53102 9.49299C6.47244 9.38762 6.41375 9.28231 6.35501 9.17703C6.25641 9.00025 6.15788 8.82344 6.05937 8.64662C6.01982 8.57563 5.98028 8.50465 5.94072 8.43367C5.84091 8.25457 5.74117 8.07544 5.64155 7.89623C5.45689 7.56419 5.27169 7.23251 5.08379 6.90228C4.89649 6.57299 4.71298 6.24168 4.52987 5.91007C4.51922 5.89077 4.50856 5.87148 4.49758 5.8516C4.48692 5.83229 4.47626 5.81298 4.46528 5.79309C4.18511 5.28587 3.90206 4.78025 3.61807 4.27516C3.38189 3.85491 3.14758 3.43363 2.91334 3.01231C2.90285 2.99343 2.89236 2.97456 2.88155 2.95511C2.86044 2.91716 2.83934 2.8792 2.81824 2.84124C2.74794 2.71482 2.67739 2.58853 2.60676 2.46229C2.54395 2.34994 2.48183 2.23732 2.42101 2.1239C2.40956 2.10291 2.39811 2.08192 2.38631 2.0603C2.35804 2.00845 2.3302 1.95637 2.3024 1.90427C2.20884 1.77838 2.06324 1.75873 1.91553 1.7239C1.88141 1.71579 1.8473 1.70768 1.81215 1.69933C1.77567 1.69078 1.73919 1.68222 1.70161 1.67341C1.66396 1.66447 1.62631 1.65552 1.58752 1.6463C1.46744 1.61778 1.34732 1.58941 1.2272 1.56107C1.0687 1.52367 0.910243 1.48612 0.751804 1.44848C0.715067 1.43986 0.678331 1.43124 0.640482 1.42237C0.606767 1.41436 0.573052 1.40635 0.538315 1.39809C0.508491 1.39106 0.478667 1.38403 0.44794 1.37679C0.380293 1.35784 0.380293 1.35784 0.348633 1.32627C0.348633 0.909546 0.348633 0.492825 0.348633 0.0634766Z" fill="white"/>
<path d="M74.4941 4.6017C74.5307 4.60167 74.5674 4.60164 74.6051 4.6016C75.176 4.60194 75.7352 4.61933 76.3007 4.7043C76.3325 4.70903 76.3643 4.71376 76.3971 4.71864C77.9051 4.95119 79.3191 5.5506 80.2493 6.79876C80.9124 7.71841 81.1888 8.86225 81.2713 9.97645C81.0108 10.0878 80.748 10.1881 80.4805 10.2817C80.4211 10.3026 80.3617 10.3235 80.3023 10.3445C80.2396 10.3666 80.1769 10.3886 80.1142 10.4106C79.9163 10.48 79.7186 10.5498 79.5209 10.6196C79.4761 10.6354 79.4313 10.6512 79.3865 10.667C78.8578 10.8534 78.3301 11.0425 77.8028 11.2328C77.7442 11.2539 77.6854 11.2748 77.6266 11.2954C77.4659 11.3522 77.3075 11.4122 77.1502 11.4778C76.6102 11.6966 76.1352 11.7573 75.5508 11.7448C75.4396 11.7428 75.3284 11.7426 75.2171 11.7423C75.0081 11.7413 74.7992 11.7387 74.5902 11.7355C74.3516 11.732 74.113 11.7303 73.8744 11.7287C73.3851 11.7254 72.8958 11.7199 72.4065 11.7128C72.4189 11.8496 72.4314 11.9865 72.444 12.1233C72.4483 12.1696 72.4525 12.216 72.4567 12.2624C72.5396 13.1782 72.675 14.2716 73.4021 14.9249C73.7757 15.2259 74.2812 15.3177 74.7493 15.2802C76.1299 15.1254 77.3346 14.2722 78.4535 13.5123C78.4805 13.494 78.5074 13.4757 78.5352 13.4568C78.6566 13.3743 78.7775 13.2911 78.8982 13.2077C79.0497 13.1033 79.202 13.0001 79.3541 12.8967C79.3779 12.8805 79.4017 12.8643 79.4262 12.8476C79.4491 12.8321 79.472 12.8166 79.4956 12.8006C79.5392 12.7702 79.5821 12.7388 79.6241 12.7063C79.7669 12.5965 79.7669 12.5965 79.8462 12.5979C79.941 12.6432 79.9671 12.707 80.0175 12.7981C80.0377 12.834 80.0579 12.8699 80.0786 12.9069C80.1002 12.9463 80.1218 12.9856 80.1434 13.0249C80.1659 13.0651 80.1884 13.1053 80.2109 13.1455C80.2455 13.2071 80.2801 13.2687 80.3145 13.3305C80.4241 13.5269 80.5377 13.721 80.6519 13.9148C80.8194 14.1998 80.9837 14.4864 81.1446 14.7751C80.9974 14.9417 80.8155 15.05 80.6282 15.1677C80.5933 15.1898 80.5583 15.2119 80.5223 15.2347C80.1655 15.4594 79.8026 15.6733 79.435 15.88C79.4093 15.8946 79.3837 15.9091 79.3572 15.9241C77.0539 17.2206 74.0701 17.3829 71.5414 16.7125C70.6079 16.4499 69.781 16.0149 69.0822 15.3433C69.0556 15.3191 69.0289 15.295 69.0015 15.2701C67.9745 14.3079 67.5651 12.7881 67.4992 11.4287C67.4934 11.234 67.4929 11.0393 67.4932 10.8446C67.4933 10.818 67.4933 10.7915 67.4933 10.7641C67.4943 10.3618 67.5007 9.96436 67.5625 9.56605C67.5673 9.53487 67.572 9.50369 67.5769 9.47157C67.7648 8.29295 68.2086 7.2602 69.0188 6.3775C69.0378 6.35634 69.0568 6.33518 69.0764 6.31337C70.147 5.17888 71.8034 4.79982 73.293 4.64116C73.3232 4.63786 73.3535 4.63456 73.3847 4.63116C73.7532 4.59693 74.1243 4.60192 74.4941 4.6017ZM73.3246 6.78791C73.3036 6.8072 73.2825 6.82649 73.2608 6.84636C72.51 7.60975 72.4065 8.93751 72.4065 9.94488C73.7125 9.94488 75.0184 9.94488 76.364 9.94488C76.3441 9.58844 76.3221 9.24173 76.2749 8.88927C76.2722 8.86831 76.2694 8.84734 76.2665 8.82574C76.1596 8.02376 76.0266 7.10378 75.3509 6.56692C74.719 6.18437 73.8623 6.2941 73.3246 6.78791Z" fill="white"/>
<path d="M53.9751 6.00063C54.0084 6.03144 54.0417 6.06236 54.0749 6.09336C54.1023 6.11869 54.1023 6.11869 54.1303 6.14454C55.0776 7.02775 55.5035 8.21525 55.6895 9.47133C55.6929 9.49348 55.6963 9.51563 55.6999 9.53846C55.7221 9.69573 55.7245 9.84966 55.7212 10.008C55.6945 10.0173 55.6678 10.0266 55.6403 10.0362C54.8273 10.3194 54.0163 10.6083 53.2058 10.8986C52.9374 10.9948 52.6688 11.0908 52.4002 11.1867C52.323 11.2143 52.2458 11.2419 52.1686 11.2694C52.0571 11.3093 51.9456 11.3491 51.8341 11.3889C51.7316 11.4255 51.6291 11.4621 51.5266 11.4987C51.4965 11.5094 51.4665 11.5202 51.4355 11.5312C51.4073 11.5413 51.3791 11.5514 51.35 11.5618C51.3258 11.5704 51.3016 11.579 51.2767 11.5879C51.2109 11.6119 51.1464 11.6395 51.0826 11.6683C50.9045 11.7345 50.7247 11.7252 50.5369 11.7235C50.497 11.7235 50.4571 11.7236 50.416 11.7236C50.3074 11.7236 50.1988 11.723 50.0901 11.7224C49.9764 11.7218 49.8626 11.7217 49.7488 11.7216C49.5336 11.7213 49.3184 11.7206 49.1033 11.7196C48.8582 11.7185 48.6131 11.718 48.368 11.7175C47.8641 11.7166 47.3603 11.7149 46.8564 11.7128C46.8629 11.7709 46.8629 11.7709 46.8695 11.8303C46.8753 11.8818 46.881 11.9333 46.8868 11.9848C46.8911 12.023 46.8911 12.023 46.8954 12.062C46.9108 12.1995 46.9257 12.337 46.94 12.4745C47.0289 13.2888 47.1867 14.3354 47.8519 14.9044C48.3236 15.2493 48.8243 15.3352 49.4 15.2558C50.7566 15.0462 51.9575 14.1767 53.0618 13.4175C53.108 13.3858 53.1543 13.3541 53.2006 13.3225C53.3233 13.2385 53.4458 13.1544 53.5683 13.0703C53.6593 13.0078 53.7504 12.9453 53.8414 12.8828C53.862 12.8687 53.8826 12.8545 53.9039 12.8399C53.9426 12.8133 53.9814 12.7868 54.0202 12.7604C54.0565 12.7356 54.0925 12.7105 54.1283 12.685C54.2545 12.5967 54.2545 12.5967 54.3598 12.5967C54.6683 13.1288 54.9759 13.6614 55.2805 14.1958C55.3241 14.2716 55.3681 14.3472 55.4125 14.4225C55.4243 14.4426 55.436 14.4627 55.4481 14.4833C55.4708 14.5221 55.4937 14.5607 55.5167 14.5993C55.5676 14.6865 55.5946 14.7354 55.5946 14.8382C55.547 14.8801 55.547 14.8801 55.4794 14.9228C55.4543 14.9389 55.4292 14.955 55.4033 14.9716C55.3618 14.9974 55.3618 14.9974 55.3195 15.0237C55.291 15.0417 55.2624 15.0598 55.2331 15.0784C55.1728 15.1165 55.1124 15.1543 55.0519 15.1921C54.9663 15.2455 54.881 15.2995 54.7958 15.3535C53.7392 16.0195 52.6389 16.5491 51.4154 16.8271C51.3751 16.8363 51.3751 16.8363 51.334 16.8457C51.1405 16.8886 50.9464 16.9232 50.7506 16.9534C50.7204 16.9581 50.6903 16.9629 50.6592 16.9678C49.5379 17.1358 48.325 17.1192 47.2046 16.9534C47.1562 16.9465 47.1562 16.9465 47.1068 16.9395C45.9943 16.7787 44.8657 16.4264 43.9753 15.7221C43.958 15.7086 43.9408 15.6951 43.923 15.6812C43.4816 15.3333 43.1368 14.9322 42.8356 14.4593C42.8179 14.432 42.8179 14.432 42.8 14.404C42.2201 13.4905 41.979 12.3351 41.9743 11.2655C41.9741 11.2328 41.9739 11.2 41.9738 11.1663C41.9735 11.0972 41.9733 11.0281 41.9731 10.9591C41.9728 10.8562 41.9718 10.7532 41.9708 10.6503C41.9678 10.0511 42.0146 9.45543 42.1648 8.87347C42.177 8.82452 42.177 8.82452 42.1896 8.77458C42.3104 8.30531 42.4778 7.87676 42.7089 7.45086C42.7363 7.40013 42.7363 7.40013 42.7643 7.34838C42.966 6.99032 43.2181 6.67533 43.5004 6.37749C43.524 6.35189 43.5477 6.32629 43.572 6.29992C45.6027 4.17466 49.8897 4.16353 53.9751 6.00063ZM47.6719 6.90369C47.5287 7.06988 47.4254 7.25375 47.3313 7.45086C47.3141 7.4868 47.2969 7.52273 47.2792 7.55975C46.9541 8.30583 46.901 9.14421 46.8564 9.94487C48.1624 9.94487 49.4683 9.94487 50.8139 9.94487C50.8139 9.66521 50.8067 9.40175 50.7743 9.12603C50.77 9.08918 50.7658 9.05233 50.7614 9.01436C50.6021 7.65833 50.6021 7.65832 49.8313 6.57887C49.1552 6.1272 48.1998 6.32886 47.6719 6.90369Z" fill="white"/>
<path d="M101.154 4.60937C101.486 5.50216 101.816 6.39553 102.135 7.2928C102.348 7.88887 102.564 8.48328 102.784 9.0765C103.018 9.70615 103.247 10.3373 103.473 10.97C103.688 11.575 103.909 12.1779 104.133 12.7801C104.325 13.2979 104.514 13.8168 104.698 14.3376C104.829 14.7094 104.964 15.0801 105.101 15.45C105.108 15.4707 105.116 15.4915 105.124 15.5128C105.2 15.7191 105.277 15.9254 105.354 16.1315C105.375 16.1893 105.397 16.2471 105.418 16.3049C105.445 16.3761 105.471 16.4473 105.498 16.5185C105.51 16.55 105.521 16.5815 105.533 16.6139C105.544 16.6415 105.554 16.669 105.565 16.6974C105.586 16.7637 105.586 16.7637 105.586 16.8269C104.04 16.8269 102.494 16.8269 100.901 16.8269C100.426 15.5957 100.426 15.5957 100.394 15.4378C100.05 15.589 99.7086 15.7461 99.3703 15.9106C97.9505 16.5999 96.599 17.0634 95.006 17.0577C94.9733 17.0577 94.9406 17.0576 94.9069 17.0576C94.4296 17.0563 93.9621 17.045 93.4922 16.9532C93.4678 16.9486 93.4433 16.944 93.4181 16.9393C92.6372 16.7895 91.8855 16.4487 91.4024 15.7936C91.3465 15.708 91.2945 15.6215 91.2444 15.5325C91.2297 15.5069 91.2151 15.4812 91.2001 15.4548C90.8275 14.7591 90.8137 13.9124 91.0148 13.1628C91.2817 12.2984 91.8798 11.5588 92.5741 10.9865C92.6043 10.9599 92.6345 10.9333 92.6656 10.9059C93.3122 10.3375 94.0301 9.83581 94.7647 9.38738C94.8941 9.30836 95.0213 9.22613 95.1484 9.14358C95.6601 8.81213 96.1784 8.49109 96.696 8.16894C96.8259 8.08807 96.9558 8.00712 97.0856 7.92617C97.1262 7.90089 97.1668 7.87561 97.2073 7.85033C97.249 7.82439 97.249 7.82439 97.2914 7.79792C97.243 7.55636 97.1322 7.33117 97.0381 7.10338C96.0665 7.08776 96.0665 7.08776 95.0752 7.07182C95.0752 6.65509 95.0752 6.23837 95.0752 5.80902C95.2193 5.76112 95.3565 5.72414 95.5045 5.69515C95.528 5.69045 95.5514 5.68576 95.5756 5.68092C95.6538 5.66529 95.732 5.64984 95.8103 5.63439C95.8665 5.62319 95.9227 5.61199 95.979 5.60077C96.1314 5.57039 96.2839 5.54017 96.4364 5.50999C96.5637 5.48477 96.691 5.45948 96.8183 5.43418C97.1186 5.37453 97.4188 5.315 97.7191 5.25555C98.029 5.19421 98.3388 5.13266 98.6486 5.07102C98.9147 5.01809 99.1807 4.96528 99.4468 4.91256C99.6057 4.88108 99.7646 4.84956 99.9235 4.81792C100.073 4.78819 100.222 4.75861 100.371 4.72914C100.426 4.7183 100.481 4.70741 100.536 4.69646C100.611 4.68153 100.686 4.66679 100.76 4.65209C100.782 4.64772 100.804 4.64334 100.826 4.63882C100.937 4.61726 101.041 4.60469 101.154 4.60937ZM97.9563 9.47112C97.9408 9.49248 97.9408 9.49248 97.925 9.51426C97.8937 9.55759 97.8623 9.60091 97.8309 9.64424C97.7939 9.69535 97.7569 9.74649 97.7199 9.79763C97.6274 9.92547 97.5347 10.0532 97.4413 10.1803C96.1332 11.8996 96.1332 11.8996 95.7866 13.9611C95.8513 14.2648 95.9852 14.4972 96.245 14.6733C96.6006 14.8834 96.9934 14.8602 97.3836 14.7613C97.772 14.6553 98.1403 14.4922 98.5044 14.323C98.5727 14.2915 98.641 14.2602 98.7093 14.2288C98.7541 14.2081 98.799 14.1875 98.8438 14.1668C98.9752 14.1063 99.1071 14.0472 99.2399 13.9897C99.2845 13.9702 99.2845 13.9702 99.3299 13.9504C99.3835 13.9272 99.4373 13.9042 99.4911 13.8815C99.5505 13.8555 99.6084 13.8262 99.6659 13.7962C99.7025 13.6867 99.6933 13.669 99.6518 13.5659C99.6409 13.5383 99.6299 13.5106 99.6186 13.4821C99.6063 13.4518 99.594 13.4215 99.5812 13.3903C99.5621 13.3423 99.5621 13.3423 99.5426 13.2933C99.5 13.1868 99.457 13.0805 99.414 12.9741C99.3842 12.8997 99.3544 12.8253 99.3246 12.7509C99.2537 12.5741 99.1827 12.3974 99.1114 12.2207C99.0239 12.0035 98.9367 11.7861 98.8495 11.5687C98.7599 11.3453 98.6703 11.122 98.5805 10.8988C98.5667 10.8645 98.5529 10.8303 98.5387 10.795C98.5116 10.7278 98.4845 10.6605 98.4574 10.5933C98.3866 10.418 98.3166 10.2425 98.2475 10.0665C98.233 10.0299 98.2186 9.99331 98.2037 9.9556C98.1759 9.88526 98.1483 9.81485 98.1209 9.74436C98.1086 9.71309 98.0962 9.68182 98.0834 9.6496C98.0672 9.60808 98.0672 9.60808 98.0506 9.56572C98.0249 9.49736 98.0249 9.49736 97.9563 9.47112Z" fill="white"/>
<path d="M24.2204 4.60921C24.2274 4.62829 24.2343 4.64738 24.2414 4.66704C24.332 4.91677 24.4227 5.1665 24.5133 5.41621C24.5208 5.43674 24.5282 5.45727 24.5359 5.47843C24.7574 6.08861 24.9794 6.69862 25.2019 7.30843C25.4329 7.94123 25.663 8.5743 25.8928 9.20753C26.0947 9.76381 26.2971 10.3199 26.5 10.8758C26.7162 11.4682 26.9318 12.0608 27.147 12.6536C27.1607 12.6913 27.1744 12.7291 27.1886 12.768C27.3222 13.1362 27.4558 13.5045 27.5894 13.8727C27.6541 14.0509 27.7187 14.2291 27.7834 14.4073C27.8252 14.5227 27.867 14.638 27.9089 14.7534C28.0361 15.1041 28.1639 15.4545 28.2936 15.8043C28.3162 15.8654 28.3388 15.9265 28.3614 15.9876C28.4028 16.0993 28.4444 16.2108 28.4862 16.3223C28.5044 16.3713 28.5225 16.4203 28.5407 16.4693C28.549 16.4912 28.5572 16.513 28.5658 16.5355C28.6045 16.6408 28.6212 16.7126 28.6212 16.8267C27.0854 16.8267 25.5495 16.8267 23.9672 16.8267C23.4606 15.5324 23.4606 15.5324 23.4606 15.4376C23.1392 15.5758 22.8225 15.722 22.508 15.8749C21.0619 16.577 19.6965 17.0634 18.0725 17.0576C18.0398 17.0575 18.0071 17.0575 17.9734 17.0574C17.496 17.0562 17.0286 17.0449 16.5587 16.953C16.5343 16.9484 16.5098 16.9439 16.4846 16.9392C15.6707 16.783 14.8935 16.4181 14.4147 15.7168C13.9576 15.0137 13.8655 14.1742 14.027 13.3627C14.2424 12.3763 14.9493 11.5635 15.7039 10.9232C15.7323 10.8983 15.7608 10.8734 15.7901 10.8478C16.0855 10.5914 16.399 10.3615 16.717 10.1339C16.7426 10.1156 16.7682 10.0972 16.7946 10.0783C17.1765 9.80531 17.568 9.55031 17.9657 9.30101C18.0851 9.22581 18.2035 9.14916 18.3218 9.07239C18.9939 8.6374 19.6743 8.21447 20.3579 7.79776C20.3024 7.59011 20.2295 7.3995 20.1359 7.20582C20.1046 7.13479 20.1046 7.13479 20.1046 7.07165C19.4569 7.07165 18.8091 7.07165 18.1417 7.07165C18.1417 6.64451 18.1417 6.21737 18.1417 5.77729C18.3698 5.7322 18.5978 5.6871 18.8259 5.64201C18.8613 5.635 18.8967 5.628 18.9333 5.62078C19.3656 5.5353 19.7979 5.44985 20.2302 5.36446C20.3512 5.34057 20.4722 5.31667 20.5932 5.29278C20.6742 5.27678 20.7552 5.26079 20.8361 5.24479C21.3047 5.15224 21.7733 5.05955 22.2418 4.9665C22.4398 4.92716 22.6379 4.88793 22.8359 4.84872C22.9897 4.81827 23.1435 4.78769 23.2973 4.75701C23.3911 4.73834 23.485 4.71978 23.5788 4.70127C23.6416 4.68884 23.7043 4.67626 23.7671 4.66367C23.8225 4.65278 23.8225 4.65278 23.8791 4.64166C23.9109 4.63534 23.9427 4.62902 23.9754 4.62251C24.0587 4.60974 24.1363 4.60669 24.2204 4.60921ZM21.0228 9.47095C20.4523 10.2344 19.8799 11.0095 19.4081 11.8387C19.3961 11.8597 19.3841 11.8806 19.3717 11.9022C19.0041 12.5486 18.697 13.3253 18.8739 14.0782C18.9638 14.3559 19.1232 14.5642 19.3765 14.7115C19.8365 14.9278 20.3083 14.8197 20.7673 14.6585C21.2945 14.4687 21.8001 14.2194 22.3077 13.9838C22.3318 13.9727 22.3558 13.9615 22.3805 13.9501C22.5094 13.8901 22.6372 13.8285 22.7641 13.7644C22.6784 13.4452 22.5491 13.1443 22.4237 12.8391C22.3701 12.7079 22.3166 12.5766 22.2631 12.4454C22.2483 12.4093 22.2336 12.3732 22.2184 12.336C22.093 12.0285 21.969 11.7204 21.8452 11.4122C21.8117 11.3288 21.7782 11.2454 21.7447 11.1621C21.7336 11.1345 21.7226 11.107 21.7111 11.0786C21.6887 11.0228 21.6663 10.9671 21.6439 10.9114C21.5879 10.772 21.5319 10.6327 21.4761 10.4933C21.4228 10.3604 21.3694 10.2275 21.3159 10.0947C21.296 10.0451 21.2761 9.99544 21.2562 9.94577C21.2289 9.87741 21.2014 9.80913 21.1738 9.74086C21.1584 9.70229 21.1429 9.66373 21.1269 9.62399C21.0916 9.53217 21.0916 9.53217 21.0228 9.47095Z" fill="white"/>
<path d="M66.6303 0.0596136C66.6667 0.0596427 66.7031 0.0596718 66.7406 0.0597018C66.7822 0.0596584 66.8238 0.059615 66.8667 0.0595703C66.9132 0.0596821 66.9597 0.0597968 67.0063 0.0599143C67.0549 0.0599232 67.1036 0.0599182 67.1523 0.0599003C67.2848 0.0598912 67.4173 0.0600774 67.5498 0.0602972C67.6882 0.060494 67.8265 0.0605131 67.9648 0.0605506C68.227 0.0606489 68.4891 0.0609082 68.7513 0.0612246C69.0497 0.0615769 69.348 0.0617509 69.6464 0.0619095C70.2604 0.0622399 70.8743 0.0627955 71.4883 0.0634982C71.5436 0.188754 71.599 0.314025 71.6543 0.439299C71.6698 0.474419 71.6853 0.509539 71.7013 0.545723C71.8326 0.843039 71.961 1.1415 72.0878 1.44073C72.1336 1.54852 72.1793 1.6563 72.2251 1.76407C72.2369 1.79189 72.2487 1.81972 72.2609 1.84838C72.3418 2.03869 72.4234 2.22869 72.5053 2.41854C72.5643 2.55509 72.6231 2.69171 72.6818 2.82833C72.7105 2.89485 72.7392 2.96134 72.7681 3.0278C72.8084 3.12071 72.8484 3.21374 72.8883 3.3068C72.9005 3.33459 72.9126 3.36239 72.9251 3.39103C72.9361 3.4167 72.9471 3.44236 72.9584 3.46881C72.968 3.49108 72.9776 3.51335 72.9875 3.53629C73.0079 3.59931 73.0079 3.59931 73.0079 3.72559C72.647 3.81364 72.2859 3.90121 71.9247 3.98818C71.757 4.02858 71.5893 4.06914 71.4217 4.11007C71.2601 4.14955 71.0983 4.1886 70.9365 4.22736C70.8747 4.24223 70.8129 4.25727 70.7512 4.27245C70.6649 4.29367 70.5785 4.31433 70.492 4.33487C70.4536 4.34451 70.4536 4.34451 70.4144 4.35434C70.2414 4.39458 70.2414 4.39458 70.1467 4.36535C70.0642 4.30139 69.996 4.22556 69.927 4.14784C69.9115 4.13068 69.896 4.11353 69.8801 4.09585C69.7811 3.98599 69.6838 3.8748 69.5868 3.7632C69.4879 3.65195 69.3862 3.54342 69.2848 3.43444C69.1826 3.32432 69.0826 3.21267 68.9841 3.09913C68.9022 3.00667 68.818 2.91633 68.7338 2.82585C68.6321 2.71653 68.5309 2.60719 68.4331 2.49437C68.3337 2.37988 68.2313 2.2683 68.1283 2.15697C68.1124 2.13969 68.0965 2.12242 68.08 2.10462C68.0645 2.08791 68.0491 2.07121 68.0331 2.054C68.0126 2.03186 68.0126 2.03186 67.9917 2.00927C67.9237 1.9382 67.8538 1.8691 67.784 1.79984C67.7654 1.83598 67.7654 1.83598 67.7465 1.87286C67.3297 2.68209 67.3297 2.68209 67.1211 3.05868C66.9559 3.35728 66.799 3.65985 66.643 3.96329C66.4953 4.25025 66.3441 4.53473 66.1877 4.81709C66.0502 5.0665 65.9197 5.31923 65.7894 5.57242C65.6308 5.88079 65.4692 6.1869 65.3012 6.49029C65.1637 6.7397 65.0332 6.99243 64.903 7.24562C64.7444 7.55399 64.5828 7.8601 64.4147 8.16349C64.2773 8.41289 64.1467 8.66562 64.0165 8.91882C63.8579 9.22719 63.6963 9.5333 63.5282 9.83668C63.3793 10.1069 63.2385 10.3811 63.0974 10.6554C62.9416 10.9581 62.7824 11.2587 62.6173 11.5565C62.5895 11.6065 62.562 11.6566 62.5346 11.7068C62.51 11.7517 62.485 11.7963 62.4595 11.8406C62.3105 12.1116 62.333 12.4203 62.3296 12.7218C62.3287 12.7834 62.3278 12.845 62.327 12.9066C62.3261 12.9723 62.3252 13.038 62.3244 13.1037C62.3227 13.2413 62.3207 13.3788 62.3188 13.5163C62.3146 13.8082 62.3107 14.1002 62.3068 14.3922C62.3026 14.7073 62.2984 15.0224 62.2939 15.3375C62.292 15.4739 62.2902 15.6103 62.2884 15.7467C62.2876 15.8112 62.2867 15.8758 62.2858 15.9404C62.2847 16.0187 62.2837 16.097 62.2828 16.1753C62.282 16.228 62.282 16.228 62.2812 16.2817C62.2808 16.3118 62.2804 16.3418 62.28 16.3728C62.2732 16.5245 62.2573 16.6758 62.2435 16.827C60.8017 16.827 59.3599 16.827 57.8744 16.827C57.8388 16.5429 57.8388 16.5429 57.8369 16.4119C57.8364 16.382 57.8359 16.3522 57.8354 16.3214C57.835 16.2894 57.8346 16.2573 57.8342 16.2243C57.8336 16.1896 57.8331 16.155 57.8325 16.1193C57.8307 16.0036 57.8291 15.8878 57.8275 15.7721C57.8263 15.6889 57.8251 15.6058 57.8238 15.5226C57.8207 15.3202 57.8178 15.1179 57.815 14.9155C57.8116 14.6789 57.8082 14.4424 57.8047 14.2059C57.7984 13.7829 57.7923 13.36 57.7863 12.937C57.7804 12.5285 57.7745 12.12 57.7685 11.7115C57.7681 11.6864 57.7678 11.6613 57.7674 11.6355C57.767 11.6105 57.7666 11.5854 57.7663 11.5597C57.7594 11.0927 57.7526 10.6257 57.7458 10.1587C57.7434 9.99476 57.741 9.83081 57.7386 9.66686C57.7357 9.46589 57.7328 9.26492 57.7299 9.06395C57.7285 8.96186 57.727 8.85976 57.7255 8.75767C57.7172 8.19568 57.7152 7.63404 57.7161 7.07199C57.2355 7.07199 56.7549 7.07199 56.2598 7.07199C56.2598 6.65527 56.2598 6.23854 56.2598 5.8092C56.3962 5.76386 56.5174 5.72959 56.6569 5.70237C56.6769 5.69843 56.697 5.69449 56.7176 5.69044C56.7842 5.67736 56.8508 5.66446 56.9174 5.65156C56.9654 5.64217 57.0134 5.63278 57.0613 5.62337C57.1915 5.59788 57.3218 5.57254 57.452 5.54723C57.5891 5.52056 57.7262 5.49374 57.8633 5.46694C58.0942 5.42182 58.3251 5.3768 58.556 5.33183C58.8788 5.26899 59.2016 5.20599 59.5244 5.14295C60.6957 4.91418 60.6957 4.91418 61.2543 4.80586C61.4035 4.77688 61.5527 4.7476 61.7019 4.7182C61.7769 4.70355 61.8518 4.68891 61.9267 4.67426C61.9602 4.66761 61.9936 4.66095 62.0281 4.65409C62.0587 4.64815 62.0892 4.6422 62.1207 4.63608C62.1469 4.63092 62.1732 4.62575 62.2002 4.62043C62.279 4.609 62.354 4.60765 62.4335 4.60954C62.4327 4.64001 62.4319 4.67048 62.4311 4.70187C62.4235 4.99336 62.416 5.28484 62.4087 5.57633C62.4049 5.72607 62.4011 5.87582 62.3972 6.02556C62.3793 6.71126 62.3644 7.39625 62.3702 8.08222C62.3886 8.04615 62.4071 8.01008 62.4262 7.97292C62.4963 7.83598 62.5666 7.69907 62.6368 7.56216C62.6669 7.50349 62.697 7.44481 62.7271 7.38612C62.8956 7.0573 63.0653 6.72922 63.2382 6.40271C63.3549 6.18229 63.4696 5.96089 63.5838 5.73916C63.6418 5.62649 63.6999 5.51387 63.758 5.40126C63.7695 5.37907 63.7809 5.35688 63.7927 5.33402C63.8877 5.15006 63.9836 4.96652 64.0798 4.78318C64.2341 4.48918 64.3866 4.19429 64.5389 3.89922C64.7073 3.57282 64.8763 3.24679 65.0469 2.92152C65.1724 2.68214 65.297 2.44231 65.4214 2.20235C65.4416 2.16338 65.4618 2.12441 65.482 2.08544C65.492 2.06615 65.502 2.04686 65.5123 2.02698C65.5273 1.99805 65.5273 1.99805 65.5426 1.96854C65.5526 1.94923 65.5626 1.92992 65.5729 1.91003C65.7319 1.60334 65.8913 1.29689 66.0508 0.990459C66.0988 0.898234 66.1467 0.805975 66.1946 0.713696C66.2422 0.621905 66.2899 0.530151 66.3376 0.438389C66.364 0.38725 66.364 0.38725 66.3911 0.335078C66.4072 0.303977 66.4234 0.272875 66.4401 0.240832C66.4543 0.213357 66.4686 0.185883 66.4833 0.157576C66.5346 0.0642031 66.5346 0.0642031 66.6303 0.0596136Z" fill="white"/>
<path d="M88.9009 0.000188266C88.9049 1.14285 88.9013 2.2853 88.8881 3.4279C88.8871 3.51639 88.8861 3.60487 88.8852 3.69336C88.8837 3.83335 88.8821 3.97334 88.8803 4.11333C88.8796 4.16519 88.879 4.21705 88.8785 4.26891C88.8777 4.34004 88.8768 4.41116 88.8758 4.48228C88.8753 4.52226 88.8748 4.56225 88.8743 4.60344C88.8693 4.70408 88.8693 4.70408 88.8376 4.83036C89.3391 4.83036 89.8406 4.83036 90.3573 4.83036C90.3573 5.41377 90.3573 5.99718 90.3573 6.59827C89.8558 6.59827 89.3543 6.59827 88.8376 6.59827C88.835 6.82669 88.835 6.82669 88.8324 7.05972C88.8128 8.76075 88.7911 10.4617 88.7678 12.1627C88.762 12.5898 88.7563 13.0168 88.7506 13.4439C88.7466 13.7509 88.7424 14.058 88.7382 14.3651C88.7357 14.546 88.7333 14.727 88.7309 14.908C88.7288 15.0763 88.7265 15.2446 88.7241 15.4129C88.7232 15.4739 88.7224 15.535 88.7217 15.596C88.7168 15.986 88.7028 16.3744 88.6793 16.7637C88.3377 16.7647 87.996 16.7654 87.6543 16.7657C87.6287 16.7657 87.603 16.7658 87.5766 16.7658C86.7772 16.7665 85.9781 16.7611 85.1789 16.748C85.1559 16.7476 85.1329 16.7472 85.1092 16.7468C84.8323 16.7422 84.5554 16.7373 84.2786 16.7322C84.256 15.7 84.2382 14.6678 84.2245 13.6355C84.2225 13.4834 84.2204 13.3314 84.2184 13.1793C84.2135 12.8195 84.2087 12.4598 84.2039 12.1C84.1991 11.7339 84.1941 11.3678 84.1891 11.0017C84.1847 10.6824 84.1804 10.363 84.1762 10.0437C84.1737 9.85515 84.1712 9.66661 84.1686 9.47807C84.1553 8.51802 84.15 7.55843 84.1519 6.59827C83.64 6.59827 83.128 6.59827 82.6006 6.59827C82.6006 6.01486 82.6006 5.43145 82.6006 4.83036C83.1021 4.83036 83.6036 4.83036 84.1203 4.83036C84.115 4.63893 84.1098 4.4475 84.1044 4.25027C84.0883 3.59319 84.0859 2.93636 84.0866 2.27913C84.0867 2.24358 84.0867 2.24358 84.0867 2.20731C84.0871 1.91358 84.0878 1.61985 84.0886 1.32612C83.5976 1.32612 83.1065 1.32612 82.6006 1.32612C82.6006 0.909398 82.6006 0.492677 82.6006 0.0633278C83.8966 0.0386978 85.1926 0.0252865 86.4887 0.0145276C86.5521 0.0140005 86.6155 0.0134698 86.6788 0.012938C86.9237 0.0108852 87.1685 0.00886803 87.4133 0.0069064C87.4888 0.00630132 87.5642 0.00569061 87.6397 0.00507371C88.0601 0.00165953 88.4805 -0.000700079 88.9009 0.000188266Z" fill="white"/>
<path d="M84.8486 18.374C90.4905 18.374 96.1323 18.374 101.945 18.374C101.945 18.3949 101.945 18.4157 101.945 18.4372C101.923 18.4492 101.901 18.4612 101.879 18.4736C101.454 18.7071 101.031 18.9433 100.613 19.1884C100.388 19.3197 100.162 19.4475 99.9346 19.5737C99.6426 19.7357 99.3533 19.9019 99.0651 20.0706C98.8348 20.2051 98.6026 20.336 98.3695 20.4655C98.1319 20.5975 97.8958 20.731 97.662 20.8695C97.4519 20.9936 97.2399 21.1144 97.0279 21.235C96.9995 21.2512 96.9995 21.2512 96.9706 21.2676C96.8735 21.3228 96.7764 21.378 96.6793 21.4332C96.511 21.5289 96.3428 21.6248 96.1747 21.7206C96.0824 21.7732 95.9902 21.8257 95.898 21.8783C95.8611 21.8993 95.8241 21.9204 95.7872 21.9414C95.1223 22.3202 94.4575 22.6991 93.7926 23.0779C93.7743 23.0883 93.756 23.0988 93.7372 23.1095C93.7003 23.1305 93.6633 23.1516 93.6264 23.1726C93.5341 23.2252 93.4419 23.2778 93.3496 23.3303C93.1823 23.4257 93.0149 23.5211 92.8475 23.6162C92.406 23.8671 91.9658 24.1197 91.5273 24.3757C91.5002 24.3914 91.4731 24.407 91.4452 24.4231C91.3983 24.4507 91.3518 24.479 91.306 24.5084C91.1682 24.5949 91.1682 24.5949 91.0708 24.5867C90.981 24.5587 90.9414 24.5283 90.8753 24.4623C90.8536 24.441 90.8319 24.4196 90.8095 24.3976C90.7861 24.3739 90.7626 24.3502 90.7385 24.3258C90.7133 24.3008 90.688 24.2758 90.6621 24.2501C90.5774 24.166 90.4931 24.0814 90.4089 23.9969C90.3484 23.9366 90.2878 23.8764 90.2273 23.8162C90.0798 23.6694 89.9326 23.5223 89.7855 23.3751C89.6144 23.2037 89.4429 23.0328 89.2714 22.8618C88.9655 22.5568 88.66 22.2515 88.3546 21.9461C88.058 21.6495 87.7612 21.353 87.4641 21.0569C87.4366 21.0295 87.4366 21.0295 87.4086 21.0016C87.3812 20.9742 87.3812 20.9742 87.3533 20.9464C87.0154 20.6095 86.6777 20.2724 86.3401 19.9352C86.2205 19.8158 86.1009 19.6964 85.9813 19.5771C85.8356 19.4318 85.6901 19.2864 85.5447 19.1409C85.4705 19.0666 85.3962 18.9923 85.3217 18.9182C85.2413 18.8379 85.161 18.7575 85.0807 18.6771C85.057 18.6534 85.0332 18.6298 85.0087 18.6055C84.9874 18.584 84.9661 18.5626 84.9441 18.5405C84.9255 18.5219 84.907 18.5034 84.8878 18.4842C84.8486 18.4372 84.8486 18.4372 84.8486 18.374Z" fill="white"/>
<path d="M9.08594 18.374C14.7173 18.374 20.3487 18.374 26.1507 18.374C26.0974 18.4803 26.0649 18.5307 25.9846 18.6111C25.9633 18.6326 25.942 18.6541 25.92 18.6762C25.8965 18.6996 25.8731 18.7229 25.8489 18.747C25.824 18.772 25.7991 18.797 25.7734 18.8228C25.6897 18.9068 25.6058 18.9906 25.5218 19.0745C25.4618 19.1345 25.4019 19.1946 25.3419 19.2547C25.1789 19.4182 25.0156 19.5814 24.8523 19.7445C24.7504 19.8463 24.6485 19.9482 24.5466 20.05C24.2646 20.332 23.9826 20.6139 23.7003 20.8956C23.6822 20.9136 23.6642 20.9316 23.6456 20.9502C23.6184 20.9773 23.6184 20.9773 23.5907 21.0049C23.554 21.0415 23.5174 21.0782 23.4807 21.1148C23.4534 21.142 23.4534 21.142 23.4255 21.1698C23.1304 21.4643 22.8357 21.7593 22.5411 22.0545C22.2388 22.3574 21.9362 22.66 21.6332 22.9622C21.463 23.1319 21.293 23.3018 21.1234 23.4721C20.9791 23.617 20.8344 23.7616 20.6893 23.9058C20.6152 23.9794 20.5414 24.0532 20.4678 24.1273C20.3882 24.2075 20.308 24.2871 20.2276 24.3666C20.1927 24.4022 20.1927 24.4022 20.1571 24.4385C20.1247 24.4701 20.1247 24.4701 20.0917 24.5023C20.0733 24.5208 20.0548 24.5393 20.0358 24.5583C19.977 24.5933 19.977 24.5933 19.8956 24.5856C19.8066 24.558 19.7347 24.52 19.6543 24.4728C19.6223 24.4541 19.5902 24.4355 19.5572 24.4162C19.5227 24.3959 19.4882 24.3755 19.4526 24.3545C19.416 24.3331 19.3793 24.3117 19.3426 24.2904C19.2852 24.257 19.2278 24.2235 19.1704 24.19C18.9666 24.071 18.7615 23.9542 18.5563 23.8376C18.5191 23.8164 18.482 23.7953 18.4449 23.7742C18.3702 23.7317 18.2956 23.6892 18.2209 23.6467C18.0543 23.5519 17.8877 23.4569 17.7212 23.362C17.6288 23.3094 17.5365 23.2568 17.4442 23.2042C17.4073 23.1832 17.3703 23.1621 17.3334 23.1411C17.3151 23.1306 17.2968 23.1202 17.278 23.1095C15.3388 22.0045 15.3388 22.0045 15.2834 21.973C15.2465 21.9519 15.2095 21.9309 15.1726 21.9098C15.0803 21.8573 14.9881 21.8047 14.8958 21.7521C14.7285 21.6567 14.5611 21.5614 14.3937 21.4662C14.2998 21.4129 14.2059 21.3595 14.112 21.3061C14.0935 21.2956 14.0751 21.2851 14.056 21.2743C13.8 21.1286 13.5451 20.9812 13.2908 20.8325C13.0031 20.6643 12.7129 20.501 12.4215 20.3392C12.1626 20.1952 11.9066 20.0469 11.651 19.8973C11.4254 19.7655 11.1981 19.6373 10.9697 19.5105C10.6766 19.3479 10.3862 19.1813 10.0969 19.0121C9.76214 18.8165 9.42427 18.6265 9.08594 18.4372C9.08594 18.4163 9.08594 18.3955 9.08594 18.374Z" fill="white"/>
<path d="M27.7656 18.374C31.0462 18.374 34.3269 18.374 37.7069 18.374C37.6395 18.5085 37.5562 18.596 37.4508 18.7001C37.4309 18.72 37.4109 18.74 37.3904 18.7605C37.3233 18.8275 37.2561 18.8942 37.1888 18.9609C37.1407 19.0088 37.0927 19.0568 37.0447 19.1047C36.9141 19.2349 36.7834 19.3649 36.6526 19.4948C36.516 19.6306 36.3796 19.7666 36.2432 19.9026C35.9847 20.1601 35.7261 20.4174 35.4675 20.6747C35.173 20.9676 34.8788 21.2607 34.5845 21.5538C33.9792 22.1567 33.3736 22.7595 32.7679 23.362C32.6322 23.3097 32.5413 23.208 32.4409 23.1072C32.4109 23.0774 32.4109 23.0774 32.3803 23.047C32.3131 22.9803 32.2462 22.9134 32.1793 22.8464C32.1313 22.7986 32.0832 22.7508 32.0352 22.703C31.9046 22.5731 31.7742 22.443 31.6439 22.3129C31.5077 22.1769 31.3713 22.041 31.235 21.9052C31.0061 21.677 30.7773 21.4488 30.5486 21.2205C30.2839 20.9561 30.0189 20.692 29.7538 20.428C29.5265 20.2016 29.2993 19.9751 29.0722 19.7485C28.9364 19.613 28.8006 19.4776 28.6647 19.3423C28.537 19.2151 28.4095 19.0879 28.2821 18.9604C28.2352 18.9136 28.1882 18.8668 28.1412 18.82C28.0773 18.7565 28.0135 18.6927 27.9499 18.6289C27.931 18.6102 27.9121 18.5915 27.8926 18.5723C27.7656 18.4444 27.7656 18.4444 27.7656 18.374Z" fill="white"/>
<path d="M73.3564 18.374C76.5848 18.374 79.8132 18.374 83.1394 18.374C83.0725 18.5075 82.9904 18.5944 82.8858 18.6977C82.8661 18.7174 82.8464 18.7371 82.8261 18.7574C82.7599 18.8234 82.6935 18.8893 82.6271 18.9551C82.5797 19.0024 82.5323 19.0497 82.4849 19.097C82.356 19.2255 82.227 19.3538 82.0979 19.4821C81.9631 19.6161 81.8285 19.7503 81.6938 19.8845C81.4387 20.1387 81.1835 20.3927 80.9282 20.6466C80.6376 20.9357 80.3472 21.2249 80.0567 21.5142C79.4593 22.1093 78.8616 22.7042 78.2638 23.2989C78.1152 23.1751 77.9743 23.0464 77.8376 22.9098C77.8183 22.8906 77.7989 22.8714 77.779 22.8516C77.7149 22.7878 77.6509 22.724 77.5868 22.6601C77.5407 22.6141 77.4945 22.5682 77.4483 22.5222C77.3233 22.3978 77.1984 22.2734 77.0735 22.1489C76.9955 22.0711 76.9175 21.9934 76.8395 21.9157C76.5674 21.6447 76.2954 21.3736 76.0235 21.1024C75.7697 20.8494 75.5158 20.5965 75.2618 20.3438C75.0438 20.1268 74.8259 19.9096 74.608 19.6924C74.4779 19.5626 74.3477 19.4329 74.2174 19.3033C74.0951 19.1817 73.973 19.0599 73.851 18.938C73.806 18.8932 73.7611 18.8484 73.716 18.8037C73.6548 18.7429 73.5938 18.6819 73.5328 18.6209C73.5148 18.603 73.4967 18.5851 73.4781 18.5667C73.3564 18.4444 73.3564 18.4444 73.3564 18.374Z" fill="white"/>
<path d="M84.0576 28.791C84.145 28.8361 84.2037 28.8943 84.2733 28.9637C84.2882 28.9784 84.303 28.9931 84.3183 29.0082C84.368 29.0575 84.4174 29.1071 84.4668 29.1567C84.5023 29.1921 84.5379 29.2274 84.5735 29.2628C84.6701 29.3588 84.7664 29.4552 84.8627 29.5516C84.9634 29.6523 85.0643 29.7528 85.1652 29.8533C85.3345 30.0222 85.5036 30.1912 85.6727 30.3603C85.8683 30.556 86.0642 30.7515 86.2603 30.9468C86.4487 31.1345 86.6369 31.3224 86.8251 31.5103C86.9052 31.5904 86.9855 31.6705 87.0658 31.7505C87.1602 31.8446 87.2545 31.9388 87.3486 32.0332C87.3833 32.0679 87.418 32.1025 87.4527 32.1371C87.5 32.1841 87.5471 32.2314 87.5941 32.2787C87.6206 32.3051 87.647 32.3315 87.6743 32.3588C87.7303 32.4227 87.7303 32.4227 87.7303 32.4858C85.296 32.4858 82.8616 32.4858 80.3535 32.4858C80.4141 32.3651 80.4654 32.303 80.5594 32.2087C80.574 32.194 80.5886 32.1793 80.6036 32.1642C80.6524 32.115 80.7014 32.0661 80.7504 32.0172C80.7855 31.982 80.8205 31.9468 80.8556 31.9116C80.9507 31.816 81.0461 31.7206 81.1415 31.6253C81.2011 31.5658 81.2606 31.5063 81.3201 31.4467C81.5276 31.239 81.7353 31.0315 81.9432 30.8241C82.1371 30.6306 82.3307 30.4367 82.524 30.2426C82.6899 30.076 82.8561 29.9098 83.0226 29.7438C83.1221 29.6446 83.2214 29.5453 83.3204 29.4456C83.4135 29.352 83.5069 29.2588 83.6006 29.1658C83.635 29.1316 83.6692 29.0972 83.7034 29.0627C83.7498 29.0158 83.7967 28.9693 83.8438 28.9229C83.87 28.8968 83.8962 28.8706 83.9231 28.8436C83.9944 28.7922 83.9944 28.7922 84.0576 28.791Z" fill="white"/>
<path d="M26.9424 28.791C27.0298 28.8361 27.0884 28.8943 27.1581 28.9637C27.1729 28.9784 27.1878 28.9931 27.2031 29.0082C27.2528 29.0575 27.3021 29.1071 27.3515 29.1567C27.3871 29.1921 27.4227 29.2274 27.4583 29.2628C27.5549 29.3588 27.6512 29.4552 27.7475 29.5516C27.8481 29.6523 27.9491 29.7528 28.0499 29.8533C28.2193 30.0222 28.3884 30.1912 28.5574 30.3603C28.7531 30.556 28.949 30.7515 29.1451 30.9468C29.3335 31.1345 29.5217 31.3224 29.7098 31.5103C29.79 31.5904 29.8702 31.6705 29.9505 31.7505C30.045 31.8446 30.1392 31.9388 30.2334 32.0332C30.268 32.0679 30.3027 32.1025 30.3375 32.1371C30.3848 32.1841 30.4319 32.2314 30.4789 32.2787C30.5054 32.3051 30.5318 32.3315 30.5591 32.3588C30.6151 32.4227 30.6151 32.4227 30.6151 32.4858C28.1807 32.4858 25.7464 32.4858 23.2383 32.4858C23.2988 32.3651 23.3502 32.303 23.4442 32.2087C23.4588 32.194 23.4733 32.1793 23.4883 32.1642C23.5371 32.115 23.5862 32.0661 23.6352 32.0172C23.6703 31.982 23.7053 31.9468 23.7403 31.9116C23.8355 31.816 23.9309 31.7206 24.0263 31.6253C24.0858 31.5658 24.1454 31.5063 24.2049 31.4467C24.4124 31.239 24.6201 31.0315 24.8279 30.8241C25.0219 30.6306 25.2154 30.4367 25.4088 30.2426C25.5747 30.076 25.7409 29.9098 25.9074 29.7438C26.0068 29.6446 26.1062 29.5453 26.2052 29.4456C26.2982 29.352 26.3916 29.2588 26.4854 29.1658C26.5198 29.1316 26.554 29.0972 26.5881 29.0627C26.6346 29.0158 26.6815 28.9693 26.7286 28.9229C26.7547 28.8968 26.7809 28.8706 26.8079 28.8436C26.8792 28.7922 26.8792 28.7922 26.9424 28.791Z" fill="white"/>
</svg>
