<svg width="703" height="347" viewBox="0 0 703 347" fill="none" xmlns="http://www.w3.org/2000/svg">
<path opacity="0.15" d="M703 172.731C702.492 79.2136 626.427 2.9728 531.979 0.336914H531.522C530.575 0.336914 529.624 0.336914 528.668 0.336914H526.993H176.744H175.069C174.122 0.336914 173.171 0.336914 172.215 0.336914H171.758C77.3104 3.03526 1.24474 79.2636 0.724609 172.731V174.605C1.23205 268.148 77.3231 344.389 171.784 347H172.202H175.057H176.731H526.993H528.668H531.522H531.941C626.414 344.401 702.492 268.161 703 174.605V172.731ZM676.359 85.6972H636.994C624.704 61.8469 606.743 41.2751 584.639 25.7339H614.933C640.189 40.3696 661.32 61.0019 676.397 85.7471L676.359 85.6972ZM576.672 321.69H490.787C503.664 306.837 514.447 286.199 522.135 261.727H629.154C616.253 286.412 598.238 307.087 576.672 321.69ZM578.397 323.564C573.198 326.86 567.787 329.818 562.197 332.421C567.389 329.77 572.414 326.813 577.243 323.564H578.397ZM365.652 261.702H372.274C384.56 285.555 402.523 306.127 424.63 321.665H397.393C384.339 307.087 373.391 286.412 365.601 261.702H365.652ZM416.942 340.129C409.101 335.947 402.132 330.343 396.403 323.614H396.657C402.461 330.169 409.313 335.747 416.942 340.129ZM629.116 85.7471H522.122C514.434 61.2496 503.638 40.6123 490.775 25.7838H576.672C598.238 40.3125 616.265 61.0498 629.116 85.7471ZM562.147 15.0279C567.747 17.6327 573.171 20.5913 578.385 23.885H577.218C572.384 20.6291 567.351 17.6711 562.147 15.0279ZM439.016 321.69C413.768 307.065 392.638 286.451 377.552 261.727H510.349C503.029 286.437 492.703 307.112 480.41 321.69H439.016ZM478.812 323.564C475.235 327.672 471.234 331.402 466.874 334.695C458.417 331.621 450.218 327.899 442.352 323.564H478.812ZM376.435 259.853C368.739 246.873 362.819 232.948 358.827 218.441C358.827 211.512 358.852 204.462 358.903 197.291V196.28C358.903 193.069 358.903 189.846 358.903 186.598V174.68H522.388C522.3 205.699 518.113 234.781 510.895 259.853H376.435ZM480.461 25.7838C492.716 40.3125 503.093 61.0498 510.362 85.7471H377.501C392.585 61.0167 413.721 40.4014 438.978 25.7838H480.461ZM442.403 23.91C450.272 19.5723 458.476 15.8506 466.938 12.7793C471.299 16.0749 475.304 19.8049 478.888 23.91H442.403ZM510.971 87.621C518.189 112.693 522.388 141.775 522.388 172.781H358.928V160.876C358.928 157.628 358.928 154.405 358.928 151.195V150.245C358.928 143.075 358.903 136.025 358.852 129.096C362.84 114.589 368.756 100.664 376.448 87.6835L510.971 87.621ZM512.899 87.621H520.815C528.49 112.693 532.918 141.775 533.007 172.781H524.355C524.203 141.825 520.054 112.768 512.836 87.621H512.899ZM364.713 106.522C367.101 100.071 369.854 93.7562 372.959 87.6085H374.228C370.673 93.7188 367.496 100.035 364.713 106.522ZM358.776 118.452C358.776 116.866 358.776 115.267 358.776 113.693C358.776 113.293 358.776 112.893 358.776 112.443C358.776 111.994 358.776 111.356 358.776 110.807C360.349 102.737 362.227 94.979 364.358 87.5585H370.904C365.944 97.4885 361.886 107.831 358.776 118.465V118.452ZM358.662 102.125C358.662 100.338 358.662 98.5643 358.662 96.8029C358.662 96.2657 358.662 95.716 358.662 95.1789C358.662 92.9677 358.662 90.7816 358.599 88.6204C358.599 88.2831 358.599 87.9458 358.599 87.6085H362.404C361.043 92.3306 359.795 97.1735 358.662 102.137V102.125ZM358.561 256.118C358.561 255.606 358.561 255.094 358.561 254.569C358.561 252.558 358.561 250.534 358.624 248.498C358.624 247.81 358.624 247.111 358.624 246.424C358.624 246.049 358.624 245.674 358.624 245.299C359.757 250.296 360.996 255.135 362.341 259.816H358.535C358.535 258.604 358.548 257.38 358.561 256.13V256.118ZM358.738 234.881C358.738 234.481 358.738 234.081 358.738 233.632C358.738 232.782 358.738 231.92 358.738 231.058C358.738 230.196 358.738 229.334 358.738 228.46C361.921 239.262 366.095 249.757 371.209 259.816H364.98C362.582 251.883 360.489 243.526 358.738 234.843V234.881ZM366.921 245.899C369.153 250.671 371.589 255.327 374.228 259.866H373.378C371.052 255.31 368.9 250.642 366.921 245.862V245.899ZM524.228 174.693H532.88C532.791 205.711 528.351 234.793 520.676 259.866H512.747C520.029 234.694 524.203 205.636 524.291 174.655L524.228 174.693ZM534.783 174.693H650.251C650.234 204.227 643.343 233.364 630.106 259.866H522.667C530.33 234.694 534.808 205.636 534.808 174.655L534.783 174.693ZM534.783 172.819C534.694 141.863 530.279 112.856 522.629 87.6585H630.08C643.311 114.128 650.211 143.229 650.251 172.731L534.783 172.819ZM579.945 25.7589H581.277C603.313 40.3125 621.733 61.0498 634.85 85.7471H631.222C618.663 61.2496 601.004 40.6123 579.945 25.7589ZM520.168 85.7222H512.278C505.034 61.2122 494.847 40.5873 482.719 25.7589H488.377C501.431 40.3125 512.379 61.0498 520.168 85.7471V85.7222ZM481.146 23.885C477.463 19.5322 473.34 15.56 468.841 12.0298C469.729 11.7216 470.617 11.4218 471.505 11.1303C477.059 14.7477 482.135 19.0322 486.614 23.885H481.146ZM467.115 10.6931C465.847 9.73116 464.451 8.8567 463.106 8.01971C463.741 7.83233 464.375 7.63245 464.997 7.45756C466.506 8.18211 468.003 8.98162 469.488 9.8436L467.115 10.6931ZM465.035 11.4301C455.851 14.8509 446.977 19.0299 438.508 23.9225H429.247C439.059 17.5514 449.663 12.4502 460.798 8.74427C462.231 9.56876 463.639 10.4557 465.035 11.4301ZM435.337 25.7589C410.678 40.6362 390.083 61.2207 375.344 85.7222H373.923C386.774 61.0248 404.865 40.3374 426.406 25.7589H435.337ZM371.792 85.7222H364.815C372.147 61.0248 382.461 40.3374 394.741 25.7589H423.057C402.036 40.6123 384.377 61.2496 371.792 85.7471V85.7222ZM362.912 85.7222H358.472V85.6472C358.472 84.8727 358.472 84.1231 358.472 83.3611C358.472 81.9869 358.472 80.6253 358.472 79.2761C358.472 78.5765 358.472 77.8645 358.472 77.1649C358.472 75.3035 358.472 73.4172 358.408 71.6558C358.408 71.0936 358.408 70.5564 358.408 70.0068C358.408 68.3328 358.408 66.6713 358.345 65.0098C358.345 64.71 358.345 64.4102 358.345 64.1229C358.345 62.2116 358.281 60.3752 358.256 58.5138C358.256 58.0766 358.256 57.6393 358.256 57.2646C358.256 55.4032 358.193 53.5169 358.167 51.7679C357.977 40.9995 357.787 32.4922 357.596 25.7589H392.47C380.342 40.6123 370.181 61.2496 362.937 85.7471L362.912 85.7222ZM358.015 295.594C358.015 293.77 358.015 291.846 358.104 289.997C358.104 289.647 358.104 289.298 358.104 288.948C358.104 287.061 358.104 285.2 358.193 283.214V282.489C358.193 280.578 358.256 278.642 358.281 276.68V276.181C358.281 274.144 358.281 272.071 358.358 269.934V268.798C358.358 266.724 358.358 264.625 358.358 262.489C358.358 262.289 358.358 262.102 358.358 261.914V261.577H362.785C370.029 286.075 380.19 306.712 392.318 321.54H357.47C357.66 314.957 357.85 306.462 358.04 295.681L358.015 295.594ZM388.347 313.183C390.479 316.169 392.699 318.979 394.97 321.603H394.754C392.585 319.079 390.441 316.269 388.373 313.27L388.347 313.183ZM374.329 261.615H375.306C390.051 286.12 410.655 306.705 435.324 321.578H427.915C405.943 307.087 387.485 286.412 374.355 261.702L374.329 261.615ZM438.495 323.477C446.96 328.369 455.83 332.548 465.009 335.969C463.88 336.756 462.751 337.481 461.597 338.168C450.76 334.552 440.413 329.648 430.782 323.564L438.495 323.477ZM467.09 336.669C467.876 336.956 468.663 337.243 469.462 337.506C468.27 338.218 467.065 338.867 465.847 339.479L463.855 338.867C465.035 338.268 466.05 337.531 467.115 336.756L467.09 336.669ZM468.866 335.332C473.349 331.796 477.459 327.824 481.133 323.477H486.601C482.148 328.376 477.094 332.71 471.555 336.381C470.667 336.056 469.762 335.736 468.841 335.419L468.866 335.332ZM482.706 321.59C494.834 306.737 505.009 286.1 512.252 261.627H520.13C512.341 286.337 501.38 307.012 488.326 321.59H482.706ZM631.197 261.627H634.8C621.682 286.337 603.224 307.012 581.226 321.59H579.869C600.966 306.837 618.638 286.199 631.222 261.702L631.197 261.627ZM632.161 259.753C645.256 233.21 652.07 204.09 652.091 174.58H656.353C656.325 204.159 649.288 233.323 635.802 259.753H632.161ZM652.116 172.731C652.096 143.229 645.291 114.114 632.212 87.571H635.827C649.319 113.994 656.357 143.156 656.379 172.731H652.116ZM611.61 23.885H581.848C565.392 12.9365 546.765 5.54925 527.196 2.21077C556.753 2.21407 585.815 9.67619 611.61 23.885ZM573.792 23.885H489.138C484.585 18.8017 479.427 14.2762 473.775 10.4058C486.583 6.3481 499.828 3.77806 513.242 2.74794C534.882 4.78839 555.679 12.048 573.792 23.885ZM471.758 9.08156C470.388 8.23208 469.005 7.44506 467.61 6.70801C478.497 3.75656 489.733 2.24421 501.025 2.21077C491.086 3.66365 481.294 5.96252 471.758 9.08156ZM479.37 2.19827C474.551 3.02474 469.782 4.11324 465.085 5.45878C462.278 4.1335 459.363 3.04282 456.37 2.19827H479.37ZM462.409 6.27078L460.95 6.733C458.822 5.53993 456.614 4.49226 454.34 3.59742C457.098 4.27376 459.797 5.16777 462.409 6.27078ZM458.603 7.52002C446.996 11.5251 435.978 17.0236 425.835 23.8725H396.39C408.594 10.1309 422.651 2.19827 437.607 2.19827C444.936 2.25895 452.136 4.09066 458.578 7.53251L458.603 7.52002ZM424.883 2.21077C413.77 5.49626 403.317 12.9917 394.031 23.885H357.406C357.089 13.0291 356.746 7.17023 356.379 4.02216C356.379 4.02216 356.379 3.88474 356.379 3.82228C356.302 3.17268 356.226 2.648 356.137 2.22326L424.883 2.21077ZM355.655 216.517C356.053 218.266 356.476 220.003 356.924 221.726C356.924 222.389 356.924 223.076 356.924 223.738V224.8C356.467 222.068 356.044 219.307 355.655 216.517ZM356.823 236.63C356.823 237.629 356.823 238.616 356.823 239.59C356.823 240.215 356.823 240.84 356.823 241.427C356.823 242.351 356.823 243.263 356.823 244.175C356.823 244.825 356.823 245.424 356.823 246.099C356.823 247.098 356.823 248.098 356.823 249.085C356.823 249.559 356.823 250.034 356.823 250.509C356.823 251.945 356.823 253.37 356.823 254.769C356.823 255.206 356.823 255.618 356.823 256.018V258.954V259.791H353.41C353.258 244.962 353.144 228.435 353.08 210.483C353.867 219.503 355.186 228.222 356.823 236.63ZM352.839 174.655H357.025V184.762C357.025 187.51 357.025 190.246 357.025 192.944V193.756C357.025 196.542 357.025 199.303 357.025 202.014V202.563C357.025 205.311 357.025 208.022 357.025 210.696V210.933C354.319 199.022 352.916 186.86 352.839 174.655ZM352.839 172.781C352.898 160.595 354.28 148.45 356.962 136.554V136.778C356.962 139.468 356.962 142.183 356.962 144.923V145.461C356.962 148.184 356.962 150.945 356.962 153.718V154.543C356.962 157.241 356.962 159.964 356.962 162.725V172.731L352.839 172.781ZM352.839 136.928C352.839 118.977 353.017 102.449 353.169 87.621H356.582V88.3705V91.5936C356.582 91.9434 356.582 92.2806 356.582 92.6304C356.582 94.0712 356.582 95.5203 356.582 96.9778V98.227C356.582 99.2764 356.582 100.338 356.582 101.4C356.582 102.012 356.582 102.649 356.582 103.211C356.582 104.173 356.582 105.135 356.582 106.11C356.582 106.672 356.582 107.246 356.582 107.821C356.582 108.808 356.582 109.82 356.582 110.819C355.186 119.227 353.867 127.946 352.89 136.928H352.839ZM356.835 121.213C356.835 121.575 356.835 121.938 356.835 122.312V123.711C356.835 124.236 356.835 124.761 356.835 125.285C356.302 127.409 355.795 129.558 355.326 131.707C355.846 128.171 356.34 124.661 356.886 121.213H356.835ZM354.932 9.6687V9.81861C354.932 10.1434 354.932 10.4682 354.932 10.793C354.932 11.1178 354.932 11.0429 354.932 11.1803C354.932 11.58 354.932 11.9923 354.932 12.4295V12.6169C354.932 13.6413 355.021 14.7281 355.072 15.8899V16.1023C355.072 16.6145 355.072 17.1266 355.072 17.6513V18.0136C355.072 18.5133 355.072 19.013 355.135 19.5252C355.135 19.6626 355.135 19.8125 355.135 19.9499C355.135 20.4621 355.135 20.9868 355.135 21.5115V21.9612C355.135 22.4734 355.135 22.998 355.135 23.5227V23.8975H354.006C354.539 18.0261 354.729 13.254 354.932 9.6687ZM355.541 25.7589V25.9712C355.541 27.6202 355.63 29.3567 355.681 31.1556C355.681 31.3929 355.681 31.6303 355.681 31.8676C355.681 32.5672 355.681 33.2668 355.681 33.9788V34.7658C355.681 35.6903 355.681 36.6272 355.757 37.5891C355.757 38.5635 355.757 39.5629 355.82 40.5623C355.82 40.8496 355.82 41.1245 355.82 41.4118C355.82 42.2238 355.82 43.0483 355.82 43.9103V44.6348C355.82 46.7835 355.909 49.0071 355.947 51.3057C355.947 51.6055 355.947 51.8929 355.947 52.1927C355.947 53.0255 355.947 53.8875 355.947 54.7786C355.947 55.1409 355.947 55.5032 355.947 55.8654C355.947 58.214 355.985 60.6375 356.061 63.136V64.0479V67.1086C356.061 67.4084 356.061 67.6957 356.061 67.9955C356.061 70.6272 356.099 73.3256 356.176 76.0906V76.99C356.176 78.1643 356.176 79.3386 356.176 80.5378V81.2999C356.176 82.749 356.176 84.2106 356.176 85.6972H352.814C353.08 60.3877 353.448 40.0376 353.879 25.7339L355.541 25.7589ZM353.74 2.21077C353.27 4.70924 352.852 10.4682 352.471 23.885H351.329C350.924 10.4682 350.505 4.69675 350.061 2.21077H353.74ZM351.875 298.792C352.04 308.111 352.217 315.619 352.382 321.69H351.355C351.532 315.619 351.697 308.111 351.875 298.792ZM351.355 25.7589H352.382C352.217 31.8301 352.04 39.338 351.875 48.6573C351.697 39.338 351.532 31.8301 351.355 25.7589ZM350.86 210.508C350.797 228.485 350.682 244.987 350.53 259.828H347.13C347.054 252.491 346.987 244.758 346.927 236.63C348.551 228.222 349.883 219.49 350.86 210.508ZM346.851 224.8C346.851 223.925 346.851 223.063 346.851 222.189C347.232 220.677 347.6 219.166 347.942 217.654C347.596 220.052 347.228 222.434 346.839 224.8H346.851ZM346.788 210.933C346.788 199.423 346.788 187.347 346.788 174.705H350.86C350.86 175.88 350.86 177.041 350.86 178.191C350.575 189.209 349.207 200.174 346.775 210.933H346.788ZM346.788 172.781C346.788 160.131 346.788 148.055 346.788 136.554C349.216 147.317 350.58 158.286 350.86 169.309C350.86 170.458 350.86 171.62 350.86 172.781H346.788ZM347.993 129.795C347.651 128.271 347.283 126.772 346.902 125.26C346.902 124.386 346.902 123.524 346.902 122.65C347.249 125.015 347.587 127.397 347.917 129.795H347.993ZM346.991 110.819C347.042 102.699 347.109 94.9665 347.194 87.621H350.594C350.746 102.462 350.86 118.964 350.923 136.941C349.883 127.959 348.551 119.227 346.915 110.819H346.991ZM348.894 9.63123C349.084 13.229 349.274 18.0011 349.452 23.86H348.323C348.437 18.0261 348.627 13.254 348.818 9.65621L348.894 9.63123ZM349.515 25.7339C349.934 40.0626 350.302 60.4127 350.568 85.6972H347.206V85.5598C347.206 80.9001 347.308 76.4029 347.371 72.093V71.9181C347.612 52.9297 347.93 37.3393 348.272 25.6964L349.515 25.7339ZM347.625 2.21077C347.562 2.51058 347.511 2.84788 347.46 3.24763C347.46 3.44751 347.46 3.64739 347.384 3.87225V4.08462C347.384 4.30948 347.359 4.54684 347.308 4.79668C347.245 5.32136 347.194 5.921 347.143 6.58309C347.143 6.8954 347.143 7.24519 347.067 7.59497V7.83233C347.067 8.19461 347.067 8.58187 346.991 8.96913C346.991 9.80612 346.889 10.7056 346.839 11.705V11.8049C346.839 12.2921 346.839 12.8043 346.762 13.329V13.4664C346.762 13.9994 346.737 14.549 346.686 15.1154V15.3277C346.686 15.9149 346.686 16.5145 346.61 17.1516C346.61 17.7638 346.61 18.4009 346.534 19.0505V19.2753C346.534 19.9249 346.534 20.612 346.458 21.3116V21.5739C346.458 22.286 346.458 23.0105 346.395 23.7601V23.8725H309.706C300.382 12.9917 289.967 5.49626 278.867 2.21077H347.625ZM306.345 321.69H280.643C301.702 306.837 319.361 286.199 331.945 261.727H338.174C330.359 286.412 319.399 307.087 306.345 321.69ZM307.347 323.564C301.617 330.306 294.649 335.925 286.808 340.129C294.442 335.749 301.299 330.171 307.106 323.614L307.347 323.564ZM74.621 261.702H181.641C189.252 286.199 200.099 306.837 212.963 321.665H127.116C105.562 307.087 87.4719 286.412 74.621 261.702ZM141.54 332.421C135.945 329.814 130.525 326.855 125.314 323.564H126.482C131.313 326.815 136.342 329.773 141.54 332.421ZM127.103 25.7589H212.963C200.099 40.6123 189.316 61.2496 181.641 85.7222H74.621C87.4719 61.0498 105.562 40.3125 127.103 25.7589ZM125.365 23.885C130.559 20.5958 135.962 17.6374 141.54 15.0279C136.337 17.6739 131.304 20.6318 126.469 23.885H125.365ZM338.174 85.7471H331.983C319.411 61.2496 301.752 40.6123 280.681 25.7838H306.383C319.399 40.3125 330.359 61.0498 338.174 85.7471ZM286.808 7.37011C294.645 11.559 301.612 17.1612 307.347 23.885H307.08C301.281 17.3302 294.433 11.7518 286.808 7.37011ZM223.302 321.69C211.022 307.087 200.708 286.412 193.375 261.727H326.198C311.117 286.46 289.981 307.076 264.722 321.69H223.302ZM261.36 323.564C253.488 327.901 245.285 331.626 236.825 334.707C232.471 331.403 228.471 327.669 224.887 323.564H261.36ZM192.855 259.853C185.637 234.781 181.438 205.699 181.438 174.68H344.809V184.537C344.809 185.536 344.809 186.51 344.809 187.497C344.809 190.179 344.809 192.844 344.809 195.492V197.541C344.809 204.574 344.809 211.508 344.885 218.304V218.441C340.907 232.949 334.995 246.874 327.302 259.853H192.855ZM264.734 25.7589C289.985 40.3837 311.119 60.9973 326.211 85.7222H193.375C200.708 61.0248 211.022 40.3374 223.302 25.7589H264.734ZM224.925 23.885C228.509 19.7798 232.509 16.046 236.863 12.7418C245.326 15.8251 253.533 19.5506 261.411 23.885H224.925ZM327.327 87.596C335.02 100.575 340.933 114.5 344.91 129.008C344.91 135.862 344.885 142.841 344.834 149.945V151.732C344.834 154.443 344.834 157.178 344.834 159.914C344.834 160.901 344.834 161.876 344.834 162.862V172.731H181.362C181.438 141.725 185.611 112.643 192.779 87.571L327.327 87.596ZM336.601 101.025L336.487 100.8L336.373 100.563C336.208 100.213 336.043 99.8635 335.865 99.5137C335.523 98.7892 335.18 98.0771 334.825 97.365C334.647 97.0402 334.482 96.7029 334.317 96.3657L333.747 95.2413C333.632 95.029 333.518 94.8291 333.417 94.6167L333.201 94.217L332.694 93.2551L331.514 91.0814C331.349 90.7816 331.171 90.4818 331.006 90.1694C330.841 89.8571 330.651 89.5198 330.461 89.195C330.271 88.8702 330.22 88.7828 330.093 88.5704L329.75 87.9833L329.535 87.596H330.359C332.618 91.9808 334.685 96.5281 336.601 101.05V101.025ZM332.909 87.596H338.72C341.155 95.5412 343.261 103.836 344.999 112.581C344.999 114.505 344.999 116.441 344.999 118.402C341.897 107.811 337.851 97.511 332.909 87.621V87.596ZM179.459 172.731H170.807C170.883 141.725 175.323 112.643 182.985 87.571H190.914C183.696 112.768 179.598 141.825 179.459 172.731ZM168.904 172.731H53.5367C53.5546 143.22 60.4373 114.106 73.6568 87.621H181.057C173.395 112.768 168.98 141.825 168.904 172.731ZM168.904 174.605C168.98 205.574 173.395 234.644 181.057 259.778H73.6568C60.4283 233.274 53.5454 204.137 53.5367 174.605H168.904ZM170.807 174.605H179.459C179.535 205.574 183.696 234.644 190.876 259.778H182.947C175.323 234.756 170.883 205.674 170.807 174.655V174.605ZM329.75 259.403L330.093 258.804C330.22 258.591 330.347 258.391 330.461 258.179C330.575 257.967 330.829 257.517 331.006 257.192C331.184 256.867 331.336 256.593 331.501 256.293C331.907 255.568 332.3 254.844 332.694 254.119C332.859 253.807 333.023 253.482 333.201 253.17C333.379 252.857 333.341 252.895 333.417 252.757C333.493 252.62 333.632 252.333 333.747 252.12C333.861 251.908 334.127 251.371 334.317 250.996L334.812 250.009L335.878 247.848L336.373 246.811L336.487 246.574L336.601 246.349C334.69 250.929 332.609 255.406 330.359 259.778H329.535L329.75 259.403ZM344.974 228.972C344.974 230.921 344.974 232.87 344.974 234.793C343.236 243.476 341.168 251.833 338.694 259.778H332.884C337.82 249.896 341.862 239.604 344.961 229.022L344.974 228.972ZM345.088 245.212C345.088 250.209 345.177 255.006 345.227 259.728H341.422C342.724 255.089 343.942 250.284 345.075 245.312L345.088 245.212ZM345.088 102.025C343.963 97.0277 342.724 92.1932 341.371 87.5211H345.177C345.164 92.3431 345.126 97.1777 345.075 102.125L345.088 102.025ZM340.825 85.6472C333.582 61.1497 323.42 40.5123 311.292 25.6839H346.28V25.8588C346.28 26.5958 346.28 27.3579 346.217 28.1324V28.5571C346.217 30.1812 346.128 31.9051 346.09 33.7165C346.09 33.9039 346.09 34.0913 346.09 34.2911C346.09 35.1656 346.09 36.0775 346.09 37.002V37.4767C346.09 39.4255 346.014 41.4742 345.963 43.6229V44.3475C345.963 45.3843 345.963 46.4462 345.9 47.5205V48.1452C345.9 49.3069 345.9 50.4812 345.836 51.693C345.836 53.4544 345.836 55.2533 345.748 57.0772C345.748 57.6144 345.748 58.1515 345.748 58.6887C345.748 60.4002 345.748 62.1366 345.671 63.9105C345.671 64.5601 345.671 65.1597 345.671 65.8843C345.671 67.0461 345.671 68.2329 345.671 69.4196V72.1055C345.671 73.6795 345.671 75.2536 345.608 76.8526V80.0257C345.608 80.9126 345.608 81.8245 345.608 82.724V85.6722L340.825 85.6472ZM315.339 34.1787C313.199 31.1889 310.988 28.3823 308.704 25.7589H308.996C311.178 28.3739 313.292 31.1805 315.339 34.1787ZM329.294 85.7471H328.342L327.835 84.9351L327.378 84.1731L326.858 83.3111L326.452 82.699L325.957 81.8995L325.513 81.2124C325.019 80.4254 324.511 79.6634 323.991 78.8888L323.598 78.2892L323.103 77.5647L322.684 76.9525L321.961 75.9032L321.619 75.4035L319.843 72.905C319.754 72.7926 319.678 72.6676 319.589 72.5427L319.145 71.9306C318.993 71.7307 318.84 71.5433 318.701 71.3435L317.648 69.9443L317.496 69.7569C316.785 68.8325 316.075 67.9081 315.352 66.9961C315.212 66.8337 315.085 66.6588 314.958 66.4964L314.502 65.9343C313.233 64.3352 311.965 62.7737 310.556 61.2247L310.087 60.7C308.742 59.1509 307.368 57.6269 305.964 56.1278L305.495 55.6406C304.074 54.1415 302.64 52.6549 301.169 51.2058L300.699 50.7561C299.279 49.3236 297.815 47.9245 296.31 46.5586L295.841 46.1464C294.293 44.7472 292.733 43.3731 291.134 42.0239L290.677 41.6491C289.062 40.3 287.43 38.9799 285.781 37.6891L285.349 37.3518C283.675 36.1025 281.975 34.7908 280.275 33.6041L279.869 33.3167L279.526 33.0794C278.562 32.4048 277.611 31.7302 276.634 31.0681L276.545 31.0056L274.591 29.6939L274.211 29.4566C274.046 29.3317 273.868 29.2192 273.691 29.1068L273.539 29.0194C272.6 28.4072 271.648 27.7701 270.697 27.208L270.494 27.083L268.743 25.9962L268.528 25.8713H275.885C297.794 40.3125 316.265 61.0498 329.383 85.7471H329.294ZM265.267 23.885L264.519 23.4603L264.24 23.2979L262.654 22.4109L262.349 22.236L261.398 21.7238L261.093 21.5614C260.155 21.0492 259.203 20.5495 258.252 20.0623L257.922 19.8874L256.501 19.1629L256.222 19.0754L255.055 18.5008L254.7 18.3259L251.82 16.9517L251.465 16.7893L250.196 16.2022L249.955 16.1023C249.486 15.8774 249.004 15.6775 248.534 15.4652L248.166 15.3028L245.211 14.0535L244.868 13.9161L243.752 13.4414L243.561 13.3664L241.861 12.6919L241.519 12.5669C240.58 12.1922 239.641 11.8424 238.703 11.4801C239.819 10.7056 240.961 9.98101 242.115 9.29393C252.945 12.9273 263.284 17.8482 272.904 23.9475L265.267 23.885ZM236.685 10.6681L235.074 10.1059L234.795 10.006L234.313 9.8436C235.417 9.08156 236.685 8.48193 237.878 7.83233L239.857 8.44445C238.779 9.1815 237.713 9.90606 236.685 10.6681ZM234.871 12.0298C230.388 15.5655 226.278 19.5374 222.604 23.885H217.124C221.604 19.0351 226.675 14.7471 232.22 11.1178L234.871 12.0298ZM221.031 25.7713C208.903 40.6248 198.741 61.2621 191.498 85.7347H183.607C191.396 61.0373 202.357 40.3499 215.398 25.7713H221.031ZM72.5278 85.7347H68.8869C82.0042 61.0498 100.475 40.3125 122.511 25.7589H123.779C102.733 40.6123 85.0743 61.2496 72.4897 85.7471L72.5278 85.7347ZM71.5763 87.6085C58.4776 114.133 51.659 143.237 51.6338 172.731H47.3586C47.4118 143.17 54.466 114.028 67.9608 87.621L71.5763 87.6085ZM51.6338 174.655C51.6404 204.163 58.446 233.285 71.5382 259.828H67.9608C54.4744 233.398 47.4374 204.234 47.4093 174.655H51.6338ZM72.5024 261.702C85.0743 286.199 102.733 306.837 123.805 321.665H122.511C100.513 307.062 82.055 286.387 68.9249 261.702H72.5024ZM183.569 261.702H191.46C198.703 286.199 208.865 306.837 220.993 321.665H215.36C202.319 307.087 191.358 286.412 183.569 261.702ZM222.566 323.564C226.24 327.912 230.35 331.884 234.833 335.419L232.182 336.331C226.637 332.702 221.566 328.414 217.086 323.564H222.566ZM234.783 337.431H234.986L236.647 336.843C237.713 337.605 238.779 338.33 239.857 339.017L237.878 339.629C236.609 339.017 235.468 338.38 234.275 337.668L234.783 337.431ZM238.715 336.019L241.557 334.945L241.823 334.832L243.574 334.145L243.777 334.07L244.906 333.583L245.172 333.471C246.2 333.046 247.215 332.621 248.217 332.221L248.496 332.109L249.968 331.447L250.209 331.347L251.477 330.747L251.744 330.622C252.746 330.148 253.736 329.685 254.725 329.198L254.979 329.073L256.247 328.474L256.526 328.336L257.985 327.587L258.239 327.462L261.17 325.913L261.385 325.788L262.362 325.263L262.679 325.088L264.303 324.176L264.506 324.064L265.293 323.614H272.904C263.29 329.716 252.955 334.637 242.128 338.268C240.973 337.531 239.832 336.806 238.715 336.019ZM268.401 321.69L268.616 321.565C269.225 321.203 269.821 320.816 270.418 320.454L270.545 320.379L273.462 318.517H273.539L274.084 318.167C274.21 318.077 274.342 317.994 274.477 317.918C276.253 316.727 278.012 315.515 279.755 314.282L280.161 313.995C281.886 312.746 283.586 311.496 285.235 310.247L285.666 309.91C287.328 308.661 288.952 307.299 290.563 305.95L291.02 305.575C292.606 304.238 294.179 302.852 295.726 301.453L296.196 301.04C297.718 299.641 299.224 298.217 300.712 296.768L301.181 296.306C302.653 294.869 304.087 293.383 305.507 291.884L305.977 291.396C307.385 289.897 308.755 288.373 310.112 286.824L310.569 286.299C311.914 284.75 313.221 283.176 314.514 281.59L314.971 281.028C315.834 279.953 316.671 278.854 317.508 277.767L317.623 277.605C317.978 277.13 318.346 276.655 318.701 276.168L319.145 275.593C319.297 275.381 319.437 275.169 319.589 274.969L319.817 274.657C320.426 273.82 321.086 272.97 321.619 272.158L321.936 271.696C322.19 271.334 322.443 270.984 322.684 270.622L323.103 270.009L323.598 269.272L323.978 268.698C324.498 267.923 325.006 267.149 325.513 266.362C325.666 266.137 325.805 265.912 325.945 265.687L326.452 264.875C326.592 264.675 326.719 264.463 326.858 264.25C326.998 264.038 327.201 263.688 327.378 263.401L327.835 262.651L328.33 261.827H329.294C316.176 286.537 297.705 307.212 275.721 321.79L268.401 321.69ZM315.339 313.27C313.259 316.269 311.127 319.079 308.92 321.69H308.704C311.013 319.067 313.225 316.26 315.339 313.27ZM340.711 261.702H345.139V264.638C345.139 265.55 345.139 266.462 345.139 267.361V270.522C345.139 272.121 345.139 273.707 345.202 275.269V277.942C345.202 279.191 345.202 280.328 345.202 281.502C345.202 282.152 345.202 282.814 345.202 283.464C345.202 285.238 345.202 286.974 345.278 288.685C345.278 289.223 345.278 289.76 345.278 290.297C345.278 292.121 345.342 293.92 345.367 295.681C345.367 296.93 345.367 298.067 345.43 299.217C345.43 299.429 345.43 299.641 345.43 299.854C345.43 300.928 345.43 301.99 345.494 303.014C345.494 303.264 345.494 303.514 345.494 303.764C345.494 305.9 345.583 307.936 345.621 309.872V310.372C345.621 311.334 345.621 312.259 345.621 313.17V313.558C345.621 315.444 345.71 317.218 345.748 318.904V319.192C345.748 320.004 345.748 320.803 345.811 321.565V321.69H311.28C323.395 306.837 333.569 286.199 340.8 261.702H340.711ZM304.632 23.885H277.915C267.778 17.0332 256.764 11.5345 245.16 7.53251C250.849 4.51116 257.13 2.72627 263.58 2.29821C278.435 3.1352 292.403 10.8805 304.632 23.885ZM242.787 6.733L241.341 6.28328C243.938 5.17021 246.624 4.27182 249.372 3.59742C247.107 4.49331 244.907 5.54096 242.787 6.733ZM247.354 2.21077C244.356 3.04967 241.436 4.14051 238.626 5.47127C233.931 4.11985 229.162 3.03127 224.342 2.21077H247.354ZM235.315 7.20771C234.199 7.81983 233.095 8.45695 232.004 9.14402L231.611 8.93165L231.383 8.8567L230.583 8.60685H230.469C229.67 8.34451 228.871 8.10716 228.072 7.8698L227.805 7.83233C226.663 7.49503 225.522 7.15774 224.367 6.84543L223.72 6.58309H223.644C221.386 5.95847 219.103 5.33386 216.819 4.85915C214.51 4.33447 212.184 3.85143 209.842 3.41003C207.622 2.98529 205.364 2.61052 203.105 2.27323C214.004 2.59797 224.821 4.23412 235.315 7.14525V7.20771ZM190.483 2.74794C203.9 3.77925 217.15 6.34924 229.962 10.4058C224.327 14.2822 219.182 18.8073 214.637 23.885H129.945C148.057 12.0537 168.848 4.79443 190.483 2.74794ZM176.528 2.21077C156.964 5.55094 138.342 12.9381 121.889 23.885H92.1277C117.927 9.67568 146.993 2.2136 176.554 2.21077H176.528ZM88.804 25.7589H119.111C97.0042 41.2968 79.0417 61.8694 66.7556 85.7222H27.3654C42.4417 60.9982 63.5632 40.384 88.804 25.7589ZM26.1982 87.621H65.7788C52.4482 114.091 45.502 143.235 45.4811 172.781H2.62752C2.76224 142.85 10.8912 113.48 26.1982 87.621ZM2.62752 174.655H45.4557C45.4751 204.206 52.4213 233.354 65.7534 259.828H26.2109C10.8929 233.968 2.7591 204.593 2.62752 174.655ZM27.3654 261.702H66.7556C79.0417 285.555 97.0042 306.127 119.111 321.665H88.804C63.5632 307.04 42.4417 286.426 27.3654 261.702ZM92.1531 323.564H121.889C138.349 334.514 156.981 341.902 176.554 345.238C146.993 345.236 117.927 337.773 92.1277 323.564H92.1531ZM129.97 323.564H214.662C219.208 328.642 224.352 333.167 229.987 337.043C217.175 341.1 203.926 343.67 190.508 344.701C168.864 342.659 148.064 335.399 129.945 323.564H129.97ZM209.804 344.052C212.138 343.619 214.459 343.135 216.768 342.602C219.052 342.065 221.335 341.503 223.593 340.879H223.67C225.065 340.491 226.448 340.091 227.831 339.629H227.894L230.355 338.867H230.469L231.294 338.605H231.433L231.954 338.443C233.045 339.117 234.148 339.767 235.265 340.379C224.751 343.301 213.911 344.938 202.991 345.251C205.283 344.876 207.546 344.476 209.778 344.052H209.804ZM224.367 345.238C229.186 344.412 233.955 343.323 238.652 341.978C241.463 343.303 244.383 344.394 247.38 345.238H224.367ZM241.367 341.166L242.813 340.716C244.923 341.916 247.115 342.972 249.372 343.877C246.623 343.194 243.937 342.287 241.341 341.166H241.367ZM245.172 339.917C256.777 335.915 267.791 330.416 277.928 323.564H304.645C292.415 336.569 278.448 344.314 263.593 345.151C257.14 344.718 250.855 342.934 245.16 339.917H245.172ZM278.879 345.238C289.98 341.953 300.446 334.445 309.719 323.564H346.344V323.639C346.344 324.426 346.344 325.176 346.42 325.9V326.088C346.42 326.825 346.42 327.537 346.496 328.211V328.311C346.496 329.723 346.598 331.035 346.648 332.234C346.648 332.846 346.648 333.483 346.724 333.97C346.724 334.532 346.724 335.07 346.801 335.569C346.801 336.594 346.915 337.531 346.965 338.38C346.965 338.792 346.965 339.18 347.042 339.554V339.617C347.042 339.992 347.042 340.341 347.13 340.679C347.13 341.353 347.232 341.928 347.295 342.503C347.295 342.765 347.295 343.002 347.371 343.227V343.302C347.371 343.527 347.371 343.727 347.448 343.927C347.448 344.326 347.549 344.676 347.612 344.976L278.879 345.238ZM348.83 337.743C348.64 334.145 348.45 329.373 348.259 323.514H349.388C349.198 329.423 349.008 334.195 348.818 337.793L348.83 337.743ZM348.209 321.64C347.917 311.809 347.651 299.154 347.422 283.963V283.913C347.422 281.178 347.346 278.342 347.308 275.444C347.245 271.134 347.194 266.636 347.143 261.977V261.739H350.505C350.238 287.049 349.871 307.399 349.452 321.703L348.209 321.64ZM350.01 345.188C350.492 342.69 350.911 336.931 351.279 323.514H352.42C352.826 336.931 353.245 342.702 353.689 345.188H350.01ZM355.478 323.889C355.478 324.401 355.478 324.913 355.478 325.425V325.963C355.478 326.475 355.478 326.987 355.478 327.499V327.874C355.478 328.386 355.478 328.886 355.414 329.373V329.785C355.414 330.285 355.414 330.772 355.414 331.259V331.547C355.414 332.696 355.326 333.783 355.275 334.795V335.132C355.275 335.544 355.275 335.944 355.275 336.381C355.275 336.519 355.275 336.644 355.275 336.769C355.275 337.106 355.275 337.418 355.275 337.73V337.893C355.072 334.308 354.882 329.535 354.704 323.677H355.833L355.478 323.889ZM355.985 303.439C355.985 304.313 355.985 305.163 355.985 306.012C355.985 306.262 355.985 306.525 355.985 306.762C355.985 308.811 355.896 310.784 355.846 312.671C355.846 312.921 355.846 313.158 355.846 313.395C355.846 314.132 355.846 314.869 355.846 315.582C355.846 315.794 355.846 316.019 355.846 316.231C355.846 318.055 355.757 319.804 355.706 321.465V321.653H354.438C354.006 307.324 353.638 286.987 353.372 261.689H356.734C356.734 263.151 356.734 264.575 356.734 265.999V266.961C356.734 268.148 356.734 269.322 356.734 270.484V271.234C356.734 274.049 356.696 276.784 356.62 279.441V280.166C356.62 281.265 356.62 282.339 356.62 283.414V284.226C356.62 286.724 356.543 289.223 356.505 291.584C356.505 291.921 356.505 292.233 356.505 292.558V295.306V296.056C356.505 298.38 356.417 300.641 356.366 302.827C355.998 303.052 355.998 303.264 355.935 303.476L355.985 303.439ZM356.112 345.201C356.112 345.051 356.176 344.889 356.201 344.726C356.632 342.015 357.026 336.144 357.47 323.489H393.993C403.317 334.37 413.745 341.878 424.845 345.163L356.112 345.201ZM399.067 323.564H427.357C437.333 330.159 448.107 335.501 459.427 339.467C453.511 342.74 446.928 344.673 440.157 345.126C425.302 344.301 411.335 336.569 399.067 323.564ZM461.698 340.241L463.309 340.754C460.411 342.058 457.395 343.095 454.302 343.852C456.869 342.835 459.354 341.628 461.736 340.241H461.698ZM456.345 345.238C459.65 344.309 462.861 343.08 465.935 341.566C471.209 343.106 476.573 344.332 481.996 345.238H456.345ZM468.371 340.241C469.5 339.629 470.617 338.992 471.72 338.305C481.172 341.389 490.874 343.671 500.721 345.126C489.789 344.829 478.937 343.205 468.409 340.291L468.371 340.241ZM513.242 344.701C499.828 343.671 486.583 341.101 473.775 337.043C479.424 333.17 484.582 328.645 489.138 323.564H573.843C555.712 335.403 534.898 342.663 513.242 344.701ZM527.196 345.238C546.769 341.902 565.401 334.514 581.861 323.564H611.622C585.823 337.773 556.757 345.236 527.196 345.238ZM614.946 321.69H584.626C606.733 306.152 624.696 285.58 636.982 261.727H676.397C661.317 286.457 640.186 307.072 614.933 321.69H614.946ZM677.552 259.828H637.971C651.303 233.354 658.249 204.206 658.269 174.655H701.097C700.974 204.59 692.849 233.966 677.539 259.828H677.552ZM658.282 172.731C658.255 143.185 651.309 114.044 637.984 87.571H677.552C692.86 113.429 700.985 142.8 701.11 172.731H658.282Z" fill="#872BFF"/>
</svg>
