<svg width="134" height="72" viewBox="0 0 134 72" fill="none" xmlns="http://www.w3.org/2000/svg">
<path d="M28.1736 37.3343C32.4065 37.3343 35.838 34.2317 35.838 30.4044C35.838 26.5772 32.4065 23.4746 28.1736 23.4746C23.9407 23.4746 20.5093 26.5772 20.5093 30.4044C20.5093 34.2317 23.9407 37.3343 28.1736 37.3343Z" stroke="#CAC8C8" stroke-width="2" stroke-linecap="round" stroke-linejoin="round"/>
<path d="M33.0508 36.0742C35.6621 37.5172 39.9763 41.2149 39.9685 48.1804" stroke="#CAC8C8" stroke-width="2" stroke-linecap="round" stroke-linejoin="round"/>
<path d="M39.699 48.4347C34.9598 51.9821 21.7873 51.4081 16.8771 49.2102C15.1544 48.4391 17.3587 38.4993 23.24 36.0742" stroke="#CAC8C8" stroke-width="2" stroke-linecap="round" stroke-linejoin="round"/>
<path d="M55.3469 24.4199H94.9616" stroke="#CAC8C8" stroke-width="2" stroke-linecap="round" stroke-linejoin="round"/>
<path d="M55.3469 35.7598H114.92" stroke="#CAC8C8" stroke-width="2" stroke-linecap="round" stroke-linejoin="round"/>
<path d="M55.3469 47.0996H81.4754" stroke="#CAC8C8" stroke-width="2" stroke-linecap="round" stroke-linejoin="round"/>
<path d="M129.625 8.35547H4.0625C2.37113 8.35547 1 9.59519 1 11.1245V60.3952C1 61.9245 2.37113 63.1642 4.0625 63.1642H129.625C131.316 63.1642 132.688 61.9245 132.688 60.3952V11.1245C132.688 9.59519 131.316 8.35547 129.625 8.35547Z" stroke="#CAC8C8" stroke-width="2" stroke-linecap="round" stroke-linejoin="round"/>
<path d="M9.36084 7.99152V3.19074C9.36084 2.14694 10.2967 1.30078 11.4511 1.30078H122.236C123.39 1.30078 124.326 2.14694 124.326 3.19074V8.13372M124.326 63.8844V68.3283C124.326 69.3721 123.39 70.2182 122.236 70.2182H11.4511C10.2967 70.2182 9.36084 69.3721 9.36084 68.3283V64.1171" stroke="#CAC8C8" stroke-width="2" stroke-linecap="round" stroke-linejoin="round"/>
</svg>
