<svg width="135" height="109" viewBox="0 0 135 109" fill="none" xmlns="http://www.w3.org/2000/svg">
<mask id="path-1-inside-1_188_851" fill="white">
<path d="M2.95319 1.20992C2.11502 1.629 1.61212 2.1319 1.19303 2.97008C0.63425 4.17146 0.63425 4.17146 0.690128 54.9087L0.773945 105.646L1.36066 106.4C1.66799 106.819 2.28265 107.434 2.70174 107.741L3.45609 108.328H60.5635H117.671L118.425 107.741C120.129 106.484 120.353 105.925 120.437 102.293L120.549 98.9406L121.498 99.8067C123.426 101.483 125.382 102.042 127.477 101.483C128.483 101.232 129.182 100.701 130.886 98.9686C132.087 97.7392 133.373 96.2585 133.764 95.6717C135.021 93.7719 134.965 90.8104 133.596 89.0781C133.261 88.6591 130.188 85.8093 126.751 82.736L120.493 77.1482L120.437 40.2966C120.353 3.58473 120.353 3.44504 119.766 2.69068C119.459 2.2716 118.844 1.65694 118.425 1.34961L117.671 0.762894L60.8987 0.679077L4.12663 0.623199L2.95319 1.20992ZM116.972 4.14352C117.363 4.50672 117.419 5.73604 117.419 13.3634V22.1362H60.5635H3.70754V13.2516C3.70754 6.71391 3.79136 4.28321 4.04281 4.03176C4.29426 3.7803 17.2021 3.69649 60.4517 3.69649C111.077 3.69649 116.581 3.75237 116.972 4.14352ZM117.419 50.1311V75.0807H115.659H113.871L111.72 73.125L109.568 71.1692L110.826 68.515C112.837 64.2403 113.34 61.8655 113.34 56.9203C113.312 51.7795 112.809 49.6282 110.574 45.1859C107.836 39.7378 103.953 35.8822 98.5605 33.256C94.23 31.1605 92.1346 30.7135 86.9658 30.7135C83.3896 30.7135 82.2441 30.7973 80.4002 31.3002C72.8007 33.3677 66.4306 38.6203 63.1059 45.5771L62.1839 47.5328L59.2783 45.7727L56.3726 44.0404L56.205 42.5038C55.9256 40.0452 54.8639 38.5085 52.8243 37.6424C49.1643 36.1337 45.197 39.3187 45.7278 43.342L45.8955 44.6272L40.4194 48.9577C37.402 51.3325 34.7199 53.2603 34.4684 53.2324C34.217 53.2044 33.5185 53.0368 32.9038 52.8412C31.4789 52.4221 30.054 52.6736 28.713 53.5956L27.6513 54.2941L23.7678 52.506C19.8004 50.634 19.0461 50.4944 18.4873 51.5281C17.8167 52.7574 18.3197 53.2324 22.4267 55.216C26.2823 57.088 26.3382 57.1159 26.3382 58.0379C26.3382 59.351 26.7852 60.4127 27.8189 61.5023C31.3392 65.1903 37.4299 62.3126 36.8432 57.2277L36.6756 55.8028L42.2913 51.3605L47.8791 46.9182L48.9688 47.4211C50.3378 48.0357 52.4891 47.8681 53.6346 47.0578L54.4448 46.4711L57.8534 48.4827C60.7311 50.1591 61.234 50.5782 61.1222 51.0531C60.5635 53.2044 60.3399 57.2556 60.6473 59.826C60.9825 62.6199 62.0163 66.4196 62.9662 68.2915C63.4691 69.2694 63.4971 70.1075 63.4971 80.6685V91.9838H60.5635H57.6299V75.6674C57.6299 61.195 57.574 59.2951 57.1828 58.904C56.5402 58.2335 45.3088 58.2335 44.6662 58.904C44.275 59.2951 44.2191 61.195 44.2191 75.6674V91.9838H41.2855H38.3519V81.7022C38.3519 72.8735 38.2961 71.3369 37.9049 70.806C37.4858 70.1914 37.3461 70.1914 31.7304 70.1914C26.7572 70.1914 25.8911 70.2472 25.4441 70.6663C24.9691 71.0854 24.9412 71.7839 24.9412 81.5625V91.9838H22.0635C19.549 91.9838 19.1019 92.0676 18.6549 92.5426C18.0123 93.269 18.2917 94.4424 19.2416 94.7777C19.7166 94.9733 31.4231 95.0292 51.3995 95.0012C82.1324 94.9174 82.8309 94.9174 83.222 94.3866C83.7249 93.6601 83.7249 92.9617 83.1661 92.4308C82.8309 92.0676 82.1044 91.9838 79.8134 91.9838H76.9078V86.7871C76.9078 82.4845 76.9637 81.6184 77.2989 81.7302C81.1824 83.2389 85.7924 83.8535 89.7318 83.3786C93.8109 82.9036 98.6443 81.2273 101.271 79.3833L101.997 78.8525L104.512 80.9479L107.026 83.0433L107.138 84.6917C107.222 85.8093 107.473 86.6474 107.92 87.29C108.283 87.8209 110.546 90.0001 112.977 92.1514L117.391 96.035L117.419 100.282C117.419 103.774 117.336 104.584 116.972 104.948C116.581 105.339 111.077 105.395 60.4517 105.395C17.2021 105.395 4.29426 105.311 4.04281 105.059C3.79136 104.808 3.70754 95.5041 3.70754 64.9668V25.2095H60.5635H117.419V50.1311ZM92.6654 34.2618C97.2753 35.519 100.013 37.1395 103.45 40.576C108.004 45.1301 110.016 49.6282 110.351 55.9425C111.133 70.9457 97.4988 82.8757 82.747 80.0818C76.4608 78.9083 71.0406 75.3042 67.5203 70.0237C62.5192 62.5081 62.2119 53.2883 66.6542 45.3256C68.1908 42.5876 72.1302 38.5644 74.8962 36.9439C77.2151 35.5749 79.8693 34.5412 82.4956 33.9824C84.8145 33.5074 90.4023 33.6471 92.6654 34.2618ZM51.8465 40.6319C52.7405 41.0789 53.1317 41.7215 53.1596 42.6155C53.1596 43.6772 52.0421 44.7668 50.9245 44.7668C49.9187 44.7668 48.6894 43.7052 48.6894 42.8391C48.6894 40.9951 50.3657 39.8216 51.8465 40.6319ZM32.5965 55.9704C33.6023 56.4454 34.0493 57.6747 33.6023 58.7364C32.9597 60.273 31.2554 60.6083 30.1099 59.4348C28.2939 57.6467 30.2496 54.9087 32.5965 55.9704ZM54.5566 76.757V92.0117L51.0083 91.9279L47.4321 91.8441L47.3483 76.6732L47.2924 61.5303H50.9245H54.5566V76.757ZM35.2228 82.5404L35.1389 91.8441L31.5907 91.9279L28.0145 92.0117V82.6242V73.2647H31.6466H35.2786L35.2228 82.5404ZM109.68 75.388C111.468 77.1482 111.496 76.9526 109.513 79.048L108.395 80.2215L106.495 78.6569L104.595 77.0923L106.048 75.4718C106.858 74.5778 107.641 73.8234 107.78 73.8234C107.948 73.8234 108.786 74.5498 109.68 75.388ZM68.554 76.0865C69.5319 77.0085 71.1244 78.2937 72.1023 78.9363L73.8345 80.0818V86.0328V92.0117L70.2862 91.9279L66.71 91.8441L66.6262 83.0992C66.5983 78.3216 66.6262 74.3822 66.6821 74.3822C66.738 74.3822 67.6041 75.1366 68.554 76.0865ZM117.056 78.3775C118.202 79.0201 131.054 90.6427 131.361 91.3133C132.031 92.822 131.752 93.5484 129.349 96.2305C127.533 98.2701 126.555 98.8289 125.326 98.5774C124.628 98.4098 112.977 88.3517 110.938 86.1166C109.68 84.7476 109.848 83.4345 111.524 81.4508C114.29 78.126 115.464 77.4834 117.056 78.3775Z"/>
</mask>
<path d="M2.95319 1.20992C2.11502 1.629 1.61212 2.1319 1.19303 2.97008C0.63425 4.17146 0.63425 4.17146 0.690128 54.9087L0.773945 105.646L1.36066 106.4C1.66799 106.819 2.28265 107.434 2.70174 107.741L3.45609 108.328H60.5635H117.671L118.425 107.741C120.129 106.484 120.353 105.925 120.437 102.293L120.549 98.9406L121.498 99.8067C123.426 101.483 125.382 102.042 127.477 101.483C128.483 101.232 129.182 100.701 130.886 98.9686C132.087 97.7392 133.373 96.2585 133.764 95.6717C135.021 93.7719 134.965 90.8104 133.596 89.0781C133.261 88.6591 130.188 85.8093 126.751 82.736L120.493 77.1482L120.437 40.2966C120.353 3.58473 120.353 3.44504 119.766 2.69068C119.459 2.2716 118.844 1.65694 118.425 1.34961L117.671 0.762894L60.8987 0.679077L4.12663 0.623199L2.95319 1.20992ZM116.972 4.14352C117.363 4.50672 117.419 5.73604 117.419 13.3634V22.1362H60.5635H3.70754V13.2516C3.70754 6.71391 3.79136 4.28321 4.04281 4.03176C4.29426 3.7803 17.2021 3.69649 60.4517 3.69649C111.077 3.69649 116.581 3.75237 116.972 4.14352ZM117.419 50.1311V75.0807H115.659H113.871L111.72 73.125L109.568 71.1692L110.826 68.515C112.837 64.2403 113.34 61.8655 113.34 56.9203C113.312 51.7795 112.809 49.6282 110.574 45.1859C107.836 39.7378 103.953 35.8822 98.5605 33.256C94.23 31.1605 92.1346 30.7135 86.9658 30.7135C83.3896 30.7135 82.2441 30.7973 80.4002 31.3002C72.8007 33.3677 66.4306 38.6203 63.1059 45.5771L62.1839 47.5328L59.2783 45.7727L56.3726 44.0404L56.205 42.5038C55.9256 40.0452 54.8639 38.5085 52.8243 37.6424C49.1643 36.1337 45.197 39.3187 45.7278 43.342L45.8955 44.6272L40.4194 48.9577C37.402 51.3325 34.7199 53.2603 34.4684 53.2324C34.217 53.2044 33.5185 53.0368 32.9038 52.8412C31.4789 52.4221 30.054 52.6736 28.713 53.5956L27.6513 54.2941L23.7678 52.506C19.8004 50.634 19.0461 50.4944 18.4873 51.5281C17.8167 52.7574 18.3197 53.2324 22.4267 55.216C26.2823 57.088 26.3382 57.1159 26.3382 58.0379C26.3382 59.351 26.7852 60.4127 27.8189 61.5023C31.3392 65.1903 37.4299 62.3126 36.8432 57.2277L36.6756 55.8028L42.2913 51.3605L47.8791 46.9182L48.9688 47.4211C50.3378 48.0357 52.4891 47.8681 53.6346 47.0578L54.4448 46.4711L57.8534 48.4827C60.7311 50.1591 61.234 50.5782 61.1222 51.0531C60.5635 53.2044 60.3399 57.2556 60.6473 59.826C60.9825 62.6199 62.0163 66.4196 62.9662 68.2915C63.4691 69.2694 63.4971 70.1075 63.4971 80.6685V91.9838H60.5635H57.6299V75.6674C57.6299 61.195 57.574 59.2951 57.1828 58.904C56.5402 58.2335 45.3088 58.2335 44.6662 58.904C44.275 59.2951 44.2191 61.195 44.2191 75.6674V91.9838H41.2855H38.3519V81.7022C38.3519 72.8735 38.2961 71.3369 37.9049 70.806C37.4858 70.1914 37.3461 70.1914 31.7304 70.1914C26.7572 70.1914 25.8911 70.2472 25.4441 70.6663C24.9691 71.0854 24.9412 71.7839 24.9412 81.5625V91.9838H22.0635C19.549 91.9838 19.1019 92.0676 18.6549 92.5426C18.0123 93.269 18.2917 94.4424 19.2416 94.7777C19.7166 94.9733 31.4231 95.0292 51.3995 95.0012C82.1324 94.9174 82.8309 94.9174 83.222 94.3866C83.7249 93.6601 83.7249 92.9617 83.1661 92.4308C82.8309 92.0676 82.1044 91.9838 79.8134 91.9838H76.9078V86.7871C76.9078 82.4845 76.9637 81.6184 77.2989 81.7302C81.1824 83.2389 85.7924 83.8535 89.7318 83.3786C93.8109 82.9036 98.6443 81.2273 101.271 79.3833L101.997 78.8525L104.512 80.9479L107.026 83.0433L107.138 84.6917C107.222 85.8093 107.473 86.6474 107.92 87.29C108.283 87.8209 110.546 90.0001 112.977 92.1514L117.391 96.035L117.419 100.282C117.419 103.774 117.336 104.584 116.972 104.948C116.581 105.339 111.077 105.395 60.4517 105.395C17.2021 105.395 4.29426 105.311 4.04281 105.059C3.79136 104.808 3.70754 95.5041 3.70754 64.9668V25.2095H60.5635H117.419V50.1311ZM92.6654 34.2618C97.2753 35.519 100.013 37.1395 103.45 40.576C108.004 45.1301 110.016 49.6282 110.351 55.9425C111.133 70.9457 97.4988 82.8757 82.747 80.0818C76.4608 78.9083 71.0406 75.3042 67.5203 70.0237C62.5192 62.5081 62.2119 53.2883 66.6542 45.3256C68.1908 42.5876 72.1302 38.5644 74.8962 36.9439C77.2151 35.5749 79.8693 34.5412 82.4956 33.9824C84.8145 33.5074 90.4023 33.6471 92.6654 34.2618ZM51.8465 40.6319C52.7405 41.0789 53.1317 41.7215 53.1596 42.6155C53.1596 43.6772 52.0421 44.7668 50.9245 44.7668C49.9187 44.7668 48.6894 43.7052 48.6894 42.8391C48.6894 40.9951 50.3657 39.8216 51.8465 40.6319ZM32.5965 55.9704C33.6023 56.4454 34.0493 57.6747 33.6023 58.7364C32.9597 60.273 31.2554 60.6083 30.1099 59.4348C28.2939 57.6467 30.2496 54.9087 32.5965 55.9704ZM54.5566 76.757V92.0117L51.0083 91.9279L47.4321 91.8441L47.3483 76.6732L47.2924 61.5303H50.9245H54.5566V76.757ZM35.2228 82.5404L35.1389 91.8441L31.5907 91.9279L28.0145 92.0117V82.6242V73.2647H31.6466H35.2786L35.2228 82.5404ZM109.68 75.388C111.468 77.1482 111.496 76.9526 109.513 79.048L108.395 80.2215L106.495 78.6569L104.595 77.0923L106.048 75.4718C106.858 74.5778 107.641 73.8234 107.78 73.8234C107.948 73.8234 108.786 74.5498 109.68 75.388ZM68.554 76.0865C69.5319 77.0085 71.1244 78.2937 72.1023 78.9363L73.8345 80.0818V86.0328V92.0117L70.2862 91.9279L66.71 91.8441L66.6262 83.0992C66.5983 78.3216 66.6262 74.3822 66.6821 74.3822C66.738 74.3822 67.6041 75.1366 68.554 76.0865ZM117.056 78.3775C118.202 79.0201 131.054 90.6427 131.361 91.3133C132.031 92.822 131.752 93.5484 129.349 96.2305C127.533 98.2701 126.555 98.8289 125.326 98.5774C124.628 98.4098 112.977 88.3517 110.938 86.1166C109.68 84.7476 109.848 83.4345 111.524 81.4508C114.29 78.126 115.464 77.4834 117.056 78.3775Z" fill="#CAC8C8" stroke="#040019" stroke-width="0.7" mask="url(#path-1-inside-1_188_851)"/>
<path d="M42.1357 14.1985L42.1358 14.1985L42.1388 14.2041L42.397 14.6971H74.393H106.389L106.647 14.2041L106.648 14.203C107.054 13.4424 106.738 12.5072 106.016 12.2425L106.015 12.2424C106.015 12.2427 106.002 12.2395 105.967 12.2351C105.927 12.2301 105.873 12.225 105.802 12.2198C105.662 12.2094 105.465 12.1993 105.214 12.1895C104.713 12.1699 104.005 12.1518 103.117 12.1351C101.342 12.1018 98.8552 12.0744 95.8934 12.0528C89.9701 12.0096 82.1494 11.9895 74.3302 11.9912C66.511 11.993 58.6938 12.0166 52.7774 12.0606C49.8191 12.0827 47.3365 12.1099 45.5667 12.142C44.6817 12.158 43.9757 12.1753 43.478 12.1938C43.2289 12.203 43.0334 12.2125 42.8941 12.2222C42.8242 12.2271 42.7703 12.2319 42.7317 12.2365C42.7001 12.2402 42.6871 12.243 42.6853 12.2431C42.3726 12.3736 42.1327 12.6779 42.0224 13.053C41.9116 13.4298 41.9391 13.8545 42.1357 14.1985Z" fill="#CAC8C8" stroke="#040019" stroke-width="0.35"/>
<path d="M14.504 12.5374C14.4285 12.6128 14.361 12.74 14.3129 12.9107C14.2656 13.0789 14.2409 13.2756 14.2409 13.4753C14.2409 13.675 14.2656 13.8718 14.3129 14.0399C14.361 14.2106 14.4285 14.3378 14.504 14.4133C14.7459 14.6552 15.1438 14.7496 15.5583 14.6854C15.9707 14.6214 16.3622 14.4052 16.581 14.0774C16.797 13.7462 16.8664 13.6024 16.8664 13.4753C16.8664 13.3482 16.797 13.2044 16.581 12.8732C16.3622 12.5455 15.9707 12.3292 15.5583 12.2653C15.1438 12.201 14.7459 12.2954 14.504 12.5374Z" fill="#CAC8C8" stroke="#040019" stroke-width="0.35"/>
<path d="M24.2053 12.2179C23.7107 12.2504 23.2615 12.4826 23.0886 12.8496C22.8708 13.3374 22.8966 13.8026 23.0797 14.1388C23.2612 14.4719 23.6063 14.6971 24.075 14.6971C24.7306 14.6971 25.1826 14.4495 25.4043 14.0977C25.6246 13.7481 25.6448 13.2521 25.3467 12.6935C25.1553 12.358 24.701 12.1853 24.2053 12.2179Z" fill="#CAC8C8" stroke="#040019" stroke-width="0.35"/>
<path d="M31.8259 13.8899L31.826 13.8899L31.8292 13.8957C32.0251 14.2632 32.4051 14.5232 32.8202 14.6254C33.2366 14.7279 33.6565 14.6646 33.9375 14.4304L33.9375 14.4304L33.9383 14.4297C34.0238 14.3593 34.102 14.2378 34.1605 14.0722C34.2182 13.9086 34.2523 13.7146 34.2588 13.5149C34.2722 13.1043 34.1686 12.7242 33.9817 12.5373C33.768 12.3235 33.3901 12.2274 32.972 12.2732C32.5579 12.3184 32.1471 12.4993 31.8884 12.7823C31.6428 13.0569 31.5729 13.1725 31.5666 13.2794C31.5635 13.3315 31.5753 13.3968 31.6173 13.4968C31.66 13.5982 31.728 13.722 31.8259 13.8899Z" fill="#CAC8C8" stroke="#040019" stroke-width="0.35"/>
<path d="M82.9794 37.5903L82.9793 37.5903C75.3343 39.2246 69.4069 45.0131 67.5507 52.6315C67.2906 53.6996 67.1716 55.4283 67.1925 57.177C67.2134 58.9253 67.3738 60.6687 67.6617 61.7655C69.2137 67.6405 73.1476 72.4311 78.4353 74.9227L78.436 74.923C81.4004 76.336 83.61 76.806 86.9667 76.8338C88.7599 76.8338 90.1557 76.7086 91.5414 76.3708C92.9281 76.0328 94.3122 75.4799 96.0807 74.6166C98.1586 73.5915 99.1208 72.9043 100.812 71.2134L100.812 71.2128C106.465 65.616 108.291 57.8637 105.688 50.4127L105.687 50.4122C102.475 41.1361 92.5318 35.5414 82.9794 37.5903ZM90.4941 40.2653L90.4943 40.2654C97.072 41.6486 102.378 46.9542 103.761 53.5319L103.761 53.532C106.358 65.8983 95.1492 76.6211 82.7627 73.6867L82.7624 73.6866C76.9687 72.3018 71.6956 66.9418 70.2838 61.0124C70.0417 60.0013 69.9228 58.519 69.9228 57.0499C69.9228 55.5808 70.0417 54.1051 70.2839 53.1076L70.284 53.1072C72.5134 44.0203 81.4323 38.3739 90.4941 40.2653Z" fill="#CAC8C8" stroke="#040019" stroke-width="0.35"/>
</svg>
