<svg width="34" height="35" viewBox="0 0 34 35" fill="none" xmlns="http://www.w3.org/2000/svg">
<path d="M20.209 13.0193V17.6593H24.369C24.689 17.6593 24.849 17.9793 24.849 18.2993L24.209 21.3393C24.209 21.4993 23.889 21.6593 23.729 21.6593H20.209V33.3393H15.409V21.8193H12.689C12.369 21.8193 12.209 21.6593 12.209 21.3393V18.2993C12.209 17.9793 12.369 17.8193 12.689 17.8193H15.409V12.5393C15.409 9.81926 17.489 7.73926 20.209 7.73926H24.529C24.849 7.73926 25.009 7.89926 25.009 8.21926V12.0593C25.009 12.3793 24.849 12.5393 24.529 12.5393H20.689C20.369 12.5393 20.209 12.6993 20.209 13.0193Z" stroke="#1A0493" stroke-width="1.5" stroke-miterlimit="10" stroke-linecap="round"/>
<path d="M21.8088 33.3394H12.2088C4.20879 33.3394 1.00879 30.1394 1.00879 22.1394V12.5394C1.00879 4.53936 4.20879 1.33936 12.2088 1.33936H21.8088C29.8088 1.33936 33.0088 4.53936 33.0088 12.5394V22.1394C33.0088 30.1394 29.8088 33.3394 21.8088 33.3394Z" stroke="#1A0493" stroke-width="1.5" stroke-linecap="round" stroke-linejoin="round"/>
</svg>
