<svg width="316" height="64" viewBox="0 0 316 64" fill="none" xmlns="http://www.w3.org/2000/svg">
<g opacity="0.7" clip-path="url(#clip0_125_170)">
<path d="M293.264 53.0289H21.6602V10.8368H293.264V53.0289ZM23.872 52.1723H291.052V11.9076H23.872V52.1723Z" fill="#00AD75"/>
<path d="M314.054 10.4084H311.844V1.8415H294.592V0.77063H314.054V10.4084Z" fill="#00AD75"/>
<path d="M305.65 25.829H303.881V5.91084H279.55V4.83997H305.65V25.829Z" fill="#00AD75"/>
<path d="M305.65 17.6904H303.879V5.91084H262.742V4.83997H305.65V17.6904Z" fill="#00AD75"/>
<path d="M293.264 53.0289H21.6602V10.8368H293.264V53.0289ZM23.872 52.1723H291.052V11.9076H23.872V52.1723Z" fill="#00AD75"/>
<path d="M3.08188 10.4083H0.870117V0.770508H20.7758V1.84137H3.08188V10.4083Z" fill="#00AD75"/>
<path d="M11.4866 25.8289H9.2749V4.83984H10.6019H35.3736V5.91072H11.4866V25.8289Z" fill="#00AD75"/>
<path d="M11.4866 17.6903H9.2749V4.83984H52.6252V5.91072H11.4866V17.6903Z" fill="#00AD75"/>
<path d="M293.264 53.0289H21.6602V10.8368H293.264V53.0289ZM23.872 52.1723H291.052V11.9076H23.872V52.1723Z" fill="#00AD75"/>
<path d="M314.054 63.0951H294.592V62.2384H311.844V53.6715H314.054V63.0951Z" fill="#00AD75"/>
<path d="M304.764 59.0259H279.55V58.1692H303.881V38.251H305.65V59.0259H304.764Z" fill="#00AD75"/>
<path d="M305.65 59.026H262.742V58.1693H303.879V46.3896H305.65V59.026Z" fill="#00AD75"/>
<path d="M293.264 53.0289H21.6602V10.8368H293.264V53.0289ZM23.872 52.1723H291.052V11.9076H23.872V52.1723Z" fill="#00AD75"/>
<path d="M20.7759 63.0951H0.870117V53.6715H3.08187V62.2384H20.7759V63.0951Z" fill="#00AD75"/>
<path d="M35.373 59.0259H9.27441V38.251H11.4862V58.1692H35.373V59.0259Z" fill="#00AD75"/>
<path d="M52.6247 59.026H9.27441V46.3896H11.4862V58.1693H52.6247V59.026Z" fill="#00AD75"/>
<path d="M23.8724 48.7454L22.103 48.1029L55.7217 20.9028L76.9544 34.3958L94.2062 26.8997L122.959 45.3186L135.345 17.6902L149.058 27.9706L157.462 21.9737L180.465 37.3942L202.14 22.4021L226.911 38.8934L274.244 23.4729L292.821 35.6808L291.494 36.3233L273.8 24.9722L226.469 40.1784L202.14 24.1154L180.465 39.1076L157.462 23.6871L149.058 29.8981L136.672 20.2603L123.844 47.6745L94.2062 28.3989L76.9544 35.895L55.7217 22.8305L23.8724 48.7454Z" fill="#00AD75"/>
<path d="M55.6512 24.2764C56.8654 24.2764 57.8497 23.3808 57.8497 22.2763C57.8497 21.1717 56.8654 20.2764 55.6512 20.2764C54.4368 20.2764 53.4526 21.1717 53.4526 22.2763C53.4526 23.3808 54.4368 24.2764 55.6512 24.2764Z" fill="#00AD75"/>
<path d="M76.5371 37.1408C77.7513 37.1408 78.7357 36.2452 78.7357 35.1407C78.7357 34.0361 77.7513 33.1408 76.5371 33.1408C75.3229 33.1408 74.3387 34.0361 74.3387 35.1407C74.3387 36.2452 75.3229 37.1408 76.5371 37.1408Z" fill="#00AD75"/>
<path d="M94.1253 29.6827C95.3395 29.6827 96.3238 28.7873 96.3238 27.6827C96.3238 26.5781 95.3395 25.6827 94.1253 25.6827C92.9111 25.6827 91.9268 26.5781 91.9268 27.6827C91.9268 28.7873 92.9111 29.6827 94.1253 29.6827Z" fill="#00AD75"/>
<path d="M123.256 48.3394C124.47 48.3394 125.454 47.444 125.454 46.3395C125.454 45.2349 124.47 44.3394 123.256 44.3394C122.041 44.3394 121.057 45.2349 121.057 46.3395C121.057 47.444 122.041 48.3394 123.256 48.3394Z" fill="#00AD75"/>
<path d="M135.897 20.3394C137.111 20.3394 138.095 19.4438 138.095 18.3392C138.095 17.2347 137.111 16.3394 135.897 16.3394C134.682 16.3394 133.698 17.2347 133.698 18.3392C133.698 19.4438 134.682 20.3394 135.897 20.3394Z" fill="#00AD75"/>
<path d="M157.332 24.3394C158.547 24.3394 159.531 23.4438 159.531 22.3392C159.531 21.2347 158.547 20.3394 157.332 20.3394C156.118 20.3394 155.134 21.2347 155.134 22.3392C155.134 23.4438 156.118 24.3394 157.332 24.3394Z" fill="#00AD75"/>
<path d="M148.538 31.3394C149.753 31.3394 150.737 30.4439 150.737 29.3394C150.737 28.2348 149.753 27.3394 148.538 27.3394C147.324 27.3394 146.34 28.2348 146.34 29.3394C146.34 30.4439 147.324 31.3394 148.538 31.3394Z" fill="#00AD75"/>
<path d="M180.417 40.3394C181.631 40.3394 182.615 39.4438 182.615 38.3392C182.615 37.2347 181.631 36.3394 180.417 36.3394C179.203 36.3394 178.218 37.2347 178.218 38.3392C178.218 39.4438 179.203 40.3394 180.417 40.3394Z" fill="#00AD75"/>
<path d="M202.275 25.0096C203.489 25.0096 204.474 24.1142 204.474 23.0096C204.474 21.9051 203.489 21.0096 202.275 21.0096C201.061 21.0096 200.077 21.9051 200.077 23.0096C200.077 24.1142 201.061 25.0096 202.275 25.0096Z" fill="#00AD75"/>
<path d="M226.586 41.8226C227.799 41.8226 228.784 40.9272 228.784 39.8226C228.784 38.718 227.799 37.8226 226.586 37.8226C225.372 37.8226 224.387 38.718 224.387 39.8226C224.387 40.9272 225.372 41.8226 226.586 41.8226Z" fill="#00AD75"/>
<path d="M273.89 25.8394C275.104 25.8394 276.089 24.9439 276.089 23.8393C276.089 22.7347 275.104 21.8394 273.89 21.8394C272.677 21.8394 271.692 22.7347 271.692 23.8393C271.692 24.9439 272.677 25.8394 273.89 25.8394Z" fill="#00AD75"/>
<path d="M27.411 59.0257L26.5264 58.8116L27.411 58.3832L27.8534 58.8116L27.411 59.0257Z" fill="#00AD75"/>
<path d="M40.7185 58.4539L40.0928 58.7568L40.7185 59.0596L41.3441 58.7568L40.7185 58.4539Z" fill="#00AD75"/>
<path d="M23.2856 43.5448L22.6602 43.8477L26.4136 45.6649L27.0391 45.3621L23.2856 43.5448Z" fill="#00AD75"/>
<path d="M22.9089 37.1134L22.2832 37.4163L31.0413 41.6567L31.6668 41.3538L22.9089 37.1134Z" fill="#00AD75"/>
<path d="M23.3635 30.6647L22.7378 30.9677L36.5024 37.6312L37.1281 37.3282L23.3635 30.6647Z" fill="#00AD75"/>
<path d="M23.1367 24.1603L22.5112 24.4632L41.2784 33.5497L41.9039 33.2468L23.1367 24.1603Z" fill="#00AD75"/>
<path d="M23.0649 17.8082L22.4395 18.111L46.2111 29.6206L46.8366 29.3178L23.0649 17.8082Z" fill="#00AD75"/>
<path d="M23.0054 11.2206L22.3799 11.5235L51.1563 25.4561L51.7818 25.1533L23.0054 11.2206Z" fill="#00AD75"/>
<path d="M36.3271 11.4309L35.7017 11.7338L80.7428 33.5415L81.3685 33.2387L36.3271 11.4309Z" fill="#00AD75"/>
<path d="M49.696 11.4636L49.0703 11.7665L87.8559 30.5453L88.4813 30.2424L49.696 11.4636Z" fill="#00AD75"/>
<path d="M63.0239 11.1746L62.3984 11.4774L124.956 41.7658L125.581 41.463L63.0239 11.1746Z" fill="#00AD75"/>
<path d="M76.082 11.3093L75.4565 11.6122L127.066 36.6002L127.692 36.2973L76.082 11.3093Z" fill="#00AD75"/>
<path d="M89.7314 11.3959L89.106 11.6988L130.081 31.5377L130.706 31.2349L89.7314 11.3959Z" fill="#00AD75"/>
<path d="M103.092 11.3535L102.467 11.6564L132.494 26.1948L133.12 25.8919L103.092 11.3535Z" fill="#00AD75"/>
<path d="M144 24.6633L143.375 24.9662L150.341 28.3391L150.967 28.0362L144 24.6633Z" fill="#00AD75"/>
<path d="M116.47 11.3772L115.844 11.68L134.924 20.918L135.55 20.6152L116.47 11.3772Z" fill="#00AD75"/>
<path d="M169.561 30.6284L168.936 30.9313L182.073 37.2919L182.698 36.9891L169.561 30.6284Z" fill="#00AD75"/>
<path d="M129.572 11.4373L128.947 11.7401L155.683 24.6853L156.309 24.3825L129.572 11.4373Z" fill="#00AD75"/>
<path d="M142.999 11.4233L142.374 11.7262L187.415 33.534L188.04 33.2311L142.999 11.4233Z" fill="#00AD75"/>
<path d="M156.345 11.2164L155.719 11.5193L192.941 29.541L193.566 29.2381L156.345 11.2164Z" fill="#00AD75"/>
<path d="M267.165 59.0257L266.281 58.8116L267.165 58.3832L268.05 58.8116L267.165 59.0257Z" fill="#00AD75"/>
<path d="M169.703 11.3171L169.078 11.6199L198.167 25.7041L198.792 25.4012L169.703 11.3171Z" fill="#00AD75"/>
<path d="M280.523 58.5149L279.896 58.8178L280.523 59.1207L281.148 58.8178L280.523 58.5149Z" fill="#00AD75"/>
<path d="M182.849 11.3096L182.224 11.6125L234.771 37.0548L235.398 36.7519L182.849 11.3096Z" fill="#00AD75"/>
<path d="M293.808 58.5321L293.181 58.835L293.808 59.1379L294.433 58.835L293.808 58.5321Z" fill="#00AD75"/>
<path d="M196.302 11.3969L195.677 11.6996L242.907 34.5675L243.533 34.2646L196.302 11.3969Z" fill="#00AD75"/>
<path d="M209.453 11.3345L208.826 11.6374L250.741 31.9307L251.366 31.6277L209.453 11.3345Z" fill="#00AD75"/>
<path d="M223.235 11.3076L222.61 11.6105L258.893 29.1778L259.518 28.8749L223.235 11.3076Z" fill="#00AD75"/>
<path d="M236.388 11.2518L235.763 11.5547L266.729 26.5475L267.354 26.2446L236.388 11.2518Z" fill="#00AD75"/>
<path d="M291.938 32.4683L249.029 11.6934L249.913 11.265L292.821 32.04L291.938 32.4683Z" fill="#00AD75"/>
<path d="M291.937 25.8288L262.3 11.6934L263.183 11.265L292.821 25.6147L291.937 25.8288Z" fill="#00AD75"/>
<path d="M291.938 19.4036L275.569 11.6934L276.454 11.265L292.821 19.1895L291.938 19.4036Z" fill="#00AD75"/>
<path d="M291.937 12.9784L288.839 11.6934L289.725 11.265L292.821 12.5501L291.937 12.9784Z" fill="#00AD75"/>
</g>
<defs>
<clipPath id="clip0_125_170">
<rect width="315.487" height="63" fill="white" transform="translate(0.138672 0.339355)"/>
</clipPath>
</defs>
</svg>
