<svg width="34" height="35" viewBox="0 0 34 35" fill="none" xmlns="http://www.w3.org/2000/svg">
<path d="M17.2586 24.4502C21.1859 24.4502 24.3697 21.2664 24.3697 17.3391C24.3697 13.4118 21.1859 10.228 17.2586 10.228C13.3312 10.228 10.1475 13.4118 10.1475 17.3391C10.1475 21.2664 13.3312 24.4502 17.2586 24.4502Z" stroke="#1A0493" stroke-width="1.5" stroke-linecap="round" stroke-linejoin="round"/>
<path d="M1.2583 24.4505V10.2282C1.2583 5.31905 5.238 1.33936 10.1472 1.33936H24.3694C29.2786 1.33936 33.2583 5.31905 33.2583 10.2282V24.4505C33.2583 29.3596 29.2786 33.3394 24.3694 33.3394H10.1472C5.238 33.3394 1.2583 29.3596 1.2583 24.4505Z" stroke="#1A0493" stroke-width="1.5"/>
<path d="M27.0361 7.57994L27.0545 7.55957" stroke="#1A0493" stroke-width="1.5" stroke-linecap="round" stroke-linejoin="round"/>
</svg>
