<svg width="35" height="35" viewBox="0 0 35 35" fill="none" xmlns="http://www.w3.org/2000/svg">
<path d="M27.7848 21.5196C27.7848 18.6995 25.5923 16.4584 23.151 16.4584C21.2857 16.4584 19.6366 16.4584 18.541 18.8191C18.3387 19.2549 18.1046 20.5239 18.1046 21.1516V33.3394H12.1782V17.8587V10.2229H18.3322L18.6358 13.2343H18.7687C19.6572 11.8034 21.6765 10.2229 25.3197 10.2229C29.7607 10.2229 33.7418 13.7381 33.7418 20.1816V33.3394H27.7848V21.5196ZM4.19881 7.47571C2.25993 7.47571 1.00879 6.10379 1.00879 4.4086C1.00879 2.6722 2.30043 1.33936 4.27839 1.33936C6.25634 1.33936 7.46841 2.67149 7.50891 4.4086C7.50962 6.10379 6.25705 7.47571 4.19881 7.47571ZM1.7227 33.3394L1.7227 10.2229H6.92633L6.92633 33.3394H1.7227Z" stroke="#1A0493" stroke-width="1.5"/>
</svg>
