<svg width="135" height="135" viewBox="0 0 135 135" fill="none" xmlns="http://www.w3.org/2000/svg">
<mask id="path-1-inside-1_188_834" fill="white">
<path d="M40.1429 0.775208C38.4121 1.19395 35.8717 2.67354 34.6433 4.01353C34.0292 4.68353 33.1079 6.07936 32.6334 7.11227L31.74 8.98269L31.6563 33.8005L31.5725 58.5904L30.2604 58.395C28.6134 58.1717 25.9334 56.748 25.0121 55.6592C24.6213 55.2125 23.9792 54.1796 23.5605 53.398C22.9463 52.1975 22.8346 51.6113 22.8346 49.6013C22.8346 47.5355 22.9463 47.033 23.6163 45.693C24.063 44.8555 25.1796 43.4317 26.1009 42.5663C27.6363 41.0868 27.748 40.8913 27.5805 40.0538C27.3571 38.8813 26.4917 38.1555 25.2913 38.1555C24.5376 38.1555 24.0351 38.4626 22.5834 39.8305C20.6013 41.673 19.2892 43.8505 18.6192 46.3909C16.693 53.8725 21.8855 61.6054 29.6742 62.8338L31.6004 63.1129V69.7571V76.4012H30.6513C29.5625 76.4012 29.6463 76.5408 28.9205 73.135C28.39 70.4829 27.9713 70.0083 25.738 69.2825C24.9005 69.0033 23.1976 68.3054 21.9692 67.7192C20.5455 67.0213 19.5405 66.6863 19.1776 66.7979C18.8705 66.9096 17.6701 67.6075 16.4976 68.3333C15.3251 69.0871 14.2643 69.7012 14.1247 69.7012C14.013 69.7012 13.3151 69.115 12.5893 68.4171L11.2772 67.1329L12.673 64.9833C14.7667 61.8009 14.7667 61.8846 13.5105 59.2604C12.8963 58.0042 12.1426 56.1617 11.8076 55.1009C11.4447 54.068 10.9701 53.1188 10.7188 52.9792C10.4397 52.8396 9.01593 52.4488 7.53636 52.1138L4.80053 51.4996V49.6013V47.703L7.50844 47.0888C8.98802 46.7538 10.4397 46.3351 10.7188 46.1397C10.998 45.9722 11.5005 45.023 11.8076 44.018C12.1426 43.013 12.8963 41.1984 13.5105 39.9422C14.7667 37.318 14.7667 37.4018 12.673 34.2193L11.2772 32.0697L12.5893 30.7855C13.3151 30.0876 14.013 29.5014 14.1247 29.5014C14.2643 29.5014 15.3251 30.1155 16.4976 30.8693C17.6701 31.5951 18.8705 32.293 19.1776 32.4047C19.5405 32.5164 20.5455 32.1814 21.9692 31.4835C23.1976 30.8972 25.0401 30.1435 26.045 29.8085C27.2734 29.4176 27.9992 28.9989 28.2225 28.5801C28.8367 27.4076 30.1767 20.5122 29.9254 19.8422C29.6184 19.0606 28.5855 18.3347 27.7759 18.3347C26.4359 18.3347 25.7659 19.3956 25.1238 22.5501L24.5376 25.5093L22.0809 26.5422L19.6242 27.5751L17.0001 25.8722C15.353 24.8393 14.0688 24.1972 13.5663 24.1972C12.9243 24.1972 12.1705 24.8114 9.49052 27.4914C6.81052 30.1714 6.19636 30.9251 6.19636 31.5951C6.19636 32.0976 6.81052 33.3818 7.89927 35.0568L9.57427 37.6809L8.76468 39.5234C8.2901 40.5284 7.84344 41.6172 7.75969 41.9522C7.62011 42.4268 7.14552 42.6222 5.27511 43.013C4.01887 43.2642 2.5672 43.6272 2.09262 43.7667C0.473462 44.2692 0.333879 44.7717 0.333879 49.6013C0.333879 55.3242 0.194296 55.1288 5.2472 56.1896L7.48052 56.6642L8.54135 59.1209L9.57427 61.5775L7.87135 64.2017C6.83844 65.8488 6.19636 67.1329 6.19636 67.6354C6.19636 68.2775 6.81052 69.0312 9.49052 71.7112C12.1705 74.3912 12.9243 75.0054 13.5663 75.0054C14.0688 75.0054 15.353 74.3633 17.0001 73.3304L19.6242 71.6275L22.0809 72.6604L24.5376 73.6933L25.1238 76.6525C25.9334 80.5329 26.2684 80.8679 29.3671 80.8679H31.5725L31.6563 103.424L31.74 125.981L32.7729 128.103C34.0292 130.643 35.6483 132.206 38.2446 133.435L40.115 134.328H67.3337H94.5523L96.4227 133.435C99.019 132.206 100.638 130.643 101.894 128.103L102.927 125.981L103.011 101.163L103.095 76.3454L104.379 76.5408C105.859 76.7641 107.869 77.6854 109.125 78.7462C109.571 79.1371 110.381 80.2258 110.911 81.2029C111.749 82.7662 111.833 83.185 111.861 85.1949C111.861 87.177 111.749 87.6516 110.939 89.2987C110.325 90.5549 109.599 91.532 108.65 92.3137C107.869 92.9558 107.171 93.7653 107.087 94.1283C106.891 94.882 107.589 96.3616 108.231 96.6128C109.516 97.0874 110.297 96.7803 112.084 95.1053C114.066 93.2628 115.378 91.0853 116.048 88.5449C117.974 81.0633 112.782 73.3304 104.993 72.1021L103.067 71.8229V65.1788V58.5346H104.016C105.105 58.5346 105.021 58.395 105.747 61.8009C106.277 64.4529 106.696 64.9275 108.929 65.6533C109.767 65.9325 111.47 66.6304 112.698 67.2167C114.122 67.9146 115.127 68.2496 115.49 68.1379C115.797 68.0263 116.997 67.3283 118.17 66.6025C119.342 65.8488 120.403 65.2346 120.543 65.2346C120.85 65.2346 123.167 67.5238 123.167 67.8587C123.167 67.9983 122.553 69.0592 121.799 70.2317C121.073 71.4042 120.375 72.6046 120.263 72.9117C120.152 73.2746 120.487 74.2796 121.185 75.7033C121.771 76.9316 122.525 78.7741 122.86 79.835C123.223 80.8679 123.697 81.817 123.948 81.9566C124.228 82.0962 125.651 82.4591 127.159 82.822L129.867 83.4362V85.3345V87.2329L127.159 87.847C125.651 88.2099 124.228 88.5729 123.948 88.7124C123.697 88.852 123.223 89.8012 122.86 90.8341C122.525 91.8949 121.771 93.7374 121.157 94.9937C119.901 97.6178 119.901 97.5341 121.994 100.717L123.39 102.866L122.078 104.15C121.352 104.848 120.654 105.434 120.543 105.434C120.403 105.434 119.342 104.82 118.17 104.067C116.997 103.341 115.797 102.643 115.49 102.531C115.127 102.419 114.122 102.754 112.698 103.452C111.47 104.039 109.627 104.792 108.622 105.127C107.394 105.518 106.668 105.937 106.445 106.356C105.831 107.528 104.491 114.424 104.742 115.094C105.049 115.875 106.082 116.601 106.891 116.601C108.231 116.601 108.901 115.54 109.544 112.358C110.046 109.845 110.269 109.315 110.744 109.175C111.051 109.092 112.14 108.645 113.173 108.17L115.015 107.333L117.667 109.036C119.314 110.124 120.571 110.739 121.073 110.739C121.743 110.739 122.497 110.124 125.177 107.444C127.857 104.764 128.471 104.011 128.471 103.341C128.471 102.838 127.857 101.582 126.796 99.907L125.093 97.2828L126.154 94.7982C126.824 93.2349 127.354 92.3137 127.633 92.3137C127.857 92.3137 129.253 92.0066 130.676 91.6437C134.389 90.7224 134.333 90.8062 134.333 85.3345C134.333 79.8629 134.389 79.9466 130.676 79.0254C129.253 78.6625 127.857 78.3554 127.633 78.3554C127.354 78.3554 126.824 77.4341 126.154 75.8708L125.093 73.3583L126.796 70.7342C127.829 69.0871 128.471 67.8029 128.471 67.3004C128.471 66.6583 127.857 65.9046 125.177 63.2246C122.497 60.5446 121.743 59.9304 121.101 59.9304C120.598 59.9304 119.314 60.5725 117.639 61.6334L114.987 63.3363L113.145 62.4988C112.14 62.0242 111.051 61.5775 110.744 61.4938C110.269 61.3542 110.046 60.8238 109.544 58.3113C108.734 54.403 108.399 54.068 105.3 54.068H103.095L103.011 31.5114L102.927 8.95477L101.894 6.83311C100.638 4.29271 99.019 2.72937 96.4227 1.50104L94.5523 0.607712L67.892 0.55188C52.3704 0.523956 40.785 0.635635 40.1429 0.775208ZM93.9661 5.26978C95.5015 5.71645 97.8186 8.03352 98.2652 9.56893C98.7677 11.2439 98.7677 123.692 98.2652 125.367C97.8186 126.902 95.5015 129.219 93.9661 129.666C92.319 130.141 42.3483 130.141 40.7012 129.666C39.1658 129.219 36.8488 126.902 36.4021 125.367C35.8996 123.692 35.8996 11.2439 36.4021 9.56893C36.8208 8.14519 39.1658 5.74437 40.5337 5.2977C42.0133 4.85103 92.4027 4.82312 93.9661 5.26978Z"/>
</mask>
<path d="M40.1429 0.775208C38.4121 1.19395 35.8717 2.67354 34.6433 4.01353C34.0292 4.68353 33.1079 6.07936 32.6334 7.11227L31.74 8.98269L31.6563 33.8005L31.5725 58.5904L30.2604 58.395C28.6134 58.1717 25.9334 56.748 25.0121 55.6592C24.6213 55.2125 23.9792 54.1796 23.5605 53.398C22.9463 52.1975 22.8346 51.6113 22.8346 49.6013C22.8346 47.5355 22.9463 47.033 23.6163 45.693C24.063 44.8555 25.1796 43.4317 26.1009 42.5663C27.6363 41.0868 27.748 40.8913 27.5805 40.0538C27.3571 38.8813 26.4917 38.1555 25.2913 38.1555C24.5376 38.1555 24.0351 38.4626 22.5834 39.8305C20.6013 41.673 19.2892 43.8505 18.6192 46.3909C16.693 53.8725 21.8855 61.6054 29.6742 62.8338L31.6004 63.1129V69.7571V76.4012H30.6513C29.5625 76.4012 29.6463 76.5408 28.9205 73.135C28.39 70.4829 27.9713 70.0083 25.738 69.2825C24.9005 69.0033 23.1976 68.3054 21.9692 67.7192C20.5455 67.0213 19.5405 66.6863 19.1776 66.7979C18.8705 66.9096 17.6701 67.6075 16.4976 68.3333C15.3251 69.0871 14.2643 69.7012 14.1247 69.7012C14.013 69.7012 13.3151 69.115 12.5893 68.4171L11.2772 67.1329L12.673 64.9833C14.7667 61.8009 14.7667 61.8846 13.5105 59.2604C12.8963 58.0042 12.1426 56.1617 11.8076 55.1009C11.4447 54.068 10.9701 53.1188 10.7188 52.9792C10.4397 52.8396 9.01593 52.4488 7.53636 52.1138L4.80053 51.4996V49.6013V47.703L7.50844 47.0888C8.98802 46.7538 10.4397 46.3351 10.7188 46.1397C10.998 45.9722 11.5005 45.023 11.8076 44.018C12.1426 43.013 12.8963 41.1984 13.5105 39.9422C14.7667 37.318 14.7667 37.4018 12.673 34.2193L11.2772 32.0697L12.5893 30.7855C13.3151 30.0876 14.013 29.5014 14.1247 29.5014C14.2643 29.5014 15.3251 30.1155 16.4976 30.8693C17.6701 31.5951 18.8705 32.293 19.1776 32.4047C19.5405 32.5164 20.5455 32.1814 21.9692 31.4835C23.1976 30.8972 25.0401 30.1435 26.045 29.8085C27.2734 29.4176 27.9992 28.9989 28.2225 28.5801C28.8367 27.4076 30.1767 20.5122 29.9254 19.8422C29.6184 19.0606 28.5855 18.3347 27.7759 18.3347C26.4359 18.3347 25.7659 19.3956 25.1238 22.5501L24.5376 25.5093L22.0809 26.5422L19.6242 27.5751L17.0001 25.8722C15.353 24.8393 14.0688 24.1972 13.5663 24.1972C12.9243 24.1972 12.1705 24.8114 9.49052 27.4914C6.81052 30.1714 6.19636 30.9251 6.19636 31.5951C6.19636 32.0976 6.81052 33.3818 7.89927 35.0568L9.57427 37.6809L8.76468 39.5234C8.2901 40.5284 7.84344 41.6172 7.75969 41.9522C7.62011 42.4268 7.14552 42.6222 5.27511 43.013C4.01887 43.2642 2.5672 43.6272 2.09262 43.7667C0.473462 44.2692 0.333879 44.7717 0.333879 49.6013C0.333879 55.3242 0.194296 55.1288 5.2472 56.1896L7.48052 56.6642L8.54135 59.1209L9.57427 61.5775L7.87135 64.2017C6.83844 65.8488 6.19636 67.1329 6.19636 67.6354C6.19636 68.2775 6.81052 69.0312 9.49052 71.7112C12.1705 74.3912 12.9243 75.0054 13.5663 75.0054C14.0688 75.0054 15.353 74.3633 17.0001 73.3304L19.6242 71.6275L22.0809 72.6604L24.5376 73.6933L25.1238 76.6525C25.9334 80.5329 26.2684 80.8679 29.3671 80.8679H31.5725L31.6563 103.424L31.74 125.981L32.7729 128.103C34.0292 130.643 35.6483 132.206 38.2446 133.435L40.115 134.328H67.3337H94.5523L96.4227 133.435C99.019 132.206 100.638 130.643 101.894 128.103L102.927 125.981L103.011 101.163L103.095 76.3454L104.379 76.5408C105.859 76.7641 107.869 77.6854 109.125 78.7462C109.571 79.1371 110.381 80.2258 110.911 81.2029C111.749 82.7662 111.833 83.185 111.861 85.1949C111.861 87.177 111.749 87.6516 110.939 89.2987C110.325 90.5549 109.599 91.532 108.65 92.3137C107.869 92.9558 107.171 93.7653 107.087 94.1283C106.891 94.882 107.589 96.3616 108.231 96.6128C109.516 97.0874 110.297 96.7803 112.084 95.1053C114.066 93.2628 115.378 91.0853 116.048 88.5449C117.974 81.0633 112.782 73.3304 104.993 72.1021L103.067 71.8229V65.1788V58.5346H104.016C105.105 58.5346 105.021 58.395 105.747 61.8009C106.277 64.4529 106.696 64.9275 108.929 65.6533C109.767 65.9325 111.47 66.6304 112.698 67.2167C114.122 67.9146 115.127 68.2496 115.49 68.1379C115.797 68.0263 116.997 67.3283 118.17 66.6025C119.342 65.8488 120.403 65.2346 120.543 65.2346C120.85 65.2346 123.167 67.5238 123.167 67.8587C123.167 67.9983 122.553 69.0592 121.799 70.2317C121.073 71.4042 120.375 72.6046 120.263 72.9117C120.152 73.2746 120.487 74.2796 121.185 75.7033C121.771 76.9316 122.525 78.7741 122.86 79.835C123.223 80.8679 123.697 81.817 123.948 81.9566C124.228 82.0962 125.651 82.4591 127.159 82.822L129.867 83.4362V85.3345V87.2329L127.159 87.847C125.651 88.2099 124.228 88.5729 123.948 88.7124C123.697 88.852 123.223 89.8012 122.86 90.8341C122.525 91.8949 121.771 93.7374 121.157 94.9937C119.901 97.6178 119.901 97.5341 121.994 100.717L123.39 102.866L122.078 104.15C121.352 104.848 120.654 105.434 120.543 105.434C120.403 105.434 119.342 104.82 118.17 104.067C116.997 103.341 115.797 102.643 115.49 102.531C115.127 102.419 114.122 102.754 112.698 103.452C111.47 104.039 109.627 104.792 108.622 105.127C107.394 105.518 106.668 105.937 106.445 106.356C105.831 107.528 104.491 114.424 104.742 115.094C105.049 115.875 106.082 116.601 106.891 116.601C108.231 116.601 108.901 115.54 109.544 112.358C110.046 109.845 110.269 109.315 110.744 109.175C111.051 109.092 112.14 108.645 113.173 108.17L115.015 107.333L117.667 109.036C119.314 110.124 120.571 110.739 121.073 110.739C121.743 110.739 122.497 110.124 125.177 107.444C127.857 104.764 128.471 104.011 128.471 103.341C128.471 102.838 127.857 101.582 126.796 99.907L125.093 97.2828L126.154 94.7982C126.824 93.2349 127.354 92.3137 127.633 92.3137C127.857 92.3137 129.253 92.0066 130.676 91.6437C134.389 90.7224 134.333 90.8062 134.333 85.3345C134.333 79.8629 134.389 79.9466 130.676 79.0254C129.253 78.6625 127.857 78.3554 127.633 78.3554C127.354 78.3554 126.824 77.4341 126.154 75.8708L125.093 73.3583L126.796 70.7342C127.829 69.0871 128.471 67.8029 128.471 67.3004C128.471 66.6583 127.857 65.9046 125.177 63.2246C122.497 60.5446 121.743 59.9304 121.101 59.9304C120.598 59.9304 119.314 60.5725 117.639 61.6334L114.987 63.3363L113.145 62.4988C112.14 62.0242 111.051 61.5775 110.744 61.4938C110.269 61.3542 110.046 60.8238 109.544 58.3113C108.734 54.403 108.399 54.068 105.3 54.068H103.095L103.011 31.5114L102.927 8.95477L101.894 6.83311C100.638 4.29271 99.019 2.72937 96.4227 1.50104L94.5523 0.607712L67.892 0.55188C52.3704 0.523956 40.785 0.635635 40.1429 0.775208ZM93.9661 5.26978C95.5015 5.71645 97.8186 8.03352 98.2652 9.56893C98.7677 11.2439 98.7677 123.692 98.2652 125.367C97.8186 126.902 95.5015 129.219 93.9661 129.666C92.319 130.141 42.3483 130.141 40.7012 129.666C39.1658 129.219 36.8488 126.902 36.4021 125.367C35.8996 123.692 35.8996 11.2439 36.4021 9.56893C36.8208 8.14519 39.1658 5.74437 40.5337 5.2977C42.0133 4.85103 92.4027 4.82312 93.9661 5.26978Z" fill="#CAC8C8" stroke="#040019" stroke-width="1.6" mask="url(#path-1-inside-1_188_834)"/>
<path d="M59.3869 10.3764L59.3796 10.384L59.3719 10.3912C59.0008 10.7391 58.8004 11.2218 58.8004 11.6348C58.8004 12.0479 59.0008 12.5305 59.3719 12.8784L59.3796 12.8856L59.3869 12.8932L59.9388 13.4682H67.3337H74.7286L75.2805 12.8932L75.2878 12.8856L75.2955 12.8784C75.6666 12.5305 75.867 12.0479 75.867 11.6348C75.867 11.2218 75.6666 10.7391 75.2955 10.3912L75.2878 10.384L75.2805 10.3764L74.7286 9.80151H67.3337H59.9388L59.3869 10.3764Z" fill="#CAC8C8" stroke="#040019" stroke-width="0.8"/>
<path d="M50.1092 61.4102C45.4751 66.0444 45.0005 66.6027 45.0005 67.4681C45.0005 68.3335 45.4751 68.8919 50.1092 73.526C54.6317 78.0764 55.3017 78.6348 56.1113 78.6348C57.3396 78.6348 58.4004 77.5739 58.4004 76.3735C58.4004 75.5919 57.8979 74.9498 54.4363 71.4602L50.4721 67.4681L54.4363 63.4761C57.8979 59.9865 58.4004 59.3444 58.4004 58.5627C58.4004 57.3623 57.3396 56.3015 56.1113 56.3015C55.3017 56.3015 54.6317 56.8598 50.1092 61.4102Z" fill="#CAC8C8"/>
<path fill-rule="evenodd" clip-rule="evenodd" d="M50.6749 61.9759L50.6766 61.9742C52.9469 59.6899 54.2181 58.4408 55.0205 57.7592C55.7969 57.0997 55.9918 57.1008 56.1016 57.1015C56.1049 57.1015 56.1081 57.1015 56.1113 57.1015C56.9041 57.1015 57.6004 57.8105 57.6004 58.5627V58.5655C57.6005 58.6898 57.6005 58.8715 57.093 59.5027C56.5663 60.1578 55.608 61.1589 53.8683 62.9127L49.3447 67.4681L53.8683 72.0236C55.608 73.7773 56.5663 74.7784 57.093 75.4336C57.6005 76.0648 57.6005 76.2465 57.6004 76.3708V76.3735C57.6004 77.1258 56.9041 77.8348 56.1113 77.8348C56.1081 77.8348 56.1049 77.8348 56.1016 77.8348C55.9918 77.8354 55.7969 77.8365 55.0205 77.1771C54.2181 76.4955 52.9469 75.2464 50.6766 72.9621L50.6749 72.9603C48.3467 70.6322 47.0991 69.3627 46.4284 68.5679C46.0939 68.1714 45.9423 67.9381 45.8699 67.7852C45.8122 67.6636 45.8005 67.5872 45.8005 67.4681C45.8005 67.3491 45.8122 67.2726 45.8699 67.151C45.9423 66.9982 46.0939 66.7649 46.4284 66.3684C47.0991 65.5736 48.3467 64.3041 50.6749 61.9759ZM54.4363 71.4602C57.8979 74.9498 58.4004 75.5919 58.4004 76.3735C58.4004 77.5739 57.3396 78.6348 56.1113 78.6348C55.3017 78.6348 54.6317 78.0764 50.1092 73.526C45.4751 68.8919 45.0005 68.3335 45.0005 67.4681C45.0005 66.6027 45.4751 66.0444 50.1092 61.4102C54.6317 56.8598 55.3017 56.3015 56.1113 56.3015C57.3396 56.3015 58.4004 57.3623 58.4004 58.5627C58.4004 59.3444 57.8979 59.9865 54.4363 63.4761L50.4721 67.4681L54.4363 71.4602Z" fill="#040019"/>
<path d="M68.454 57.1124L68.4541 57.1125L68.4448 57.1197C68.4022 57.1529 68.3041 57.2656 68.1538 57.6059C68.009 57.9339 67.8357 58.4248 67.6155 59.1531C67.1757 60.6076 66.5639 62.9569 65.6283 66.727L65.6283 66.727L65.6277 66.7296C64.9721 69.2962 64.3794 71.7017 63.9508 73.5101C63.7365 74.4146 63.5635 75.1682 63.4443 75.7173C63.3847 75.9921 63.339 76.2134 63.3084 76.3758C63.276 76.5479 63.268 76.618 63.2672 76.6243C63.2672 76.6246 63.2672 76.6248 63.2672 76.6248C63.2672 76.911 63.4761 77.3147 63.8612 77.6712C64.2415 78.0232 64.6933 78.2348 65.0447 78.2348C65.4929 78.2348 65.7195 78.21 65.9082 78.0937C66.0966 77.9775 66.3132 77.7248 66.5852 77.0829C67.1313 75.7939 67.7781 73.2542 69.0395 68.2086L69.04 68.2066C69.6956 65.6401 70.2883 63.2346 70.7168 61.4262C70.9312 60.5217 71.1042 59.7681 71.2233 59.219C71.283 58.9441 71.3287 58.7228 71.3593 58.5604C71.3916 58.3884 71.3997 58.3182 71.4004 58.312L71.4005 58.3115C71.4005 57.7276 70.9709 57.2025 70.3266 56.932C69.685 56.6627 68.9521 56.7009 68.454 57.1124Z" fill="#CAC8C8" stroke="#040019" stroke-width="0.8"/>
<path d="M77.2478 57.2823L77.248 57.2824L77.2386 57.2912C76.8675 57.6391 76.6671 58.0938 76.6671 58.5627C76.6671 58.8204 76.728 59.0882 77.2628 59.7533C77.8053 60.4281 78.78 61.4451 80.5152 63.1944L84.4792 67.1863L84.7591 67.4681L84.4792 67.75L80.5152 71.7419C78.78 73.4912 77.8053 74.5082 77.2628 75.183C76.728 75.8481 76.6671 76.1159 76.6671 76.3735C76.6671 77.3499 77.5457 78.2348 78.5562 78.2348C78.8128 78.2348 79.0891 78.1757 79.906 77.4819C80.7242 76.787 82.0088 75.5238 84.2746 73.2441L84.2755 73.2432C86.5981 70.9206 87.8605 69.6367 88.5448 68.8258C88.8865 68.4209 89.0644 68.1563 89.1591 67.9567C89.2464 67.7726 89.267 67.6358 89.267 67.4681C89.267 67.3004 89.2464 67.1636 89.1591 66.9796C89.0644 66.78 88.8865 66.5154 88.5448 66.1104C87.8605 65.2995 86.5981 64.0157 84.2755 61.6931L84.2746 61.6922C82.0088 59.4125 80.7242 58.1493 79.906 57.4543C79.0891 56.7605 78.8128 56.7015 78.5562 56.7015C78.0638 56.7015 77.6313 56.8988 77.2478 57.2823Z" fill="#CAC8C8" stroke="#040019" stroke-width="0.8"/>
<path d="M112.99 19.3064L112.984 19.3126L112.978 19.3185C111.844 20.4295 112.416 22.2732 113.946 22.5761C114.298 22.6412 114.467 22.6323 114.617 22.5746C114.787 22.5094 114.986 22.3625 115.346 22.0169C115.863 21.4723 116.067 21.0374 116.067 20.5682C116.067 20.1214 115.852 19.6604 115.497 19.3052C115.141 18.95 114.68 18.7349 114.234 18.7349C113.82 18.7349 113.338 18.9353 112.99 19.3064Z" fill="#CAC8C8" stroke="#040019" stroke-width="0.8"/>
<path d="M112.99 28.24L112.984 28.2462L112.978 28.2521C111.844 29.3631 112.416 31.2068 113.946 31.5097C114.298 31.5748 114.467 31.5659 114.617 31.5082C114.787 31.443 114.986 31.2961 115.346 30.9504C115.863 30.4059 116.067 29.971 116.067 29.5018C116.067 29.055 115.852 28.594 115.497 28.2388C115.141 27.8836 114.68 27.6685 114.234 27.6685C113.82 27.6685 113.338 27.8689 112.99 28.24Z" fill="#CAC8C8" stroke="#040019" stroke-width="0.8"/>
<path d="M112.99 37.1726L112.984 37.1788L112.978 37.1847C111.844 38.2957 112.416 40.1394 113.946 40.4424C114.298 40.5074 114.467 40.4985 114.617 40.4408C114.787 40.3756 114.986 40.2287 115.346 39.8831C115.863 39.3385 116.067 38.9036 116.067 38.4344C116.067 37.9877 115.852 37.5266 115.497 37.1714C115.141 36.8162 114.68 36.6011 114.234 36.6011C113.82 36.6011 113.338 36.8015 112.99 37.1726Z" fill="#CAC8C8" stroke="#040019" stroke-width="0.8"/>
<path d="M19.8608 94.3581L19.8609 94.3582L19.8529 94.3613C19.2464 94.5972 18.8185 95.1711 18.6708 95.8249C18.523 96.4797 18.6716 97.1373 19.1144 97.5477L19.1144 97.5476L19.1178 97.5508C20.0233 98.4099 21.3501 98.19 21.8921 97.1287L21.892 97.1287L21.8961 97.121C22.1731 96.6065 22.2668 96.2401 22.2438 95.9382C22.2215 95.6458 22.0845 95.3495 21.7576 94.9842C21.4123 94.6141 21.0858 94.399 20.782 94.304C20.4859 94.2115 20.1844 94.2242 19.8608 94.3581Z" fill="#CAC8C8" stroke="#040019" stroke-width="0.8"/>
<path d="M19.8608 103.292L19.8609 103.292L19.8529 103.295C19.2464 103.531 18.8185 104.105 18.6708 104.759C18.523 105.413 18.6716 106.071 19.1144 106.481L19.1144 106.481L19.1178 106.484C20.0233 107.344 21.3501 107.124 21.8921 106.062L21.892 106.062L21.8961 106.055C22.1731 105.54 22.2668 105.174 22.2438 104.872C22.2215 104.579 22.0845 104.283 21.7576 103.918C21.4123 103.548 21.0858 103.333 20.782 103.238C20.4859 103.145 20.1844 103.158 19.8608 103.292Z" fill="#CAC8C8" stroke="#040019" stroke-width="0.8"/>
<path d="M19.8608 112.225L19.8609 112.225L19.8529 112.229C19.2464 112.464 18.8185 113.038 18.6708 113.692C18.523 114.347 18.6716 115.005 19.1144 115.415L19.1144 115.415L19.1178 115.418C20.0233 116.277 21.3501 116.057 21.8921 114.996L21.892 114.996L21.8961 114.988C22.1731 114.474 22.2668 114.107 22.2438 113.805C22.2215 113.513 22.0845 113.217 21.7576 112.851C21.4123 112.481 21.0858 112.266 20.782 112.171C20.4859 112.079 20.1844 112.091 19.8608 112.225Z" fill="#CAC8C8" stroke="#040019" stroke-width="0.8"/>
</svg>
