<svg width="153" height="92" viewBox="0 0 153 92" fill="none" xmlns="http://www.w3.org/2000/svg">
<path d="M52.3633 20.0381C59.8373 25.6306 69.3331 25.8736 80.8506 20.767C89.5305 23.5538 95.2436 25.3714 97.9898 26.2199L130.555 56.0634L151.403 46.9357" stroke="#CAC8C8" stroke-width="2" stroke-linecap="round" stroke-linejoin="round"/>
<path d="M75.6442 3.87891L45.56 8.52803L31.9261 17.156L13.3638 10.1505" stroke="#CAC8C8" stroke-width="2" stroke-linecap="round" stroke-linejoin="round"/>
<path fill-rule="evenodd" clip-rule="evenodd" d="M41.7943 43.6566C45.1629 46.4652 45.3472 51.1836 42.2059 54.1955L36.7191 59.4562C33.5778 62.4681 28.3005 62.6329 24.9319 59.8243C21.5633 57.0157 21.379 52.2972 24.5203 49.2854L30.0071 44.0246C33.1484 41.0127 38.4257 40.8479 41.7943 43.6566Z" stroke="#CAC8C8" stroke-width="2" stroke-linecap="round" stroke-linejoin="round"/>
<path fill-rule="evenodd" clip-rule="evenodd" d="M62.4298 46.572C65.732 49.4277 65.9126 54.2253 62.8333 57.2877L49.1009 70.9444C46.0216 74.0068 40.8483 74.1743 37.5461 71.3186C34.2439 68.4629 34.0633 63.6653 37.1426 60.6029L50.875 46.9462C53.9543 43.8838 59.1276 43.7163 62.4298 46.572Z" stroke="#CAC8C8" stroke-width="2" stroke-linecap="round" stroke-linejoin="round"/>
<path fill-rule="evenodd" clip-rule="evenodd" d="M76.0668 57.4197C79.6109 60.995 80.4555 65.2629 77.4044 68.3109L65.1052 80.5978C62.0542 83.6458 56.8111 84.2607 52.7732 80.7144C48.7353 77.1681 48.3218 72.3573 51.3728 69.3093L63.6721 57.0224C66.7231 53.9744 72.5228 53.8445 76.0668 57.4197Z" stroke="#CAC8C8" stroke-width="2" stroke-linecap="round" stroke-linejoin="round"/>
<path fill-rule="evenodd" clip-rule="evenodd" d="M87.7166 69.5773C91.0781 72.3611 91.262 77.0379 88.1273 80.0232L79.4387 88.2977C76.304 91.2829 71.0378 91.4463 67.6763 88.6625C64.3148 85.8787 64.1309 81.2019 67.2656 78.2166L75.9542 69.9421C79.0889 66.9569 84.3551 66.7935 87.7166 69.5773Z" stroke="#CAC8C8" stroke-width="2" stroke-linecap="round" stroke-linejoin="round"/>
<path fill-rule="evenodd" clip-rule="evenodd" d="M94.4714 55.2683C97.7568 52.416 102.992 52.4981 106.165 55.4518L114.959 63.6386C118.131 66.5923 118.04 71.2989 114.755 74.1512C111.469 77.0035 106.234 76.9214 103.061 73.9677L94.2673 65.7808C91.0946 62.8272 91.186 58.1206 94.4714 55.2683Z" stroke="#CAC8C8" stroke-width="2" stroke-linecap="round" stroke-linejoin="round"/>
<path d="M99.9752 71.3838L101.006 72.4493C103.264 74.7781 103.572 79.0227 101.239 81.2758L100.851 81.6495C98.3081 84.0998 94.2563 84.0293 91.8009 81.4919L88.7798 78.3521" stroke="#CAC8C8" stroke-width="2" stroke-linecap="round" stroke-linejoin="round"/>
<path d="M130.729 56.2158C132.556 58.9586 133.462 64.9437 130.979 67.1896L129.612 68.4255C126.518 71.2242 121.587 71.1436 118.599 68.2454C118.595 68.2409 118.155 67.8111 117.28 66.9558" stroke="#CAC8C8" stroke-width="2" stroke-linecap="round" stroke-linejoin="round"/>
<path d="M139.446 11.608L129.462 16.3796L108.22 1.30469L75.4488 3.62571L52.5757 20.1934" stroke="#CAC8C8" stroke-width="2" stroke-linecap="round" stroke-linejoin="round"/>
<path d="M1.5 45.8916L21.9432 54.1953" stroke="#CAC8C8" stroke-width="2" stroke-linecap="round" stroke-linejoin="round"/>
</svg>
