<svg width="137" height="123" viewBox="0 0 137 123" fill="none" xmlns="http://www.w3.org/2000/svg">
<path d="M68.8335 121.364C105.466 121.364 124.194 121.364 125.016 121.364C126.249 121.364 127.203 121.067 128.391 119.82C129.579 118.572 133.627 114.749 134.374 114.031C135.122 113.312 135.465 112.189 135.465 111.611C135.465 111.034 135.465 110.048 135.465 109.499C135.465 108.951 134.939 108.405 133.896 108.405C132.853 108.405 85.3744 108.405 84.6844 108.405C83.9944 108.405 83.346 109.113 82.9168 109.499C82.4876 109.886 80.4054 111.741 80.0162 112.108C79.627 112.475 79.2455 112.656 78.588 112.656C78.1497 112.656 74.9192 112.656 68.8965 112.656" stroke="#CAC8C8" stroke-width="2" stroke-linecap="round" stroke-linejoin="round"/>
<path d="M126.741 108.338C126.741 64.6153 126.741 41.2333 126.741 38.1919C126.741 33.6297 123.858 30.4814 119.666 30.4814C116.872 30.4814 107.403 30.4814 91.2588 30.4814" stroke="#CAC8C8" stroke-width="2" stroke-linecap="round" stroke-linejoin="round"/>
<path d="M68.1899 121.364C31.5572 121.364 12.8297 121.364 12.0075 121.364C10.7743 121.364 9.82076 121.067 8.63283 119.82C7.44489 118.572 3.39664 114.749 2.64907 114.031C1.90151 113.312 1.55866 112.189 1.55866 111.611C1.55866 111.034 1.55866 110.048 1.55866 109.499C1.55866 108.951 2.08454 108.405 3.12729 108.405C4.17005 108.405 51.649 108.405 52.339 108.405C53.029 108.405 53.6774 109.113 54.1066 109.499C54.5358 109.886 56.6181 111.741 57.0073 112.108C57.3964 112.475 57.7779 112.656 58.4354 112.656C58.8737 112.656 62.1042 112.656 68.1269 112.656" stroke="#CAC8C8" stroke-width="2" stroke-linecap="round" stroke-linejoin="round"/>
<path d="M10.1835 108.338C10.1835 64.6153 10.1835 41.2333 10.1835 38.1919C10.1835 33.6297 13.0663 30.4814 17.2579 30.4814C20.0523 30.4814 29.5902 30.4814 45.8716 30.4814" stroke="#CAC8C8" stroke-width="2" stroke-linecap="round" stroke-linejoin="round"/>
<path d="M87.2489 39.1396C105.925 39.1396 115.858 39.1396 117.048 39.1396C118.834 39.1396 119.278 40.3751 119.278 41.5751C119.278 42.7751 119.278 98.5357 119.278 99.6226C119.278 100.709 118.522 101.479 117.358 101.479C116.582 101.479 100.407 101.479 68.8335 101.479" stroke="#CAC8C8" stroke-width="2" stroke-linecap="round" stroke-linejoin="round"/>
<path d="M50.6856 39.1396C32.111 39.1396 22.2285 39.1396 21.0381 39.1396C19.2526 39.1396 18.8084 40.3751 18.8084 41.5751C18.8084 42.7751 18.8084 98.5357 18.8084 99.6226C18.8084 100.709 19.564 101.479 20.728 101.479C21.5041 101.479 37.4295 101.479 68.5044 101.479" stroke="#CAC8C8" stroke-width="2" stroke-linecap="round" stroke-linejoin="round"/>
<path d="M68.8338 47.6057C81.6422 47.6057 92.0254 37.1825 92.0254 24.3248C92.0254 11.4672 81.6422 1.04395 68.8338 1.04395C56.0254 1.04395 45.6421 11.4672 45.6421 24.3248C45.6421 37.1825 56.0254 47.6057 68.8338 47.6057Z" stroke="#CAC8C8" stroke-width="2" stroke-linecap="round" stroke-linejoin="round"/>
<path d="M83.5918 43.373C91.4935 48.2207 104.548 60.6432 104.524 84.0441" stroke="#CAC8C8" stroke-width="2" stroke-linecap="round" stroke-linejoin="round"/>
<path d="M103.708 84.8982C89.3681 96.8158 49.5093 94.8873 34.6513 87.5035C29.4386 84.913 36.1086 51.5202 53.9051 43.373" stroke="#CAC8C8" stroke-width="2" stroke-linecap="round" stroke-linejoin="round"/>
</svg>
