<svg width="136" height="136" viewBox="0 0 136 136" fill="none" xmlns="http://www.w3.org/2000/svg">
<mask id="path-1-inside-1_188_783" fill="white">
<path d="M36.4014 0.0556946C30.2917 1.16606 26.8534 2.69942 22.5687 6.18913C19.58 8.62137 16.5912 12.7456 15.1894 16.3675C13.6025 20.4388 13.6025 20.4917 13.3909 34.0011C13.1529 48.4094 13.1264 48.7531 10.9841 52.9831C9.34425 56.2613 6.9903 58.9315 3.94869 60.9143C2.83784 61.681 1.80633 62.3154 1.67409 62.3683C0.93352 62.6063 5.27113 67.6029 7.67797 69.2949L8.41854 69.8236L6.93741 70.8547C4.8215 72.3087 2.99653 74.4237 1.85923 76.6709C0.378095 79.7112 0.192953 81.0595 0.166504 88.9113V95.8643H13.2587H26.3509V100.226V104.589H39.443H52.5352V100.226V95.8643H65.6274H78.7196V90.3125V84.7607L79.8568 84.9193C80.6768 85.0251 81.1264 85.2894 81.6289 85.8975C81.9992 86.3734 82.9778 87.4837 83.8242 88.3562L85.3582 89.9953L85.2789 92.1631L85.1995 94.3574L76.2334 96.9483C70.6262 98.5609 66.5266 99.8828 65.31 100.491C62.7709 101.733 60.1525 104.324 58.83 106.836C57.1902 110.008 57.0315 111.039 57.0315 119.235V126.532H70.1237H83.2159V130.894V135.256H96.308H109.4V130.894V126.532H122.492H135.585V119.843C135.585 116.195 135.452 112.414 135.294 111.489C134.553 106.889 131.406 102.579 127.306 100.517C126.089 99.9092 122.096 98.6138 116.409 96.9747L107.417 94.3839L107.337 92.1896L107.258 89.9953L108.845 88.3297C109.691 87.4044 110.617 86.294 110.855 85.8975C111.252 85.2366 111.543 85.1044 113.129 84.84C116.727 84.2848 119.874 81.9583 121.408 78.7066L122.228 76.9617V64.404V51.8463L121.487 49.4934C119.133 41.9059 114.187 36.2219 107.152 32.9172C103.291 31.093 101.466 30.7229 96.308 30.7229C92.3936 30.6965 91.5472 30.7758 89.6958 31.3045C84.8557 32.7057 80.8884 35.0322 77.6351 38.4162C73.2975 42.9105 70.9436 47.8014 70.2824 53.7762C70.1501 54.9923 69.9914 56.0234 69.9385 56.1027C69.5683 56.4464 67.3994 52.375 66.5266 49.7313C65.9448 47.9336 65.9183 47.4577 65.7332 35.1908C65.6274 27.6298 65.4158 21.9722 65.2571 21.1791C62.5064 8.80643 52.5088 0.346497 40.2365 0.0292511C38.4909 -0.0236206 36.7717 0.00282288 36.4014 0.0556946ZM44.6005 4.92015C51.9533 6.69145 57.6927 12.0318 60.2318 19.4606L61.1046 21.9722L61.2104 28.37L61.3162 34.7943L59.5441 33.8689C58.592 33.3666 57.6134 32.9436 57.4282 32.9436C57.1373 32.9436 57.0315 32.3885 56.9786 30.6172L56.8993 28.3171L54.1221 28.1585C48.6208 27.8148 45.2353 25.7792 41.268 20.4653C40.2894 19.1698 39.4166 18.1917 39.3108 18.3238C39.205 18.4296 38.3851 19.5135 37.4858 20.7032C33.5978 25.8849 30.2653 27.8413 24.8433 28.1056L22.119 28.2643V30.485V32.7057L21.1404 33.1023C20.585 33.3138 19.5535 33.7896 18.8394 34.1598L17.5698 34.8471L17.6756 28.6872C17.8079 22.9239 17.8608 22.3423 18.522 20.1744C19.7651 16.0502 21.5636 13.1421 24.6846 10.1812C27.5939 7.43169 31.0058 5.63396 34.8145 4.81439C37.4594 4.23277 41.9292 4.28566 44.6005 4.92015ZM41.03 26.9688C43.7277 29.6126 47.9067 31.7804 51.2921 32.2827L52.5352 32.4678V39.9231C52.5352 45.7657 52.4559 47.7221 52.1385 48.9382C50.9218 53.5647 47.3248 57.1337 42.6698 58.3499C39.4959 59.1959 36.613 58.8786 33.492 57.3188C31.7729 56.4728 29.1015 53.9084 28.1494 52.2164C26.5624 49.3348 26.536 49.0439 26.4037 40.4783L26.298 32.5471L28.0965 32.2034C31.5877 31.5425 35.7666 29.2953 38.2528 26.7573C38.8876 26.0964 39.4695 25.5412 39.4959 25.5412C39.5488 25.5412 40.2365 26.1757 41.03 26.9688ZM100.037 35.1908C102.523 35.6403 105.539 36.8035 107.998 38.284C110.009 39.5001 113.103 42.5668 114.478 44.7347C117.388 49.2819 118.128 52.4015 118.128 60.1212V65.4879L117.176 64.827C116.647 64.4569 115.536 63.981 114.69 63.7166C113.235 63.2936 113.129 63.2143 112.601 61.8924C111.886 60.2005 110.114 58.3499 108.422 57.5039C107.364 57.0016 106.729 56.8694 104.772 56.8694C102.497 56.8694 102.285 56.9222 100.17 57.9797C97.075 59.5395 95.5939 59.566 92.4465 58.0326C88.6643 56.182 85.2789 56.3671 82.4753 58.5614C81.1793 59.5924 79.9626 61.3373 79.6453 62.6063C79.513 63.1614 79.2221 63.3465 78.2435 63.6109C77.5558 63.7695 76.4714 64.1925 75.8366 64.5626C75.2019 64.9063 74.6464 65.1971 74.5935 65.1971C74.5406 65.1971 74.4877 62.7649 74.4877 59.7775C74.4877 55.8383 74.5935 53.7762 74.9109 52.2957C76.683 43.6243 83.6919 36.7771 92.3936 35.2173C95.1443 34.7149 97.2337 34.7149 100.037 35.1908ZM22.119 42.6461C22.119 45.5278 22.1984 48.3301 22.2777 48.8853C22.4364 49.8106 22.41 49.8635 21.9074 49.6784C20.585 49.1761 18.9981 47.7485 18.3898 46.5324C17.5434 44.814 17.5169 42.276 18.3369 40.7426C19.0774 39.3415 21.0875 37.4909 21.9339 37.438C22.0397 37.438 22.119 39.7909 22.119 42.6461ZM59.8615 39.5265C61.3956 41.5093 61.6865 44.0737 60.6285 46.3209C59.9673 47.7221 58.5126 49.1497 57.2166 49.5991C56.4761 49.8371 56.4496 49.8371 56.6083 49.1233C56.7141 48.7267 56.8728 45.9508 56.9522 42.9369L57.0844 37.438L58.1424 38.0196C58.6978 38.3369 59.4912 39.0242 59.8615 39.5265ZM17.8608 52.3486C19.5535 53.4854 21.8281 54.3578 23.1505 54.3578C24.0763 54.3578 24.2614 54.49 25.7161 56.3406C26.5624 57.451 27.541 58.5085 27.8584 58.7464C28.4139 59.0901 28.4668 59.328 28.4668 61.4695V63.7959L21.7488 65.7259C15.2159 67.5765 14.9779 67.6293 13.6819 67.3121C12.2272 66.9684 9.71453 65.5672 8.55079 64.4569L7.83667 63.7695L9.63519 62.0511C12.5181 59.2752 15.0043 55.5211 16.0094 52.4279C16.1945 51.8992 16.3796 51.4497 16.4325 51.4497C16.4854 51.4497 17.1202 51.8463 17.8608 52.3486ZM63.1412 52.9567C64.4107 56.182 66.4737 59.2487 68.907 61.6281L69.9914 62.6591V66.1753V69.665L68.8806 69.1891C68.2458 68.9512 63.8553 67.6029 59.0945 66.2546L50.4193 63.7695V61.6281V59.4867L51.8475 58.0062C52.641 57.1866 53.5932 56.0498 53.9634 55.4418C54.5718 54.49 54.7834 54.3578 55.6562 54.3578C57.5076 54.3578 60.8401 52.9831 61.7923 51.8727C62.3213 51.2118 62.48 51.344 63.1412 52.9567ZM90.5951 62.0246C94.5889 64.0339 98.2388 64.0867 101.677 62.1568C105.01 60.2798 107.655 61.0729 108.845 64.2982C109.347 65.5937 109.4 66.3339 109.4 71.6214C109.4 75.8513 109.294 77.9399 109.003 79.156C107.602 85.1308 102.471 89.255 96.3874 89.3079C92.7374 89.3079 89.8016 88.1447 87.2361 85.6067C85.3847 83.7825 84.3796 82.1434 83.7184 79.7905C83.2952 78.2836 83.2159 77.1203 83.2159 71.78C83.2159 64.8006 83.401 63.7695 84.9086 62.3154C86.4955 60.7821 88.0031 60.7028 90.5951 62.0246ZM35.4757 62.712C38.3322 63.3729 42.2202 63.1614 45.3411 62.1833C45.8965 61.9982 45.923 62.0511 45.923 63.3465C45.923 64.6948 45.8701 64.7741 42.8549 68.5811C41.1622 70.7225 39.6811 72.4938 39.5753 72.5467C39.443 72.5995 37.909 70.8547 36.1634 68.6604C32.9895 64.7477 32.9631 64.6684 32.9631 63.3201C32.9631 62.1304 33.016 61.9982 33.4391 62.1568C33.6772 62.2361 34.6029 62.5005 35.4757 62.712ZM32.4341 71.0133L34.8674 74.0536L30.6091 74.1329L26.3509 74.1858V82.9101V91.6344H21.9868H17.6227V87.2722V82.9101H15.5068H13.3909L13.338 87.1929L13.2587 91.5022L8.97397 91.5815L4.66281 91.6344V86.6113C4.66281 82.2227 4.74215 81.3767 5.21823 79.9491C6.17039 77.0939 8.25985 74.7674 10.9312 73.5777C11.8569 73.1547 29.8421 67.8144 29.9743 67.9466C29.9743 67.9466 31.1116 69.3478 32.4341 71.0133ZM66.9498 73.1547C69.5154 74.08 70.1766 74.6352 70.3353 75.9835C70.5204 77.5962 72.0015 80.4514 73.3504 81.7468L74.4877 82.8572V87.2458V91.6344H70.1237H65.7596V87.2722V82.9101H63.5115H61.2633V87.2722V91.6344H56.8993H52.5352V82.9101V74.1858L48.3034 74.1329L44.0716 74.0536L45.4469 72.3352C46.1875 71.3834 47.3248 70.0087 47.9331 69.2684L49.0704 67.9202L57.2166 70.2466C61.6865 71.5421 66.077 72.8375 66.9498 73.1547ZM78.7196 72.2559C78.746 74.5559 78.8518 77.2525 78.984 78.2836C79.1163 79.2882 79.1692 80.1606 79.1163 80.2399C78.8782 80.4778 77.3707 79.6319 76.4978 78.7859C75.149 77.4904 74.6993 76.4329 74.5671 74.4502C74.4613 72.9432 74.5406 72.5467 75.2019 71.2777C75.8631 69.9558 77.7938 68.1052 78.4815 68.1052C78.6138 68.1052 78.7196 69.9029 78.7196 72.2559ZM115.536 69.0305C117.203 70.2995 117.996 71.965 117.996 74.1858C117.97 76.2479 117.361 77.5962 115.801 78.9974C114.875 79.8434 113.685 80.4778 113.553 80.2135C113.526 80.187 113.526 77.4376 113.579 74.1065C113.658 69.4799 113.764 68.1052 114.002 68.1052C114.187 68.1052 114.902 68.5282 115.536 69.0305ZM48.2505 89.4401L48.3034 100.359H39.5753H30.8472V89.3872V78.4157L39.5224 78.4686L48.1711 78.5479L48.2505 89.4401ZM102.788 93.8022C102.788 95.177 102.762 95.2563 99.7199 99.0368C98.0536 101.152 96.5725 102.976 96.4403 103.082C96.3345 103.214 94.8004 101.522 93.0284 99.3276C89.8545 95.4149 89.8281 95.3356 89.8281 93.9873C89.8281 92.6919 89.8545 92.639 90.4364 92.7976C94.2186 93.908 98.4504 93.9873 101.201 93.0091C101.995 92.7183 102.682 92.4804 102.735 92.4539C102.762 92.4539 102.788 93.062 102.788 93.8022ZM89.1404 101.469C90.3835 103.029 91.415 104.377 91.415 104.456C91.415 104.536 89.5636 104.589 87.3154 104.589H83.2159V113.313V122.037H78.8518H74.4877L74.4348 117.728L74.3555 113.445H72.2396H70.1237L70.0443 117.728L69.9914 122.037H65.6274H61.2633V117.86C61.2633 112.996 61.5543 111.145 62.6122 109.057C63.5115 107.259 65.5216 105.197 67.135 104.404C67.7433 104.086 70.7056 103.108 73.6943 102.236C76.683 101.363 80.7297 100.174 82.6869 99.592C84.6441 99.0104 86.3897 98.5609 86.5484 98.5874C86.7335 98.6138 87.8973 99.9092 89.1404 101.469ZM115.113 101.152C120.112 102.606 124.714 104.033 125.322 104.351C127.094 105.25 129.157 107.391 130.11 109.321L130.956 111.066L131.035 116.538L131.115 122.037H126.751H122.36V117.675V113.313H120.244H118.128V117.675V122.037H113.764H109.4V113.313V104.589L105.195 104.536L100.989 104.456L103.37 101.469C104.666 99.8564 105.803 98.5081 105.883 98.5081C105.962 98.5081 110.114 99.6977 115.113 101.152ZM104.904 119.922V130.762H96.1758H87.4477V119.922V109.083H96.1758H104.904V119.922Z"/>
</mask>
<path d="M36.4014 0.0556946C30.2917 1.16606 26.8534 2.69942 22.5687 6.18913C19.58 8.62137 16.5912 12.7456 15.1894 16.3675C13.6025 20.4388 13.6025 20.4917 13.3909 34.0011C13.1529 48.4094 13.1264 48.7531 10.9841 52.9831C9.34425 56.2613 6.9903 58.9315 3.94869 60.9143C2.83784 61.681 1.80633 62.3154 1.67409 62.3683C0.93352 62.6063 5.27113 67.6029 7.67797 69.2949L8.41854 69.8236L6.93741 70.8547C4.8215 72.3087 2.99653 74.4237 1.85923 76.6709C0.378095 79.7112 0.192953 81.0595 0.166504 88.9113V95.8643H13.2587H26.3509V100.226V104.589H39.443H52.5352V100.226V95.8643H65.6274H78.7196V90.3125V84.7607L79.8568 84.9193C80.6768 85.0251 81.1264 85.2894 81.6289 85.8975C81.9992 86.3734 82.9778 87.4837 83.8242 88.3562L85.3582 89.9953L85.2789 92.1631L85.1995 94.3574L76.2334 96.9483C70.6262 98.5609 66.5266 99.8828 65.31 100.491C62.7709 101.733 60.1525 104.324 58.83 106.836C57.1902 110.008 57.0315 111.039 57.0315 119.235V126.532H70.1237H83.2159V130.894V135.256H96.308H109.4V130.894V126.532H122.492H135.585V119.843C135.585 116.195 135.452 112.414 135.294 111.489C134.553 106.889 131.406 102.579 127.306 100.517C126.089 99.9092 122.096 98.6138 116.409 96.9747L107.417 94.3839L107.337 92.1896L107.258 89.9953L108.845 88.3297C109.691 87.4044 110.617 86.294 110.855 85.8975C111.252 85.2366 111.543 85.1044 113.129 84.84C116.727 84.2848 119.874 81.9583 121.408 78.7066L122.228 76.9617V64.404V51.8463L121.487 49.4934C119.133 41.9059 114.187 36.2219 107.152 32.9172C103.291 31.093 101.466 30.7229 96.308 30.7229C92.3936 30.6965 91.5472 30.7758 89.6958 31.3045C84.8557 32.7057 80.8884 35.0322 77.6351 38.4162C73.2975 42.9105 70.9436 47.8014 70.2824 53.7762C70.1501 54.9923 69.9914 56.0234 69.9385 56.1027C69.5683 56.4464 67.3994 52.375 66.5266 49.7313C65.9448 47.9336 65.9183 47.4577 65.7332 35.1908C65.6274 27.6298 65.4158 21.9722 65.2571 21.1791C62.5064 8.80643 52.5088 0.346497 40.2365 0.0292511C38.4909 -0.0236206 36.7717 0.00282288 36.4014 0.0556946ZM44.6005 4.92015C51.9533 6.69145 57.6927 12.0318 60.2318 19.4606L61.1046 21.9722L61.2104 28.37L61.3162 34.7943L59.5441 33.8689C58.592 33.3666 57.6134 32.9436 57.4282 32.9436C57.1373 32.9436 57.0315 32.3885 56.9786 30.6172L56.8993 28.3171L54.1221 28.1585C48.6208 27.8148 45.2353 25.7792 41.268 20.4653C40.2894 19.1698 39.4166 18.1917 39.3108 18.3238C39.205 18.4296 38.3851 19.5135 37.4858 20.7032C33.5978 25.8849 30.2653 27.8413 24.8433 28.1056L22.119 28.2643V30.485V32.7057L21.1404 33.1023C20.585 33.3138 19.5535 33.7896 18.8394 34.1598L17.5698 34.8471L17.6756 28.6872C17.8079 22.9239 17.8608 22.3423 18.522 20.1744C19.7651 16.0502 21.5636 13.1421 24.6846 10.1812C27.5939 7.43169 31.0058 5.63396 34.8145 4.81439C37.4594 4.23277 41.9292 4.28566 44.6005 4.92015ZM41.03 26.9688C43.7277 29.6126 47.9067 31.7804 51.2921 32.2827L52.5352 32.4678V39.9231C52.5352 45.7657 52.4559 47.7221 52.1385 48.9382C50.9218 53.5647 47.3248 57.1337 42.6698 58.3499C39.4959 59.1959 36.613 58.8786 33.492 57.3188C31.7729 56.4728 29.1015 53.9084 28.1494 52.2164C26.5624 49.3348 26.536 49.0439 26.4037 40.4783L26.298 32.5471L28.0965 32.2034C31.5877 31.5425 35.7666 29.2953 38.2528 26.7573C38.8876 26.0964 39.4695 25.5412 39.4959 25.5412C39.5488 25.5412 40.2365 26.1757 41.03 26.9688ZM100.037 35.1908C102.523 35.6403 105.539 36.8035 107.998 38.284C110.009 39.5001 113.103 42.5668 114.478 44.7347C117.388 49.2819 118.128 52.4015 118.128 60.1212V65.4879L117.176 64.827C116.647 64.4569 115.536 63.981 114.69 63.7166C113.235 63.2936 113.129 63.2143 112.601 61.8924C111.886 60.2005 110.114 58.3499 108.422 57.5039C107.364 57.0016 106.729 56.8694 104.772 56.8694C102.497 56.8694 102.285 56.9222 100.17 57.9797C97.075 59.5395 95.5939 59.566 92.4465 58.0326C88.6643 56.182 85.2789 56.3671 82.4753 58.5614C81.1793 59.5924 79.9626 61.3373 79.6453 62.6063C79.513 63.1614 79.2221 63.3465 78.2435 63.6109C77.5558 63.7695 76.4714 64.1925 75.8366 64.5626C75.2019 64.9063 74.6464 65.1971 74.5935 65.1971C74.5406 65.1971 74.4877 62.7649 74.4877 59.7775C74.4877 55.8383 74.5935 53.7762 74.9109 52.2957C76.683 43.6243 83.6919 36.7771 92.3936 35.2173C95.1443 34.7149 97.2337 34.7149 100.037 35.1908ZM22.119 42.6461C22.119 45.5278 22.1984 48.3301 22.2777 48.8853C22.4364 49.8106 22.41 49.8635 21.9074 49.6784C20.585 49.1761 18.9981 47.7485 18.3898 46.5324C17.5434 44.814 17.5169 42.276 18.3369 40.7426C19.0774 39.3415 21.0875 37.4909 21.9339 37.438C22.0397 37.438 22.119 39.7909 22.119 42.6461ZM59.8615 39.5265C61.3956 41.5093 61.6865 44.0737 60.6285 46.3209C59.9673 47.7221 58.5126 49.1497 57.2166 49.5991C56.4761 49.8371 56.4496 49.8371 56.6083 49.1233C56.7141 48.7267 56.8728 45.9508 56.9522 42.9369L57.0844 37.438L58.1424 38.0196C58.6978 38.3369 59.4912 39.0242 59.8615 39.5265ZM17.8608 52.3486C19.5535 53.4854 21.8281 54.3578 23.1505 54.3578C24.0763 54.3578 24.2614 54.49 25.7161 56.3406C26.5624 57.451 27.541 58.5085 27.8584 58.7464C28.4139 59.0901 28.4668 59.328 28.4668 61.4695V63.7959L21.7488 65.7259C15.2159 67.5765 14.9779 67.6293 13.6819 67.3121C12.2272 66.9684 9.71453 65.5672 8.55079 64.4569L7.83667 63.7695L9.63519 62.0511C12.5181 59.2752 15.0043 55.5211 16.0094 52.4279C16.1945 51.8992 16.3796 51.4497 16.4325 51.4497C16.4854 51.4497 17.1202 51.8463 17.8608 52.3486ZM63.1412 52.9567C64.4107 56.182 66.4737 59.2487 68.907 61.6281L69.9914 62.6591V66.1753V69.665L68.8806 69.1891C68.2458 68.9512 63.8553 67.6029 59.0945 66.2546L50.4193 63.7695V61.6281V59.4867L51.8475 58.0062C52.641 57.1866 53.5932 56.0498 53.9634 55.4418C54.5718 54.49 54.7834 54.3578 55.6562 54.3578C57.5076 54.3578 60.8401 52.9831 61.7923 51.8727C62.3213 51.2118 62.48 51.344 63.1412 52.9567ZM90.5951 62.0246C94.5889 64.0339 98.2388 64.0867 101.677 62.1568C105.01 60.2798 107.655 61.0729 108.845 64.2982C109.347 65.5937 109.4 66.3339 109.4 71.6214C109.4 75.8513 109.294 77.9399 109.003 79.156C107.602 85.1308 102.471 89.255 96.3874 89.3079C92.7374 89.3079 89.8016 88.1447 87.2361 85.6067C85.3847 83.7825 84.3796 82.1434 83.7184 79.7905C83.2952 78.2836 83.2159 77.1203 83.2159 71.78C83.2159 64.8006 83.401 63.7695 84.9086 62.3154C86.4955 60.7821 88.0031 60.7028 90.5951 62.0246ZM35.4757 62.712C38.3322 63.3729 42.2202 63.1614 45.3411 62.1833C45.8965 61.9982 45.923 62.0511 45.923 63.3465C45.923 64.6948 45.8701 64.7741 42.8549 68.5811C41.1622 70.7225 39.6811 72.4938 39.5753 72.5467C39.443 72.5995 37.909 70.8547 36.1634 68.6604C32.9895 64.7477 32.9631 64.6684 32.9631 63.3201C32.9631 62.1304 33.016 61.9982 33.4391 62.1568C33.6772 62.2361 34.6029 62.5005 35.4757 62.712ZM32.4341 71.0133L34.8674 74.0536L30.6091 74.1329L26.3509 74.1858V82.9101V91.6344H21.9868H17.6227V87.2722V82.9101H15.5068H13.3909L13.338 87.1929L13.2587 91.5022L8.97397 91.5815L4.66281 91.6344V86.6113C4.66281 82.2227 4.74215 81.3767 5.21823 79.9491C6.17039 77.0939 8.25985 74.7674 10.9312 73.5777C11.8569 73.1547 29.8421 67.8144 29.9743 67.9466C29.9743 67.9466 31.1116 69.3478 32.4341 71.0133ZM66.9498 73.1547C69.5154 74.08 70.1766 74.6352 70.3353 75.9835C70.5204 77.5962 72.0015 80.4514 73.3504 81.7468L74.4877 82.8572V87.2458V91.6344H70.1237H65.7596V87.2722V82.9101H63.5115H61.2633V87.2722V91.6344H56.8993H52.5352V82.9101V74.1858L48.3034 74.1329L44.0716 74.0536L45.4469 72.3352C46.1875 71.3834 47.3248 70.0087 47.9331 69.2684L49.0704 67.9202L57.2166 70.2466C61.6865 71.5421 66.077 72.8375 66.9498 73.1547ZM78.7196 72.2559C78.746 74.5559 78.8518 77.2525 78.984 78.2836C79.1163 79.2882 79.1692 80.1606 79.1163 80.2399C78.8782 80.4778 77.3707 79.6319 76.4978 78.7859C75.149 77.4904 74.6993 76.4329 74.5671 74.4502C74.4613 72.9432 74.5406 72.5467 75.2019 71.2777C75.8631 69.9558 77.7938 68.1052 78.4815 68.1052C78.6138 68.1052 78.7196 69.9029 78.7196 72.2559ZM115.536 69.0305C117.203 70.2995 117.996 71.965 117.996 74.1858C117.97 76.2479 117.361 77.5962 115.801 78.9974C114.875 79.8434 113.685 80.4778 113.553 80.2135C113.526 80.187 113.526 77.4376 113.579 74.1065C113.658 69.4799 113.764 68.1052 114.002 68.1052C114.187 68.1052 114.902 68.5282 115.536 69.0305ZM48.2505 89.4401L48.3034 100.359H39.5753H30.8472V89.3872V78.4157L39.5224 78.4686L48.1711 78.5479L48.2505 89.4401ZM102.788 93.8022C102.788 95.177 102.762 95.2563 99.7199 99.0368C98.0536 101.152 96.5725 102.976 96.4403 103.082C96.3345 103.214 94.8004 101.522 93.0284 99.3276C89.8545 95.4149 89.8281 95.3356 89.8281 93.9873C89.8281 92.6919 89.8545 92.639 90.4364 92.7976C94.2186 93.908 98.4504 93.9873 101.201 93.0091C101.995 92.7183 102.682 92.4804 102.735 92.4539C102.762 92.4539 102.788 93.062 102.788 93.8022ZM89.1404 101.469C90.3835 103.029 91.415 104.377 91.415 104.456C91.415 104.536 89.5636 104.589 87.3154 104.589H83.2159V113.313V122.037H78.8518H74.4877L74.4348 117.728L74.3555 113.445H72.2396H70.1237L70.0443 117.728L69.9914 122.037H65.6274H61.2633V117.86C61.2633 112.996 61.5543 111.145 62.6122 109.057C63.5115 107.259 65.5216 105.197 67.135 104.404C67.7433 104.086 70.7056 103.108 73.6943 102.236C76.683 101.363 80.7297 100.174 82.6869 99.592C84.6441 99.0104 86.3897 98.5609 86.5484 98.5874C86.7335 98.6138 87.8973 99.9092 89.1404 101.469ZM115.113 101.152C120.112 102.606 124.714 104.033 125.322 104.351C127.094 105.25 129.157 107.391 130.11 109.321L130.956 111.066L131.035 116.538L131.115 122.037H126.751H122.36V117.675V113.313H120.244H118.128V117.675V122.037H113.764H109.4V113.313V104.589L105.195 104.536L100.989 104.456L103.37 101.469C104.666 99.8564 105.803 98.5081 105.883 98.5081C105.962 98.5081 110.114 99.6977 115.113 101.152ZM104.904 119.922V130.762H96.1758H87.4477V119.922V109.083H96.1758H104.904V119.922Z" fill="#CAC8C8" stroke="#040019" stroke-width="2.6" mask="url(#path-1-inside-1_188_783)"/>
<path d="M35.7291 88.0383V89.1488H39.4432H43.1572V88.0383V86.9277H39.4432H35.7291V88.0383Z" fill="#CAC8C8" stroke="#040019" stroke-width="1.3"/>
<path d="M35.7291 95.3V96.4105H39.4432H43.1572V95.3V94.1894H39.4432H35.7291V95.3Z" fill="#CAC8C8" stroke="#040019" stroke-width="1.3"/>
<path d="M92.5938 113.457V114.677H96.3079H100.022V113.457V112.236H96.3079H92.5938V113.457Z" fill="#CAC8C8" stroke="#040019" stroke-width="1.3"/>
<path d="M92.5938 120.718V121.939H96.3079H100.02L99.9697 120.791L99.9697 120.79L99.9173 119.598L96.2484 119.542L96.2467 119.542L92.5938 119.504V120.718Z" fill="#CAC8C8" stroke="#040019" stroke-width="1.3"/>
</svg>
