<svg width="134" height="137" viewBox="0 0 134 137" fill="none" xmlns="http://www.w3.org/2000/svg">
<mask id="path-1-inside-1_188_863" fill="white">
<path d="M20.463 0.489746C18.7946 0.795624 16.9593 1.85229 15.9861 3.10362C14.5957 4.96671 14.4288 5.88435 14.4288 12.4469V18.5088L9.92407 18.6201C5.50272 18.7035 5.36369 18.7313 3.8899 19.5377C3.08349 19.9826 2.05462 20.789 1.60971 21.3174C-0.142148 23.4585 -0.0309188 20.2329 0.0246956 71.8153L0.108117 118.81L0.719877 119.95C1.47067 121.34 2.80542 122.647 4.11236 123.314C5.05781 123.787 6.69843 123.815 30.2234 123.898L55.3055 123.954V129.488C55.3055 134.521 55.3611 135.077 55.8338 135.661L56.3622 136.328H74.2144H92.0667L92.595 135.661C93.0677 135.077 93.1233 134.521 93.1233 129.488V123.954H103.356C114.785 123.954 115.341 123.87 117.149 122.119C117.705 121.59 118.428 120.617 118.789 119.977C119.373 118.865 119.401 118.42 119.485 112.219L119.568 105.601H124.017C128.772 105.601 129.523 105.434 131.358 104.072C131.887 103.655 132.693 102.57 133.166 101.625L134 99.9562L133.972 53.0732C133.972 17.9249 133.889 5.96777 133.639 5.3004C132.971 3.49292 131.609 1.99133 129.94 1.15712L128.3 0.350708L75.0486 0.322891C45.7676 0.29509 21.2138 0.37851 20.463 0.489746ZM128.828 4.68863C130.357 5.88435 130.385 6.16241 130.385 15.2276V23.5698H96.0987H61.8124L57.5301 19.2318C55.1665 16.8404 52.9975 14.7271 52.6916 14.5046C52.2189 14.1987 50.3002 14.1153 42.1805 14.1153H32.2255L31.1688 15.0607L30.1399 16.0062L30.0565 19.788L29.9453 23.5698H23.9945H18.0438V15.2276C18.0438 6.16241 18.0716 5.88435 19.601 4.68863L20.3518 4.10469H74.2144H128.077L128.828 4.68863ZM55.1943 22.0682C57.5301 24.5152 59.7268 26.6007 60.2274 26.7954C60.9782 27.1291 67.2904 27.1847 95.765 27.1847H130.385V63.1951C130.385 102.515 130.496 100.095 128.828 101.402C128.105 101.986 127.938 101.986 109.696 101.958C96.7661 101.958 91.5105 101.875 92.0111 101.652C92.4004 101.513 93.1233 101.208 93.6239 100.985C94.0966 100.763 94.764 100.207 95.0977 99.706C96.2656 97.8151 96.2656 97.7595 85.9213 79.1842C80.6935 69.7854 76.1609 61.8603 75.855 61.5823C74.993 60.8871 73.2968 60.9705 72.4626 61.7213C72.0733 62.0828 67.5129 70.0635 62.2851 79.4901C51.913 98.2044 52.1077 97.8151 53.4424 99.7894C53.8595 100.429 54.5825 100.93 55.5836 101.347L57.113 101.958L38.7324 101.986C20.4908 101.986 20.324 101.986 19.601 101.402C17.9326 100.095 18.0438 102.515 18.0438 63.1951V27.1847H24.3004C33.3378 27.1847 33.4212 27.1291 33.5602 21.4564L33.6715 17.7302H42.3751H51.0788L55.1943 22.0682ZM14.4288 60.9427C14.4288 103.488 14.3176 100.846 16.0973 103.098C16.5978 103.71 17.6267 104.517 18.5443 104.962L20.1293 105.74L40.6233 105.824L61.1172 105.907L61.5621 107.325C61.7846 108.132 61.9792 109.105 61.9792 109.55C61.9792 110.328 61.9792 110.328 60.144 110.328C56.2509 110.328 55.3055 111.635 55.3055 116.946V120.339H30.7795C11.7037 120.339 6.05887 120.256 5.53053 119.977C5.16904 119.783 4.55728 119.199 4.22359 118.698L3.58402 117.753L3.63964 71.0923L3.72306 24.4318L4.55728 23.5698C5.66957 22.4018 6.47598 22.235 10.7583 22.2072L14.4288 22.1794V60.9427ZM72.2679 73.8452V78.2388L71.2947 78.7115C68.1524 80.2131 67.7631 85.6911 70.6273 87.8879C74.4369 90.7521 79.7759 88.1938 79.7759 83.4944C79.7759 81.5757 78.8582 79.8516 77.3844 78.934L76.1887 78.211L76.1609 73.7618C76.1609 71.3148 76.2722 69.4517 76.3834 69.5907C76.578 69.8132 90.426 94.7841 91.7052 97.2033C91.9833 97.7317 91.9554 97.8429 91.5383 97.9819C86.6443 99.5113 82.8625 104.405 82.8347 109.272V110.328H74.2144H65.5942V109.272C65.5942 107.909 64.9268 105.323 64.176 103.905C62.9803 101.541 59.3097 98.399 57.2242 97.9541C56.7515 97.8429 56.4178 97.6761 56.4734 97.5648C56.6959 96.9809 72.0733 69.4517 72.1567 69.4517C72.2123 69.4517 72.2679 71.426 72.2679 73.8452ZM75.4379 81.9928C76.439 82.7714 76.3556 84.3008 75.2711 85.1072C73.2412 86.6088 71.0166 83.55 72.9909 81.9928C73.9363 81.242 74.4925 81.2698 75.4379 81.9928ZM115.925 111.58C115.925 118.253 115.814 118.81 114.173 119.783C113.339 120.311 112.7 120.339 103.217 120.339H93.1233V116.946C93.1233 111.607 92.2057 110.328 88.3961 110.328H86.3662L86.5608 108.771C86.6443 107.909 86.9223 106.852 87.1448 106.408L87.5897 105.601H101.744H115.925V111.58ZM89.5084 123.259V132.574H74.2144H58.9204V129.988C58.9204 128.542 59.0039 124.371 59.1151 120.673L59.2819 113.943H74.4091H89.5084V123.259Z"/>
</mask>
<path d="M20.463 0.489746C18.7946 0.795624 16.9593 1.85229 15.9861 3.10362C14.5957 4.96671 14.4288 5.88435 14.4288 12.4469V18.5088L9.92407 18.6201C5.50272 18.7035 5.36369 18.7313 3.8899 19.5377C3.08349 19.9826 2.05462 20.789 1.60971 21.3174C-0.142148 23.4585 -0.0309188 20.2329 0.0246956 71.8153L0.108117 118.81L0.719877 119.95C1.47067 121.34 2.80542 122.647 4.11236 123.314C5.05781 123.787 6.69843 123.815 30.2234 123.898L55.3055 123.954V129.488C55.3055 134.521 55.3611 135.077 55.8338 135.661L56.3622 136.328H74.2144H92.0667L92.595 135.661C93.0677 135.077 93.1233 134.521 93.1233 129.488V123.954H103.356C114.785 123.954 115.341 123.87 117.149 122.119C117.705 121.59 118.428 120.617 118.789 119.977C119.373 118.865 119.401 118.42 119.485 112.219L119.568 105.601H124.017C128.772 105.601 129.523 105.434 131.358 104.072C131.887 103.655 132.693 102.57 133.166 101.625L134 99.9562L133.972 53.0732C133.972 17.9249 133.889 5.96777 133.639 5.3004C132.971 3.49292 131.609 1.99133 129.94 1.15712L128.3 0.350708L75.0486 0.322891C45.7676 0.29509 21.2138 0.37851 20.463 0.489746ZM128.828 4.68863C130.357 5.88435 130.385 6.16241 130.385 15.2276V23.5698H96.0987H61.8124L57.5301 19.2318C55.1665 16.8404 52.9975 14.7271 52.6916 14.5046C52.2189 14.1987 50.3002 14.1153 42.1805 14.1153H32.2255L31.1688 15.0607L30.1399 16.0062L30.0565 19.788L29.9453 23.5698H23.9945H18.0438V15.2276C18.0438 6.16241 18.0716 5.88435 19.601 4.68863L20.3518 4.10469H74.2144H128.077L128.828 4.68863ZM55.1943 22.0682C57.5301 24.5152 59.7268 26.6007 60.2274 26.7954C60.9782 27.1291 67.2904 27.1847 95.765 27.1847H130.385V63.1951C130.385 102.515 130.496 100.095 128.828 101.402C128.105 101.986 127.938 101.986 109.696 101.958C96.7661 101.958 91.5105 101.875 92.0111 101.652C92.4004 101.513 93.1233 101.208 93.6239 100.985C94.0966 100.763 94.764 100.207 95.0977 99.706C96.2656 97.8151 96.2656 97.7595 85.9213 79.1842C80.6935 69.7854 76.1609 61.8603 75.855 61.5823C74.993 60.8871 73.2968 60.9705 72.4626 61.7213C72.0733 62.0828 67.5129 70.0635 62.2851 79.4901C51.913 98.2044 52.1077 97.8151 53.4424 99.7894C53.8595 100.429 54.5825 100.93 55.5836 101.347L57.113 101.958L38.7324 101.986C20.4908 101.986 20.324 101.986 19.601 101.402C17.9326 100.095 18.0438 102.515 18.0438 63.1951V27.1847H24.3004C33.3378 27.1847 33.4212 27.1291 33.5602 21.4564L33.6715 17.7302H42.3751H51.0788L55.1943 22.0682ZM14.4288 60.9427C14.4288 103.488 14.3176 100.846 16.0973 103.098C16.5978 103.71 17.6267 104.517 18.5443 104.962L20.1293 105.74L40.6233 105.824L61.1172 105.907L61.5621 107.325C61.7846 108.132 61.9792 109.105 61.9792 109.55C61.9792 110.328 61.9792 110.328 60.144 110.328C56.2509 110.328 55.3055 111.635 55.3055 116.946V120.339H30.7795C11.7037 120.339 6.05887 120.256 5.53053 119.977C5.16904 119.783 4.55728 119.199 4.22359 118.698L3.58402 117.753L3.63964 71.0923L3.72306 24.4318L4.55728 23.5698C5.66957 22.4018 6.47598 22.235 10.7583 22.2072L14.4288 22.1794V60.9427ZM72.2679 73.8452V78.2388L71.2947 78.7115C68.1524 80.2131 67.7631 85.6911 70.6273 87.8879C74.4369 90.7521 79.7759 88.1938 79.7759 83.4944C79.7759 81.5757 78.8582 79.8516 77.3844 78.934L76.1887 78.211L76.1609 73.7618C76.1609 71.3148 76.2722 69.4517 76.3834 69.5907C76.578 69.8132 90.426 94.7841 91.7052 97.2033C91.9833 97.7317 91.9554 97.8429 91.5383 97.9819C86.6443 99.5113 82.8625 104.405 82.8347 109.272V110.328H74.2144H65.5942V109.272C65.5942 107.909 64.9268 105.323 64.176 103.905C62.9803 101.541 59.3097 98.399 57.2242 97.9541C56.7515 97.8429 56.4178 97.6761 56.4734 97.5648C56.6959 96.9809 72.0733 69.4517 72.1567 69.4517C72.2123 69.4517 72.2679 71.426 72.2679 73.8452ZM75.4379 81.9928C76.439 82.7714 76.3556 84.3008 75.2711 85.1072C73.2412 86.6088 71.0166 83.55 72.9909 81.9928C73.9363 81.242 74.4925 81.2698 75.4379 81.9928ZM115.925 111.58C115.925 118.253 115.814 118.81 114.173 119.783C113.339 120.311 112.7 120.339 103.217 120.339H93.1233V116.946C93.1233 111.607 92.2057 110.328 88.3961 110.328H86.3662L86.5608 108.771C86.6443 107.909 86.9223 106.852 87.1448 106.408L87.5897 105.601H101.744H115.925V111.58ZM89.5084 123.259V132.574H74.2144H58.9204V129.988C58.9204 128.542 59.0039 124.371 59.1151 120.673L59.2819 113.943H74.4091H89.5084V123.259Z" fill="#CAC8C8" stroke="#040019" stroke-width="1.4" mask="url(#path-1-inside-1_188_863)"/>
<path d="M94.5268 9.3695L94.5268 9.36955L94.5209 9.37224C93.7128 9.74422 92.9591 10.4272 92.4072 11.2303C91.8537 12.0356 91.5268 12.9269 91.5268 13.6981C91.5268 14.0582 91.6786 14.6318 91.9369 15.2402C92.1921 15.8414 92.5292 16.4245 92.8588 16.805C95.0614 19.3176 99.1215 18.7924 100.567 15.8534C102.047 12.7594 100.183 9.37864 96.8161 9.01344C95.8625 8.93435 95.2619 9.01461 94.5268 9.3695ZM97.6399 14.9589L97.6399 14.9589L97.6373 14.9618C96.9803 15.6879 96.0564 15.6864 95.4055 15.2682C94.7538 14.8496 94.3587 14.0058 94.715 13.0727L94.715 13.0727L94.7164 13.0691C94.9477 12.4832 95.3188 12.0509 95.841 11.9106C96.3574 11.772 96.9104 11.9495 97.4401 12.3274C97.8814 12.6337 98.1368 13.075 98.1685 13.5642C98.1999 14.0491 98.0097 14.5409 97.6399 14.9589Z" fill="#CAC8C8" stroke="#040019" stroke-width="0.7"/>
<path d="M107.35 9.16701L107.349 9.16729C104.673 9.96516 103.264 13.3399 104.531 15.8483L104.532 15.8496C104.84 16.4664 105.137 16.8926 105.502 17.2297C105.868 17.5672 106.321 17.833 106.967 18.1021C109.209 19.0296 111.856 18.0287 113.028 15.7619L113.028 15.7619L113.03 15.7597C113.269 15.3052 113.406 14.5239 113.406 13.6912C113.406 12.8616 113.27 12.0634 113.027 11.5768C111.991 9.58516 109.495 8.52108 107.35 9.16701ZM109.89 12.3677C111.088 13.5405 110.343 15.5775 108.668 15.5775C107.82 15.5775 107.257 14.9678 107.069 14.2964C106.882 13.628 107.039 12.8082 107.713 12.3289C108.112 12.0439 108.489 11.8466 108.873 11.8466C109.279 11.8466 109.6 12.0637 109.89 12.3677Z" fill="#CAC8C8" stroke="#040019" stroke-width="0.7"/>
<path d="M119.27 9.40058L119.269 9.40078C118.015 9.97557 117.215 10.8 116.665 12.083C116.4 12.7183 116.284 13.2515 116.3 13.7752C116.315 14.3002 116.464 14.8431 116.771 15.4964L116.771 15.4964L116.773 15.5013C118.208 18.6846 122.063 19.4405 124.437 17.0661C126.812 14.6917 126.056 10.8368 122.872 9.40169L122.872 9.40167C122.194 9.09577 121.618 8.95294 121.059 8.95294C120.501 8.95294 119.933 9.09556 119.27 9.40058ZM122.291 12.4779C122.471 12.658 122.629 12.8813 122.744 13.0951C122.852 13.2961 122.949 13.54 122.949 13.7542C122.949 14.2331 122.671 14.6873 122.332 15.0066C121.991 15.3277 121.52 15.578 121.042 15.578C120.578 15.578 120.116 15.2645 119.797 14.9261C119.474 14.5844 119.19 14.1057 119.19 13.643C119.19 13.4149 119.3 13.1898 119.415 13.0118C119.537 12.8223 119.7 12.6329 119.875 12.4655C120.051 12.2979 120.247 12.1433 120.441 12.0282C120.624 11.9197 120.849 11.8192 121.07 11.8192C121.278 11.8192 121.512 11.9226 121.698 12.0283C121.9 12.1434 122.114 12.301 122.291 12.4779Z" fill="#CAC8C8" stroke="#040019" stroke-width="0.7"/>
<mask id="path-5-inside-2_188_863" fill="white">
<path d="M69.0144 40.5597C68.5417 40.6988 67.8187 41.1993 67.4294 41.672C66.7898 42.4228 66.7064 42.7843 66.7064 44.5918V46.6495H53.9151C42.5697 46.6495 41.1238 46.5939 41.1238 46.2324C41.1238 45.426 40.0671 43.7019 38.927 42.6731C35.3398 39.4474 29.5281 40.81 27.6372 45.3426C27.0255 46.8163 27.1089 49.5415 27.8041 50.9874C28.4436 52.35 30.1955 54.0462 31.5581 54.6024C32.6982 55.0751 35.2564 55.1029 36.7024 54.658C38.0928 54.2409 39.8724 52.7393 40.5954 51.3489L41.1238 50.2644H49.744C54.499 50.2644 58.3642 50.3201 58.3642 50.3757C58.3642 50.4313 57.53 50.9596 56.5012 51.5158C48.9932 55.659 42.8478 63.2226 40.0393 71.8985L39.2329 74.3177L37.2029 74.4567C33.2821 74.7348 33.0597 75.1519 33.0597 82.1315V87.3037L34.1441 88.3882L35.2286 89.4727H40.4008C47.9087 89.4727 48.1312 89.3058 48.298 83.1048C48.4649 77.8492 48.2424 76.5145 47.1023 75.3744C46.2681 74.5402 46.0178 74.4567 44.6275 74.4567H43.0703L43.2371 73.6781C43.3483 73.261 43.7932 71.9819 44.2382 70.8418C47.6306 62.1381 55.0274 55.1029 63.8979 52.0719C66.5118 51.1821 66.7064 51.2099 66.7064 52.1275C66.7064 53.2398 67.2626 54.1853 68.347 54.9083C69.2369 55.52 69.5428 55.5478 74.1031 55.5478C76.7448 55.5478 79.2197 55.4366 79.5812 55.2976C80.6378 54.8804 81.4443 53.8794 81.7779 52.5446C82.056 51.4045 82.1116 51.3489 82.9458 51.5436C83.4186 51.6548 84.948 52.1831 86.3383 52.7671C93.3457 55.5756 99.6302 61.3595 103.023 68.0889C104.135 70.3135 105.358 73.5113 105.358 74.1787C105.358 74.3177 104.747 74.4567 103.996 74.4567C102.3 74.4567 101.076 75.3744 100.631 76.9038C100.242 78.322 100.298 86.0246 100.715 87.2481C100.909 87.7764 101.465 88.4716 101.994 88.8331C102.884 89.4448 103.19 89.4727 108.195 89.4727H113.423L114.479 88.5272L115.508 87.5818L115.592 82.4096C115.703 75.2632 115.286 74.4567 111.226 74.4567H109.279L108.807 72.8439C108.556 71.9819 107.917 70.2022 107.361 68.8953C104.469 61.9991 99.8526 56.5211 93.6238 52.5168C92.3169 51.6548 90.9821 50.8206 90.7041 50.6259C90.3148 50.3757 92.0666 50.2923 98.8794 50.2923C107.5 50.2644 107.555 50.2644 107.722 50.8484C108.028 51.8216 110.141 53.935 111.337 54.4633C112.06 54.797 113.117 54.9917 114.257 54.9917C117.566 54.9917 120.18 53.1286 121.07 50.1532C121.598 48.4014 121.598 47.6506 121.042 45.8431C119.624 41.0324 113.256 39.2806 109.502 42.6731C108.362 43.7019 107.305 45.426 107.305 46.2324C107.305 46.5939 105.859 46.6495 94.5137 46.6495H81.7223V44.7308C81.7223 42.4506 80.9993 41.1437 79.4977 40.6153C78.3298 40.226 70.3492 40.1704 69.0144 40.5597ZM78.1352 44.8976C78.1352 45.4816 78.2186 47.2891 78.2742 48.9297L78.4133 51.9329H74.409H70.4048L70.2101 48.1511C70.1267 46.0934 70.0989 44.2859 70.1823 44.119C70.2935 43.98 72.0732 43.8688 74.2422 43.8688H78.1074L78.1352 44.8976ZM36.1463 45.0645C38.1484 46.3992 38.2596 49.6527 36.3131 50.8206C34.6725 51.8216 32.281 51.3767 31.28 49.8751C31.0297 49.4858 30.8351 48.6516 30.8351 48.0121C30.8351 45.1201 33.7826 43.4795 36.1463 45.0645ZM115.758 44.842C116.954 45.3982 117.594 46.5939 117.594 48.1789C117.594 49.2912 117.455 49.6249 116.648 50.4313C115.814 51.2655 115.536 51.3767 114.257 51.3767C112.978 51.3767 112.7 51.2655 111.893 50.4591C110.697 49.2634 110.447 48.2623 110.948 46.8163C111.643 44.7864 113.784 43.9244 115.758 44.842ZM44.5997 81.8257C44.7109 83.9112 44.7665 85.6353 44.7109 85.6909C44.6553 85.7465 42.82 85.8577 40.651 85.9411L36.6746 86.108V85.0513C36.6746 84.4674 36.5912 82.6599 36.4799 81.0471L36.3131 78.0717H40.3451H44.405L44.5997 81.8257ZM112.032 81.9369V85.7743L108.223 85.9411C106.109 86.0246 104.302 86.0246 104.191 85.9689C104.079 85.8855 103.968 84.0781 103.968 81.9369V78.0717H108H112.032V81.9369Z"/>
</mask>
<path d="M69.0144 40.5597C68.5417 40.6988 67.8187 41.1993 67.4294 41.672C66.7898 42.4228 66.7064 42.7843 66.7064 44.5918V46.6495H53.9151C42.5697 46.6495 41.1238 46.5939 41.1238 46.2324C41.1238 45.426 40.0671 43.7019 38.927 42.6731C35.3398 39.4474 29.5281 40.81 27.6372 45.3426C27.0255 46.8163 27.1089 49.5415 27.8041 50.9874C28.4436 52.35 30.1955 54.0462 31.5581 54.6024C32.6982 55.0751 35.2564 55.1029 36.7024 54.658C38.0928 54.2409 39.8724 52.7393 40.5954 51.3489L41.1238 50.2644H49.744C54.499 50.2644 58.3642 50.3201 58.3642 50.3757C58.3642 50.4313 57.53 50.9596 56.5012 51.5158C48.9932 55.659 42.8478 63.2226 40.0393 71.8985L39.2329 74.3177L37.2029 74.4567C33.2821 74.7348 33.0597 75.1519 33.0597 82.1315V87.3037L34.1441 88.3882L35.2286 89.4727H40.4008C47.9087 89.4727 48.1312 89.3058 48.298 83.1048C48.4649 77.8492 48.2424 76.5145 47.1023 75.3744C46.2681 74.5402 46.0178 74.4567 44.6275 74.4567H43.0703L43.2371 73.6781C43.3483 73.261 43.7932 71.9819 44.2382 70.8418C47.6306 62.1381 55.0274 55.1029 63.8979 52.0719C66.5118 51.1821 66.7064 51.2099 66.7064 52.1275C66.7064 53.2398 67.2626 54.1853 68.347 54.9083C69.2369 55.52 69.5428 55.5478 74.1031 55.5478C76.7448 55.5478 79.2197 55.4366 79.5812 55.2976C80.6378 54.8804 81.4443 53.8794 81.7779 52.5446C82.056 51.4045 82.1116 51.3489 82.9458 51.5436C83.4186 51.6548 84.948 52.1831 86.3383 52.7671C93.3457 55.5756 99.6302 61.3595 103.023 68.0889C104.135 70.3135 105.358 73.5113 105.358 74.1787C105.358 74.3177 104.747 74.4567 103.996 74.4567C102.3 74.4567 101.076 75.3744 100.631 76.9038C100.242 78.322 100.298 86.0246 100.715 87.2481C100.909 87.7764 101.465 88.4716 101.994 88.8331C102.884 89.4448 103.19 89.4727 108.195 89.4727H113.423L114.479 88.5272L115.508 87.5818L115.592 82.4096C115.703 75.2632 115.286 74.4567 111.226 74.4567H109.279L108.807 72.8439C108.556 71.9819 107.917 70.2022 107.361 68.8953C104.469 61.9991 99.8526 56.5211 93.6238 52.5168C92.3169 51.6548 90.9821 50.8206 90.7041 50.6259C90.3148 50.3757 92.0666 50.2923 98.8794 50.2923C107.5 50.2644 107.555 50.2644 107.722 50.8484C108.028 51.8216 110.141 53.935 111.337 54.4633C112.06 54.797 113.117 54.9917 114.257 54.9917C117.566 54.9917 120.18 53.1286 121.07 50.1532C121.598 48.4014 121.598 47.6506 121.042 45.8431C119.624 41.0324 113.256 39.2806 109.502 42.6731C108.362 43.7019 107.305 45.426 107.305 46.2324C107.305 46.5939 105.859 46.6495 94.5137 46.6495H81.7223V44.7308C81.7223 42.4506 80.9993 41.1437 79.4977 40.6153C78.3298 40.226 70.3492 40.1704 69.0144 40.5597ZM78.1352 44.8976C78.1352 45.4816 78.2186 47.2891 78.2742 48.9297L78.4133 51.9329H74.409H70.4048L70.2101 48.1511C70.1267 46.0934 70.0989 44.2859 70.1823 44.119C70.2935 43.98 72.0732 43.8688 74.2422 43.8688H78.1074L78.1352 44.8976ZM36.1463 45.0645C38.1484 46.3992 38.2596 49.6527 36.3131 50.8206C34.6725 51.8216 32.281 51.3767 31.28 49.8751C31.0297 49.4858 30.8351 48.6516 30.8351 48.0121C30.8351 45.1201 33.7826 43.4795 36.1463 45.0645ZM115.758 44.842C116.954 45.3982 117.594 46.5939 117.594 48.1789C117.594 49.2912 117.455 49.6249 116.648 50.4313C115.814 51.2655 115.536 51.3767 114.257 51.3767C112.978 51.3767 112.7 51.2655 111.893 50.4591C110.697 49.2634 110.447 48.2623 110.948 46.8163C111.643 44.7864 113.784 43.9244 115.758 44.842ZM44.5997 81.8257C44.7109 83.9112 44.7665 85.6353 44.7109 85.6909C44.6553 85.7465 42.82 85.8577 40.651 85.9411L36.6746 86.108V85.0513C36.6746 84.4674 36.5912 82.6599 36.4799 81.0471L36.3131 78.0717H40.3451H44.405L44.5997 81.8257ZM112.032 81.9369V85.7743L108.223 85.9411C106.109 86.0246 104.302 86.0246 104.191 85.9689C104.079 85.8855 103.968 84.0781 103.968 81.9369V78.0717H108H112.032V81.9369Z" fill="#CAC8C8" stroke="#040019" stroke-width="1.4" mask="url(#path-5-inside-2_188_863)"/>
</svg>
