<svg width="134" height="128" viewBox="0 0 134 128" fill="none" xmlns="http://www.w3.org/2000/svg">
<mask id="path-1-inside-1_188_816" fill="white">
<path d="M25.326 0.805328C24.7364 1.07333 23.8788 1.71653 23.3964 2.19893C21.7884 3.91413 21.708 4.34293 21.708 12.4901V19.8601H15.4368C9.9428 19.8601 8.9512 19.9137 7.4772 20.3961C4.3684 21.3609 1.5812 24.0945 0.536 27.2301C0 28.8113 0 29.5617 0 64.5357C0 99.0005 0 100.314 0.5092 101.707C1.5008 104.548 3.6984 107.014 6.4052 108.273L7.906 108.97L31.088 109.104L54.2432 109.238L54.8596 111.034C56.2532 115.054 56.2532 118.672 54.8864 122.531L54.27 124.246L50.786 124.327C47.0608 124.407 46.364 124.648 46.364 125.881C46.364 127.167 46.9 127.328 51.0808 127.328C56.0656 127.328 77.9344 127.328 82.9192 127.328C87.1 127.328 87.636 127.167 87.636 125.881C87.636 124.648 86.9392 124.407 83.214 124.327L79.73 124.246L78.9528 121.968C78.3096 120.039 78.1756 119.261 78.1756 117.01C78.1756 114.33 78.39 113.151 79.3816 110.525L79.8908 109.104L102.992 109.051L126.094 108.97L127.595 108.273C130.302 107.014 132.499 104.548 133.491 101.707C134 100.314 134 99.0005 134 64.6429C134 29.9101 133.973 28.9721 133.464 27.3105C132.848 25.3005 131.4 23.3441 129.578 21.9505C127.22 20.1549 126.603 20.0477 119.126 19.8869L112.426 19.7261L112.292 12.0881C112.158 3.78013 112.131 3.69973 110.496 2.06493C110.094 1.63613 109.264 1.07333 108.674 0.805328C107.656 0.322929 105.806 0.296127 67 0.296127C28.006 0.296127 26.3444 0.322929 25.326 0.805328ZM108.326 4.26253L109.21 5.12013L109.29 11.5521L109.371 17.9841H67.0268H24.656V11.9541C24.656 5.25413 24.7632 4.74493 26.3444 3.78013C27.1752 3.24413 27.8988 3.24413 67.3216 3.29773L107.468 3.37813L108.326 4.26253ZM109.344 28.7041V36.4761H85.5188H61.7204L61.2916 34.7341C60.3804 31.0893 58.4508 28.1949 55.61 26.1313C49.6872 21.9237 41.8616 22.5133 36.7428 27.5785C34.706 29.6153 33.1784 32.2953 32.6424 34.8949L32.3208 36.4761H28.4884H24.656V28.7041V20.9321H67H109.344V28.7041ZM21.708 52.3417C21.708 80.5621 21.7348 81.9557 22.2172 82.9741C22.4852 83.5637 23.1284 84.4213 23.6108 84.9037C25.5404 86.7261 22.2976 86.5921 67 86.5921C111.702 86.5921 108.46 86.7261 110.389 84.9037C110.872 84.4213 111.515 83.5637 111.783 82.9741C112.265 81.9557 112.292 80.5621 112.292 52.3417V22.7813L118.67 22.8617C124.459 22.9421 125.129 22.9957 126.255 23.5049C128.024 24.3357 129.31 25.5953 130.168 27.3105L130.918 28.8381L130.998 61.1857L131.052 93.5601H67H2.948L3.0016 61.0517L3.082 28.5701L3.6716 27.4713C4.8776 25.2201 6.8608 23.5585 8.9244 23.0761C9.4068 22.9421 12.462 22.8617 15.7584 22.8349L21.708 22.8081V52.3417ZM49.5532 26.6941C51.8312 27.2301 53.5464 28.1949 55.208 29.8833C58.692 33.3673 59.5764 38.5933 57.4592 43.0689C56.414 45.2933 56.2532 45.3201 54.5112 43.7389C53.7072 42.9885 52.93 42.3721 52.8496 42.3721C52.7424 42.3721 52.5012 42.2649 52.3136 42.1309C52.0188 41.9701 52.126 41.5949 52.8228 40.3621C54.2968 37.7625 53.9752 34.8949 51.992 32.6169C50.6252 31.0625 49.2316 30.4729 47.034 30.4729C44.9436 30.4729 43.8716 30.8749 42.3976 32.2953C39.9588 34.5733 39.5568 38.1377 41.4328 40.9249C41.8348 41.4877 42.0224 41.9969 41.8616 42.0505C41.1916 42.2649 39.0744 43.8193 38.4848 44.5429L37.8148 45.3201L37.0912 44.1141C33.5804 38.1109 35.8048 30.4729 41.9152 27.6053C44.7292 26.2921 46.766 26.0509 49.5532 26.6941ZM48.9904 33.9837C51.2416 35.4041 51.1076 39.0221 48.7492 40.2817C46.2032 41.6485 43.416 39.9065 43.416 36.9585C43.416 34.1713 46.6052 32.4561 48.9904 33.9837ZM32.6424 40.9785C33.7144 46.1509 37.8416 50.5461 43.1212 52.1273C44.9704 52.6633 48.6956 52.6901 50.786 52.1541C54.672 51.1357 58.424 48.0537 60.1124 44.4893C60.6216 43.3905 61.1844 41.8093 61.372 40.9517L61.6668 39.4241H85.5188H109.344V60.2477C109.344 80.4549 109.317 81.1249 108.808 81.9557C107.709 83.7781 110.845 83.6441 67 83.6441C23.1552 83.6441 26.2908 83.7781 25.192 81.9557C24.6828 81.1249 24.656 80.4549 24.656 60.2477V39.4241H28.4884H32.3208L32.6424 40.9785ZM49.9552 44.4089C50.652 44.6501 51.8044 45.4005 52.5816 46.1241L53.9752 47.3837L52.7692 48.0805C49.6604 49.8761 45.5868 50.0905 42.3172 48.5897C41.3256 48.1609 40.468 47.6785 40.3876 47.5445C40.066 47.0085 42.4244 45.0253 44.1128 44.4089C45.5332 43.8729 48.4008 43.8729 49.9552 44.4089ZM130.972 98.4913C130.73 101.681 129.283 103.932 126.496 105.379L125.29 106.022H67H8.71L7.504 105.379C4.7168 103.932 3.2696 101.681 3.0284 98.4913L2.8676 96.5081H67H131.132L130.972 98.4913ZM76.2996 109.694C76.246 110.042 75.9512 111.087 75.6832 112.052C75.3348 113.285 75.2008 114.705 75.2008 116.876C75.2008 119.771 75.2812 120.307 76.2728 123.764L76.4336 124.38H67.0268C61.8544 124.38 57.62 124.3 57.62 124.166C57.62 124.059 57.888 123.201 58.2096 122.236C59.0672 119.69 59.0672 114.357 58.2096 111.436C57.888 110.31 57.62 109.319 57.62 109.238C57.62 109.158 61.8544 109.104 67.0268 109.104H76.4336L76.2996 109.694Z"/>
</mask>
<path d="M25.326 0.805328C24.7364 1.07333 23.8788 1.71653 23.3964 2.19893C21.7884 3.91413 21.708 4.34293 21.708 12.4901V19.8601H15.4368C9.9428 19.8601 8.9512 19.9137 7.4772 20.3961C4.3684 21.3609 1.5812 24.0945 0.536 27.2301C0 28.8113 0 29.5617 0 64.5357C0 99.0005 0 100.314 0.5092 101.707C1.5008 104.548 3.6984 107.014 6.4052 108.273L7.906 108.97L31.088 109.104L54.2432 109.238L54.8596 111.034C56.2532 115.054 56.2532 118.672 54.8864 122.531L54.27 124.246L50.786 124.327C47.0608 124.407 46.364 124.648 46.364 125.881C46.364 127.167 46.9 127.328 51.0808 127.328C56.0656 127.328 77.9344 127.328 82.9192 127.328C87.1 127.328 87.636 127.167 87.636 125.881C87.636 124.648 86.9392 124.407 83.214 124.327L79.73 124.246L78.9528 121.968C78.3096 120.039 78.1756 119.261 78.1756 117.01C78.1756 114.33 78.39 113.151 79.3816 110.525L79.8908 109.104L102.992 109.051L126.094 108.97L127.595 108.273C130.302 107.014 132.499 104.548 133.491 101.707C134 100.314 134 99.0005 134 64.6429C134 29.9101 133.973 28.9721 133.464 27.3105C132.848 25.3005 131.4 23.3441 129.578 21.9505C127.22 20.1549 126.603 20.0477 119.126 19.8869L112.426 19.7261L112.292 12.0881C112.158 3.78013 112.131 3.69973 110.496 2.06493C110.094 1.63613 109.264 1.07333 108.674 0.805328C107.656 0.322929 105.806 0.296127 67 0.296127C28.006 0.296127 26.3444 0.322929 25.326 0.805328ZM108.326 4.26253L109.21 5.12013L109.29 11.5521L109.371 17.9841H67.0268H24.656V11.9541C24.656 5.25413 24.7632 4.74493 26.3444 3.78013C27.1752 3.24413 27.8988 3.24413 67.3216 3.29773L107.468 3.37813L108.326 4.26253ZM109.344 28.7041V36.4761H85.5188H61.7204L61.2916 34.7341C60.3804 31.0893 58.4508 28.1949 55.61 26.1313C49.6872 21.9237 41.8616 22.5133 36.7428 27.5785C34.706 29.6153 33.1784 32.2953 32.6424 34.8949L32.3208 36.4761H28.4884H24.656V28.7041V20.9321H67H109.344V28.7041ZM21.708 52.3417C21.708 80.5621 21.7348 81.9557 22.2172 82.9741C22.4852 83.5637 23.1284 84.4213 23.6108 84.9037C25.5404 86.7261 22.2976 86.5921 67 86.5921C111.702 86.5921 108.46 86.7261 110.389 84.9037C110.872 84.4213 111.515 83.5637 111.783 82.9741C112.265 81.9557 112.292 80.5621 112.292 52.3417V22.7813L118.67 22.8617C124.459 22.9421 125.129 22.9957 126.255 23.5049C128.024 24.3357 129.31 25.5953 130.168 27.3105L130.918 28.8381L130.998 61.1857L131.052 93.5601H67H2.948L3.0016 61.0517L3.082 28.5701L3.6716 27.4713C4.8776 25.2201 6.8608 23.5585 8.9244 23.0761C9.4068 22.9421 12.462 22.8617 15.7584 22.8349L21.708 22.8081V52.3417ZM49.5532 26.6941C51.8312 27.2301 53.5464 28.1949 55.208 29.8833C58.692 33.3673 59.5764 38.5933 57.4592 43.0689C56.414 45.2933 56.2532 45.3201 54.5112 43.7389C53.7072 42.9885 52.93 42.3721 52.8496 42.3721C52.7424 42.3721 52.5012 42.2649 52.3136 42.1309C52.0188 41.9701 52.126 41.5949 52.8228 40.3621C54.2968 37.7625 53.9752 34.8949 51.992 32.6169C50.6252 31.0625 49.2316 30.4729 47.034 30.4729C44.9436 30.4729 43.8716 30.8749 42.3976 32.2953C39.9588 34.5733 39.5568 38.1377 41.4328 40.9249C41.8348 41.4877 42.0224 41.9969 41.8616 42.0505C41.1916 42.2649 39.0744 43.8193 38.4848 44.5429L37.8148 45.3201L37.0912 44.1141C33.5804 38.1109 35.8048 30.4729 41.9152 27.6053C44.7292 26.2921 46.766 26.0509 49.5532 26.6941ZM48.9904 33.9837C51.2416 35.4041 51.1076 39.0221 48.7492 40.2817C46.2032 41.6485 43.416 39.9065 43.416 36.9585C43.416 34.1713 46.6052 32.4561 48.9904 33.9837ZM32.6424 40.9785C33.7144 46.1509 37.8416 50.5461 43.1212 52.1273C44.9704 52.6633 48.6956 52.6901 50.786 52.1541C54.672 51.1357 58.424 48.0537 60.1124 44.4893C60.6216 43.3905 61.1844 41.8093 61.372 40.9517L61.6668 39.4241H85.5188H109.344V60.2477C109.344 80.4549 109.317 81.1249 108.808 81.9557C107.709 83.7781 110.845 83.6441 67 83.6441C23.1552 83.6441 26.2908 83.7781 25.192 81.9557C24.6828 81.1249 24.656 80.4549 24.656 60.2477V39.4241H28.4884H32.3208L32.6424 40.9785ZM49.9552 44.4089C50.652 44.6501 51.8044 45.4005 52.5816 46.1241L53.9752 47.3837L52.7692 48.0805C49.6604 49.8761 45.5868 50.0905 42.3172 48.5897C41.3256 48.1609 40.468 47.6785 40.3876 47.5445C40.066 47.0085 42.4244 45.0253 44.1128 44.4089C45.5332 43.8729 48.4008 43.8729 49.9552 44.4089ZM130.972 98.4913C130.73 101.681 129.283 103.932 126.496 105.379L125.29 106.022H67H8.71L7.504 105.379C4.7168 103.932 3.2696 101.681 3.0284 98.4913L2.8676 96.5081H67H131.132L130.972 98.4913ZM76.2996 109.694C76.246 110.042 75.9512 111.087 75.6832 112.052C75.3348 113.285 75.2008 114.705 75.2008 116.876C75.2008 119.771 75.2812 120.307 76.2728 123.764L76.4336 124.38H67.0268C61.8544 124.38 57.62 124.3 57.62 124.166C57.62 124.059 57.888 123.201 58.2096 122.236C59.0672 119.69 59.0672 114.357 58.2096 111.436C57.888 110.31 57.62 109.319 57.62 109.238C57.62 109.158 61.8544 109.104 67.0268 109.104H76.4336L76.2996 109.694Z" fill="#CAC8C8" stroke="#040019" stroke-width="0.8" mask="url(#path-1-inside-1_188_816)"/>
<path d="M36.8709 14.2544L36.8726 14.2533C39.2153 12.6828 39.6182 9.79361 37.8253 7.74424C36.4583 6.19698 34.4059 5.71537 32.6417 6.4824C32.0364 6.74731 31.4386 7.25178 30.9648 7.8651C30.4911 8.47834 30.1539 9.18418 30.0529 9.83941C29.4876 13.7242 33.7008 16.4275 36.8709 14.2544ZM34.5325 8.70605C34.9153 8.7397 35.2609 8.99685 35.6513 9.4003C36.0386 9.77451 36.2952 10.0983 36.3415 10.4647C36.3886 10.8374 36.2119 11.1944 35.9149 11.613C35.6244 12.0316 35.0506 12.245 34.5161 12.2839C33.9845 12.3226 33.3936 12.1952 33.078 11.8135C32.7678 11.441 32.66 10.9339 32.715 10.4569C32.7701 9.97938 32.9913 9.50499 33.375 9.19801C33.7822 8.87227 34.1446 8.67195 34.5325 8.70605Z" fill="#CAC8C8" stroke="#040019" stroke-width="0.4"/>
<path d="M45.2382 6.48288L45.2362 6.4837C44.7379 6.69548 44.2127 7.12057 43.7637 7.6574C43.3157 8.19309 42.9557 8.82566 42.7772 9.43764L42.7772 9.43764L42.7767 9.43939C41.8043 12.6634 44.985 15.8441 48.2091 14.8718L48.2098 14.8715C51.0666 14.0222 52.3685 10.9177 50.9602 8.38114C49.8576 6.45936 47.287 5.58652 45.2382 6.48288ZM48.2956 9.31538C48.6708 9.66285 48.908 10.007 48.945 10.4015C48.9818 10.7941 48.8152 11.1846 48.5114 11.613C48.2366 12.0155 47.6933 12.2373 47.1764 12.2939C46.6598 12.3506 46.0834 12.2514 45.7402 11.9083C45.397 11.5651 45.2979 10.9886 45.3545 10.4721C45.4112 9.95486 45.6332 9.41132 46.036 9.13665C46.447 8.84905 46.8103 8.68099 47.1899 8.70986C47.5685 8.73867 47.9125 8.9597 48.2956 9.31538Z" fill="#CAC8C8" stroke="#040019" stroke-width="0.4"/>
<path d="M57.763 6.5582L57.7608 6.55927C56.9217 6.96611 56.2066 7.72215 55.747 8.60247C55.2872 9.48321 55.0938 10.4676 55.2697 11.3231C55.4734 12.2769 56.0952 13.2259 56.8984 13.938C57.7034 14.6518 58.6631 15.1037 59.5227 15.1037C61.2142 15.1037 62.9427 14.0489 63.7672 12.4781C64.0264 11.9714 64.1392 11.2338 64.0968 10.4571C64.0545 9.68259 63.8592 8.89642 63.5288 8.299C62.456 6.38382 59.7591 5.56017 57.763 6.5582ZM60.9774 9.26629C61.5817 9.87067 61.6918 10.6298 61.4059 11.2442C61.1216 11.8549 60.4628 12.2877 59.6031 12.2877C59.0692 12.2877 58.6418 12.1347 58.3542 11.7905C58.0729 11.4537 57.956 10.9692 57.956 10.3725C57.956 9.93504 58.211 9.51 58.5511 9.20242C58.8932 8.89307 59.3544 8.67171 59.8175 8.67171C60 8.67171 60.2155 8.74972 60.41 8.85225C60.61 8.95773 60.8143 9.10324 60.9774 9.26629Z" fill="#CAC8C8" stroke="#040019" stroke-width="0.4"/>
<path d="M99.2153 7.1664L99.2154 7.16643L99.2126 7.17015C99.1105 7.30625 99.0118 7.51748 98.9385 7.75011C98.8654 7.982 98.8238 8.21562 98.8238 8.39015C98.8238 8.55899 98.8175 8.70862 98.7897 8.83345C98.7609 8.96329 98.7053 9.08248 98.5961 9.17158C98.4918 9.2567 98.3613 9.2952 98.2231 9.31542C98.0843 9.33572 97.9141 9.34055 97.7126 9.34055C97.2195 9.34055 96.8908 9.46068 96.6839 9.6648C96.4776 9.86843 96.3582 10.1898 96.3582 10.6682C96.3582 11.0406 96.5016 11.3382 96.7517 11.5462C97.0055 11.7571 97.3851 11.8886 97.8734 11.8886C98.0365 11.8886 98.181 11.895 98.3028 11.9204C98.4275 11.9464 98.5444 11.9954 98.6354 12.0922C98.7253 12.1876 98.7698 12.3081 98.7936 12.4364C98.8173 12.5634 98.8238 12.7161 98.8238 12.8926C98.8238 13.2906 99.0074 13.715 99.2881 14.042C99.5714 14.372 99.9228 14.5686 100.232 14.5686C100.541 14.5686 100.892 14.372 101.176 14.042C101.456 13.715 101.64 13.2906 101.64 12.8926C101.64 12.7158 101.646 12.564 101.669 12.4379C101.691 12.3112 101.733 12.1922 101.817 12.0969C101.904 11.999 102.015 11.9481 102.135 11.9211C102.251 11.895 102.387 11.8886 102.537 11.8886C103.092 11.8886 103.466 11.7778 103.699 11.5858C103.924 11.4003 104.052 11.1107 104.052 10.6682C104.052 10.1196 103.952 9.8068 103.769 9.62368C103.586 9.44055 103.273 9.34055 102.724 9.34055C102.529 9.34055 102.364 9.33573 102.228 9.31528C102.093 9.29488 101.965 9.25588 101.862 9.16991C101.755 9.08046 101.701 8.96154 101.673 8.83268C101.646 8.70833 101.64 8.55913 101.64 8.39015C101.64 7.36651 101 6.66055 100.232 6.66055C99.8105 6.66055 99.4438 6.84657 99.2153 7.1664Z" fill="#CAC8C8" stroke="#040019" stroke-width="0.4"/>
<path d="M90.7825 11.4732L90.7824 11.4731L90.7847 11.4706C91.2879 10.9195 91.2913 10.1611 90.8213 9.71352L90.821 9.71379L90.8127 9.70478C90.7712 9.66017 90.675 9.59603 90.3685 9.54016C90.0663 9.48507 89.595 9.44354 88.8441 9.41343C87.3449 9.35333 84.77 9.33989 80.2928 9.33989C75.8828 9.33989 73.3076 9.35332 71.7981 9.4101C71.0419 9.43854 70.5622 9.4776 70.256 9.52931C69.9416 9.5824 69.8576 9.64247 69.8335 9.67014C69.6349 9.91406 69.5403 10.2995 69.568 10.6867C69.5958 11.0756 69.7422 11.4108 69.959 11.5781C69.9764 11.5898 70.0231 11.6123 70.124 11.6373C70.2248 11.6623 70.3643 11.6862 70.553 11.7084C70.9301 11.7526 71.4854 11.7875 72.283 11.8143C73.8771 11.8678 76.4198 11.8879 80.4 11.8879C85.1195 11.8879 87.6461 11.8811 89.044 11.8177C89.7452 11.7859 90.1474 11.7403 90.3957 11.6789C90.6302 11.6209 90.7119 11.5532 90.7825 11.4732Z" fill="#CAC8C8" stroke="#040019" stroke-width="0.4"/>
<path d="M69.0054 49.7778L69.0054 49.7778L69.006 49.7786L69.4552 50.3459H84.688H99.9209L100.37 49.7786L100.371 49.7778C100.689 49.3801 100.808 49.1199 100.806 48.9033C100.803 48.6939 100.685 48.4678 100.359 48.1413C100.296 48.0785 100.247 48.0348 100.18 47.9967C100.112 47.9582 100.017 47.9201 99.8593 47.8853C99.5384 47.8144 98.9953 47.7643 97.9842 47.7308C95.9685 47.6639 92.1543 47.6639 84.688 47.6639C77.2218 47.6639 73.4076 47.6639 71.3918 47.7308C70.3807 47.7643 69.8377 47.8144 69.5167 47.8853C69.3592 47.9201 69.2637 47.9582 69.1961 47.9967C69.1294 48.0348 69.0802 48.0785 69.0174 48.1413C68.691 48.4678 68.5726 48.6939 68.5702 48.9033C68.5677 49.1199 68.6873 49.3801 69.0054 49.7778Z" fill="#CAC8C8" stroke="#040019" stroke-width="0.4"/>
<path d="M65.5697 60.8491L65.5694 60.8496C65.2557 61.4508 65.0982 61.8154 65.0046 62.6488C64.9088 63.501 64.8819 64.8287 64.8416 67.3531L64.8416 67.3535C64.788 70.358 64.8224 72.1884 65.0464 73.4866C65.2675 74.7677 65.6727 75.5269 66.3762 76.3871C66.8397 76.927 67.8066 77.6591 68.5315 77.9957L68.5315 77.9957L68.5324 77.9961L69.8588 78.6203H84.6881H99.5173L100.844 77.9961L100.845 77.9957C101.57 77.6591 102.536 76.927 103 76.3871C103.703 75.5269 104.109 74.7678 104.33 73.4866C104.554 72.1884 104.588 70.358 104.534 67.3535L104.534 67.3531C104.494 64.8151 104.467 63.4879 104.368 62.6361C104.272 61.804 104.108 61.4398 103.781 60.8242L103.781 60.8243L103.778 60.8198C103.418 60.0982 102.827 59.3885 102.14 58.8059C101.453 58.2236 100.681 57.7784 99.9652 57.5733C99.9068 57.5585 99.7692 57.5403 99.5375 57.522C99.3093 57.504 99.0047 57.4867 98.6255 57.4704C97.8675 57.4379 96.8175 57.4094 95.4983 57.386C92.8602 57.3391 89.1497 57.3123 84.5541 57.3123C78.7517 57.3257 75.0826 57.3525 72.7605 57.4127C71.5992 57.4429 70.778 57.4813 70.1968 57.5302C69.6108 57.5795 69.2851 57.6385 69.1039 57.7028C67.6529 58.221 66.3246 59.3912 65.5697 60.8491ZM99.8627 60.3891L99.8628 60.3889L99.8706 60.393C100.096 60.5132 100.353 60.7224 100.587 60.953C100.822 61.1851 101.047 61.4509 101.204 61.6937L101.204 61.6936L101.206 61.6968C101.467 62.1179 101.608 62.4916 101.684 63.3628C101.759 64.221 101.772 65.5846 101.772 67.9931C101.772 70.4284 101.759 71.792 101.684 72.6469C101.647 73.0763 101.593 73.3862 101.515 73.6441C101.435 73.9045 101.333 74.1042 101.208 74.3136L101.207 74.3152C101.198 74.3284 101.19 74.3416 101.182 74.3547C100.942 74.7467 100.734 75.0871 100.325 75.3413C99.9073 75.6002 99.3016 75.7591 98.2792 75.8636C96.2356 76.0723 92.3967 76.0723 84.7219 76.0723H84.6881H84.6542C76.9794 76.0723 73.1405 76.0723 71.0969 75.8636C70.0745 75.7591 69.4688 75.6002 69.0516 75.3413C68.6421 75.0871 68.4337 74.7467 68.1937 74.3547C68.1857 74.3416 68.1776 74.3284 68.1695 74.3152L68.1695 74.3152L68.1686 74.3136C68.0429 74.1042 67.9406 73.9045 67.8614 73.6436C67.783 73.3853 67.7294 73.0745 67.6919 72.6435C67.6173 71.7853 67.6041 70.415 67.6041 67.9663C67.6041 65.1619 67.6232 63.6306 67.8053 62.6793C67.8977 62.1961 68.0342 61.8486 68.2392 61.5544C68.4415 61.264 68.7023 61.038 69.0184 60.7891C69.5442 60.3543 70.2196 60.1483 72.3938 60.0415C74.5811 59.9339 78.3395 59.9273 85.0904 59.9407L85.091 59.9407C90.8123 59.9675 94.3323 60.001 96.4993 60.0647C97.5824 60.0966 98.3316 60.1361 98.8503 60.1866C99.3608 60.2363 99.6732 60.2984 99.8627 60.3891Z" fill="#CAC8C8" stroke="#040019" stroke-width="0.4"/>
<path d="M30.0212 60.5866L30.0213 60.5865L30.0264 60.5919L30.6106 61.2004H43.8717C51.1961 61.2004 54.8391 61.2001 56.6716 61.0105C57.1279 60.9633 57.4632 60.9051 57.7112 60.835C57.9595 60.7648 58.1081 60.6858 58.2013 60.6049C58.3777 60.4518 58.4043 60.2548 58.4393 59.8553L58.4394 59.8541C58.4424 59.8228 58.4453 59.7926 58.4481 59.7633C58.4653 59.5839 58.479 59.4417 58.4737 59.3162C58.4678 59.1773 58.4388 59.0843 58.3797 59.0096C58.3181 58.932 58.2044 58.8498 57.9809 58.7743C57.7574 58.6987 57.441 58.6354 56.9943 58.5841C55.2527 58.3841 51.7077 58.3842 44.5551 58.3844C44.3395 58.3844 44.1207 58.3844 43.8985 58.3844C37.2631 58.3844 33.858 58.3911 32.0473 58.4613C31.139 58.4965 30.6475 58.5473 30.3544 58.6165C30.2108 58.6503 30.1223 58.687 30.0589 58.724C29.9961 58.7606 29.9488 58.8025 29.8896 58.8618C29.5548 59.1966 29.4373 59.4511 29.452 59.6826C29.4671 59.9226 29.6271 60.2056 30.0212 60.5866Z" fill="#CAC8C8" stroke="#040019" stroke-width="0.4"/>
<path d="M30.1243 66.6921L29.729 67.2966C29.5244 67.6242 29.4568 67.7738 29.4522 67.906C29.4477 68.0371 29.5041 68.1839 29.6815 68.5117L30.0248 69.1068L43.8724 69.1865C43.8725 69.1865 43.8726 69.1865 43.8726 69.1865C44.3959 69.1884 44.9006 69.1902 45.3874 69.192C51.99 69.2161 55.3048 69.2281 56.9714 69.0702C57.4171 69.0279 57.7345 68.9743 57.9611 68.9088C58.1883 68.8432 58.3069 68.7704 58.3726 68.7017C58.434 68.6377 58.4661 68.56 58.4813 68.4422C58.4943 68.3422 58.4936 68.2315 58.4926 68.0905C58.4924 68.0515 58.4921 68.0102 58.4921 67.9661C58.4921 67.9256 58.4923 67.8875 58.4925 67.8513C58.4934 67.7094 58.494 67.5986 58.4805 67.4986C58.465 67.3832 58.4327 67.3059 58.3706 67.2414C58.3039 67.1723 58.1844 67.0989 57.9573 67.0321C57.7309 66.9655 57.4142 66.91 56.9703 66.8653C55.248 66.6918 51.764 66.6919 44.7061 66.6921C44.4591 66.6921 44.2079 66.6921 43.9521 66.6921H30.1243Z" fill="#CAC8C8" stroke="#040019" stroke-width="0.4"/>
<path d="M29.806 75.5023L29.806 75.5023L29.8046 75.5043C29.5257 75.9028 29.4295 76.1479 29.4417 76.349C29.4537 76.5455 29.5733 76.7546 29.8894 77.0706C29.9486 77.1299 29.9958 77.1718 30.0588 77.2083C30.1224 77.2453 30.2114 77.282 30.356 77.3159C30.6513 77.3851 31.1471 77.4359 32.0638 77.4711C33.8913 77.5413 37.3299 77.548 44.0324 77.548C50.5334 77.548 53.9794 77.5413 55.8511 77.4778C56.7895 77.446 57.319 77.4001 57.6363 77.3371C57.7933 77.3059 57.8887 77.2722 57.952 77.2395C58.0115 77.2087 58.0491 77.1756 58.0864 77.1333L58.0864 77.1333L58.0884 77.1311C58.3193 76.8771 58.4541 76.5019 58.4755 76.1318C58.4968 75.7649 58.4048 75.4488 58.24 75.2745C58.2362 75.2729 58.2305 75.2707 58.2227 75.2681C58.1935 75.2585 58.1483 75.2472 58.0827 75.2354C57.9521 75.2119 57.7608 75.1896 57.498 75.169C56.9737 75.128 56.1843 75.0955 55.0695 75.0703C52.8409 75.0202 49.3255 75 44.0592 75H30.1485L29.806 75.5023Z" fill="#CAC8C8" stroke="#040019" stroke-width="0.4"/>
</svg>
