<svg width="34" height="35" viewBox="0 0 34 35" fill="none" xmlns="http://www.w3.org/2000/svg">
<path d="M1.2583 17.3394C1.2583 26.1758 8.42174 33.3394 17.2583 33.3394C26.0948 33.3394 33.2583 26.1758 33.2583 17.3394C33.2583 8.5028 26.0948 1.33936 17.2583 1.33936C8.42174 1.33936 1.2583 8.5028 1.2583 17.3394Z" stroke="#1A0493" stroke-width="1.5" stroke-linecap="round" stroke-linejoin="round"/>
<path d="M18.8584 1.41895C18.8584 1.41895 23.6584 7.73994 23.6584 17.3399C23.6584 26.9399 18.8584 33.261 18.8584 33.261" stroke="#1A0493" stroke-width="1.5" stroke-linecap="round" stroke-linejoin="round"/>
<path d="M15.6584 33.261C15.6584 33.261 10.8584 26.9399 10.8584 17.3399C10.8584 7.73994 15.6584 1.41895 15.6584 1.41895" stroke="#1A0493" stroke-width="1.5" stroke-linecap="round" stroke-linejoin="round"/>
<path d="M2.26611 22.9395H32.2513" stroke="#1A0493" stroke-width="1.5" stroke-linecap="round" stroke-linejoin="round"/>
<path d="M2.26611 11.739H32.2513" stroke="#1A0493" stroke-width="1.5" stroke-linecap="round" stroke-linejoin="round"/>
</svg>
